<?xml version="1.0" encoding="UTF-8" standalone="no"?>
<!-- Generator: Adobe Illustrator 19.0.0, SVG Export Plug-In . SVG Version: 6.00 Build 0)  -->

<svg
   xmlns:dc="http://purl.org/dc/elements/1.1/"
   xmlns:cc="http://creativecommons.org/ns#"
   xmlns:rdf="http://www.w3.org/1999/02/22-rdf-syntax-ns#"
   xmlns:svg="http://www.w3.org/2000/svg"
   xmlns="http://www.w3.org/2000/svg"
   xmlns:sodipodi="http://sodipodi.sourceforge.net/DTD/sodipodi-0.dtd"
   xmlns:inkscape="http://www.inkscape.org/namespaces/inkscape"
   version="1.1"
   id="Layer_1"
   x="0px"
   y="0px"
   viewBox="0 0 407.86441 407.86441"
   xml:space="preserve"
   inkscape:version="0.91 r13725"
   sodipodi:docname="anillos-de-boda.svg"
   width="407.86441"
   height="407.86441"><metadata
     id="metadata5442"><rdf:RDF><cc:Work
         rdf:about=""><dc:format>image/svg+xml</dc:format><dc:type
           rdf:resource="http://purl.org/dc/dcmitype/StillImage" /><dc:title></dc:title></cc:Work></rdf:RDF></metadata><defs
     id="defs5440" /><sodipodi:namedview
     pagecolor="#ffffff"
     bordercolor="#666666"
     borderopacity="1"
     objecttolerance="10"
     gridtolerance="10"
     guidetolerance="10"
     inkscape:pageopacity="0"
     inkscape:pageshadow="2"
     inkscape:window-width="1366"
     inkscape:window-height="705"
     id="namedview5438"
     showgrid="false"
     fit-margin-top="0"
     fit-margin-left="0"
     fit-margin-right="0"
     fit-margin-bottom="0"
     inkscape:zoom="0.4609375"
     inkscape:cx="-193.17798"
     inkscape:cy="200.71821"
     inkscape:window-x="-8"
     inkscape:window-y="-8"
     inkscape:window-maximized="1"
     inkscape:current-layer="Layer_1" /><circle
     style="fill:#aae573;fill-opacity:0.54666668"
     cx="203.93221"
     cy="203.93221"
     r="203.93221"
     id="circle4793" /><g
     id="g7190"
     transform="translate(47.919205,64.92421)"><path
       inkscape:connector-curvature="0"
       id="path5400"
       d="M 117.224,19.394 C 117.224,5.975 125.907,0 136.618,0 147.329,0 156.012,8.683 156.012,19.394 156.012,8.683 164.695,0 175.406,0 186.117,0 194.8,8.326 194.8,19.394 c 0,27.133 -38.788,42.02 -38.788,42.02 0,0 -38.788,-14.693 -38.788,-42.02 z"
       style="fill:#ff314f" /><path
       inkscape:connector-curvature="0"
       id="path5402"
       d="M 156.012,19.394 C 156.012,8.683 164.695,0 175.406,0 186.117,0 194.8,8.326 194.8,19.394 c 0,27.133 -38.788,42.02 -38.788,42.02 l 0,-42.02 z"
       style="fill:#a30f44" /><path
       inkscape:connector-curvature="0"
       id="path5404"
       d="M 94.205,278.016 C 42.26,278.016 0,235.754 0,183.811 0,131.868 42.262,89.606 94.205,89.606 c 51.946,0 94.206,42.262 94.206,94.205 0,51.943 -42.259,94.205 -94.206,94.205 z m 0,-169.446 c -41.488,0 -75.242,33.754 -75.242,75.242 0,41.488 33.754,75.242 75.242,75.242 41.489,0 75.243,-33.754 75.243,-75.242 0,-41.488 -33.754,-75.242 -75.243,-75.242 z"
       style="fill:#ffc61b" /><path
       inkscape:connector-curvature="0"
       id="path5406"
       d="m 217.821,278.016 c -51.946,0 -94.206,-42.262 -94.206,-94.205 0,-51.943 42.262,-94.205 94.206,-94.205 51.944,0 94.205,42.262 94.205,94.205 0,51.943 -42.26,94.205 -94.205,94.205 z m 0,-169.446 c -41.489,0 -75.243,33.754 -75.243,75.242 0,41.488 33.754,75.242 75.243,75.242 41.487,0 75.242,-33.754 75.242,-75.242 0,-41.488 -33.754,-75.242 -75.242,-75.242 z"
       style="fill:#eaa22f" /></g><g
     id="g5408"
     transform="translate(-48.906795,-48.85379)" /><g
     id="g5410"
     transform="translate(-48.906795,-48.85379)" /><g
     id="g5412"
     transform="translate(-48.906795,-48.85379)" /><g
     id="g5414"
     transform="translate(-48.906795,-48.85379)" /><g
     id="g5416"
     transform="translate(-48.906795,-48.85379)" /><g
     id="g5418"
     transform="translate(-48.906795,-48.85379)" /><g
     id="g5420"
     transform="translate(-48.906795,-48.85379)" /><g
     id="g5422"
     transform="translate(-48.906795,-48.85379)" /><g
     id="g5424"
     transform="translate(-48.906795,-48.85379)" /><g
     id="g5426"
     transform="translate(-48.906795,-48.85379)" /><g
     id="g5428"
     transform="translate(-48.906795,-48.85379)" /><g
     id="g5430"
     transform="translate(-48.906795,-48.85379)" /><g
     id="g5432"
     transform="translate(-48.906795,-48.85379)" /><g
     id="g5434"
     transform="translate(-48.906795,-48.85379)" /><g
     id="g5436"
     transform="translate(-48.906795,-48.85379)" /></svg>