<?xml version="1.0" encoding="UTF-8" standalone="no"?>
<!-- Created with Inkscape (http://www.inkscape.org/) -->

<svg
   xmlns:dc="http://purl.org/dc/elements/1.1/"
   xmlns:cc="http://creativecommons.org/ns#"
   xmlns:rdf="http://www.w3.org/1999/02/22-rdf-syntax-ns#"
   xmlns:svg="http://www.w3.org/2000/svg"
   xmlns="http://www.w3.org/2000/svg"
   xmlns:sodipodi="http://sodipodi.sourceforge.net/DTD/sodipodi-0.dtd"
   xmlns:inkscape="http://www.inkscape.org/namespaces/inkscape"
   width="144.49777mm"
   height="144.49777mm"
   viewBox="0 0 511.99998 511.99998"
   id="svg15554"
   version="1.1"
   inkscape:version="0.91 r13725"
   sodipodi:docname="ceremonia.svg">
  <defs
     id="defs15556" />
  <sodipodi:namedview
     id="base"
     pagecolor="#ffffff"
     bordercolor="#666666"
     borderopacity="1.0"
     inkscape:pageopacity="0.0"
     inkscape:pageshadow="2"
     inkscape:zoom="0.35"
     inkscape:cx="-296.14284"
     inkscape:cy="-55.430579"
     inkscape:document-units="px"
     inkscape:current-layer="layer1"
     showgrid="false"
     fit-margin-top="0"
     fit-margin-left="0"
     fit-margin-right="0"
     fit-margin-bottom="0"
     inkscape:window-width="1366"
     inkscape:window-height="705"
     inkscape:window-x="-8"
     inkscape:window-y="-8"
     inkscape:window-maximized="1" />
  <metadata
     id="metadata15559">
    <rdf:RDF>
      <cc:Work
         rdf:about="">
        <dc:format>image/svg+xml</dc:format>
        <dc:type
           rdf:resource="http://purl.org/dc/dcmitype/StillImage" />
        <dc:title></dc:title>
      </cc:Work>
    </rdf:RDF>
  </metadata>
  <g
     inkscape:label="Capa 1"
     inkscape:groupmode="layer"
     id="layer1"
     transform="translate(-12.571411,35.068375)">
    <circle
       style="fill:#386895"
       cx="268.57141"
       cy="220.93163"
       r="256"
       id="circle16223" />
    <g
       id="g16247"
       transform="translate(12.569411,-35.06837)" />
    <g
       id="g16249"
       transform="translate(12.569411,-35.06837)" />
    <g
       id="g16251"
       transform="translate(12.569411,-35.06837)" />
    <g
       id="g16253"
       transform="translate(12.569411,-35.06837)" />
    <g
       id="g16255"
       transform="translate(12.569411,-35.06837)" />
    <g
       id="g16257"
       transform="translate(12.569411,-35.06837)" />
    <g
       id="g16259"
       transform="translate(12.569411,-35.06837)" />
    <g
       id="g16261"
       transform="translate(12.569411,-35.06837)" />
    <g
       id="g16263"
       transform="translate(12.569411,-35.06837)" />
    <g
       id="g16265"
       transform="translate(12.569411,-35.06837)" />
    <g
       id="g16267"
       transform="translate(12.569411,-35.06837)" />
    <g
       id="g16269"
       transform="translate(12.569411,-35.06837)" />
    <g
       id="g16271"
       transform="translate(12.569411,-35.06837)" />
    <g
       id="g16273"
       transform="translate(12.569411,-35.06837)" />
    <g
       id="g16275"
       transform="translate(12.569411,-35.06837)" />
    <g
       id="g16431"
       transform="matrix(0.85586885,0,0,0.82636263,70.009838,29.215495)">
      <g
         id="g16313">
        <rect
           id="rect16315"
           height="32"
           width="16"
           style="fill:#d2504b"
           y="432"
           x="408" />
        <rect
           id="rect16317"
           height="32"
           width="16"
           style="fill:#d2504b"
           y="432"
           x="40" />
        <path
           id="path16319"
           d="m 57.649,199.959 c -0.834,0.012 -1.669,0.031 -2.503,0.031 -0.011,0 -0.022,0.01 -0.033,0.01 L 56,200 c 0.468,0 1.02,0.042 1.626,0.12 0.008,-0.054 0.016,-0.107 0.023,-0.161 z"
           style="fill:#d2504b"
           inkscape:connector-curvature="0" />
        <path
           id="path16321"
           d="M 197.299,25.617 C 125.173,35.398 65.631,85.451 42.061,152.278 45.478,153.188 48,156.295 48,160 c 0,2.315 -0.985,6.597 -2.557,10.149 0.141,0.131 0.277,0.267 0.408,0.408 C 49.403,168.985 53.685,168 56,168 c 4.418,0 8,3.582 8,8 0,4.418 -3.582,8 -8,8 -2.315,0 -6.597,-0.985 -10.149,-2.557 -0.131,0.141 -0.267,0.276 -0.408,0.408 1.572,3.552 2.557,7.834 2.557,10.149 0,4.418 -3.582,8 -8,8 -3.559,0 -6.571,-2.325 -7.61,-5.538 -0.14,1.247 -0.274,2.496 -0.39,3.75 0,0.635 0.009,1.172 0.01,1.789 l -0.01,0 0,8 c 4.418,0 8,3.582 8,8 0,2.315 -0.985,6.597 -2.557,10.149 0.141,0.131 0.277,0.267 0.408,0.408 C 41.403,224.985 45.685,224 48,224 c 4.418,0 8,3.582 8,8 0,4.418 -3.582,8 -8,8 -2.315,0 -6.597,-0.985 -10.149,-2.557 -0.131,0.141 -0.267,0.276 -0.408,0.408 1.572,3.552 2.557,7.834 2.557,10.149 0,4.418 -3.582,8 -8,8 l 0,176 8,0 16,0 32,0 L 58.18,215.802 C 57.351,215.93 56.607,216 56,216 c -4.418,0 -8,-3.582 -8,-8 0,-4.418 3.582,-8 8,-8 l -0.887,0 c 0.011,0 0.022,-0.01 0.033,-0.01 0.834,0 1.669,-0.019 2.503,-0.031 2.647,-0.039 5.292,-0.138 7.936,-0.297 C 64.59,196.764 64,193.792 64,192 c 0,-4.418 3.582,-8 8,-8 4.418,0 8,3.582 8,8 0,1.526 -0.428,3.909 -1.17,6.373 C 146.449,189.265 209.991,142.314 232,80.301 229.784,74.057 227.996,67.66 226.66,61.134 213.218,53.081 199.99,38.771 197.299,25.617 Z"
           style="fill:#ffd7b4"
           inkscape:connector-curvature="0" />
        <path
           id="path16323"
           d="m 34.281,181.588 c -0.098,0.539 -0.19,1.08 -0.284,1.621 0.177,-0.46 0.364,-0.915 0.56,-1.358 -0.093,-0.086 -0.187,-0.172 -0.276,-0.263 z"
           style="fill:#ffd7b4"
           inkscape:connector-curvature="0" />
        <path
           id="path16325"
           d="m 424,248 c 0,-2.315 0.985,-6.597 2.557,-10.149 -0.141,-0.131 -0.277,-0.267 -0.408,-0.408 -3.552,1.572 -7.834,2.557 -10.149,2.557 -4.418,0 -8,-3.582 -8,-8 0,-4.418 3.582,-8 8,-8 2.315,0 6.597,0.985 10.149,2.557 0.131,-0.141 0.267,-0.276 0.408,-0.408 C 424.985,222.597 424,218.315 424,216 c 0,-4.418 3.582,-8 8,-8 l 0,-8 -0.01,0 c 10e-4,-0.616 0.01,-1.154 0.01,-1.789 -0.116,-1.254 -0.25,-2.502 -0.39,-3.75 -1.039,3.213 -4.051,5.538 -7.61,5.538 -4.418,0 -8,-3.582 -8,-8 0,-2.315 0.985,-6.597 2.557,-10.149 -0.141,-0.131 -0.277,-0.267 -0.408,-0.408 -3.552,1.573 -7.834,2.558 -10.149,2.558 -4.418,0 -8,-3.582 -8,-8 0,-4.418 3.582,-8 8,-8 2.315,0 6.597,0.985 10.149,2.557 0.131,-0.141 0.267,-0.276 0.408,-0.408 C 416.985,166.597 416,162.315 416,160 c 0,-3.705 2.522,-6.812 5.939,-7.722 C 398.369,85.451 338.827,35.398 266.701,25.617 263.653,40.517 247.084,56.909 232,64 c -1.768,-0.831 -3.555,-1.796 -5.34,-2.866 1.336,6.525 3.124,12.923 5.34,19.167 22.009,62.013 85.551,108.964 153.17,118.072 -0.742,-2.464 -1.17,-4.846 -1.17,-6.373 0,-4.418 3.582,-8 8,-8 4.418,0 8,3.582 8,8 0,1.792 -0.59,4.764 -1.585,7.662 2.644,0.159 5.29,0.258 7.936,0.297 0.834,0.012 1.669,0.031 2.503,0.031 0.011,0 0.022,0.01 0.033,0.01 L 408,200 c 4.418,0 8,3.582 8,8 0,4.418 -3.582,8 -8,8 -0.607,0 -1.351,-0.07 -2.18,-0.198 L 376,432 l 32,0 16,0 8,0 0,-176 c -4.418,0 -8,-3.582 -8,-8 z"
           style="fill:#ffe6d2"
           inkscape:connector-curvature="0" />
        <path
           id="path16327"
           d="m 429.443,181.851 c 0.196,0.443 0.383,0.897 0.56,1.358 -0.094,-0.541 -0.186,-1.082 -0.284,-1.621 -0.089,0.091 -0.183,0.177 -0.276,0.263 z"
           style="fill:#ffe6d2"
           inkscape:connector-curvature="0" />
        <path
           id="path16329"
           d="m 397.443,202.149 c 0.355,-0.802 0.681,-1.641 0.972,-2.487 0.996,-2.898 1.585,-5.87 1.585,-7.662 0,-4.418 -3.582,-8 -8,-8 -4.418,0 -8,3.582 -8,8 0,1.526 0.428,3.909 1.17,6.373 0.383,1.273 0.851,2.566 1.387,3.776 1.428,-1.33 3.338,-2.149 5.443,-2.149 2.105,0 4.015,0.819 5.443,2.149 z"
           style="fill:#d2504b"
           inkscape:connector-curvature="0" />
        <path
           id="path16331"
           d="M 386.557,213.851 C 384.985,217.403 384,221.685 384,224 c 0,4.418 3.582,8 8,8 4.418,0 8,-3.582 8,-8 0,-2.315 -0.985,-6.597 -2.557,-10.149 -1.428,1.33 -3.338,2.149 -5.443,2.149 -2.105,0 -4.015,-0.819 -5.443,-2.149 z"
           style="fill:#d2504b"
           inkscape:connector-curvature="0" />
        <path
           id="path16333"
           d="m 408,216 c 4.418,0 8,-3.582 8,-8 0,-4.418 -3.582,-8 -8,-8 l 0.887,0 c -0.011,0 -0.022,-0.01 -0.033,-0.01 -0.834,0 -1.669,-0.019 -2.503,-0.031 0.007,0.054 0.015,0.107 0.022,0.161 -2.394,0.304 -5.688,1.183 -8.522,2.437 1.329,1.428 2.149,3.338 2.149,5.443 0,2.105 -0.82,4.015 -2.149,5.443 2.622,1.16 5.636,1.999 7.969,2.359 0.829,0.128 1.573,0.198 2.18,0.198 z"
           style="fill:#d2504b"
           inkscape:connector-curvature="0" />
        <path
           id="path16335"
           d="M 386.149,202.557 C 382.597,200.985 378.315,200 376,200 c -4.418,0 -8,3.582 -8,8 0,4.418 3.582,8 8,8 2.315,0 6.597,-0.985 10.149,-2.557 C 384.82,212.015 384,210.105 384,208 c 0,-2.105 0.82,-4.015 2.149,-5.443 z"
           style="fill:#d2504b"
           inkscape:connector-curvature="0" />
        <path
           id="path16337"
           d="m 397.851,202.557 c -0.131,-0.141 -0.267,-0.276 -0.408,-0.408 C 396.015,200.819 394.105,200 392,200 c -2.105,0 -4.015,0.819 -5.443,2.149 -0.141,0.131 -0.277,0.267 -0.408,0.408 -1.329,1.428 -2.149,3.338 -2.149,5.443 0,2.105 0.82,4.015 2.149,5.443 0.131,0.141 0.267,0.276 0.408,0.408 1.428,1.33 3.338,2.149 5.443,2.149 2.105,0 4.015,-0.819 5.443,-2.149 0.141,-0.131 0.277,-0.267 0.408,-0.408 1.329,-1.428 2.149,-3.338 2.149,-5.443 0,-2.105 -0.82,-4.015 -2.149,-5.443 z"
           style="fill:#be3c3c"
           inkscape:connector-curvature="0" />
        <path
           id="path16339"
           d="m 416,160 c 0,2.315 0.985,6.597 2.557,10.149 1.428,-1.33 3.338,-2.149 5.443,-2.149 2.105,0 4.015,0.819 5.443,2.149 1.572,-3.552 2.557,-7.834 2.557,-10.149 0,-4.418 -3.582,-8 -8,-8 -0.714,0 -1.402,0.103 -2.061,0.278 -3.417,0.91 -5.939,4.017 -5.939,7.722 z"
           style="fill:#d2504b"
           inkscape:connector-curvature="0" />
        <path
           id="path16341"
           d="m 424,184 c -2.105,0 -4.015,-0.819 -5.443,-2.149 -1.572,3.552 -2.557,7.834 -2.557,10.149 0,4.418 3.582,8 8,8 3.559,0 6.571,-2.325 7.61,-5.538 0.251,-0.776 0.39,-1.602 0.39,-2.462 0,-2.026 -0.755,-5.559 -1.997,-8.791 -0.177,-0.46 -0.364,-0.915 -0.56,-1.358 -1.428,1.33 -3.338,2.149 -5.443,2.149 z"
           style="fill:#d2504b"
           inkscape:connector-curvature="0" />
        <path
           id="path16343"
           d="m 429.851,181.443 c 3.552,1.572 7.834,2.557 10.149,2.557 4.418,0 8,-3.582 8,-8 0,-4.418 -3.582,-8 -8,-8 -2.315,0 -6.597,0.985 -10.149,2.557 1.329,1.428 2.149,3.338 2.149,5.443 0,2.105 -0.82,4.015 -2.149,5.443 z"
           style="fill:#d2504b"
           inkscape:connector-curvature="0" />
        <path
           id="path16345"
           d="M 418.149,170.557 C 414.597,168.985 410.315,168 408,168 c -4.418,0 -8,3.582 -8,8 0,4.418 3.582,8 8,8 2.315,0 6.597,-0.985 10.149,-2.557 C 416.82,180.015 416,178.105 416,176 c 0,-2.105 0.82,-4.015 2.149,-5.443 z"
           style="fill:#d2504b"
           inkscape:connector-curvature="0" />
        <path
           id="path16347"
           d="m 424,168 c -2.105,0 -4.015,0.819 -5.443,2.149 -0.141,0.131 -0.277,0.267 -0.408,0.408 -1.329,1.428 -2.149,3.338 -2.149,5.443 0,2.105 0.82,4.015 2.149,5.443 0.131,0.141 0.267,0.276 0.408,0.408 1.428,1.33 3.338,2.149 5.443,2.149 2.105,0 4.015,-0.819 5.443,-2.149 0.093,-0.086 0.187,-0.172 0.276,-0.263 0.046,-0.047 0.088,-0.097 0.132,-0.145 1.329,-1.428 2.149,-3.338 2.149,-5.443 0,-2.105 -0.82,-4.015 -2.149,-5.443 -0.131,-0.141 -0.267,-0.276 -0.408,-0.408 C 428.015,168.819 426.105,168 424,168 Z"
           style="fill:#be3c3c"
           inkscape:connector-curvature="0" />
        <path
           id="path16349"
           d="m 424,216 c 0,2.315 0.985,6.597 2.557,10.149 1.428,-1.33 3.338,-2.149 5.443,-2.149 2.105,0 4.015,0.819 5.443,2.149 1.572,-3.552 2.557,-7.834 2.557,-10.149 0,-4.418 -3.582,-8 -8,-8 -4.418,0 -8,3.582 -8,8 z"
           style="fill:#d2504b"
           inkscape:connector-curvature="0" />
        <path
           id="path16351"
           d="M 426.557,237.851 C 424.985,241.403 424,245.685 424,248 c 0,4.418 3.582,8 8,8 4.418,0 8,-3.582 8,-8 0,-2.315 -0.985,-6.597 -2.557,-10.149 -1.428,1.33 -3.338,2.149 -5.443,2.149 -2.105,0 -4.015,-0.819 -5.443,-2.149 z"
           style="fill:#d2504b"
           inkscape:connector-curvature="0" />
        <path
           id="path16353"
           d="m 448,224 c -2.315,0 -6.597,0.985 -10.149,2.557 1.329,1.428 2.149,3.338 2.149,5.443 0,2.105 -0.82,4.015 -2.149,5.443 3.552,1.572 7.834,2.557 10.149,2.557 4.418,0 8,-3.582 8,-8 0,-4.418 -3.582,-8 -8,-8 z"
           style="fill:#d2504b"
           inkscape:connector-curvature="0" />
        <path
           id="path16355"
           d="m 416,224 c -4.418,0 -8,3.582 -8,8 0,4.418 3.582,8 8,8 2.315,0 6.597,-0.985 10.149,-2.557 C 424.82,236.015 424,234.105 424,232 c 0,-2.105 0.82,-4.015 2.149,-5.443 C 422.597,224.985 418.315,224 416,224 Z"
           style="fill:#d2504b"
           inkscape:connector-curvature="0" />
        <path
           id="path16357"
           d="m 437.851,226.557 c -0.131,-0.141 -0.267,-0.276 -0.408,-0.408 C 436.015,224.819 434.105,224 432,224 c -2.105,0 -4.015,0.819 -5.443,2.149 -0.141,0.131 -0.277,0.267 -0.408,0.408 -1.329,1.428 -2.149,3.338 -2.149,5.443 0,2.105 0.82,4.015 2.149,5.443 0.131,0.141 0.267,0.276 0.408,0.408 1.428,1.33 3.338,2.149 5.443,2.149 2.105,0 4.015,-0.819 5.443,-2.149 0.141,-0.131 0.277,-0.267 0.408,-0.408 1.329,-1.428 2.149,-3.338 2.149,-5.443 0,-2.105 -0.82,-4.015 -2.149,-5.443 z"
           style="fill:#be3c3c"
           inkscape:connector-curvature="0" />
        <path
           id="path16359"
           d="m 226.66,61.134 c 1.784,1.069 3.572,2.035 5.34,2.866 15.084,-7.091 31.653,-23.483 34.701,-38.383 0.324,-1.585 0.499,-3.155 0.499,-4.694 C 267.2,9.368 257.962,0 246.566,0 240.88,0 235.732,2.333 232,6.105 228.268,2.333 223.12,0 217.435,0 206.038,0 196.8,9.368 196.8,20.923 c 0,1.539 0.175,3.108 0.499,4.694 2.691,13.154 15.919,27.464 29.361,35.517 z"
           style="fill:#d2504b"
           inkscape:connector-curvature="0" />
        <path
           id="path16361"
           d="m 296,328 -128,0 c -4.418,0 -8,3.582 -8,8 0,4.418 3.582,8 8,8 l 32,0 16,0 32,0 16,0 32,0 c 4.418,0 8,-3.582 8,-8 0,-4.418 -3.582,-8 -8,-8 z"
           style="fill:#f5c873"
           inkscape:connector-curvature="0" />
        <path
           id="path16363"
           d="m 232,360 c -8.824,0 -16,-7.18 -16,-16 l -16,0 c 0,14.886 10.214,27.427 24,30.987 l 0,58.025 c -13.786,3.561 -24,16.101 -24,30.987 l 16,0 c 0,-8.82 7.176,-16 16,-16 8.824,0 16,7.18 16,16 l 16,0 c 0,-14.886 -10.214,-27.427 -24,-30.987 l 0,-58.025 c 13.786,-3.561 24,-16.101 24,-30.987 l -16,0 c 0,8.82 -7.176,16 -16,16 z"
           style="fill:#e6b464"
           inkscape:connector-curvature="0" />
        <path
           id="path16365"
           d="M 37.443,226.149 C 39.015,222.597 40,218.315 40,216 c 0,-4.418 -3.582,-8 -8,-8 -4.418,0 -8,3.582 -8,8 0,2.315 0.985,6.597 2.557,10.149 C 27.985,224.819 29.895,224 32,224 c 2.105,0 4.015,0.819 5.443,2.149 z"
           style="fill:#be3c3c"
           inkscape:connector-curvature="0" />
        <path
           id="path16367"
           d="m 40,248 c 0,-2.315 -0.985,-6.597 -2.557,-10.149 C 36.015,239.181 34.105,240 32,240 29.895,240 27.985,239.181 26.557,237.851 24.985,241.403 24,245.685 24,248 c 0,4.418 3.582,8 8,8 4.418,0 8,-3.582 8,-8 z"
           style="fill:#be3c3c"
           inkscape:connector-curvature="0" />
        <path
           id="path16369"
           d="M 26.149,226.557 C 22.597,224.985 18.315,224 16,224 c -4.418,0 -8,3.582 -8,8 0,4.418 3.582,8 8,8 2.315,0 6.597,-0.985 10.149,-2.557 C 24.82,236.015 24,234.105 24,232 c 0,-2.105 0.82,-4.015 2.149,-5.443 z"
           style="fill:#be3c3c"
           inkscape:connector-curvature="0" />
        <path
           id="path16371"
           d="M 37.851,237.443 C 41.403,239.015 45.685,240 48,240 c 4.418,0 8,-3.582 8,-8 0,-4.418 -3.582,-8 -8,-8 -2.315,0 -6.597,0.985 -10.149,2.557 1.329,1.428 2.149,3.338 2.149,5.443 0,2.105 -0.82,4.015 -2.149,5.443 z"
           style="fill:#be3c3c"
           inkscape:connector-curvature="0" />
        <path
           id="path16373"
           d="m 37.443,237.851 c 0.141,-0.131 0.277,-0.267 0.408,-0.408 C 39.18,236.015 40,234.105 40,232 c 0,-2.105 -0.82,-4.015 -2.149,-5.443 -0.131,-0.141 -0.267,-0.276 -0.408,-0.408 C 36.015,224.819 34.105,224 32,224 c -2.105,0 -4.015,0.819 -5.443,2.149 -0.141,0.131 -0.277,0.267 -0.408,0.408 C 24.82,227.985 24,229.895 24,232 c 0,2.105 0.82,4.015 2.149,5.443 0.131,0.141 0.267,0.276 0.408,0.408 1.428,1.33 3.338,2.149 5.443,2.149 2.105,0 4.015,-0.819 5.443,-2.149 z"
           style="fill:#823c41"
           inkscape:connector-curvature="0" />
        <path
           id="path16375"
           d="m 40,168 c 2.105,0 4.015,0.819 5.443,2.149 C 47.015,166.597 48,162.315 48,160 48,156.295 45.478,153.188 42.061,152.278 41.402,152.103 40.714,152 40,152 c -4.418,0 -8,3.582 -8,8 0,2.315 0.985,6.597 2.557,10.149 C 35.985,168.819 37.895,168 40,168 Z"
           style="fill:#be3c3c"
           inkscape:connector-curvature="0" />
        <path
           id="path16377"
           d="m 40,200 c 4.418,0 8,-3.582 8,-8 0,-2.315 -0.985,-6.597 -2.557,-10.149 C 44.015,183.181 42.105,184 40,184 c -2.105,0 -4.015,-0.819 -5.443,-2.149 -0.196,0.443 -0.383,0.897 -0.56,1.358 C 32.755,186.441 32,189.974 32,192 c 0,0.86 0.139,1.686 0.39,2.462 1.039,3.213 4.051,5.538 7.61,5.538 z"
           style="fill:#be3c3c"
           inkscape:connector-curvature="0" />
        <path
           id="path16379"
           d="M 34.149,170.557 C 30.597,168.985 26.315,168 24,168 c -4.418,0 -8,3.582 -8,8 0,4.418 3.582,8 8,8 2.315,0 6.597,-0.985 10.149,-2.557 C 32.82,180.015 32,178.105 32,176 c 0,-2.105 0.82,-4.015 2.149,-5.443 z"
           style="fill:#be3c3c"
           inkscape:connector-curvature="0" />
        <path
           id="path16381"
           d="m 48,176 c 0,2.105 -0.82,4.015 -2.149,5.443 3.552,1.572 7.834,2.557 10.149,2.557 4.418,0 8,-3.582 8,-8 0,-4.418 -3.582,-8 -8,-8 -2.315,0 -6.597,0.985 -10.149,2.557 C 47.18,171.985 48,173.895 48,176 Z"
           style="fill:#be3c3c"
           inkscape:connector-curvature="0" />
        <path
           id="path16383"
           d="m 34.557,181.851 c 1.428,1.33 3.338,2.149 5.443,2.149 2.105,0 4.015,-0.819 5.443,-2.149 0.141,-0.131 0.277,-0.267 0.408,-0.408 C 47.18,180.015 48,178.105 48,176 c 0,-2.105 -0.82,-4.015 -2.149,-5.443 -0.131,-0.141 -0.267,-0.276 -0.408,-0.408 C 44.015,168.819 42.105,168 40,168 c -2.105,0 -4.015,0.819 -5.443,2.149 -0.141,0.131 -0.277,0.267 -0.408,0.408 C 32.82,171.985 32,173.895 32,176 c 0,2.105 0.82,4.015 2.149,5.443 0.045,0.048 0.086,0.098 0.132,0.145 0.089,0.091 0.183,0.177 0.276,0.263 z"
           style="fill:#823c41"
           inkscape:connector-curvature="0" />
        <path
           id="path16385"
           d="m 72,184 c -4.418,0 -8,3.582 -8,8 0,1.792 0.59,4.764 1.585,7.662 0.291,0.846 0.617,1.685 0.972,2.487 C 67.985,200.819 69.895,200 72,200 c 2.105,0 4.015,0.819 5.443,2.149 0.536,-1.21 1.004,-2.503 1.387,-3.776 0.742,-2.464 1.17,-4.847 1.17,-6.373 0,-4.418 -3.582,-8 -8,-8 z"
           style="fill:#be3c3c"
           inkscape:connector-curvature="0" />
        <path
           id="path16387"
           d="M 66.557,213.851 C 64.985,217.403 64,221.685 64,224 c 0,4.418 3.582,8 8,8 4.418,0 8,-3.582 8,-8 0,-2.315 -0.985,-6.597 -2.557,-10.149 C 76.015,215.181 74.105,216 72,216 c -2.105,0 -4.015,-0.819 -5.443,-2.149 z"
           style="fill:#be3c3c"
           inkscape:connector-curvature="0" />
        <path
           id="path16389"
           d="M 66.149,202.557 C 63.315,201.303 60.021,200.424 57.627,200.12 57.02,200.042 56.468,200 56,200 c -4.418,0 -8,3.582 -8,8 0,4.418 3.582,8 8,8 0.607,0 1.351,-0.07 2.18,-0.198 2.333,-0.36 5.348,-1.199 7.969,-2.359 C 64.82,212.015 64,210.105 64,208 c 0,-2.105 0.82,-4.015 2.149,-5.443 z"
           style="fill:#be3c3c"
           inkscape:connector-curvature="0" />
        <path
           id="path16391"
           d="M 77.851,213.443 C 81.403,215.015 85.685,216 88,216 c 4.418,0 8,-3.582 8,-8 0,-4.418 -3.582,-8 -8,-8 -2.315,0 -6.597,0.985 -10.149,2.557 1.329,1.428 2.149,3.338 2.149,5.443 0,2.105 -0.82,4.015 -2.149,5.443 z"
           style="fill:#be3c3c"
           inkscape:connector-curvature="0" />
        <path
           id="path16393"
           d="m 66.557,202.149 c -0.141,0.131 -0.277,0.267 -0.408,0.408 C 64.82,203.985 64,205.895 64,208 c 0,2.105 0.82,4.015 2.149,5.443 0.131,0.141 0.267,0.276 0.408,0.408 1.428,1.33 3.338,2.149 5.443,2.149 2.105,0 4.015,-0.819 5.443,-2.149 0.141,-0.131 0.277,-0.267 0.408,-0.408 C 79.18,212.015 80,210.105 80,208 c 0,-2.105 -0.82,-4.015 -2.149,-5.443 -0.131,-0.141 -0.267,-0.276 -0.408,-0.408 C 76.015,200.819 74.105,200 72,200 c -2.105,0 -4.015,0.819 -5.443,2.149 z"
           style="fill:#823c41"
           inkscape:connector-curvature="0" />
      </g>
      <g
         id="g16395" />
      <g
         id="g16397" />
      <g
         id="g16399" />
      <g
         id="g16401" />
      <g
         id="g16403" />
      <g
         id="g16405" />
      <g
         id="g16407" />
      <g
         id="g16409" />
      <g
         id="g16411" />
      <g
         id="g16413" />
      <g
         id="g16415" />
      <g
         id="g16417" />
      <g
         id="g16419" />
      <g
         id="g16421" />
      <g
         id="g16423" />
    </g>
  </g>
</svg>
