<?xml version="1.0" encoding="UTF-8" standalone="no"?>
<!-- Created with Inkscape (http://www.inkscape.org/) -->

<svg
   xmlns:dc="http://purl.org/dc/elements/1.1/"
   xmlns:cc="http://creativecommons.org/ns#"
   xmlns:rdf="http://www.w3.org/1999/02/22-rdf-syntax-ns#"
   xmlns:svg="http://www.w3.org/2000/svg"
   xmlns="http://www.w3.org/2000/svg"
   xmlns:sodipodi="http://sodipodi.sourceforge.net/DTD/sodipodi-0.dtd"
   xmlns:inkscape="http://www.inkscape.org/namespaces/inkscape"
   width="144.49777mm"
   height="144.49777mm"
   viewBox="0 0 511.99998 511.99998"
   id="svg16584"
   version="1.1"
   inkscape:version="0.91 r13725"
   sodipodi:docname="cocktail.svg">
  <defs
     id="defs16586" />
  <sodipodi:namedview
     id="base"
     pagecolor="#ffffff"
     bordercolor="#666666"
     borderopacity="1.0"
     inkscape:pageopacity="0.0"
     inkscape:pageshadow="2"
     inkscape:zoom="0.35"
     inkscape:cx="-473.28572"
     inkscape:cy="304.57145"
     inkscape:document-units="px"
     inkscape:current-layer="layer1"
     showgrid="false"
     fit-margin-top="0"
     fit-margin-left="0"
     fit-margin-right="0"
     fit-margin-bottom="0"
     inkscape:window-width="1366"
     inkscape:window-height="705"
     inkscape:window-x="-8"
     inkscape:window-y="-8"
     inkscape:window-maximized="1" />
  <metadata
     id="metadata16589">
    <rdf:RDF>
      <cc:Work
         rdf:about="">
        <dc:format>image/svg+xml</dc:format>
        <dc:type
           rdf:resource="http://purl.org/dc/dcmitype/StillImage" />
        <dc:title></dc:title>
      </cc:Work>
    </rdf:RDF>
  </metadata>
  <g
     inkscape:label="Capa 1"
     inkscape:groupmode="layer"
     id="layer1"
     transform="translate(-189.71429,-324.93365)">
    <circle
       style="fill:#56d2c9;fill-opacity:1"
       cx="445.71429"
       cy="580.93365"
       r="256"
       id="circle17133" />
    <g
       id="g17233"
       transform="matrix(1.277771,0,0,1.277771,-123.8065,-182.29319)">
      <polygon
         transform="translate(189.71429,324.93363)"
         id="polygon17137"
         points="266.343,262.896 369.778,159.461 142.222,159.461 245.657,262.896 245.657,405.98 211.178,405.98 211.178,426.667 300.822,426.667 300.822,405.98 266.343,405.98 "
         style="fill:#ffffff" />
      <polygon
         transform="translate(189.71429,324.93363)"
         id="polygon17139"
         points="255.857,426.667 300.822,426.667 300.822,405.98 266.343,405.98 266.343,262.896 369.778,159.461 255.857,159.461 "
         style="fill:#d0d1d3" />
      <polygon
         transform="translate(189.71429,324.93363)"
         id="polygon17141"
         points="199.111,202.559 256,259.448 312.889,202.559 "
         style="fill:#ffc61b" />
      <polygon
         transform="translate(189.71429,324.93363)"
         id="polygon17143"
         points="255.857,259.305 256,259.448 312.889,202.559 255.857,202.559 "
         style="fill:#eaa22f" />
      <path
         id="path17145"
         d="m 507.77529,443.02163 c -8.556,0 -15.515,6.959 -15.515,15.515 0,3.986 1.524,7.613 4.001,10.362 l -54.132,81.199 c -1.321,1.979 -0.784,4.656 1.195,5.977 0.734,0.49 1.565,0.724 2.388,0.724 1.393,0 2.76,-0.674 3.589,-1.919 l 54.281,-81.42 c 1.336,0.376 2.739,0.591 4.194,0.591 8.556,0 15.515,-6.959 15.515,-15.515 0,-8.556 -6.961,-15.514 -15.516,-15.514 z"
         style="fill:#ff314f"
         inkscape:connector-curvature="0" />
      <path
         id="path17147"
         d="m 516.19129,445.52063 -73.152,110.32 c 0.097,0.078 0.179,0.164 0.284,0.234 0.734,0.49 1.565,0.724 2.388,0.724 1.393,0 2.76,-0.674 3.589,-1.919 l 54.281,-81.42 c 1.336,0.376 2.739,0.591 4.194,0.591 8.556,0 15.515,-6.959 15.515,-15.515 0,-5.452 -2.834,-10.248 -7.099,-13.015 z"
         style="fill:#a30f44"
         inkscape:connector-curvature="0" />
    </g>
    <g
       id="g17149"
       transform="translate(189.71429,324.93363)" />
    <g
       id="g17151"
       transform="translate(189.71429,324.93363)" />
    <g
       id="g17153"
       transform="translate(189.71429,324.93363)" />
    <g
       id="g17155"
       transform="translate(189.71429,324.93363)" />
    <g
       id="g17157"
       transform="translate(189.71429,324.93363)" />
    <g
       id="g17159"
       transform="translate(189.71429,324.93363)" />
    <g
       id="g17161"
       transform="translate(189.71429,324.93363)" />
    <g
       id="g17163"
       transform="translate(189.71429,324.93363)" />
    <g
       id="g17165"
       transform="translate(189.71429,324.93363)" />
    <g
       id="g17167"
       transform="translate(189.71429,324.93363)" />
    <g
       id="g17169"
       transform="translate(189.71429,324.93363)" />
    <g
       id="g17171"
       transform="translate(189.71429,324.93363)" />
    <g
       id="g17173"
       transform="translate(189.71429,324.93363)" />
    <g
       id="g17175"
       transform="translate(189.71429,324.93363)" />
    <g
       id="g17177"
       transform="translate(189.71429,324.93363)" />
  </g>
</svg>
