<?xml version="1.0" encoding="iso-8859-1"?>
<!-- Generator: Adobe Illustrator 19.0.0, SVG Export Plug-In . SVG Version: 6.00 Build 0)  -->
<svg version="1.1" id="Layer_1" xmlns="http://www.w3.org/2000/svg" xmlns:xlink="http://www.w3.org/1999/xlink" x="0px" y="0px"
	 viewBox="0 0 512 512" style="enable-background:new 0 0 512 512;" xml:space="preserve">
<circle style="fill:#273B7A;" cx="256" cy="256" r="256"/>
<path style="fill:#121149;" d="M142.222,369.778l140.803,140.803c122.69-12.874,219.564-112.404,228.316-236.277L350.815,113.778
	l-6.175,36.492l-36.492-36.492l-6.68,35.987l-35.987-35.987l-7.737,34.93l-34.93-34.93l-7.559,35.107l-35.107-35.107l-9.481,40.655
	L142.222,369.778z"/>
<rect x="142.222" y="170.667" style="fill:#FFFFFF;" width="227.556" height="199.111"/>
<rect x="255.431" y="170.667" style="fill:#D0D1D3;" width="114.347" height="199.111"/>
<rect x="142.222" y="142.222" style="fill:#FF7F4F;" width="227.556" height="56.889"/>
<rect x="255.431" y="142.222" style="fill:#D35933;" width="114.347" height="56.889"/>
<path style="fill:#FF6262;" d="M187.733,267.378c0-23.617,15.282-34.133,34.133-34.133S256,248.527,256,267.378
	c0-18.851,15.282-34.133,34.133-34.133s34.133,14.653,34.133,34.133c0,47.752-68.267,73.956-68.267,73.956
	S187.733,315.475,187.733,267.378z"/>
<path style="fill:#FF314F;" d="M290.133,233.244c-18.851,0-34.133,15.282-34.133,34.133c0-2.084-0.215-4.115-0.574-6.096v79.827
	c0.369,0.147,0.574,0.226,0.574,0.226s68.267-26.203,68.267-73.956C324.267,247.898,308.984,233.244,290.133,233.244z"/>
<g>
	<rect x="161.185" y="113.778" style="fill:#FFC61B;" width="18.963" height="56.889"/>
	<rect x="203.852" y="113.778" style="fill:#FFC61B;" width="18.963" height="56.889"/>
	<rect x="246.519" y="113.778" style="fill:#FFC61B;" width="18.963" height="56.889"/>
</g>
<g>
	<rect x="255.431" y="113.778" style="fill:#EAA22F;" width="10.056" height="56.889"/>
	<rect x="289.185" y="113.778" style="fill:#EAA22F;" width="18.963" height="56.889"/>
	<rect x="331.852" y="113.778" style="fill:#EAA22F;" width="18.963" height="56.889"/>
</g>
<g>
</g>
<g>
</g>
<g>
</g>
<g>
</g>
<g>
</g>
<g>
</g>
<g>
</g>
<g>
</g>
<g>
</g>
<g>
</g>
<g>
</g>
<g>
</g>
<g>
</g>
<g>
</g>
<g>
</g>
</svg>
