<?xml version="1.0" encoding="UTF-8" standalone="no"?>
<!-- Created with Inkscape (http://www.inkscape.org/) -->

<svg
   xmlns:dc="http://purl.org/dc/elements/1.1/"
   xmlns:cc="http://creativecommons.org/ns#"
   xmlns:rdf="http://www.w3.org/1999/02/22-rdf-syntax-ns#"
   xmlns:svg="http://www.w3.org/2000/svg"
   xmlns="http://www.w3.org/2000/svg"
   xmlns:sodipodi="http://sodipodi.sourceforge.net/DTD/sodipodi-0.dtd"
   xmlns:inkscape="http://www.inkscape.org/namespaces/inkscape"
   width="144.49777mm"
   height="144.49777mm"
   viewBox="0 0 511.99998 511.99998"
   id="svg16584"
   version="1.1"
   inkscape:version="0.91 r13725"
   sodipodi:docname="dinner.svg">
  <defs
     id="defs16586" />
  <sodipodi:namedview
     id="base"
     pagecolor="#ffffff"
     bordercolor="#666666"
     borderopacity="1.0"
     inkscape:pageopacity="0.0"
     inkscape:pageshadow="2"
     inkscape:zoom="0.35"
     inkscape:cx="441.97605"
     inkscape:cy="-237.99998"
     inkscape:document-units="px"
     inkscape:current-layer="layer1"
     showgrid="false"
     fit-margin-top="0"
     fit-margin-left="0"
     fit-margin-right="0"
     fit-margin-bottom="0"
     inkscape:window-width="1366"
     inkscape:window-height="705"
     inkscape:window-x="-8"
     inkscape:window-y="-8"
     inkscape:window-maximized="1" />
  <metadata
     id="metadata16589">
    <rdf:RDF>
      <cc:Work
         rdf:about="">
        <dc:format>image/svg+xml</dc:format>
        <dc:type
           rdf:resource="http://purl.org/dc/dcmitype/StillImage" />
        <dc:title></dc:title>
      </cc:Work>
    </rdf:RDF>
  </metadata>
  <g
     inkscape:label="Capa 1"
     inkscape:groupmode="layer"
     id="layer1"
     transform="translate(725.54749,217.6378)">
    <circle
       style="fill:#b48bb9;fill-opacity:1"
       cx="-469.54749"
       cy="38.362198"
       r="256"
       id="circle17133" />
    <g
       id="g17149"
       transform="translate(189.71429,324.93363)" />
    <g
       id="g17151"
       transform="translate(189.71429,324.93363)" />
    <g
       id="g17153"
       transform="translate(189.71429,324.93363)" />
    <g
       id="g17155"
       transform="translate(189.71429,324.93363)" />
    <g
       id="g17157"
       transform="translate(189.71429,324.93363)" />
    <g
       id="g17159"
       transform="translate(189.71429,324.93363)" />
    <g
       id="g17161"
       transform="translate(189.71429,324.93363)" />
    <g
       id="g17163"
       transform="translate(189.71429,324.93363)" />
    <g
       id="g17165"
       transform="translate(189.71429,324.93363)" />
    <g
       id="g17167"
       transform="translate(189.71429,324.93363)" />
    <g
       id="g17169"
       transform="translate(189.71429,324.93363)" />
    <g
       id="g17171"
       transform="translate(189.71429,324.93363)" />
    <g
       id="g17173"
       transform="translate(189.71429,324.93363)" />
    <g
       id="g17175"
       transform="translate(189.71429,324.93363)" />
    <g
       id="g17177"
       transform="translate(189.71429,324.93363)" />
    <g
       id="g17336"
       transform="matrix(0.88776635,0,0,0.88776635,-689.70782,-181.79761)">
      <g
         id="g17242"
         transform="translate(0,-1020.36)">
        <g
           id="g17244"
           style="color-interpolation:sRGB;color-rendering:auto;image-rendering:auto;shape-rendering:auto">
          <g
             id="g17246">
            <path
               id="path17248"
               d="m 7.912,1128.435 c -0.271,-0.014 -0.542,-0.014 -0.813,0 -4.122,0.465 -7.202,4.006 -7.094,8.148 -0.011,29.707 0,59.33 0,88.973 0,9.328 5.3,17.416 12.657,22.666 7.357,5.248 16.979,8.273 27.377,8.273 10.398,0 19.957,-3.023 27.314,-8.273 7.357,-5.25 12.626,-13.338 12.626,-22.666 0.011,-29.66 0,-59.291 0,-89.008 0.124,-4.842 -4.057,-8.68 -8.876,-8.148 -4.109,0.48 -7.172,4.018 -7.063,8.148 0,21.283 0,63.848 0,63.848 l -16.063,0 0,-63.846 c 0.124,-4.842 -4.057,-8.68 -8.876,-8.148 -4.122,0.465 -7.202,4.006 -7.094,8.148 l 0,63.686 0,0.16 -16.032,0 -0.031,-0.16 0,-63.686 c 0.123,-4.512 -3.514,-8.23 -8.032,-8.211 l 0,0.096 z"
               style="fill:#484666"
               inkscape:connector-curvature="0" />
            <path
               id="path17250"
               d="m 15.944,1216.504 48.096,0 0,9.084 c 0,3.326 -1.82,6.674 -6.032,9.68 -4.212,2.998 -10.639,5.182 -17.97,5.182 -7.331,0 -13.852,-2.184 -18.064,-5.182 -4.212,-3 -6.032,-6.357 -6.032,-9.68 l 0.002,-9.084 z"
               style="fill:#ffffff"
               inkscape:connector-curvature="0" />
          </g>
          <path
             id="path17252"
             d="m 15.957,1296.394 c 0,0 0,61.986 0,92.979 0,5.992 3.489,11.17 7.796,14.277 4.306,3.102 9.615,4.717 15.355,4.717 l 1.772,0 c 5.74,0 11.049,-1.615 15.355,-4.717 4.306,-3.109 7.796,-8.283 7.796,-14.277 l 0,-92.979 -48.074,0 z"
             style="fill:#484666"
             inkscape:connector-curvature="0" />
          <path
             id="path17254"
             d="m 32.021,1312.441 15.946,0 0,76.934 c 0,0 0.097,0.48 -1.063,1.297 -1.163,0.848 -3.388,1.65 -6.024,1.65 l -1.772,0 c -2.636,0 -4.861,-0.816 -6.024,-1.65 -1.163,-0.848 -1.063,-1.248 -1.063,-1.297 l 0,-76.934 z"
             style="fill:#93cfef"
             inkscape:connector-curvature="0" />
          <g
             id="g17256">
            <path
               id="path17258"
               d="m 32.021,1245.144 0,63.336 15.946,0 0,-63.336 -15.946,0 z"
               style="fill:#484666"
               inkscape:connector-curvature="0" />
            <path
               id="path17260"
               d="m 448.031,1128.488 c -14.072,0 -26.486,8.021 -34.845,19.705 -8.359,11.684 -13.111,27.262 -13.111,44.248 0,16.984 4.753,32.445 13.111,44.129 8.358,11.684 20.773,19.703 34.845,19.703 14.072,0 26.486,-8.021 34.845,-19.703 8.358,-11.686 13.111,-27.146 13.111,-44.129 0,-16.986 -4.753,-32.564 -13.111,-44.248 -8.359,-11.686 -20.774,-19.705 -34.845,-19.705 z"
               style="fill:#484666"
               inkscape:connector-curvature="0" />
          </g>
          <path
             id="path17262"
             d="m 448.031,1144.418 c 8.021,0 15.614,4.541 21.734,13.098 6.12,8.555 10.276,21.025 10.276,34.926 0,13.898 -4.157,26.252 -10.276,34.809 -6.12,8.555 -13.713,13.096 -21.734,13.096 -8.021,0 -15.614,-4.541 -21.734,-13.096 -6.12,-8.555 -10.276,-20.91 -10.276,-34.809 0,-13.9 4.157,-26.371 10.276,-34.926 6.12,-8.555 13.712,-13.098 21.734,-13.098 z"
             style="fill:#ffffff"
             inkscape:connector-curvature="0" />
          <path
             id="path17264"
             d="m 440.001,1240.48 0,55.914 -15.939,0 c 0,0 0,61.896 0,92.846 0,5.994 3.35,11.193 7.657,14.299 4.306,3.109 9.73,4.711 15.47,4.711 l 1.656,0 c 5.74,0 11.164,-1.607 15.47,-4.711 4.306,-3.102 7.688,-8.305 7.688,-14.299 l 0,-92.846 -15.939,0 0,-55.914 -16.063,0 z"
             style="fill:#484666"
             inkscape:connector-curvature="0" />
          <path
             id="path17266"
             d="m 440.001,1312.316 16.063,0 0,76.924 c 0,0 -0.024,0.48 -1.188,1.313 -1.163,0.848 -3.396,1.656 -6.032,1.656 l -1.656,0 c -2.637,0 -4.837,-0.816 -6,-1.656 -1.162,-0.848 -1.188,-1.264 -1.188,-1.313 l 10e-4,-76.924 z"
             style="fill:#81d4ef"
             inkscape:connector-curvature="0" />
          <path
             id="path17268"
             d="m 244.042,1128.488 c -75.021,0 -136.071,60.869 -136.071,135.811 0,74.942 61.051,135.928 136.071,135.928 75.02,0 135.953,-60.986 135.953,-135.928 0,-74.944 -60.933,-135.811 -135.953,-135.811 z"
             style="fill:#484666"
             inkscape:connector-curvature="0" />
          <path
             id="path17270"
             d="m 243.983,1144.478 c 66.373,0 120.007,53.576 120.007,119.881 0,66.305 -53.634,119.881 -120.007,119.881 -66.373,0 -120.007,-53.578 -120.007,-119.881 -0.001,-66.305 53.634,-119.881 120.007,-119.881 z"
             style="fill:#ffffff"
             inkscape:connector-curvature="0" />
          <path
             id="path17272"
             d="m 296.666,1176.564 c 0.725,0.063 1.437,0.225 2.118,0.48 17.228,5.527 30.81,19.244 36.83,36.85 1.617,4.109 -0.392,8.758 -4.486,10.379 -4.095,1.623 -8.725,-0.393 -10.341,-4.502 -0.088,-0.225 -0.166,-0.453 -0.234,-0.684 -4.458,-13.039 -14.354,-22.883 -26.593,-26.811 -4.256,-1.131 -6.793,-5.508 -5.668,-9.781 0.989,-3.752 4.52,-6.252 8.374,-5.926 l 0,0 z"
             style="fill:#484666"
             inkscape:connector-curvature="0" />
        </g>
        <g
           id="g17274">
          <path
             id="path17276"
             d="m 328.086,1240.472 c 0,4.418 3.568,8 7.97,8 0,0 0,0 0,0 4.402,0 7.97,-3.582 7.97,-8 l 0,0 c 0,-4.418 -3.568,-8 -7.97,-8 0,0 0,0 0,0 -4.401,0 -7.97,3.582 -7.97,8 l 0,0 z"
             style="fill:#484666"
             inkscape:connector-curvature="0" />
          <path
             id="path17278"
             d="m 216.048,1208.402 c -19.578,0 -36.009,15.449 -36.026,34.691 0.009,8.674 3.444,16.748 9.095,23.008 16.116,17.889 49.137,51.801 49.137,51.801 3.186,3.266 8.458,3.211 11.576,-0.16 0,0 30.79,-33.037 46.42,-49.322 6.253,-6.471 11.678,-15.055 11.694,-25.486 0.019,-19.209 -16.254,-34.535 -35.79,-34.572 -13.835,0.447 -22.938,7.789 -28.201,12.99 -4.98,-4.97 -15.731,-12.776 -27.905,-12.95 z"
             style="color-interpolation:sRGB;fill:#484666;color-rendering:auto;image-rendering:auto;shape-rendering:auto"
             inkscape:connector-curvature="0" />
        </g>
        <g
           id="g17280"
           style="color-interpolation:sRGB;color-rendering:auto;image-rendering:auto;shape-rendering:auto">
          <path
             id="path17282"
             d="m 271.918,1226.187 0.118,0 c 11.35,-0.01 19.972,8.475 19.962,18.641 -0.007,4.801 -2.605,9.635 -7.205,14.396 -13.87,14.449 -34.797,36.803 -40.869,43.303 -6.272,-6.457 -29.153,-30.076 -42.877,-45.309 -3.291,-3.646 -5.074,-7.889 -5.079,-12.271 0.009,-10.164 8.733,-18.633 20.08,-18.643 9.967,-0.01 21.616,12.744 21.616,12.744 3.164,4.051 9.278,4.105 12.52,0.16 0,0 11.793,-12.867 21.734,-12.979 l 0,-0.042 z"
             style="fill:#d87070"
             inkscape:connector-curvature="0" />
          <g
             id="g17284">
            <path
               id="path17286"
               d="m 448.017,1144.431 c -1.283,0 -2.524,0.305 -3.781,0.527 6.423,1.328 12.451,5.48 17.469,12.5 6.118,8.563 10.281,21.057 10.281,34.969 0,13.908 -4.163,26.281 -10.281,34.844 -5.05,7.066 -11.125,11.203 -17.594,12.5 1.298,0.24 2.58,0.561 3.906,0.561 8.021,0 15.63,-4.537 21.75,-13.094 6.12,-8.555 10.281,-20.914 10.281,-34.813 0,-13.899 -4.161,-26.35 -10.281,-34.906 -6.12,-8.557 -13.729,-13.094 -21.75,-13.094 l 0,0.01 z"
               style="fill:#e1e1e6"
               inkscape:connector-curvature="0" />
            <path
               id="path17288"
               d="m 243.986,1144.463 c -1.319,0 -2.597,0.16 -3.906,0.191 64.542,2.072 116.094,54.732 116.094,119.719 0,64.987 -51.552,117.615 -116.094,119.688 1.309,0 2.587,0.191 3.906,0.191 66.373,0 120,-53.57 120,-119.875 0,-66.305 -53.627,-119.906 -120,-119.906 l 0,-0.01 z"
               style="fill:#e1e1e6"
               inkscape:connector-curvature="0" />
          </g>
          <path
             id="path17290"
             d="m 271.924,1226.181 c -1.027,0.012 -2.073,0.24 -3.125,0.496 9.971,1.232 17.384,8.824 17.375,18.156 -0.007,4.801 -2.619,9.613 -7.219,14.375 -12.881,13.42 -30.466,32.195 -37.969,40.219 0.576,0.592 2.509,2.652 2.938,3.094 6.072,-6.5 27.005,-28.863 40.875,-43.314 4.6,-4.762 7.18,-9.572 7.188,-14.375 0.01,-10.168 -8.587,-18.666 -19.938,-18.656 l -0.125,0.01 z m -55.875,0.16 c -0.883,0 -1.621,0.367 -2.469,0.465 9.05,2.227 18.25,12.281 18.25,12.281 2.286,2.926 6.111,3.699 9.281,2.438 -1.303,-0.496 -2.501,-1.232 -3.437,-2.438 0,0 -11.658,-12.758 -21.625,-12.75 l 0,0 z"
             style="fill:#bd5858"
             inkscape:connector-curvature="0" />
          <g
             id="g17292">
            <path
               id="path17294"
               d="m 451.924,1312.306 0,76.938 c 0,0 -0.024,0.48 -1.188,1.313 -0.959,0.688 -2.741,1.248 -4.781,1.473 0.426,0 0.764,0.191 1.219,0.191 l 1.656,0 c 2.636,0 4.868,-0.816 6.031,-1.656 1.163,-0.832 1.219,-1.264 1.219,-1.313 l 0,-76.938 -4.156,-0.01 z"
               style="fill:#64a5da"
               inkscape:connector-curvature="0" />
            <path
               id="path17296"
               d="m 43.812,1312.306 0,76.938 c 0,0 -0.024,0.48 -1.188,1.313 -0.959,0.688 -2.741,1.248 -4.781,1.473 0.426,0 0.764,0.176 1.219,0.176 l 1.656,0 c 2.636,0 4.868,-0.816 6.031,-1.658 1.163,-0.832 1.219,-1.264 1.219,-1.313 l 0,-76.938 -4.156,0.01 z"
               style="fill:#64a5da"
               inkscape:connector-curvature="0" />
          </g>
          <path
             id="path17298"
             d="m 56.08,1216.494 0,9.094 c 0,3.324 -1.82,6.682 -6.031,9.686 -3.389,2.414 -8.425,3.98 -14,4.625 1.361,0.16 2.566,0.561 4,0.561 7.331,0 13.757,-2.189 17.969,-5.189 4.212,-3.004 6.031,-6.359 6.031,-9.686 l 0,-9.094 -7.969,0 z"
             style="fill:#e1e1e6"
             inkscape:connector-curvature="0" />
        </g>
      </g>
      <g
         id="g17300" />
      <g
         id="g17302" />
      <g
         id="g17304" />
      <g
         id="g17306" />
      <g
         id="g17308" />
      <g
         id="g17310" />
      <g
         id="g17312" />
      <g
         id="g17314" />
      <g
         id="g17316" />
      <g
         id="g17318" />
      <g
         id="g17320" />
      <g
         id="g17322" />
      <g
         id="g17324" />
      <g
         id="g17326" />
      <g
         id="g17328" />
    </g>
  </g>
</svg>
