<?xml version="1.0" encoding="iso-8859-1"?>
<!-- Generator: Adobe Illustrator 19.0.0, SVG Export Plug-In . SVG Version: 6.00 Build 0)  -->
<svg version="1.1" id="Layer_1" xmlns="http://www.w3.org/2000/svg" xmlns:xlink="http://www.w3.org/1999/xlink" x="0px" y="0px"
	 viewBox="0 0 512 512" style="enable-background:new 0 0 512 512;" xml:space="preserve">
<circle style="fill:#71E2EF;" cx="256" cy="256" r="256"/>
<path style="fill:#38C6D9;" d="M284.851,510.373c119.551-13.412,214.195-109.142,225.916-229.195L398.222,168.632l-18.216,9.24
	l-63.56-63.56l-50.119,64.072l52.983,52.983L170.667,396.188L284.851,510.373z"/>
<polygon style="fill:#4B4B4C;" points="312.889,140.188 199.111,140.188 113.778,168.632 170.667,396.188 341.333,396.188 
	398.222,168.632 "/>
<polygon style="fill:#272525;" points="398.222,168.632 312.889,140.188 255.426,140.188 255.426,396.188 341.333,396.188 "/>
<polygon style="fill:#FFFFFF;" points="199.111,140.188 170.667,197.077 199.111,197.077 170.667,253.966 256,367.744 "/>
<g>
	<polygon style="fill:#D0D1D3;" points="312.889,140.188 341.333,197.077 312.889,197.077 341.333,253.966 256,367.744 	"/>
	<polygon style="fill:#D0D1D3;" points="312.889,140.188 199.111,140.188 256,367.744 	"/>
</g>
<polygon style="fill:#A6A8AA;" points="312.889,140.188 255.426,140.188 255.426,365.447 256,367.744 "/>
<path style="fill:#A30F44;" d="M252.573,137.762l-49.664-24.831c-4.122-2.06-8.971,0.936-8.971,5.544v49.664
	c0,4.608,4.849,7.606,8.971,5.544l49.664-24.831C257.143,146.568,257.143,140.048,252.573,137.762z"/>
<path style="fill:#870C3E;" d="M259.427,137.762l49.664-24.831c4.122-2.06,8.971,0.936,8.971,5.544v49.664
	c0,4.608-4.849,7.606-8.971,5.544l-49.664-24.831C254.857,146.568,254.857,140.048,259.427,137.762z"/>
<path style="fill:#FF314F;" d="M245.963,160.739h20.073c4.084,0,7.394-3.31,7.394-7.394v-20.073c0-4.084-3.31-7.394-7.394-7.394
	h-20.073c-4.084,0-7.394,3.31-7.394,7.394v20.073C238.57,157.427,241.879,160.739,245.963,160.739z"/>
<path style="fill:#A30F44;" d="M266.037,125.876h-10.611v34.861h10.611c4.084,0,7.394-3.312,7.394-7.394v-20.071
	C273.43,129.188,270.12,125.876,266.037,125.876z"/>
<g>
</g>
<g>
</g>
<g>
</g>
<g>
</g>
<g>
</g>
<g>
</g>
<g>
</g>
<g>
</g>
<g>
</g>
<g>
</g>
<g>
</g>
<g>
</g>
<g>
</g>
<g>
</g>
<g>
</g>
</svg>
