<?xml version="1.0" encoding="UTF-8" standalone="no"?>
<!-- Generator: Adobe Illustrator 19.0.0, SVG Export Plug-In . SVG Version: 6.00 Build 0)  -->

<svg
   xmlns:dc="http://purl.org/dc/elements/1.1/"
   xmlns:cc="http://creativecommons.org/ns#"
   xmlns:rdf="http://www.w3.org/1999/02/22-rdf-syntax-ns#"
   xmlns:svg="http://www.w3.org/2000/svg"
   xmlns="http://www.w3.org/2000/svg"
   xmlns:sodipodi="http://sodipodi.sourceforge.net/DTD/sodipodi-0.dtd"
   xmlns:inkscape="http://www.inkscape.org/namespaces/inkscape"
   version="1.1"
   id="Layer_1"
   x="0px"
   y="0px"
   viewBox="0 0 407.86441 407.86441"
   xml:space="preserve"
   inkscape:version="0.91 r13725"
   sodipodi:docname="esmoquin.svg"
   width="407.86441"
   height="407.86441"><metadata
     id="metadata4197"><rdf:RDF><cc:Work
         rdf:about=""><dc:format>image/svg+xml</dc:format><dc:type
           rdf:resource="http://purl.org/dc/dcmitype/StillImage" /><dc:title></dc:title></cc:Work></rdf:RDF></metadata><defs
     id="defs4195" /><sodipodi:namedview
     pagecolor="#ffffff"
     bordercolor="#666666"
     borderopacity="1"
     objecttolerance="10"
     gridtolerance="10"
     guidetolerance="10"
     inkscape:pageopacity="0"
     inkscape:pageshadow="2"
     inkscape:window-width="1366"
     inkscape:window-height="705"
     id="namedview4193"
     showgrid="false"
     fit-margin-top="0"
     fit-margin-left="0"
     fit-margin-right="0"
     fit-margin-bottom="0"
     inkscape:zoom="0.76373055"
     inkscape:cx="27.714859"
     inkscape:cy="359.41511"
     inkscape:window-x="-8"
     inkscape:window-y="-8"
     inkscape:window-maximized="1"
     inkscape:current-layer="Layer_1" /><circle
     style="fill:#e573d5;fill-opacity:0.5466667"
     cx="203.93221"
     cy="203.93221"
     r="203.93221"
     id="circle4793" /><g
     id="g6605"
     transform="translate(61.710205,61.972633)"><polygon
       transform="translate(-113.778,-112.26886)"
       id="polygon4141"
       points="113.778,168.632 170.667,396.188 341.333,396.188 398.222,168.632 312.889,140.188 199.111,140.188 "
       style="fill:#4b4b4c" /><polygon
       transform="translate(-113.778,-112.26886)"
       id="polygon4143"
       points="255.426,396.188 341.333,396.188 398.222,168.632 312.889,140.188 255.426,140.188 "
       style="fill:#272525" /><polygon
       transform="translate(-113.778,-112.26886)"
       id="polygon4145"
       points="170.667,253.966 256,367.744 199.111,140.188 170.667,197.077 199.111,197.077 "
       style="fill:#ffffff" /><g
       transform="translate(-113.778,-112.26886)"
       id="g4147"><polygon
         id="polygon4149"
         points="341.333,253.966 256,367.744 312.889,140.188 341.333,197.077 312.889,197.077 "
         style="fill:#d0d1d3" /><polygon
         id="polygon4151"
         points="256,367.744 312.889,140.188 199.111,140.188 "
         style="fill:#d0d1d3" /></g><polygon
       transform="translate(-113.778,-112.26886)"
       id="polygon4153"
       points="312.889,140.188 255.426,140.188 255.426,365.447 256,367.744 "
       style="fill:#a6a8aa" /><path
       inkscape:connector-curvature="0"
       id="path4155"
       d="M 138.795,25.493141 89.131,0.66214125 C 85.009,-1.3978588 80.16,1.5981412 80.16,6.2061412 l 0,49.6639998 c 0,4.608 4.849,7.606 8.971,5.544 l 49.664,-24.831 c 4.57,-2.284 4.57,-8.804 0,-11.09 z"
       style="fill:#a30f44" /><path
       inkscape:connector-curvature="0"
       id="path4157"
       d="M 145.649,25.493141 195.313,0.66214125 c 4.122,-2.06000005 8.971,0.93599995 8.971,5.54399995 l 0,49.6639998 c 0,4.608 -4.849,7.606 -8.971,5.544 l -49.664,-24.831 c -4.57,-2.284 -4.57,-8.804 0,-11.09 z"
       style="fill:#870c3e" /><path
       inkscape:connector-curvature="0"
       id="path4159"
       d="m 132.185,48.470141 20.073,0 c 4.084,0 7.394,-3.31 7.394,-7.394 l 0,-20.073 c 0,-4.084 -3.31,-7.394 -7.394,-7.394 l -20.073,0 c -4.084,0 -7.394,3.31 -7.394,7.394 l 0,20.073 c 0.001,4.082 3.31,7.394 7.394,7.394 z"
       style="fill:#ff314f" /><path
       inkscape:connector-curvature="0"
       id="path4161"
       d="m 152.259,13.607141 -10.611,0 0,34.861 10.611,0 c 4.084,0 7.394,-3.312 7.394,-7.394 l 0,-20.071 c -0.001,-4.084 -3.311,-7.396 -7.394,-7.396 z"
       style="fill:#a30f44" /></g><g
     id="g4163"
     transform="translate(-55.205658,-244.1039)" /><g
     id="g4165"
     transform="translate(-55.205658,-244.1039)" /><g
     id="g4167"
     transform="translate(-55.205658,-244.1039)" /><g
     id="g4169"
     transform="translate(-55.205658,-244.1039)" /><g
     id="g4171"
     transform="translate(-55.205658,-244.1039)" /><g
     id="g4173"
     transform="translate(-55.205658,-244.1039)" /><g
     id="g4175"
     transform="translate(-55.205658,-244.1039)" /><g
     id="g4177"
     transform="translate(-55.205658,-244.1039)" /><g
     id="g4179"
     transform="translate(-55.205658,-244.1039)" /><g
     id="g4181"
     transform="translate(-55.205658,-244.1039)" /><g
     id="g4183"
     transform="translate(-55.205658,-244.1039)" /><g
     id="g4185"
     transform="translate(-55.205658,-244.1039)" /><g
     id="g4187"
     transform="translate(-55.205658,-244.1039)" /><g
     id="g4189"
     transform="translate(-55.205658,-244.1039)" /><g
     id="g4191"
     transform="translate(-55.205658,-244.1039)" /></svg>