<?xml version="1.0" encoding="UTF-8" standalone="no"?>
<!-- Created with Inkscape (http://www.inkscape.org/) -->

<svg
   xmlns:dc="http://purl.org/dc/elements/1.1/"
   xmlns:cc="http://creativecommons.org/ns#"
   xmlns:rdf="http://www.w3.org/1999/02/22-rdf-syntax-ns#"
   xmlns:svg="http://www.w3.org/2000/svg"
   xmlns="http://www.w3.org/2000/svg"
   xmlns:sodipodi="http://sodipodi.sourceforge.net/DTD/sodipodi-0.dtd"
   xmlns:inkscape="http://www.inkscape.org/namespaces/inkscape"
   width="53.489223mm"
   height="59.365822mm"
   viewBox="0 0 189.52874 210.35134"
   id="svg37088"
   version="1.1"
   inkscape:version="0.91 r13725"
   sodipodi:docname="friend6.svg">
  <defs
     id="defs37090">
    <clipPath
       id="clipPath37652"
       clipPathUnits="userSpaceOnUse">
      <path
         inkscape:connector-curvature="0"
         id="path37654"
         d="M 0,800 800,800 800,0 0,0 0,800 Z" />
    </clipPath>
    <clipPath
       id="clipPath37764"
       clipPathUnits="userSpaceOnUse">
      <path
         inkscape:connector-curvature="0"
         id="path37766"
         d="M 0,800 800,800 800,0 0,0 0,800 Z" />
    </clipPath>
  </defs>
  <sodipodi:namedview
     id="base"
     pagecolor="#ffffff"
     bordercolor="#666666"
     borderopacity="1.0"
     inkscape:pageopacity="0.0"
     inkscape:pageshadow="2"
     inkscape:zoom="0.69044441"
     inkscape:cx="-168.68061"
     inkscape:cy="113.12049"
     inkscape:document-units="px"
     inkscape:current-layer="layer1"
     showgrid="false"
     inkscape:window-width="1366"
     inkscape:window-height="705"
     inkscape:window-x="-8"
     inkscape:window-y="-8"
     inkscape:window-maximized="1"
     fit-margin-top="0"
     fit-margin-left="0"
     fit-margin-right="0"
     fit-margin-bottom="0" />
  <metadata
     id="metadata37093">
    <rdf:RDF>
      <cc:Work
         rdf:about="">
        <dc:format>image/svg+xml</dc:format>
        <dc:type
           rdf:resource="http://purl.org/dc/dcmitype/StillImage" />
        <dc:title></dc:title>
      </cc:Work>
    </rdf:RDF>
  </metadata>
  <g
     inkscape:label="Capa 1"
     inkscape:groupmode="layer"
     id="layer1"
     transform="translate(61.28506,-682.68312)">
    <g
       id="g38134"
       transform="matrix(1.25,0,0,-1.25,-8.71431,888.28295)">
      <path
         d="m 0,0 -1.907,67.649 -2.391,-67.352 -2.87,0 -3.826,80.539 17.217,0 L 3.359,0 0,0 Z"
         style="fill:#f2b58c;fill-opacity:1;fill-rule:nonzero;stroke:none"
         id="path38136"
         inkscape:connector-curvature="0" />
    </g>
    <g
       id="g38138"
       transform="matrix(1.25,0,0,-1.25,-9.867935,888.28295)">
      <path
         d="M 0,0 0.929,5.478 3.32,6.419 12.08,0 0,0 Z"
         style="fill:#017396;fill-opacity:1;fill-rule:nonzero;stroke:none"
         id="path38140"
         inkscape:connector-curvature="0" />
    </g>
    <g
       id="g38142"
       transform="matrix(1.25,0,0,-1.25,-28.91331,888.28295)">
      <path
         d="M 0,0 9.47,6.419 11.861,5.478 12.787,0 0,0 Z"
         style="fill:#017396;fill-opacity:1;fill-rule:nonzero;stroke:none"
         id="path38144"
         inkscape:connector-curvature="0" />
    </g>
    <g
       id="g38146"
       transform="matrix(1.25,0,0,-1.25,-2.91356,694.14782)">
      <path
         d="m 0,0 c 13.303,-3.418 27.114,-25.287 22.982,-44.514 -5.025,-23.37 -40.422,-25.173 -56.433,-8.289 -11.126,11.734 -7.013,39.534 9.328,49.184 C -16.18,1.072 -6.935,1.784 0,0"
         style="fill:#351f10;fill-opacity:1;fill-rule:nonzero;stroke:none"
         id="path38148"
         inkscape:connector-curvature="0" />
    </g>
    <g
       id="g38150"
       transform="matrix(1.25,0,0,-1.25,-26.33756,753.79382)">
      <path
         d="m 0,0 c -3.594,1.723 -6.615,4.963 -8.737,7.264 -1.533,0.019 -3.426,1.636 -4.586,4.071 -1.191,2.498 -1.211,5.025 -0.17,6.157 13.106,-3.886 27.129,2.067 37.849,10.93 3.931,-1.811 6.646,-4.696 8.492,-8.159 0.558,0.441 1.166,0.659 1.77,0.57 1.761,-0.254 2.816,-2.947 2.355,-6.012 C 36.515,11.755 34.718,9.476 32.956,9.73 32.857,9.745 32.76,9.77 32.665,9.799 30.996,6.888 28.013,3.291 24.2,1.017 L 32.149,-46.857 20.153,-10.599 3.669,-8.714 -7.385,-51.321 0,0 Z"
         style="fill:#f2b58c;fill-opacity:1;fill-rule:nonzero;stroke:none"
         id="path38152"
         inkscape:connector-curvature="0" />
    </g>
    <g
       id="g38154"
       transform="matrix(1.25,0,0,-1.25,-4.24656,791.35919)"
       style="fill:#fe00cc;fill-opacity:1">
      <path
         d="m 0,0 3.438,23.251 c 0,0 -6.368,4.007 -8.672,4.048 -2.558,0.043 -9.726,-4.048 -9.726,-4.048 L -11.039,0.106 0,0 Z"
         style="fill:#fe00cc;fill-opacity:1;fill-rule:nonzero;stroke:none"
         id="path38156"
         inkscape:connector-curvature="0" />
    </g>
    <g
       id="g38158"
       transform="matrix(1.25,0,0,-1.25,-0.085185,732.00557)">
      <path
         d="m 0,0 c 0,-1.205 0.917,-2.184 2.046,-2.184 1.128,0 2.045,0.979 2.045,2.184 0,1.207 -0.917,2.184 -2.045,2.184 C 0.917,2.184 0,1.207 0,0"
         style="fill:#351f10;fill-opacity:1;fill-rule:nonzero;stroke:none"
         id="path38160"
         inkscape:connector-curvature="0" />
    </g>
    <g
       id="g38162"
       transform="matrix(1.25,0,0,-1.25,-18.189435,733.22007)">
      <path
         d="m 0,0 c 0,-1.205 0.915,-2.184 2.043,-2.184 1.131,0 2.046,0.979 2.046,2.184 0,1.207 -0.915,2.184 -2.046,2.184 C 0.915,2.184 0,1.207 0,0"
         style="fill:#351f10;fill-opacity:1;fill-rule:nonzero;stroke:none"
         id="path38164"
         inkscape:connector-curvature="0" />
    </g>
    <g
       id="g38166"
       transform="matrix(1.25,0,0,-1.25,24.17269,843.84695)">
      <path
         d="M 0,0 C 0,0 -2.87,43.332 -29.92,42.559 -53.58,41.88 -61.216,2.827 -61.216,2.827 c 0,0 19.13,-13.189 61.216,-2.827"
         style="fill:#fe00cc;fill-opacity:1;fill-rule:nonzero;stroke:none"
         id="path38168"
         inkscape:connector-curvature="0" />
    </g>
    <path
       d="m -22.45756,793.21582 21.52125,0 0,-8.2425 -21.52125,0 0,8.2425 z"
       style="fill:#949601;fill-opacity:1;fill-rule:nonzero;stroke:none"
       id="path38170"
       inkscape:connector-curvature="0" />
    <g
       id="g38172"
       transform="matrix(1.25,0,0,-1.25,20.32869,732.1282)">
      <path
         d="M 0,0 C 0.631,-8.565 11.156,-14.769 23.51,-13.858 35.863,-12.946 45.364,-5.266 44.731,3.3 44.101,11.865 33.575,18.069 21.223,17.158 8.868,16.246 -0.631,8.565 0,0"
         style="fill:#f2b58c;fill-opacity:1;fill-rule:nonzero;stroke:none"
         id="path38174"
         inkscape:connector-curvature="0" />
    </g>
    <g
       id="g38176"
       transform="matrix(1.25,0,0,-1.25,28.194815,730.79819)">
      <path
         d="M 0,0 C 0.106,-1.44 1.361,-2.522 2.801,-2.417 4.244,-2.31 5.325,-1.056 5.219,0.385 5.113,1.826 3.859,2.909 2.417,2.802 0.977,2.697 -0.106,1.442 0,0"
         style="fill:#351f10;fill-opacity:1;fill-rule:nonzero;stroke:none"
         id="path38178"
         inkscape:connector-curvature="0" />
    </g>
    <g
       id="g38180"
       transform="matrix(1.25,0,0,-1.25,70.028315,708.84082)">
      <path
         d="M 0,0 C 5.305,9.387 8.004,21.578 -9.338,20.899 -23.612,20.339 -17.567,8.691 -14.98,4.585 -31.079,6.703 -35.203,-6.496 -35.203,-6.496 L -3.3,-28.429 c 0,0 22.247,15.434 3.3,28.429"
         style="fill:#351f10;fill-opacity:1;fill-rule:nonzero;stroke:none"
         id="path38182"
         inkscape:connector-curvature="0" />
    </g>
    <g
       id="g38184"
       transform="matrix(1.25,0,0,-1.25,56.092815,747.20082)"
       style="fill:#ff1300;fill-opacity:1">
      <path
         d="M 0,0 C 0,0 -16.579,-14.029 5.739,-40.811 L 18.492,-36.984 4.022,0.346 0,0 Z"
         style="fill:#ff1300;fill-opacity:1;fill-rule:nonzero;stroke:none"
         id="path38186"
         inkscape:connector-curvature="0" />
    </g>
    <g
       id="g38188"
       transform="matrix(1.25,0,0,-1.25,79.20806,793.43132)"
       style="fill:#019640;fill-opacity:1">
      <path
         d="m 0,0 c -3.137,1.112 -12.753,-3.826 -12.753,-3.826 l -15.304,-38.259 49.738,7.014 c 0,0 -1.913,28.057 -21.681,35.071"
         style="fill:#019640;fill-opacity:1;fill-rule:nonzero;stroke:none"
         id="path38190"
         inkscape:connector-curvature="0" />
    </g>
    <g
       id="g38192"
       transform="matrix(1.25,0,0,-1.25,37.760315,755.96794)">
      <path
         d="m 0,0 -3.188,-26.145 c 0,0 28.056,14.667 24.869,19.768 C 18.492,-1.276 1.275,-19.13 1.275,-19.13 L 0,0 Z"
         style="fill:#f2b58c;fill-opacity:1;fill-rule:nonzero;stroke:none"
         id="path38194"
         inkscape:connector-curvature="0" />
    </g>
    <g
       id="g38196"
       transform="matrix(1.25,0,0,-1.25,74.425315,841.65395)">
      <path
         d="m 0,0 6.377,-37.303 4.463,0 L 7.014,0.957 0,0 Z"
         style="fill:#f2b58c;fill-opacity:1;fill-rule:nonzero;stroke:none"
         id="path38198"
         inkscape:connector-curvature="0" />
    </g>
    <g
       id="g38200"
       transform="matrix(1.25,0,0,-1.25,87.97519,888.28295)">
      <path
         d="M 0,0 -15.304,0 -0.637,5.739 0,0 Z"
         style="fill:#fe0000;fill-opacity:1;fill-rule:nonzero;stroke:none"
         id="path38202"
         inkscape:connector-curvature="0" />
    </g>
    <g
       id="g38204"
       transform="matrix(1.25,0,0,-1.25,128.24369,889.8382)">
      <path
         d="m 0,0 c 0,-1.412 -33.941,-2.557 -75.813,-2.557 -41.869,0 -75.81,1.145 -75.81,2.557 0,1.412 33.941,2.556 75.81,2.556 C -33.941,2.556 0,1.412 0,0"
         style="fill:#b7a99f;fill-opacity:1;fill-rule:nonzero;stroke:none"
         id="path38206"
         inkscape:connector-curvature="0" />
    </g>
  </g>
</svg>
