<?xml version="1.0" encoding="UTF-8" standalone="no"?>
<!-- Created with Inkscape (http://www.inkscape.org/) -->

<svg
   xmlns:dc="http://purl.org/dc/elements/1.1/"
   xmlns:cc="http://creativecommons.org/ns#"
   xmlns:rdf="http://www.w3.org/1999/02/22-rdf-syntax-ns#"
   xmlns:svg="http://www.w3.org/2000/svg"
   xmlns="http://www.w3.org/2000/svg"
   xmlns:sodipodi="http://sodipodi.sourceforge.net/DTD/sodipodi-0.dtd"
   xmlns:inkscape="http://www.inkscape.org/namespaces/inkscape"
   width="59.766304mm"
   height="61.510303mm"
   viewBox="0 0 211.77037 217.94989"
   id="svg37088"
   version="1.1"
   inkscape:version="0.91 r13725"
   sodipodi:docname="friend4.svg">
  <defs
     id="defs37090">
    <clipPath
       id="clipPath37652"
       clipPathUnits="userSpaceOnUse">
      <path
         inkscape:connector-curvature="0"
         id="path37654"
         d="M 0,800 800,800 800,0 0,0 0,800 Z" />
    </clipPath>
    <clipPath
       id="clipPath37764"
       clipPathUnits="userSpaceOnUse">
      <path
         inkscape:connector-curvature="0"
         id="path37766"
         d="M 0,800 800,800 800,0 0,0 0,800 Z" />
    </clipPath>
  </defs>
  <sodipodi:namedview
     id="base"
     pagecolor="#ffffff"
     bordercolor="#666666"
     borderopacity="1.0"
     inkscape:pageopacity="0.0"
     inkscape:pageshadow="2"
     inkscape:zoom="0.69044441"
     inkscape:cx="473.64876"
     inkscape:cy="113.12049"
     inkscape:document-units="px"
     inkscape:current-layer="layer1"
     showgrid="false"
     inkscape:window-width="1366"
     inkscape:window-height="705"
     inkscape:window-x="-8"
     inkscape:window-y="-8"
     inkscape:window-maximized="1"
     fit-margin-top="0"
     fit-margin-left="0"
     fit-margin-right="0"
     fit-margin-bottom="0" />
  <metadata
     id="metadata37093">
    <rdf:RDF>
      <cc:Work
         rdf:about="">
        <dc:format>image/svg+xml</dc:format>
        <dc:type
           rdf:resource="http://purl.org/dc/dcmitype/StillImage" />
        <dc:title />
      </cc:Work>
    </rdf:RDF>
  </metadata>
  <g
     inkscape:label="Capa 1"
     inkscape:groupmode="layer"
     id="layer1"
     transform="translate(703.61443,-675.08456)">
    <g
       id="g38512"
       transform="matrix(1.25,0,0,-1.25,-497.22443,889.9782)">
      <path
         d="m 0,0 c 0,-1.351 -36.961,-2.445 -82.559,-2.445 -45.593,0 -82.553,1.094 -82.553,2.445 0,1.351 36.96,2.446 82.553,2.446 C -36.961,2.446 0,1.351 0,0"
         style="fill:#b7a99f;fill-opacity:1;fill-rule:nonzero;stroke:none"
         id="path38514"
         inkscape:connector-curvature="0" />
    </g>
    <g
       id="g38516"
       transform="matrix(1.25,0,0,-1.25,-626.19781,887.43182)">
      <path
         d="m 0,0 -1.907,73.388 -2.391,-73.091 -2.87,0 -3.826,86.278 17.217,0 L 3.359,0 0,0 Z"
         style="fill:#f2b58c;fill-opacity:1;fill-rule:nonzero;stroke:none"
         id="path38518"
         inkscape:connector-curvature="0" />
    </g>
    <g
       id="g38520"
       transform="matrix(1.25,0,0,-1.25,-627.3513,887.43182)">
      <path
         d="M 0,0 0.928,5.477 3.32,6.419 12.08,0 0,0 Z"
         style="fill:#017396;fill-opacity:1;fill-rule:nonzero;stroke:none"
         id="path38522"
         inkscape:connector-curvature="0" />
    </g>
    <g
       id="g38524"
       transform="matrix(1.25,0,0,-1.25,-646.3973,887.43182)">
      <path
         d="M 0,0 9.47,6.419 11.861,5.477 12.788,0 0,0 Z"
         style="fill:#017396;fill-opacity:1;fill-rule:nonzero;stroke:none"
         id="path38526"
         inkscape:connector-curvature="0" />
    </g>
    <g
       id="g38528"
       transform="matrix(1.25,0,0,-1.25,-620.39693,686.1232)">
      <path
         d="m 0,0 c 13.303,-3.419 27.114,-25.287 22.982,-44.515 -5.025,-23.37 -40.423,-25.173 -56.433,-8.289 -11.127,11.735 -7.013,39.535 9.327,49.185 C -16.18,1.072 -6.935,1.784 0,0"
         style="fill:#351f10;fill-opacity:1;fill-rule:nonzero;stroke:none"
         id="path38530"
         inkscape:connector-curvature="0" />
    </g>
    <g
       id="g38532"
       transform="matrix(1.25,0,0,-1.25,-643.82105,745.77045)">
      <path
         d="m 0,0 c -3.595,1.724 -6.615,4.964 -8.737,7.265 -1.533,0.018 -3.427,1.636 -4.587,4.071 -1.19,2.497 -1.21,5.024 -0.17,6.157 13.107,-3.886 27.129,2.066 37.849,10.93 3.932,-1.812 6.646,-4.696 8.492,-8.159 0.559,0.44 1.166,0.659 1.771,0.569 1.76,-0.254 2.816,-2.946 2.354,-6.012 C 36.515,11.756 34.717,9.477 32.956,9.73 32.856,9.746 32.759,9.77 32.664,9.8 30.996,6.889 28.013,3.291 24.2,1.018 L 38.526,-44.461 20.153,-10.599 3.669,-8.714 -7.385,-51.32 0,0 Z"
         style="fill:#f2b58c;fill-opacity:1;fill-rule:nonzero;stroke:none"
         id="path38534"
         inkscape:connector-curvature="0" />
    </g>
    <g
       id="g38536"
       transform="matrix(1.25,0,0,-1.25,-621.73055,783.33507)">
      <path
         d="m 0,0 3.438,23.251 c 0,0 -6.367,4.008 -8.672,4.049 -2.558,0.043 -9.726,-4.049 -9.726,-4.049 L -11.039,0.106 0,0 Z"
         style="fill:#1cc6aa;fill-opacity:1;fill-rule:nonzero;stroke:none"
         id="path38538"
         inkscape:connector-curvature="0" />
    </g>
    <g
       id="g38540"
       transform="matrix(1.25,0,0,-1.25,-615.17793,721.5907)">
      <path
         d="m 0,0 c 0,-1.204 0.917,-2.184 2.045,-2.184 1.129,0 2.046,0.98 2.046,2.184 0,1.207 -0.917,2.185 -2.046,2.185 C 0.917,2.185 0,1.207 0,0"
         style="fill:#351f10;fill-opacity:1;fill-rule:nonzero;stroke:none"
         id="path38542"
         inkscape:connector-curvature="0" />
    </g>
    <g
       id="g38544"
       transform="matrix(1.25,0,0,-1.25,-635.67405,725.19545)">
      <path
         d="m 0,0 c 0,-1.205 0.916,-2.185 2.044,-2.185 1.13,0 2.045,0.98 2.045,2.185 0,1.207 -0.915,2.184 -2.045,2.184 C 0.916,2.184 0,1.207 0,0"
         style="fill:#351f10;fill-opacity:1;fill-rule:nonzero;stroke:none"
         id="path38546"
         inkscape:connector-curvature="0" />
    </g>
    <g
       id="g38548"
       transform="matrix(1.25,0,0,-1.25,-593.31143,835.82295)">
      <path
         d="M 0,0 C 0,0 -2.87,43.332 -29.92,42.559 -53.58,41.88 -61.215,2.827 -61.215,2.827 c 0,0 19.13,-13.189 61.215,-2.827"
         style="fill:#fe0000;fill-opacity:1;fill-rule:nonzero;stroke:none"
         id="path38550"
         inkscape:connector-curvature="0" />
    </g>
    <path
       d="m -639.94018,785.19095 21.52125,0 0,-8.2425 -21.52125,0 0,8.2425 z"
       style="fill:#017396;fill-opacity:1;fill-rule:nonzero;stroke:none"
       id="path38552"
       inkscape:connector-curvature="0" />
    <g
       id="g38554"
       transform="matrix(1.25,0,0,-1.25,-581.51518,710.87908)">
      <path
         d="m 0,0 c -2.091,7.186 -2.969,10.994 0.083,18.091 4.881,0.285 9.269,-0.235 13.752,1.614 7.342,3.027 12.681,9.122 21.006,8.926 -0.125,-8.363 21.591,-23.092 5.81,-30.544"
         style="fill:#351f10;fill-opacity:1;fill-rule:nonzero;stroke:none"
         id="path38556"
         inkscape:connector-curvature="0" />
    </g>
    <g
       id="g38558"
       transform="matrix(1.25,0,0,-1.25,-589.13718,717.95907)">
      <path
         d="M 0,0 C -0.381,3.39 1.294,6.361 3.742,6.636 4.727,6.746 5.687,6.398 6.508,5.727 10.029,11.074 9.613,20.286 27.583,19.989 46.284,19.68 45.917,8.829 48.375,2.563 c 1.265,1.022 2.758,1.42 4.069,0.917 2.302,-0.876 3.184,-4.171 1.969,-7.357 -1.216,-3.188 -4.067,-5.061 -6.37,-4.183 -0.353,0.135 -0.668,0.333 -0.953,0.573 C 43.468,-12.672 35.405,-16.054 26.21,-15.63 16.894,-15.201 9.103,-10.992 6.051,-5.391 5.757,-5.516 5.449,-5.602 5.126,-5.639 2.677,-5.912 0.385,-3.39 0,0"
         style="fill:#f2b58c;fill-opacity:1;fill-rule:nonzero;stroke:none"
         id="path38560"
         inkscape:connector-curvature="0" />
    </g>
    <g
       id="g38562"
       transform="matrix(1.25,0,0,-1.25,-553.42855,709.44957)">
      <path
         d="M 0,0 C 0.171,-1.05 1.189,-1.762 2.27,-1.584 3.353,-1.406 4.094,-0.411 3.922,0.64 3.75,1.692 2.732,2.402 1.649,2.226 0.568,2.05 -0.173,1.053 0,0"
         style="fill:#351f10;fill-opacity:1;fill-rule:nonzero;stroke:none"
         id="path38564"
         inkscape:connector-curvature="0" />
    </g>
    <g
       id="g38566"
       transform="matrix(1.25,0,0,-1.25,-572.90068,711.48333)">
      <path
         d="M 0,0 C 0.172,-1.052 1.19,-1.762 2.272,-1.584 3.354,-1.409 4.094,-0.411 3.923,0.639 3.751,1.691 2.733,2.4 1.65,2.224 0.569,2.047 -0.171,1.052 0,0"
         style="fill:#351f10;fill-opacity:1;fill-rule:nonzero;stroke:none"
         id="path38568"
         inkscape:connector-curvature="0" />
    </g>
    <g
       id="g38570"
       transform="matrix(1.25,0,0,-1.25,-573.12531,750.46283)">
      <path
         d="m 0,0 -18.349,-41.982 7.408,32.11 7.14,22.079 33.755,-1.074 8.507,-22.663 26.564,7.329 -28.01,-17.596 -6.923,10.678 -0.481,-29.808 -6.018,-61.051 10.247,-7.597 -15.54,0.833 0,8.036 c 0,0 -5.019,57.285 -5.019,56.256 l 0,-64.042 -17.499,0.196 10.308,6.214 -9.077,60.556 L 0,0 Z"
         style="fill:#f2b58c;fill-opacity:1;fill-rule:nonzero;stroke:none"
         id="path38572"
         inkscape:connector-curvature="0" />
    </g>
    <g
       id="g38574"
       transform="matrix(1.25,0,0,-1.25,-577.8768,735.20395)">
      <path
         d="M 0,0 5.873,-0.13 C 6.372,-6.242 28.829,-6.656 29.69,-0.91 l 5.022,-0.164 8.199,-21.841 c -0.536,-3.195 -1.371,-6.323 -2.2,-9.452 l -5.861,9.041 1.444,-29.046 c -10.844,0.775 -27.298,1.739 -38.149,2.192 l 3.45,34.024 c 0,0 -2.801,-11.277 -4.028,-10.295 -0.482,0.386 -5.525,4.387 -6.057,4.782 L 0,0 Z"
         style="fill:#ffc23b;fill-opacity:1;fill-rule:nonzero;stroke:none"
         id="path38576"
         inkscape:connector-curvature="0" />
    </g>
    <g
       id="g38578"
       transform="matrix(1.25,0,0,-1.25,-577.8488,796.88858)">
      <path
         d="m 0,0 c 9.996,-0.415 23.561,-1.347 35.21,-2.18 l -7.005,-62.657 9.414,-7.598 -15.54,0.833 0,8.037 c 0,0 -5.019,57.285 -5.019,56.255 l 0,-64.042 -17.499,0.197 10.308,6.214 L 0,0 Z"
         style="fill:#1cc6aa;fill-opacity:1;fill-rule:nonzero;stroke:none"
         id="path38580"
         inkscape:connector-curvature="0" />
    </g>
    <g
       id="g38582"
       transform="matrix(1.25,0,0,-1.25,-542.53505,877.2597)">
      <path
         d="M 0,0 -0.046,-0.54 9.368,-8.138 -6.172,-7.305 -6.172,0 0,0 Z"
         style="fill:#161c1e;fill-opacity:1;fill-rule:nonzero;stroke:none"
         id="path38584"
         inkscape:connector-curvature="0" />
    </g>
    <g
       id="g38586"
       transform="matrix(1.25,0,0,-1.25,-565.64055,877.2597)">
      <path
         d="m 0,0 7.293,0 0,-7.055 -17.499,0.197 L 0.103,-0.645 0,0 Z"
         style="fill:#161c1e;fill-opacity:1;fill-rule:nonzero;stroke:none"
         id="path38588"
         inkscape:connector-curvature="0" />
    </g>
    <g
       id="g38590"
       transform="matrix(1.25,0,0,-1.25,-565.97255,775.44208)">
      <path
         d="M 0,0 16.261,-0.478 8.608,20.564 0,0 Z"
         style="fill:#fc8f00;fill-opacity:1;fill-rule:nonzero;stroke:none"
         id="path38592"
         inkscape:connector-curvature="0" />
    </g>
  </g>
</svg>
