<?xml version="1.0" encoding="UTF-8" standalone="no"?>
<!-- Created with Inkscape (http://www.inkscape.org/) -->

<svg
   xmlns:dc="http://purl.org/dc/elements/1.1/"
   xmlns:cc="http://creativecommons.org/ns#"
   xmlns:rdf="http://www.w3.org/1999/02/22-rdf-syntax-ns#"
   xmlns:svg="http://www.w3.org/2000/svg"
   xmlns="http://www.w3.org/2000/svg"
   xmlns:sodipodi="http://sodipodi.sourceforge.net/DTD/sodipodi-0.dtd"
   xmlns:inkscape="http://www.inkscape.org/namespaces/inkscape"
   width="57.630661mm"
   height="61.982208mm"
   viewBox="0 0 204.20313 219.622"
   id="svg37088"
   version="1.1"
   inkscape:version="0.91 r13725"
   sodipodi:docname="friend2.svg">
  <defs
     id="defs37090">
    <clipPath
       id="clipPath37652"
       clipPathUnits="userSpaceOnUse">
      <path
         inkscape:connector-curvature="0"
         id="path37654"
         d="M 0,800 800,800 800,0 0,0 0,800 Z" />
    </clipPath>
    <clipPath
       id="clipPath37764"
       clipPathUnits="userSpaceOnUse">
      <path
         inkscape:connector-curvature="0"
         id="path37766"
         d="M 0,800 800,800 800,0 0,0 0,800 Z" />
    </clipPath>
  </defs>
  <sodipodi:namedview
     id="base"
     pagecolor="#ffffff"
     bordercolor="#666666"
     borderopacity="1.0"
     inkscape:pageopacity="0.0"
     inkscape:pageshadow="2"
     inkscape:zoom="0.69044441"
     inkscape:cx="451.15517"
     inkscape:cy="-160.96276"
     inkscape:document-units="px"
     inkscape:current-layer="layer1"
     showgrid="false"
     inkscape:window-width="1366"
     inkscape:window-height="705"
     inkscape:window-x="-8"
     inkscape:window-y="-8"
     inkscape:window-maximized="1"
     fit-margin-top="0"
     fit-margin-left="0"
     fit-margin-right="0"
     fit-margin-bottom="0" />
  <metadata
     id="metadata37093">
    <rdf:RDF>
      <cc:Work
         rdf:about="">
        <dc:format>image/svg+xml</dc:format>
        <dc:type
           rdf:resource="http://purl.org/dc/dcmitype/StillImage" />
        <dc:title />
      </cc:Work>
    </rdf:RDF>
  </metadata>
  <g
     inkscape:label="Capa 1"
     inkscape:groupmode="layer"
     id="layer1"
     transform="translate(703.61531,-399.3292)">
    <g
       id="g38208"
       transform="matrix(1.25,0,0,-1.25,-515.53793,615.89495)">
      <path
         d="m 0,0 c 0,-1.351 -32.466,-2.445 -72.515,-2.445 -40.048,0 -72.511,1.094 -72.511,2.445 0,1.351 32.463,2.445 72.511,2.445 C -32.466,2.445 0,1.351 0,0"
         style="fill:#b7a99f;fill-opacity:1;fill-rule:nonzero;stroke:none"
         id="path38210"
         inkscape:connector-curvature="0" />
    </g>
    <g
       id="g38212"
       transform="matrix(1.25,0,0,-1.25,-602.5973,443.25633)">
      <path
         d="M 0,0 C 0.406,3.602 -1.375,6.758 -3.974,7.05 -5.021,7.167 -6.04,6.797 -6.912,6.084 -10.653,11.765 -10.211,21.55 -29.3,21.234 -49.166,20.906 -48.775,9.38 -51.387,2.723 c -1.343,1.087 -2.929,1.507 -4.322,0.975 -2.445,-0.931 -3.382,-4.432 -2.09,-7.816 1.291,-3.386 4.319,-5.375 6.765,-4.443 0.375,0.143 0.71,0.354 1.012,0.608 3.848,-5.507 12.414,-9.1 22.181,-8.65 9.896,0.457 18.173,4.928 21.414,10.878 0.312,-0.133 0.639,-0.225 0.983,-0.265 C -2.843,-6.28 -0.408,-3.6 0,0"
         style="fill:#f2b58c;fill-opacity:1;fill-rule:nonzero;stroke:none"
         id="path38214"
         inkscape:connector-curvature="0" />
    </g>
    <g
       id="g38216"
       transform="matrix(1.25,0,0,-1.25,-640.61306,437.2712)">
      <path
         d="m 0,0 c -0.289,-1.094 -1.439,-1.741 -2.563,-1.442 -1.127,0.298 -1.807,1.428 -1.518,2.521 0.29,1.095 1.439,1.741 2.566,1.443 C -0.39,2.224 0.291,1.095 0,0"
         style="fill:#351f10;fill-opacity:1;fill-rule:nonzero;stroke:none"
         id="path38218"
         inkscape:connector-curvature="0" />
    </g>
    <g
       id="g38220"
       transform="matrix(1.25,0,0,-1.25,-619.86655,437.63195)">
      <path
         d="m 0,0 c -0.29,-1.093 -1.439,-1.739 -2.565,-1.441 -1.126,0.297 -1.806,1.427 -1.517,2.521 0.29,1.095 1.439,1.739 2.566,1.441 C -0.391,2.224 0.289,1.095 0,0"
         style="fill:#351f10;fill-opacity:1;fill-rule:nonzero;stroke:none"
         id="path38222"
         inkscape:connector-curvature="0" />
    </g>
    <g
       id="g38224"
       transform="matrix(1.25,0,0,-1.25,-614.6383,451.88058)">
      <path
         d="m 0,0 c -1.86,-1.432 -4.865,-1.576 -6.44,3.289 -1.574,4.866 -8.585,1.288 -8.585,1.288 l -0.005,-0.092 -0.006,0.092 c 0,0 -7.011,3.578 -8.586,-1.288 C -25.196,-1.576 -28.2,-1.432 -30.06,0 -31.903,1.415 -24.209,-9.083 -15.03,-0.133 -5.852,-9.083 1.841,1.415 0,0"
         style="fill:#351f10;fill-opacity:1;fill-rule:nonzero;stroke:none"
         id="path38226"
         inkscape:connector-curvature="0" />
    </g>
    <g
       id="g38228"
       transform="matrix(1.25,0,0,-1.25,-616.21305,479.94395)">
      <path
         d="M 0,0 33.299,9.157 0.932,11.25 -15.396,14.876 -31.868,10.175 -40.375,-12.487 -54.527,0 l 15.599,-22.754 6.922,10.678 0.482,-29.808 6.018,-57.72 -10.247,-7.599 15.54,0.833 0,8.037 c 0,0 5.019,53.953 5.019,52.924 l 0,-60.71 17.498,0.196 -10.308,6.213 9.078,57.225 L 0,0 Z"
         style="fill:#f2b58c;fill-opacity:1;fill-rule:nonzero;stroke:none"
         id="path38230"
         inkscape:connector-curvature="0" />
    </g>
    <g
       id="g38232"
       transform="matrix(1.25,0,0,-1.25,-615.04793,465.88207)">
      <path
         d="m 0,0 -3.961,-0.13 c -0.498,-6.113 -22.956,-6.526 -23.817,-0.78 l -5.022,-0.164 -8.199,-21.841 c 0.537,-3.195 1.372,-6.323 2.201,-9.452 l 5.86,9.041 0.469,-29.045 c 10.845,0.775 22.516,1.738 33.367,2.192 l -0.581,39.762 c 0,0 12.509,1.931 13.736,2.914 0.482,0.385 -1.782,7.096 -1.249,7.492 L 0,0 Z"
         style="fill:#fe0000;fill-opacity:1;fill-rule:nonzero;stroke:none"
         id="path38234"
         inkscape:connector-curvature="0" />
    </g>
    <g
       id="g38236"
       transform="matrix(1.25,0,0,-1.25,-613.88093,527.56483)">
      <path
         d="m 0,0 c -9.997,-0.417 -21.647,-1.348 -33.297,-2.181 l 5.093,-59.327 -9.415,-7.598 15.54,0.833 0,8.037 c 0,0 5.019,53.953 5.019,52.924 l 0,-60.71 17.498,0.196 L -9.87,-61.613 0,0 Z"
         style="fill:#017396;fill-opacity:1;fill-rule:nonzero;stroke:none"
         id="path38238"
         inkscape:connector-curvature="0" />
    </g>
    <g
       id="g38240"
       transform="matrix(1.25,0,0,-1.25,-649.19456,603.77458)">
      <path
         d="M 0,0 0.047,-0.54 -9.368,-8.139 6.172,-7.306 6.172,0 0,0 Z"
         style="fill:#161c1e;fill-opacity:1;fill-rule:nonzero;stroke:none"
         id="path38242"
         inkscape:connector-curvature="0" />
    </g>
    <g
       id="g38244"
       transform="matrix(1.25,0,0,-1.25,-626.08918,603.77458)">
      <path
         d="m 0,0 -7.293,0 0,-7.055 17.498,0.197 L -0.103,-0.646 0,0 Z"
         style="fill:#161c1e;fill-opacity:1;fill-rule:nonzero;stroke:none"
         id="path38246"
         inkscape:connector-curvature="0" />
    </g>
    <g
       id="g38248"
       transform="matrix(1.25,0,0,-1.25,-536.48155,425.22045)">
      <path
         d="m 0,0 c -2.047,6.732 -4.438,8.853 -10.738,11.835 -4.431,2.098 -8.198,4.548 -10.682,8.878 -10.634,-8.09 -24.32,-17.418 -24.467,-32.442 L 0.315,-17.556 C 2.337,-11.765 1.785,-5.871 0,0"
         style="fill:#351f10;fill-opacity:1;fill-rule:nonzero;stroke:none"
         id="path38250"
         inkscape:connector-curvature="0" />
    </g>
    <g
       id="g38252"
       transform="matrix(1.25,0,0,-1.25,-599.65543,446.55658)">
      <path
         d="M 0,0 C -0.382,3.391 1.294,6.362 3.741,6.636 4.727,6.747 5.686,6.399 6.507,5.728 10.028,11.075 9.612,20.287 27.583,19.989 46.284,19.681 45.916,8.83 48.375,2.563 c 1.265,1.023 2.757,1.42 4.069,0.918 2.302,-0.877 3.184,-4.172 1.968,-7.357 -1.216,-3.188 -4.067,-5.061 -6.369,-4.183 -0.354,0.135 -0.668,0.332 -0.953,0.572 -3.623,-5.184 -11.686,-8.566 -20.881,-8.142 C 16.894,-15.2 9.102,-10.991 6.05,-5.39 5.757,-5.515 5.448,-5.601 5.125,-5.638 2.676,-5.913 0.384,-3.389 0,0"
         style="fill:#f2b58c;fill-opacity:1;fill-rule:nonzero;stroke:none"
         id="path38254"
         inkscape:connector-curvature="0" />
    </g>
    <g
       id="g38256"
       transform="matrix(1.25,0,0,-1.25,-563.86805,440.92295)">
      <path
         d="M 0,0 C 0.272,-1.029 1.354,-1.639 2.413,-1.357 3.474,-1.076 4.114,-0.012 3.842,1.017 3.569,2.047 2.487,2.656 1.426,2.375 0.367,2.094 -0.274,1.031 0,0"
         style="fill:#351f10;fill-opacity:1;fill-rule:nonzero;stroke:none"
         id="path38258"
         inkscape:connector-curvature="0" />
    </g>
    <g
       id="g38260"
       transform="matrix(1.25,0,0,-1.25,-583.39805,441.2617)">
      <path
         d="m 0,0 c 0.272,-1.029 1.354,-1.638 2.415,-1.357 1.059,0.28 1.699,1.344 1.427,2.373 C 3.57,2.047 2.487,2.654 1.427,2.374 0.367,2.093 -0.272,1.031 0,0"
         style="fill:#351f10;fill-opacity:1;fill-rule:nonzero;stroke:none"
         id="path38262"
         inkscape:connector-curvature="0" />
    </g>
    <g
       id="g38264"
       transform="matrix(1.25,0,0,-1.25,-586.03543,477.8627)">
      <path
         d="m 0,0 -33.299,9.157 32.367,2.092 32.8,-1.074 8.507,-22.662 L 54.527,0 38.928,-22.754 l -6.922,10.678 -0.482,-29.809 -6.018,-61.05 10.247,-7.597 -15.54,0.832 0,8.036 c 0,0 -5.02,57.285 -5.02,56.256 l 0,-64.042 -17.498,0.197 10.309,6.213 -9.078,60.556 L 0,0 Z"
         style="fill:#f2b58c;fill-opacity:1;fill-rule:nonzero;stroke:none"
         id="path38266"
         inkscape:connector-curvature="0" />
    </g>
    <g
       id="g38268"
       transform="matrix(1.25,0,0,-1.25,-587.20055,463.80145)">
      <path
         d="m 0,0 3.961,-0.129 c 0.499,-6.113 22.956,-6.527 23.817,-0.78 l 5.022,-0.165 8.199,-21.841 c -0.537,-3.195 -1.372,-6.323 -2.2,-9.451 l -5.861,9.041 -0.469,-29.046 c -10.844,0.775 -22.516,1.739 -33.367,2.192 l 0.581,39.762 c 0,0 -12.509,1.932 -13.736,2.914 -0.482,0.386 1.782,7.097 1.249,7.492 L 0,0 Z"
         style="fill:#1cc6aa;fill-opacity:1;fill-rule:nonzero;stroke:none"
         id="path38270"
         inkscape:connector-curvature="0" />
    </g>
    <g
       id="g38272"
       transform="matrix(1.25,0,0,-1.25,-588.36756,525.4842)">
      <path
         d="m 0,0 c 9.997,-0.417 21.647,-1.347 33.297,-2.18 l -5.092,-62.657 9.414,-7.598 -15.54,0.832 0,8.036 c 0,0 -5.02,57.285 -5.02,56.256 l 0,-64.042 -17.498,0.197 L 9.87,-64.943 0,0 Z"
         style="fill:#161c1e;fill-opacity:1;fill-rule:nonzero;stroke:none"
         id="path38274"
         inkscape:connector-curvature="0" />
    </g>
    <g
       id="g38276"
       transform="matrix(1.25,0,0,-1.25,-553.0538,605.85582)">
      <path
         d="M 0,0 -0.046,-0.54 9.368,-8.138 -6.172,-7.306 -6.172,0 0,0 Z"
         style="fill:#161c1e;fill-opacity:1;fill-rule:nonzero;stroke:none"
         id="path38278"
         inkscape:connector-curvature="0" />
    </g>
    <g
       id="g38280"
       transform="matrix(1.25,0,0,-1.25,-576.1593,605.85582)">
      <path
         d="m 0,0 7.292,0 0,-7.056 -17.498,0.198 L 0.103,-0.646 0,0 Z"
         style="fill:#161c1e;fill-opacity:1;fill-rule:nonzero;stroke:none"
         id="path38282"
         inkscape:connector-curvature="0" />
    </g>
    <g
       id="g38284"
       transform="matrix(1.25,0,0,-1.25,-518.45968,481.68658)">
      <path
         d="m 0,0 c -0.198,1.68 0.312,2.693 0.945,3.304 l 0,-5.745 C 0.481,-1.814 0.12,-1.019 0,0 m 0.945,10.967 0,-3.391 C -1.28,6.773 -4.274,4.415 -3.703,-0.437 c 0.415,-3.527 2.575,-5.655 4.648,-6.802 l 0,-3.854 14.293,0 0,22.06 -14.293,0 z"
         style="fill:#ffc23b;fill-opacity:1;fill-rule:nonzero;stroke:none"
         id="path38286"
         inkscape:connector-curvature="0" />
    </g>
    <g
       id="g38288"
       transform="matrix(1.25,0,0,-1.25,-684.06281,486.8397)">
      <path
         d="M 0,0 0,6.287 C 0.693,5.618 1.25,4.51 1.033,2.671 0.903,1.557 0.507,0.686 0,0 m -15.642,14.674 0,-24.142 15.642,0 0,4.218 C 2.268,-3.995 4.631,-1.666 5.086,2.194 5.71,7.503 2.435,10.084 0,10.962 l 0,3.712 -15.642,0 z"
         style="fill:#ffc23b;fill-opacity:1;fill-rule:nonzero;stroke:none"
         id="path38290"
         inkscape:connector-curvature="0" />
    </g>
  </g>
</svg>
