<?xml version="1.0" encoding="UTF-8" standalone="no"?>
<!-- Created with Inkscape (http://www.inkscape.org/) -->

<svg
   xmlns:dc="http://purl.org/dc/elements/1.1/"
   xmlns:cc="http://creativecommons.org/ns#"
   xmlns:rdf="http://www.w3.org/1999/02/22-rdf-syntax-ns#"
   xmlns:svg="http://www.w3.org/2000/svg"
   xmlns="http://www.w3.org/2000/svg"
   xmlns:sodipodi="http://sodipodi.sourceforge.net/DTD/sodipodi-0.dtd"
   xmlns:inkscape="http://www.inkscape.org/namespaces/inkscape"
   width="51.161598mm"
   height="59.346512mm"
   viewBox="0 0 181.28125 210.28292"
   id="svg37088"
   version="1.1"
   inkscape:version="0.91 r13725"
   sodipodi:docname="friend1.svg">
  <defs
     id="defs37090">
    <clipPath
       id="clipPath37652"
       clipPathUnits="userSpaceOnUse">
      <path
         inkscape:connector-curvature="0"
         id="path37654"
         d="M 0,800 800,800 800,0 0,0 0,800 Z" />
    </clipPath>
    <clipPath
       id="clipPath37764"
       clipPathUnits="userSpaceOnUse">
      <path
         inkscape:connector-curvature="0"
         id="path37766"
         d="M 0,800 800,800 800,0 0,0 0,800 Z" />
    </clipPath>
  </defs>
  <sodipodi:namedview
     id="base"
     pagecolor="#ffffff"
     bordercolor="#666666"
     borderopacity="1.0"
     inkscape:pageopacity="0.0"
     inkscape:pageshadow="2"
     inkscape:zoom="0.69044441"
     inkscape:cx="-250.70351"
     inkscape:cy="-160.96226"
     inkscape:document-units="px"
     inkscape:current-layer="layer1"
     showgrid="false"
     inkscape:window-width="1366"
     inkscape:window-height="705"
     inkscape:window-x="-8"
     inkscape:window-y="-8"
     inkscape:window-maximized="1"
     fit-margin-top="0"
     fit-margin-left="0"
     fit-margin-right="0"
     fit-margin-bottom="0" />
  <metadata
     id="metadata37093">
    <rdf:RDF>
      <cc:Work
         rdf:about="">
        <dc:format>image/svg+xml</dc:format>
        <dc:type
           rdf:resource="http://purl.org/dc/dcmitype/StillImage" />
        <dc:title />
      </cc:Work>
    </rdf:RDF>
  </metadata>
  <g
     inkscape:label="Capa 1"
     inkscape:groupmode="layer"
     id="layer1"
     transform="translate(53.03756,-408.66879)">
    <g
       id="g38448"
       transform="matrix(1.25,0,0,-1.25,128.24369,615.89495)">
      <path
         d="m 0,0 c 0,-1.351 -32.466,-2.445 -72.515,-2.445 -40.048,0 -72.51,1.094 -72.51,2.445 0,1.351 32.462,2.445 72.51,2.445 C -32.466,2.445 0,1.351 0,0"
         style="fill:#b7a99f;fill-opacity:1;fill-rule:nonzero;stroke:none"
         id="path38450"
         inkscape:connector-curvature="0" />
    </g>
    <g
       id="g38480"
       transform="matrix(1.25,0,0,-1.25,92.44782,487.14308)">
      <path
         d="m 0,0 -14.43,-20.535 -29.415,-1.664 27.75,7.214 L -6.104,6.66 0,0 Z"
         style="fill:#f2b58c;fill-opacity:1;fill-rule:nonzero;stroke:none"
         id="path38482"
         inkscape:connector-curvature="0" />
    </g>
    <g
       id="g38484"
       transform="matrix(1.25,0,0,-1.25,96.26382,463.55608)">
      <path
         d="m 0,0 c 0,0 11.933,-13.319 7.492,-54.943 l -22.754,-0.555 c 0,0 -7.769,49.393 7.77,56.053 L 0,0 Z"
         style="fill:#fe0000;fill-opacity:1;fill-rule:nonzero;stroke:none"
         id="path38486"
         inkscape:connector-curvature="0" />
    </g>
    <g
       id="g38488"
       transform="matrix(1.25,0,0,-1.25,88.602695,610.66295)">
      <path
         d="m 0,0 -8.023,62.188 21.644,0.554 -8.325,-69.373 -4.441,0 -10.543,0 L 0,0 Z"
         style="fill:#161c1e;fill-opacity:1;fill-rule:nonzero;stroke:none"
         id="path38490"
         inkscape:connector-curvature="0" />
    </g>
    <g
       id="g38492"
       transform="matrix(1.25,0,0,-1.25,93.139945,479.85857)">
      <path
         d="M 0,0 6.66,1.665 23.863,-18.87 6.66,-34.964 17.204,-18.314 0,0 Z"
         style="fill:#f2b58c;fill-opacity:1;fill-rule:nonzero;stroke:none"
         id="path38494"
         inkscape:connector-curvature="0" />
    </g>
    <g
       id="g38496"
       transform="matrix(1.25,0,0,-1.25,56.373695,446.48633)">
      <path
         d="m 0,0 c 0,-9.962 11.306,-18.037 25.252,-18.037 13.946,0 25.252,8.075 25.252,18.037 0,9.961 -11.306,18.037 -25.252,18.037 C 11.306,18.037 0,9.961 0,0"
         style="fill:#f2b58c;fill-opacity:1;fill-rule:nonzero;stroke:none"
         id="path38498"
         inkscape:connector-curvature="0" />
    </g>
    <g
       id="g38500"
       transform="matrix(1.25,0,0,-1.25,61.664195,444.75233)">
      <path
         d="m 0,0 c 0,-1.341 1.087,-2.428 2.428,-2.428 1.341,0 2.427,1.087 2.427,2.428 0,1.341 -1.086,2.428 -2.427,2.428 C 1.087,2.428 0,1.341 0,0"
         style="fill:#351f10;fill-opacity:1;fill-rule:nonzero;stroke:none"
         id="path38502"
         inkscape:connector-curvature="0" />
    </g>
    <g
       id="g38504"
       transform="matrix(1.25,0,0,-1.25,123.92369,439.70108)">
      <path
         d="m 0,0 c 1.671,4.056 -2.418,5.996 -5.563,7.339 1.657,3.942 -1.442,7.364 -5.66,6.742 0.16,8.423 -3.391,6.961 -9.436,4.916 0.581,3.312 -1.036,6.544 -4.51,5.69 -2.658,-0.654 -4.877,-8.354 -5.563,-10.568 -2.064,7.795 -7.345,3.138 -6.622,-2.758 -2.387,6.213 -7.265,4.941 -9.212,2.265 -0.747,-0.561 -1.255,-1.514 -1.366,-2.971 -0.417,-5.516 7.155,-2.342 9.66,-5.14 5.321,-5.948 8.33,-7.635 10.625,-12.538 1.744,-3.727 2.234,-8.004 4.238,-11.626 0.771,-1.394 1.637,-3.973 3.368,-4.532 1.145,-0.37 6.171,1.562 4.929,2.59 2.57,-2.127 6.422,-0.061 7.257,2.896 6.537,-4.383 10.978,9.492 7.642,6.508 C -2.485,-13.22 6.452,-3.763 0,0"
         style="fill:#351f10;fill-opacity:1;fill-rule:nonzero;stroke:none"
         id="path38506"
         inkscape:connector-curvature="0" />
    </g>
    <g
       id="g38508"
       transform="matrix(1.25,0,0,-1.25,82.38932,445.79232)">
      <path
         d="M 0,0 C 0,-3.984 1.739,-7.215 3.884,-7.215 6.03,-7.215 7.77,-3.984 7.77,0 7.77,3.984 6.03,7.214 3.884,7.214 1.739,7.214 0,3.984 0,0"
         style="fill:#f2b58c;fill-opacity:1;fill-rule:nonzero;stroke:none"
         id="path38510"
         inkscape:connector-curvature="0" />
    </g>
    <g
       id="g38626"
       transform="matrix(-1.25,0,0,-1.25,49.47993,455.26733)">
      <path
         d="m 0,0 c -0.839,-8.547 8.476,-16.454 20.804,-17.662 12.327,-1.207 23,4.742 23.837,13.29 C 45.478,4.174 36.164,12.081 23.836,13.29 11.508,14.498 0.838,8.549 0,0"
         style="fill:#f2b58c;fill-opacity:1;fill-rule:nonzero;stroke:none"
         id="path38628"
         inkscape:connector-curvature="0" />
    </g>
    <g
       id="g38630"
       transform="matrix(-1.25,0,0,-1.25,41.50193,455.29783)"
       style="fill:#374e0a;fill-opacity:1">
      <path
         d="M 0,0 C -0.141,-1.437 0.912,-2.717 2.347,-2.858 3.789,-2.999 5.067,-1.947 5.208,-0.51 5.349,0.929 4.299,2.209 2.859,2.35 1.422,2.491 0.141,1.439 0,0"
         style="fill:#374e0a;fill-opacity:1;fill-rule:nonzero;stroke:none"
         id="path38632"
         inkscape:connector-curvature="0" />
    </g>
    <g
       id="g38634"
       transform="matrix(-1.25,0,0,-1.25,-3.46207,440.79221)"
       style="fill:#fc2600;fill-opacity:1">
      <path
         d="M 0,0 C 6.826,8.346 11.564,19.898 -5.639,22.186 -19.8,24.066 -15.829,11.559 -13.98,7.072 -29.482,11.903 -35.795,-0.399 -35.795,-0.399 L -8.098,-27.45 c 0,0 24.553,11.416 8.098,27.45"
         style="fill:#fc2600;fill-opacity:1;fill-rule:nonzero;stroke:none"
         id="path38636"
         inkscape:connector-curvature="0" />
    </g>
    <g
       id="g38638"
       transform="matrix(-1.25,0,0,-1.25,19.83143,477.86983)">
      <path
         d="M 0,0 C 0,0 -16.58,-14.028 5.739,-40.811 L 18.492,-36.984 4.022,0.346 0,0 Z"
         style="fill:#017396;fill-opacity:1;fill-rule:nonzero;stroke:none"
         id="path38640"
         inkscape:connector-curvature="0" />
    </g>
    <g
       id="g38642"
       transform="matrix(-1.25,0,0,-1.25,-3.28382,524.10033)">
      <path
         d="m 0,0 c -3.137,1.112 -12.753,-3.826 -12.753,-3.826 l -15.304,-38.26 49.738,7.016 c 0,0 -1.913,28.056 -21.681,35.07"
         style="fill:#1cc6aa;fill-opacity:1;fill-rule:nonzero;stroke:none"
         id="path38644"
         inkscape:connector-curvature="0" />
    </g>
    <g
       id="g38646"
       transform="matrix(-1.0252012,-0.71516612,0.71516612,-1.0252012,58.58803,509.08246)">
      <path
         d="m 0,0 12.116,-26.145 c 0,0 28.056,14.667 24.868,19.768 C 33.796,-1.276 16.58,-19.13 16.58,-19.13 L 0,0 Z"
         style="fill:#f2b58c;fill-opacity:1;fill-rule:nonzero;stroke:none"
         id="path38648"
         inkscape:connector-curvature="0" />
    </g>
    <g
       id="g38650"
       transform="matrix(-1.25,0,0,-1.25,1.49893,572.32295)">
      <path
         d="m 0,0 6.377,-37.303 4.463,0 L 7.014,0.956 0,0 Z"
         style="fill:#f2b58c;fill-opacity:1;fill-rule:nonzero;stroke:none"
         id="path38652"
         inkscape:connector-curvature="0" />
    </g>
    <g
       id="g38654"
       transform="matrix(-1.25,0,0,-1.25,-12.05094,618.95146)">
      <path
         d="M 0,0 -15.304,0 -0.637,5.738 0,0 Z"
         style="fill:#fe0000;fill-opacity:1;fill-rule:nonzero;stroke:none"
         id="path38656"
         inkscape:connector-curvature="0" />
    </g>
  </g>
</svg>
