<?xml version="1.0" encoding="UTF-8" standalone="no"?>
<!-- Created with Inkscape (http://www.inkscape.org/) -->

<svg
   xmlns:dc="http://purl.org/dc/elements/1.1/"
   xmlns:cc="http://creativecommons.org/ns#"
   xmlns:rdf="http://www.w3.org/1999/02/22-rdf-syntax-ns#"
   xmlns:svg="http://www.w3.org/2000/svg"
   xmlns="http://www.w3.org/2000/svg"
   xmlns:sodipodi="http://sodipodi.sourceforge.net/DTD/sodipodi-0.dtd"
   xmlns:inkscape="http://www.inkscape.org/namespaces/inkscape"
   width="144.49777mm"
   height="144.49777mm"
   viewBox="0 0 511.99998 511.99998"
   id="svg16584"
   version="1.1"
   inkscape:version="0.91 r13725"
   sodipodi:docname="music.svg">
  <defs
     id="defs16586" />
  <sodipodi:namedview
     id="base"
     pagecolor="#ffffff"
     bordercolor="#666666"
     borderopacity="1.0"
     inkscape:pageopacity="0.0"
     inkscape:pageshadow="2"
     inkscape:zoom="0.35"
     inkscape:cx="441.97605"
     inkscape:cy="-237.99998"
     inkscape:document-units="px"
     inkscape:current-layer="layer1"
     showgrid="false"
     fit-margin-top="0"
     fit-margin-left="0"
     fit-margin-right="0"
     fit-margin-bottom="0"
     inkscape:window-width="1366"
     inkscape:window-height="705"
     inkscape:window-x="-8"
     inkscape:window-y="-8"
     inkscape:window-maximized="1" />
  <metadata
     id="metadata16589">
    <rdf:RDF>
      <cc:Work
         rdf:about="">
        <dc:format>image/svg+xml</dc:format>
        <dc:type
           rdf:resource="http://purl.org/dc/dcmitype/StillImage" />
        <dc:title></dc:title>
      </cc:Work>
    </rdf:RDF>
  </metadata>
  <g
     inkscape:label="Capa 1"
     inkscape:groupmode="layer"
     id="layer1"
     transform="translate(725.54749,217.6378)">
    <circle
       style="fill:#e50303;fill-opacity:1"
       cx="-469.54749"
       cy="38.362198"
       r="256"
       id="circle17133" />
    <g
       id="g17149"
       transform="translate(189.71429,324.93363)" />
    <g
       id="g17151"
       transform="translate(189.71429,324.93363)" />
    <g
       id="g17153"
       transform="translate(189.71429,324.93363)" />
    <g
       id="g17155"
       transform="translate(189.71429,324.93363)" />
    <g
       id="g17157"
       transform="translate(189.71429,324.93363)" />
    <g
       id="g17159"
       transform="translate(189.71429,324.93363)" />
    <g
       id="g17161"
       transform="translate(189.71429,324.93363)" />
    <g
       id="g17163"
       transform="translate(189.71429,324.93363)" />
    <g
       id="g17165"
       transform="translate(189.71429,324.93363)" />
    <g
       id="g17167"
       transform="translate(189.71429,324.93363)" />
    <g
       id="g17169"
       transform="translate(189.71429,324.93363)" />
    <g
       id="g17171"
       transform="translate(189.71429,324.93363)" />
    <g
       id="g17173"
       transform="translate(189.71429,324.93363)" />
    <g
       id="g17175"
       transform="translate(189.71429,324.93363)" />
    <g
       id="g17177"
       transform="translate(189.71429,324.93363)" />
    <g
       id="g17603"
       transform="matrix(0.84605711,0,0,0.84605711,-637.83024,-191.92089)">
      <g
         id="g17383">
        <path
           id="path17385"
           d="m 415.994,112 c 0,-5.919 3.222,-11.074 8,-13.842 l 0,-17.15 c -13.802,3.552 -24,16.081 -24,30.992 0,14.911 10.198,27.44 24,30.992 l 0,-17.15 c -4.777,-2.768 -8,-7.923 -8,-13.842 z"
           style="fill:#dee1e9"
           inkscape:connector-curvature="0" />
        <path
           id="path17387"
           d="m 463.994,112 c 0,-14.911 -10.198,-27.44 -24,-30.992 l 0,17.15 c 4.778,2.768 8,7.923 8,13.842 0,5.919 -3.222,11.074 -8,13.842 l 0,17.15 c 13.802,-3.552 24,-16.081 24,-30.992 z"
           style="fill:#dee1e9"
           inkscape:connector-curvature="0" />
        <path
           id="path17389"
           d="m 332.117,140.754 c 0.898,0.958 1.792,1.918 2.667,2.89 -0.875,-0.972 -1.768,-1.932 -2.667,-2.89 z"
           style="fill:#5f555a"
           inkscape:connector-curvature="0" />
        <path
           id="path17391"
           d="m 327.759,136.235 c 1.205,1.205 2.39,2.424 3.557,3.653 -1.167,-1.229 -2.352,-2.447 -3.557,-3.653 z"
           style="fill:#5f555a"
           inkscape:connector-curvature="0" />
        <path
           id="path17393"
           d="m 320.351,129.21 c 0.972,0.874 1.932,1.769 2.89,2.667 -0.958,-0.898 -1.919,-1.792 -2.89,-2.667 z"
           style="fill:#5f555a"
           inkscape:connector-curvature="0" />
        <path
           id="path17395"
           d="m 324.106,132.679 c 1.229,1.166 2.447,2.351 3.653,3.557 -1.206,-1.206 -2.424,-2.39 -3.653,-3.557 z"
           style="fill:#5f555a"
           inkscape:connector-curvature="0" />
        <path
           id="path17397"
           d="m 345.051,213.132 7.356,-2.829 c -7.785,-20.333 -19.461,-39.502 -35.217,-56.235 -0.124,-0.132 -0.244,-0.266 -0.369,-0.398 -1.05,-1.108 -2.118,-2.206 -3.204,-3.292 -1.086,-1.086 -2.184,-2.154 -3.292,-3.204 -0.132,-0.125 -0.266,-0.245 -0.398,-0.369 -16.733,-15.756 -35.902,-27.432 -56.235,-35.217 l -2.829,7.356 C 192.233,96.492 123.215,108.85 76.03,156.035 28.845,203.22 16.486,272.237 38.938,330.868 l -7.355,2.829 c 7.785,20.334 19.462,39.503 35.218,56.237 0.124,0.131 0.243,0.265 0.367,0.397 1.05,1.108 2.118,2.206 3.204,3.292 1.086,1.086 2.184,2.154 3.292,3.204 0.131,0.124 0.265,0.244 0.397,0.367 16.733,15.756 35.903,27.433 56.237,35.218 l 2.829,-7.355 c 47.896,18.341 102.718,13.444 146.913,-14.686 l -1.198,0.549 c -1.556,0.712 -3.247,1.081 -4.958,1.081 l -25.13,0 16.125,-19.568 c 1.147,-1.392 2.595,-2.505 4.235,-3.256 l 16.402,-7.508 1.556,3.422 38.039,-17.29 c 32.721,-45.418 39.37,-103.93 19.94,-154.669 z m -54.062,157.863 c -40.279,40.279 -99.198,50.829 -149.248,31.663 l -8.574,22.293 c -19.386,-7.423 -37.662,-18.554 -53.616,-33.576 -0.127,-0.12 -0.257,-0.235 -0.384,-0.355 -1.057,-1.001 -2.103,-2.019 -3.139,-3.054 -1.036,-1.035 -2.053,-2.082 -3.054,-3.139 -0.12,-0.127 -0.236,-0.256 -0.355,-0.384 -15.021,-15.954 -26.153,-34.23 -33.576,-53.616 l 22.293,-8.574 C 42.17,272.203 52.719,213.284 92.999,173.005 c 40.28,-40.279 99.198,-50.829 149.248,-31.663 l 8.574,-22.293 c 19.381,7.421 37.653,18.549 53.605,33.566 0.131,0.124 0.265,0.243 0.396,0.367 1.056,1.001 2.102,2.018 3.137,3.053 1.035,1.035 2.052,2.081 3.053,3.137 0.124,0.131 0.243,0.265 0.367,0.396 15.016,15.951 26.144,34.224 33.566,53.605 l -22.293,8.574 c 19.166,50.05 8.617,108.969 -31.663,149.248 z"
           style="fill:#5f555a"
           inkscape:connector-curvature="0" />
        <path
           id="path17399"
           d="m 352.517,210.26 c 18.852,49.23 14.295,105.437 -13.667,151.293 l 29.438,-13.381 c 27.648,-64.04 18.777,-140.06 -26.601,-196.412 12.7,15.794 22.522,33.135 29.503,51.318 l -18.673,7.182 z"
           style="fill:#5f555a"
           inkscape:connector-curvature="0" />
        <path
           id="path17401"
           d="m 296.532,398.359 -2.841,1.291 0.337,0.74 c 0.84,-0.668 1.675,-1.344 2.504,-2.031 z"
           style="fill:#5f555a"
           inkscape:connector-curvature="0" />
        <path
           id="path17403"
           d="m 335.498,144.454 c 0.899,1.011 1.794,2.025 2.668,3.05 -0.875,-1.025 -1.768,-2.039 -2.668,-3.05 z"
           style="fill:#5f555a"
           inkscape:connector-curvature="0" />
        <path
           id="path17405"
           d="m 338.661,148.096 c 0.946,1.119 1.883,2.243 2.799,3.378 -0.916,-1.135 -1.852,-2.259 -2.799,-3.378 z"
           style="fill:#5f555a"
           inkscape:connector-curvature="0" />
        <path
           id="path17407"
           d="m 316.49,125.828 c 1.025,0.874 2.039,1.768 3.05,2.668 -1.01,-0.9 -2.025,-1.793 -3.05,-2.668 z"
           style="fill:#5f555a"
           inkscape:connector-curvature="0" />
        <path
           id="path17409"
           d="m 51.868,403.243 c -0.897,-0.957 -1.79,-1.915 -2.663,-2.885 0.874,0.97 1.767,1.929 2.663,2.885 z"
           style="fill:#5f555a"
           inkscape:connector-curvature="0" />
        <path
           id="path17411"
           d="m 71.467,421.465 c -1.134,-0.916 -2.258,-1.852 -3.375,-2.797 1.117,0.946 2.241,1.881 3.375,2.797 z"
           style="fill:#5f555a"
           inkscape:connector-curvature="0" />
        <path
           id="path17413"
           d="m 63.637,414.789 c -0.97,-0.873 -1.929,-1.766 -2.885,-2.663 0.956,0.897 1.914,1.789 2.885,2.663 z"
           style="fill:#5f555a"
           inkscape:connector-curvature="0" />
        <path
           id="path17415"
           d="m 312.52,122.533 c 1.135,0.916 2.259,1.853 3.378,2.799 -1.118,-0.946 -2.243,-1.881 -3.378,-2.799 z"
           style="fill:#5f555a"
           inkscape:connector-curvature="0" />
        <path
           id="path17417"
           d="M 31.471,333.74 C 7.924,272.25 20.884,199.866 70.371,150.378 119.859,100.89 192.243,87.93 253.733,111.477 l 7.182,-18.674 c 18.183,6.981 35.524,16.803 51.318,29.503 C 236.84,61.595 126.234,66.232 56.23,136.235 -13.772,206.237 -18.41,316.839 42.296,392.233 29.598,376.441 19.778,359.102 12.798,340.921 l 18.673,-7.181 z"
           style="fill:#5f555a"
           inkscape:connector-curvature="0" />
        <path
           id="path17419"
           d="M 313.617,393.622 C 264.129,443.11 191.745,456.07 130.255,432.523 l -7.182,18.674 c -18.181,-6.98 -35.52,-16.801 -51.312,-29.498 75.394,60.706 185.997,56.068 255.998,-13.934 11.268,-11.268 20.83,-23.594 28.711,-36.65 l -37.739,17.154 c -1.663,1.81 -3.36,3.599 -5.114,5.353 z"
           style="fill:#5f555a"
           inkscape:connector-curvature="0" />
        <path
           id="path17421"
           d="m 115.627,195.632 c 31.075,-31.075 76.525,-39.212 115.134,-24.426 l 8.615,-22.398 C 192.185,130.737 136.633,140.685 98.657,178.661 60.68,216.638 50.732,272.19 68.803,319.381 l 22.398,-8.615 C 76.415,272.157 84.552,226.707 115.627,195.632 Z"
           style="fill:#5f555a"
           inkscape:connector-curvature="0" />
        <path
           id="path17423"
           d="m 59.883,411.321 c -1.229,-1.166 -2.447,-2.351 -3.653,-3.557 1.205,1.206 2.424,2.39 3.653,3.557 z"
           style="fill:#5f555a"
           inkscape:connector-curvature="0" />
        <path
           id="path17425"
           d="m 45.326,395.903 c -0.945,-1.118 -1.882,-2.241 -2.797,-3.375 0.917,1.133 1.851,2.257 2.797,3.375 z"
           style="fill:#5f555a"
           inkscape:connector-curvature="0" />
        <path
           id="path17427"
           d="m 48.484,399.539 c -0.897,-1.009 -1.789,-2.02 -2.661,-3.043 0.872,1.022 1.763,2.034 2.661,3.043 z"
           style="fill:#5f555a"
           inkscape:connector-curvature="0" />
        <path
           id="path17429"
           d="m 56.23,407.764 c -1.205,-1.205 -2.39,-2.424 -3.557,-3.653 1.167,1.23 2.351,2.448 3.557,3.653 z"
           style="fill:#5f555a"
           inkscape:connector-curvature="0" />
        <path
           id="path17431"
           d="m 67.498,418.172 c -1.023,-0.872 -2.034,-1.764 -3.043,-2.661 1.009,0.897 2.021,1.788 3.043,2.661 z"
           style="fill:#5f555a"
           inkscape:connector-curvature="0" />
        <path
           id="path17433"
           d="m 268.362,348.367 c -31.075,31.075 -76.525,39.212 -115.134,24.426 l -8.615,22.398 c 47.191,18.071 102.743,8.123 140.719,-29.853 37.976,-37.976 47.924,-93.528 29.853,-140.719 l -22.398,8.615 c 14.787,38.609 6.649,84.059 -24.425,115.133 z"
           style="fill:#5f555a"
           inkscape:connector-curvature="0" />
        <path
           id="path17435"
           d="m 242.152,209.68 c 0.012,0.01 0.025,0.019 0.038,0.029 0.973,0.786 1.929,1.603 2.872,2.441 0.134,0.119 0.273,0.229 0.407,0.349 1.05,0.945 2.083,1.921 3.094,2.931 1.011,1.01 1.986,2.044 2.931,3.094 0.12,0.134 0.23,0.273 0.349,0.407 0.838,0.944 1.656,1.9 2.441,2.872 0.01,0.012 0.019,0.025 0.029,0.038 5.321,6.595 9.428,13.841 12.345,21.44 l 18.598,-7.153 c -4.526,-11.821 -11.314,-22.965 -20.474,-32.692 -0.073,-0.078 -0.143,-0.157 -0.217,-0.234 -0.61,-0.644 -1.231,-1.282 -1.862,-1.914 -0.631,-0.632 -1.27,-1.252 -1.914,-1.862 -0.078,-0.074 -0.157,-0.144 -0.235,-0.218 -9.728,-9.159 -20.871,-15.947 -32.691,-20.472 l 0.025,-0.064 c 0,0 0,0 0,0 l -7.178,18.662 c 7.601,2.918 14.846,7.025 21.442,12.346 z"
           style="fill:#7d787d"
           inkscape:connector-curvature="0" />
        <path
           id="path17437"
           d="m 288.309,170.396 c 0.902,0.856 1.796,1.724 2.681,2.609 0.885,0.885 1.753,1.779 2.609,2.681 0.099,0.104 0.194,0.211 0.292,0.315 12.838,13.616 22.424,29.195 28.762,45.746 l 22.293,-8.574 c -7.421,-19.381 -18.549,-37.653 -33.566,-53.605 -0.124,-0.131 -0.243,-0.265 -0.367,-0.396 -1.001,-1.056 -2.018,-2.102 -3.053,-3.137 -1.035,-1.035 -2.081,-2.052 -3.137,-3.053 -0.131,-0.124 -0.265,-0.243 -0.396,-0.367 -15.951,-15.016 -34.224,-26.144 -53.605,-33.566 l -8.574,22.293 c 16.55,6.338 32.13,15.924 45.746,28.762 0.104,0.099 0.21,0.193 0.315,0.292 z"
           style="fill:#7d787d"
           inkscape:connector-curvature="0" />
        <path
           id="path17439"
           d="m 288.082,181.502 c -0.098,-0.104 -0.193,-0.211 -0.292,-0.315 -0.806,-0.85 -1.625,-1.692 -2.458,-2.526 -0.833,-0.834 -1.675,-1.652 -2.526,-2.458 -0.104,-0.099 -0.211,-0.193 -0.315,-0.292 -12.839,-12.087 -27.548,-21.046 -43.149,-27.019 l 0.033,-0.085 0,0 -8.615,22.398 c 12.762,4.887 24.775,12.278 35.276,22.176 0.086,0.081 0.173,0.159 0.259,0.24 0.695,0.66 1.385,1.329 2.066,2.011 0.681,0.682 1.351,1.371 2.011,2.066 0.081,0.085 0.159,0.173 0.24,0.259 9.897,10.501 17.288,22.514 22.176,35.276 l 22.398,-8.615 0,0 -0.085,0.033 C 309.128,209.05 300.17,194.342 288.082,181.502 Z"
           style="fill:#7d787d"
           inkscape:connector-curvature="0" />
        <path
           id="path17441"
           d="m 253.734,111.477 c 20.329,7.785 39.466,19.56 56.192,35.328 0.132,0.124 0.266,0.244 0.398,0.369 1.108,1.051 2.206,2.118 3.292,3.204 1.086,1.086 2.153,2.185 3.204,3.292 0.125,0.132 0.245,0.266 0.369,0.398 15.768,16.726 27.542,35.863 35.328,56.192 l 18.674,-7.182 c -6.981,-18.183 -16.803,-35.524 -29.503,-51.318 -0.076,-0.095 -0.151,-0.191 -0.227,-0.286 -0.916,-1.135 -1.853,-2.259 -2.799,-3.378 -0.166,-0.197 -0.328,-0.396 -0.495,-0.592 -0.874,-1.025 -1.768,-2.039 -2.668,-3.05 -0.24,-0.269 -0.473,-0.542 -0.714,-0.811 -0.874,-0.972 -1.769,-1.932 -2.667,-2.89 -0.269,-0.287 -0.531,-0.579 -0.802,-0.865 -1.166,-1.229 -2.351,-2.447 -3.557,-3.653 -1.206,-1.206 -2.424,-2.39 -3.653,-3.557 -0.286,-0.271 -0.578,-0.533 -0.865,-0.802 -0.958,-0.898 -1.918,-1.792 -2.89,-2.667 -0.268,-0.241 -0.541,-0.474 -0.811,-0.714 -1.011,-0.899 -2.025,-1.794 -3.05,-2.668 -0.196,-0.167 -0.395,-0.329 -0.592,-0.495 -1.119,-0.946 -2.243,-1.883 -3.378,-2.799 -0.095,-0.077 -0.191,-0.151 -0.286,-0.227 -15.794,-12.7 -33.135,-22.522 -51.318,-29.503 l -7.182,18.674 z"
           style="fill:#7d787d"
           inkscape:connector-curvature="0" />
        <path
           id="path17443"
           d="m 141.799,334.291 c -0.973,-0.786 -1.929,-1.603 -2.872,-2.441 -0.134,-0.119 -0.273,-0.229 -0.407,-0.349 -1.05,-0.945 -2.083,-1.921 -3.094,-2.931 -1.011,-1.01 -1.986,-2.044 -2.931,-3.094 -0.12,-0.134 -0.23,-0.273 -0.349,-0.407 -0.838,-0.944 -1.656,-1.9 -2.441,-2.872 -0.01,-0.012 -0.019,-0.025 -0.029,-0.038 -5.321,-6.595 -9.428,-13.841 -12.345,-21.44 l -18.597,7.153 c 4.525,11.821 11.313,22.964 20.471,32.692 0.073,0.078 0.144,0.157 0.218,0.235 0.61,0.644 1.231,1.282 1.862,1.914 0.631,0.632 1.27,1.252 1.914,1.862 0.077,0.073 0.156,0.143 0.233,0.216 9.728,9.16 20.873,15.948 32.694,20.474 l 7.153,-18.597 c -7.599,-2.918 -14.845,-7.024 -21.44,-12.345 -0.014,-0.013 -0.027,-0.022 -0.04,-0.032 z"
           style="fill:#7d787d"
           inkscape:connector-curvature="0" />
        <path
           id="path17445"
           d="m 130.255,432.523 c -20.33,-7.785 -39.468,-19.56 -56.194,-35.329 -0.131,-0.124 -0.265,-0.243 -0.397,-0.367 -1.108,-1.051 -2.206,-2.118 -3.292,-3.204 -1.086,-1.086 -2.153,-2.185 -3.204,-3.292 -0.124,-0.131 -0.244,-0.265 -0.367,-0.397 C 51.032,373.208 39.258,354.07 31.472,333.74 l -18.674,7.182 c 6.98,18.181 16.801,35.52 29.498,51.312 0.078,0.098 0.155,0.196 0.233,0.294 0.916,1.134 1.852,2.258 2.797,3.375 0.167,0.197 0.329,0.396 0.496,0.593 0.872,1.023 1.764,2.034 2.661,3.043 0.242,0.272 0.478,0.548 0.721,0.819 0.873,0.97 1.766,1.929 2.663,2.885 0.27,0.288 0.532,0.581 0.805,0.868 1.166,1.229 2.351,2.447 3.557,3.653 1.206,1.206 2.424,2.39 3.653,3.557 0.287,0.272 0.58,0.535 0.868,0.805 0.957,0.897 1.915,1.79 2.885,2.663 0.271,0.244 0.547,0.479 0.819,0.721 1.009,0.897 2.02,1.789 3.043,2.661 0.196,0.168 0.396,0.33 0.593,0.496 1.118,0.945 2.241,1.882 3.375,2.797 0.097,0.079 0.196,0.155 0.294,0.233 15.792,12.698 33.131,22.518 51.312,29.498 l 7.184,-18.672 z"
           style="fill:#7d787d"
           inkscape:connector-curvature="0" />
        <path
           id="path17447"
           d="m 95.68,373.604 c -0.902,-0.856 -1.796,-1.724 -2.681,-2.609 -0.885,-0.885 -1.753,-1.779 -2.609,-2.681 -0.099,-0.104 -0.194,-0.211 -0.292,-0.315 C 77.26,354.383 67.674,338.804 61.336,322.253 l -22.293,8.574 c 7.423,19.386 18.554,37.662 33.576,53.616 0.12,0.127 0.235,0.257 0.355,0.384 1.001,1.057 2.019,2.103 3.054,3.139 1.035,1.036 2.082,2.053 3.139,3.054 0.127,0.12 0.256,0.236 0.384,0.355 15.954,15.021 34.23,26.153 53.616,33.576 l 8.574,-22.293 c -16.55,-6.338 -32.13,-15.924 -45.746,-28.762 -0.104,-0.098 -0.211,-0.193 -0.315,-0.292 z"
           style="fill:#7d787d"
           inkscape:connector-curvature="0" />
        <path
           id="path17449"
           d="m 117.952,350.618 c -0.086,-0.081 -0.173,-0.159 -0.259,-0.24 -0.695,-0.66 -1.385,-1.329 -2.066,-2.011 -0.681,-0.682 -1.351,-1.371 -2.011,-2.066 -0.081,-0.085 -0.159,-0.173 -0.24,-0.259 C 103.479,335.541 96.088,323.528 91.2,310.766 l -22.398,8.615 0,0 0.085,-0.033 c 5.973,15.601 14.931,30.309 27.019,43.149 0.098,0.104 0.193,0.211 0.292,0.315 0.806,0.85 1.625,1.692 2.458,2.526 0.833,0.834 1.675,1.652 2.526,2.458 0.104,0.099 0.211,0.193 0.315,0.292 12.839,12.087 27.548,21.046 43.149,27.019 l -0.033,0.085 0,0 8.615,-22.398 c -12.762,-4.888 -24.776,-12.279 -35.276,-22.176 z"
           style="fill:#7d787d"
           inkscape:connector-curvature="0" />
        <path
           id="path17451"
           d="m 266.626,243.295 -22.367,8.603 c 7.686,20.019 3.474,43.559 -12.668,59.7 -16.142,16.142 -39.681,20.354 -59.7,12.668 l -8.603,22.366 c -7.599,-2.918 -14.852,-7.007 -21.453,-12.312 6.595,5.321 13.841,9.428 21.44,12.345 28.599,10.981 62.227,4.963 85.286,-18.097 23.059,-23.06 29.077,-56.687 18.097,-85.286 -2.918,-7.599 -7.024,-14.845 -12.345,-21.44 5.307,6.601 9.396,13.854 12.313,21.453 z"
           style="fill:#4a404d"
           inkscape:connector-curvature="0" />
        <path
           id="path17453"
           d="m 251.844,218.932 c 0.837,0.945 1.658,1.899 2.441,2.872 -0.786,-0.972 -1.603,-1.928 -2.441,-2.872 z"
           style="fill:#4a404d"
           inkscape:connector-curvature="0" />
        <path
           id="path17455"
           d="m 242.189,209.709 c 0.974,0.784 1.928,1.604 2.872,2.441 -0.943,-0.838 -1.899,-1.655 -2.872,-2.441 z"
           style="fill:#4a404d"
           inkscape:connector-curvature="0" />
        <path
           id="path17457"
           d="m 245.469,212.5 c 1.051,0.944 2.083,1.92 3.094,2.931 -1.011,-1.01 -2.044,-1.986 -3.094,-2.931 z"
           style="fill:#4a404d"
           inkscape:connector-curvature="0" />
        <path
           id="path17459"
           d="m 248.563,215.431 c 1.011,1.011 1.987,2.043 2.931,3.094 -0.945,-1.05 -1.92,-2.083 -2.931,-3.094 z"
           style="fill:#4a404d"
           inkscape:connector-curvature="0" />
        <path
           id="path17461"
           d="m 117.362,300.705 22.367,-8.603 c -7.686,-20.019 -3.474,-43.559 12.668,-59.7 16.142,-16.141 39.681,-20.354 59.7,-12.668 l 8.603,-22.367 c 7.599,2.918 14.852,7.007 21.452,12.312 -6.595,-5.321 -13.841,-9.428 -21.44,-12.345 -28.599,-10.981 -62.227,-4.963 -85.286,18.097 -23.059,23.06 -29.077,56.687 -18.097,85.286 2.918,7.599 7.024,14.845 12.345,21.44 -5.305,-6.6 -9.394,-13.853 -12.312,-21.452 z"
           style="fill:#4a404d"
           inkscape:connector-curvature="0" />
        <path
           id="path17463"
           d="m 135.426,328.569 c -1.011,-1.011 -1.987,-2.043 -2.931,-3.094 0.945,1.05 1.92,2.083 2.931,3.094 z"
           style="fill:#4a404d"
           inkscape:connector-curvature="0" />
        <path
           id="path17465"
           d="m 138.52,331.5 c -1.051,-0.944 -2.083,-1.92 -3.094,-2.931 1.011,1.01 2.044,1.986 3.094,2.931 z"
           style="fill:#4a404d"
           inkscape:connector-curvature="0" />
        <path
           id="path17467"
           d="m 141.799,334.291 c -0.974,-0.784 -1.928,-1.604 -2.872,-2.441 0.944,0.838 1.899,1.655 2.872,2.441 z"
           style="fill:#4a404d"
           inkscape:connector-curvature="0" />
        <path
           id="path17469"
           d="m 132.145,325.068 c -0.837,-0.945 -1.658,-1.899 -2.441,-2.872 0.785,0.972 1.603,1.928 2.441,2.872 z"
           style="fill:#4a404d"
           inkscape:connector-curvature="0" />
        <path
           id="path17471"
           d="m 212.097,219.734 c 7.104,2.727 13.768,6.94 19.496,12.668 5.728,5.728 9.94,12.392 12.668,19.496 l 22.367,-8.603 c -2.918,-7.599 -7.007,-14.852 -12.312,-21.452 -0.01,-0.012 -0.019,-0.025 -0.029,-0.038 -0.784,-0.974 -1.604,-1.928 -2.441,-2.872 -0.119,-0.134 -0.229,-0.273 -0.349,-0.407 -0.944,-1.051 -1.92,-2.083 -2.931,-3.094 -1.011,-1.011 -2.043,-1.987 -3.094,-2.931 -0.134,-0.12 -0.273,-0.23 -0.407,-0.349 -0.945,-0.837 -1.899,-1.658 -2.872,-2.441 -0.012,-0.01 -0.025,-0.019 -0.038,-0.029 -6.6,-5.306 -13.853,-9.394 -21.452,-12.312 l -8.606,22.364 z"
           style="fill:#5f555a"
           inkscape:connector-curvature="0" />
        <path
           id="path17473"
           d="m 139.729,292.102 -22.367,8.603 c 2.918,7.599 7.007,14.852 12.312,21.453 0.01,0.012 0.019,0.025 0.029,0.038 0.784,0.974 1.604,1.928 2.441,2.872 0.119,0.134 0.229,0.273 0.349,0.407 0.944,1.051 1.92,2.083 2.931,3.094 1.011,1.011 2.043,1.987 3.094,2.931 0.134,0.12 0.273,0.23 0.407,0.349 0.945,0.837 1.899,1.658 2.872,2.441 0.012,0.01 0.025,0.019 0.038,0.029 6.6,5.305 13.853,9.394 21.453,12.312 l 8.603,-22.366 c -7.104,-2.727 -13.768,-6.94 -19.496,-12.668 -5.728,-5.728 -9.939,-12.391 -12.666,-19.495 z"
           style="fill:#5f555a"
           inkscape:connector-curvature="0" />
        <path
           id="path17475"
           d="m 212.097,219.734 c -20.019,-7.686 -43.559,-3.474 -59.7,12.668 -16.141,16.142 -20.354,39.681 -12.668,59.7 2.727,7.104 6.94,13.768 12.668,19.496 5.728,5.728 12.392,9.94 19.496,12.668 20.019,7.686 43.559,3.474 59.7,-12.668 16.142,-16.142 20.354,-39.681 12.668,-59.7 -2.727,-7.104 -6.94,-13.768 -12.668,-19.496 -5.728,-5.728 -12.393,-9.94 -19.496,-12.668 z m -8.789,63.58 c -6.248,6.248 -16.379,6.248 -22.627,0 -6.248,-6.248 -6.248,-16.379 0,-22.627 6.248,-6.248 16.379,-6.248 22.627,0 6.248,6.248 6.248,16.378 0,22.627 z"
           style="fill:#e86464"
           inkscape:connector-curvature="0" />
        <path
           id="path17477"
           d="m 292.719,233.26 -7.397,2.845 c 13.69,35.75 6.155,77.834 -22.617,106.606 -28.772,28.772 -70.855,36.307 -106.606,22.617 l -2.845,7.397 c -12.764,-4.887 -24.798,-12.217 -35.303,-22.106 10.501,9.897 22.514,17.288 35.276,22.176 38.61,14.786 84.06,6.649 115.134,-24.426 31.075,-31.075 39.212,-76.525 24.426,-115.134 -4.887,-12.762 -12.278,-24.775 -22.176,-35.276 9.891,10.503 17.221,22.537 22.108,35.301 z"
           style="fill:#4a404d"
           inkscape:connector-curvature="0" />
        <path
           id="path17479"
           d="m 115.627,195.632 c -31.075,31.075 -39.212,76.525 -24.426,115.134 4.887,12.762 12.278,24.775 22.176,35.276 -9.89,-10.505 -17.219,-22.538 -22.106,-35.303 l 7.397,-2.845 c -13.69,-35.75 -6.155,-77.834 22.617,-106.606 28.772,-28.772 70.856,-36.307 106.606,-22.617 0,0 0,0 0,0 l 2.845,-7.397 c 12.764,4.887 24.798,12.217 35.303,22.106 -10.501,-9.897 -22.514,-17.288 -35.276,-22.176 -38.611,-14.784 -84.062,-6.646 -115.136,24.428 z"
           style="fill:#4a404d"
           inkscape:connector-curvature="0" />
        <path
           id="path17481"
           d="m 260.556,199.209 c 0.078,0.073 0.157,0.144 0.235,0.218 -0.078,-0.074 -0.157,-0.145 -0.235,-0.218 z"
           style="fill:#4a404d"
           inkscape:connector-curvature="0" />
        <path
           id="path17483"
           d="m 264.567,203.203 c 0.073,0.077 0.144,0.156 0.217,0.234 -0.073,-0.078 -0.143,-0.157 -0.217,-0.234 z"
           style="fill:#4a404d"
           inkscape:connector-curvature="0" />
        <path
           id="path17485"
           d="m 268.362,195.632 c 0.682,0.682 1.352,1.371 2.011,2.066 -0.66,-0.695 -1.329,-1.384 -2.011,-2.066 z"
           style="fill:#4a404d"
           inkscape:connector-curvature="0" />
        <path
           id="path17487"
           d="m 266.296,193.622 c 0.696,0.659 1.385,1.329 2.066,2.011 -0.682,-0.682 -1.371,-1.352 -2.066,-2.011 z"
           style="fill:#4a404d"
           inkscape:connector-curvature="0" />
        <path
           id="path17489"
           d="m 115.627,348.367 c -0.682,-0.682 -1.352,-1.371 -2.011,-2.066 0.659,0.696 1.329,1.385 2.011,2.066 z"
           style="fill:#4a404d"
           inkscape:connector-curvature="0" />
        <path
           id="path17491"
           d="m 117.693,350.378 c -0.695,-0.659 -1.385,-1.329 -2.066,-2.011 0.682,0.682 1.371,1.352 2.066,2.011 z"
           style="fill:#4a404d"
           inkscape:connector-curvature="0" />
        <path
           id="path17493"
           d="m 123.43,344.789 c -0.077,-0.073 -0.156,-0.143 -0.233,-0.216 0.077,0.073 0.156,0.143 0.233,0.216 z"
           style="fill:#4a404d"
           inkscape:connector-curvature="0" />
        <path
           id="path17495"
           d="m 119.421,340.797 c -0.074,-0.078 -0.144,-0.157 -0.218,-0.235 0.074,0.078 0.144,0.157 0.218,0.235 z"
           style="fill:#4a404d"
           inkscape:connector-curvature="0" />
        <path
           id="path17497"
           d="m 288.309,170.396 c 0.902,0.855 1.796,1.724 2.681,2.609 -0.885,-0.884 -1.779,-1.753 -2.681,-2.609 z"
           style="fill:#4a404d"
           inkscape:connector-curvature="0" />
        <path
           id="path17499"
           d="m 290.989,173.005 c 0.884,0.884 1.754,1.778 2.609,2.681 -0.856,-0.902 -1.724,-1.797 -2.609,-2.681 z"
           style="fill:#4a404d"
           inkscape:connector-curvature="0" />
        <path
           id="path17501"
           d="m 293.89,176.001 c 12.828,13.622 22.334,29.227 28.672,45.78 l -7.377,2.838 0,0 c 18.071,47.191 8.123,102.743 -29.853,140.719 -37.976,37.976 -93.528,47.924 -140.719,29.853 l 0,0 -2.838,7.377 c -16.553,-6.338 -32.158,-15.844 -45.78,-28.672 13.616,12.838 29.195,22.424 45.746,28.762 50.05,19.166 108.969,8.617 149.248,-31.663 40.279,-40.28 50.829,-99.198 31.663,-149.248 -6.338,-16.55 -15.924,-32.13 -28.762,-45.746 z"
           style="fill:#4a404d"
           inkscape:connector-curvature="0" />
        <path
           id="path17503"
           d="m 282.492,175.912 c 0.104,0.098 0.211,0.193 0.315,0.292 -0.104,-0.099 -0.211,-0.194 -0.315,-0.292 z"
           style="fill:#4a404d"
           inkscape:connector-curvature="0" />
        <path
           id="path17505"
           d="m 287.79,181.187 c 0.099,0.104 0.193,0.211 0.292,0.315 -0.098,-0.104 -0.193,-0.21 -0.292,-0.315 z"
           style="fill:#4a404d"
           inkscape:connector-curvature="0" />
        <path
           id="path17507"
           d="m 61.426,322.219 7.377,-2.838 0,0 C 50.732,272.19 60.68,216.638 98.656,178.662 c 37.976,-37.976 93.528,-47.924 140.719,-29.853 l 0,0 2.838,-7.377 c 16.553,6.338 32.158,15.844 45.78,28.672 -13.616,-12.838 -29.195,-22.424 -45.746,-28.762 -50.05,-19.166 -108.969,-8.617 -149.248,31.663 -40.279,40.28 -50.829,99.198 -31.662,149.248 6.338,16.55 15.924,32.13 28.762,45.746 C 77.27,354.377 67.764,338.772 61.426,322.219 Z"
           style="fill:#4a404d"
           inkscape:connector-curvature="0" />
        <path
           id="path17509"
           d="m 101.182,367.796 c 0.104,0.099 0.211,0.194 0.315,0.292 -0.105,-0.099 -0.211,-0.193 -0.315,-0.292 z"
           style="fill:#4a404d"
           inkscape:connector-curvature="0" />
        <path
           id="path17511"
           d="m 95.906,362.497 c 0.098,0.104 0.193,0.211 0.292,0.315 -0.098,-0.104 -0.193,-0.21 -0.292,-0.315 z"
           style="fill:#4a404d"
           inkscape:connector-curvature="0" />
        <path
           id="path17513"
           d="m 95.68,373.604 c -0.902,-0.855 -1.796,-1.724 -2.681,-2.609 0.885,0.884 1.779,1.753 2.681,2.609 z"
           style="fill:#4a404d"
           inkscape:connector-curvature="0" />
        <path
           id="path17515"
           d="m 92.999,370.995 c -0.884,-0.884 -1.754,-1.778 -2.609,-2.681 0.856,0.902 1.725,1.797 2.609,2.681 z"
           style="fill:#4a404d"
           inkscape:connector-curvature="0" />
        <path
           id="path17517"
           d="m 295.374,403.351 -15.335,7.02 c -44.195,28.13 -99.017,33.027 -146.913,14.686 l -2.829,7.355 C 109.963,424.627 90.794,412.95 74.06,397.194 c 16.726,15.769 35.864,27.544 56.194,35.329 61.49,23.547 133.874,10.587 183.362,-38.901 1.754,-1.754 3.452,-3.543 5.114,-5.354 l -22.198,10.09 c -0.829,0.687 -1.664,1.363 -2.504,2.031 l 1.346,2.962 z"
           style="fill:#4a404d"
           inkscape:connector-curvature="0" />
        <path
           id="path17519"
           d="m 31.582,333.697 7.355,-2.829 C 16.485,272.238 28.843,203.22 76.028,156.035 123.213,108.85 192.231,96.492 250.861,118.944 l 2.829,-7.356 c 20.333,7.785 39.503,19.461 56.235,35.217 C 293.199,131.037 274.062,119.263 253.733,111.477 192.244,87.93 119.86,100.89 70.372,150.378 20.884,199.866 7.924,272.25 31.471,333.74 39.256,354.07 51.031,373.208 66.8,389.934 51.044,373.2 39.367,354.031 31.582,333.697 Z"
           style="fill:#4a404d"
           inkscape:connector-curvature="0" />
        <path
           id="path17521"
           d="m 352.517,210.26 c -7.785,-20.329 -19.56,-39.466 -35.328,-56.192 15.755,16.733 27.432,35.902 35.217,56.235 l -7.356,2.829 c 19.43,50.739 12.781,109.251 -19.941,154.667 l 13.741,-6.246 C 366.812,315.697 371.37,259.49 352.517,210.26 Z"
           style="fill:#4a404d"
           inkscape:connector-curvature="0" />
        <path
           id="path17523"
           d="m 311.013,159.172 c 0.124,0.131 0.243,0.265 0.367,0.396 -0.124,-0.131 -0.243,-0.265 -0.367,-0.396 z"
           style="fill:#4a404d"
           inkscape:connector-curvature="0" />
        <path
           id="path17525"
           d="m 304.427,152.614 c 0.131,0.124 0.265,0.243 0.396,0.367 -0.131,-0.124 -0.265,-0.243 -0.396,-0.367 z"
           style="fill:#4a404d"
           inkscape:connector-curvature="0" />
        <path
           id="path17527"
           d="m 313.617,150.378 c 1.086,1.086 2.154,2.184 3.204,3.292 -1.051,-1.108 -2.118,-2.206 -3.204,-3.292 z"
           style="fill:#4a404d"
           inkscape:connector-curvature="0" />
        <path
           id="path17529"
           d="m 310.324,147.173 c 1.108,1.05 2.206,2.118 3.292,3.204 -1.086,-1.086 -2.184,-2.153 -3.292,-3.204 z"
           style="fill:#4a404d"
           inkscape:connector-curvature="0" />
        <path
           id="path17531"
           d="m 79.551,391.375 c -0.127,-0.12 -0.257,-0.235 -0.384,-0.355 0.127,0.12 0.257,0.236 0.384,0.355 z"
           style="fill:#4a404d"
           inkscape:connector-curvature="0" />
        <path
           id="path17533"
           d="m 70.372,393.622 c -1.086,-1.086 -2.154,-2.184 -3.204,-3.292 1.051,1.108 2.118,2.206 3.204,3.292 z"
           style="fill:#4a404d"
           inkscape:connector-curvature="0" />
        <path
           id="path17535"
           d="m 73.664,396.827 c -1.108,-1.05 -2.206,-2.118 -3.292,-3.204 1.086,1.086 2.184,2.153 3.292,3.204 z"
           style="fill:#4a404d"
           inkscape:connector-curvature="0" />
        <path
           id="path17537"
           d="m 72.974,384.827 c -0.12,-0.127 -0.236,-0.256 -0.355,-0.384 0.12,0.127 0.235,0.257 0.355,0.384 z"
           style="fill:#4a404d"
           inkscape:connector-curvature="0" />
        <circle
           id="circle17539"
           r="16"
           cy="272"
           cx="191.994"
           style="fill:#4a404d" />
        <path
           id="path17541"
           d="m 101.497,368.088 c -0.104,-0.098 -0.211,-0.193 -0.315,-0.292 -0.85,-0.806 -1.692,-1.625 -2.526,-2.458 -0.834,-0.833 -1.652,-1.675 -2.458,-2.526 -0.099,-0.104 -0.194,-0.211 -0.292,-0.315 C 83.819,349.658 74.86,334.949 68.887,319.348 l -0.085,0.033 -7.377,2.838 c 6.338,16.553 15.844,32.158 28.672,45.78 0.098,0.105 0.193,0.211 0.292,0.315 0.855,0.902 1.724,1.796 2.609,2.681 0.885,0.885 1.778,1.754 2.681,2.609 0.104,0.099 0.211,0.194 0.315,0.292 13.622,12.828 29.227,22.334 45.78,28.672 l 2.838,-7.377 0.033,-0.085 c -15.601,-5.972 -30.309,-14.931 -43.148,-27.018 z"
           style="fill:#5f555a"
           inkscape:connector-curvature="0" />
        <path
           id="path17543"
           d="m 290.989,173.005 c -0.884,-0.884 -1.778,-1.754 -2.681,-2.609 -0.104,-0.099 -0.211,-0.194 -0.315,-0.292 -13.621,-12.828 -29.227,-22.334 -45.78,-28.672 l -2.838,7.377 -0.033,0.085 c 15.601,5.973 30.309,14.931 43.149,27.019 0.104,0.098 0.211,0.193 0.315,0.292 0.85,0.806 1.692,1.625 2.526,2.458 0.834,0.833 1.652,1.675 2.458,2.526 0.099,0.104 0.194,0.211 0.292,0.315 12.087,12.839 21.046,27.548 27.019,43.149 l 0.085,-0.033 7.377,-2.838 c -6.338,-16.553 -15.844,-32.158 -28.672,-45.78 -0.098,-0.105 -0.193,-0.211 -0.292,-0.315 -0.856,-0.904 -1.725,-1.798 -2.61,-2.682 z"
           style="fill:#5f555a"
           inkscape:connector-curvature="0" />
        <path
           id="path17545"
           d="m 230.734,171.276 -2.845,7.397 -0.025,0.064 c 11.82,4.525 22.963,11.313 32.691,20.472 0.078,0.073 0.157,0.144 0.235,0.218 0.644,0.61 1.282,1.231 1.914,1.862 0.632,0.631 1.252,1.27 1.862,1.914 0.073,0.077 0.144,0.156 0.217,0.234 9.159,9.728 15.948,20.872 20.474,32.692 l -18.598,7.153 c 10.981,28.599 4.963,62.227 -18.097,85.286 -23.06,23.059 -56.687,29.077 -85.286,18.097 l -7.153,18.597 c -11.821,-4.526 -22.966,-11.314 -32.694,-20.474 -0.077,-0.073 -0.156,-0.143 -0.233,-0.216 -0.644,-0.61 -1.282,-1.231 -1.914,-1.862 -0.632,-0.631 -1.252,-1.27 -1.862,-1.914 -0.074,-0.078 -0.145,-0.157 -0.218,-0.235 -9.159,-9.728 -15.947,-20.871 -20.471,-32.692 l 18.597,-7.153 c -10.981,-28.599 -4.963,-62.227 18.097,-85.286 23.06,-23.059 56.687,-29.077 85.286,-18.097 l 7.178,-18.662 C 192.139,164.98 150.055,172.516 121.283,201.288 92.511,230.06 84.976,272.143 98.666,307.894 l -7.397,2.845 c 4.887,12.764 12.217,24.798 22.106,35.303 0.081,0.086 0.159,0.173 0.24,0.259 0.659,0.696 1.329,1.385 2.011,2.066 0.682,0.681 1.371,1.352 2.066,2.011 0.086,0.081 0.173,0.159 0.259,0.24 10.505,9.89 22.538,17.219 35.303,22.106 l 2.845,-7.397 c 35.75,13.69 77.834,6.155 106.606,-22.617 28.772,-28.772 36.307,-70.855 22.617,-106.606 l 7.397,-2.845 c -4.887,-12.764 -12.217,-24.798 -22.106,-35.303 -0.081,-0.086 -0.159,-0.173 -0.24,-0.259 -0.659,-0.696 -1.329,-1.385 -2.011,-2.066 -0.682,-0.681 -1.371,-1.352 -2.066,-2.011 -0.085,-0.081 -0.173,-0.159 -0.259,-0.24 -10.505,-9.888 -22.538,-17.217 -35.303,-22.104 z"
           style="fill:#5f555a"
           inkscape:connector-curvature="0" />
        <path
           id="path17547"
           d="m 431.994,96 c 2.918,0 5.645,0.794 8,2.158 l 0,-17.15 0,-9.008 -8,0 -8,0 0,9.008 0,17.15 c 2.356,-1.364 5.083,-2.158 8,-2.158 z"
           style="fill:#cacdd2"
           inkscape:connector-curvature="0" />
        <path
           id="path17549"
           d="m 431.994,128 c -2.918,0 -5.645,-0.794 -8,-2.158 l 0,17.15 0,148.946 c 0,18.781 -11.043,35.93 -28.137,43.703 l -27.569,12.531 -29.438,13.381 -13.741,6.246 -38.039,17.29 6.62,14.561 2.841,-1.291 22.198,-10.09 37.739,-17.154 46.005,-20.911 c 22.793,-10.359 37.52,-33.227 37.52,-58.266 l 0,-148.946 0,-17.15 c -2.354,1.364 -5.081,2.158 -7.999,2.158 z"
           style="fill:#cacdd2"
           inkscape:connector-curvature="0" />
        <path
           id="path17551"
           d="m 269.113,389.176 c -1.64,0.751 -3.088,1.864 -4.235,3.256 L 248.753,412 l 25.13,0 c 1.711,0 3.402,-0.369 4.958,-1.081 l 1.198,-0.549 15.335,-7.02 -1.346,-2.961 -0.337,-0.74 -6.62,-14.561 -1.556,-3.422 -16.402,7.51 z"
           style="fill:#dee1e9"
           inkscape:connector-curvature="0" />
        <path
           id="path17553"
           d="m 408.426,66.576 c 0.789,2.319 2.611,4.155 4.92,4.966 -2.309,-0.811 -4.13,-2.647 -4.92,-4.966 z"
           style="fill:#7d787d"
           inkscape:connector-curvature="0" />
        <path
           id="path17555"
           d="m 413.346,0.458 c -2.309,0.811 -4.131,2.647 -4.92,4.966 0.79,-2.319 2.611,-4.155 4.92,-4.966 z"
           style="fill:#7d787d"
           inkscape:connector-curvature="0" />
        <path
           id="path17557"
           d="m 408.036,7.182 c 0.041,-0.407 0.122,-0.802 0.223,-1.189 -0.101,0.387 -0.182,0.782 -0.223,1.189 z"
           style="fill:#7d787d"
           inkscape:connector-curvature="0" />
        <path
           id="path17559"
           d="m 423.994,8 0,40 0,16 c 0,4.418 3.582,8 8,8 l 8,0 8,0 c 4.418,0 8,-3.582 8,-8 l 0,-56 c 0,-4.418 -3.582,-8 -8,-8 l -16,0 c -4.418,0 -8,3.582 -8,8 z"
           style="fill:#7d787d"
           inkscape:connector-curvature="0" />
        <path
           id="path17561"
           d="m 408.258,66.006 c -0.1,-0.387 -0.181,-0.781 -0.223,-1.189 0.042,0.408 0.123,0.803 0.223,1.189 z"
           style="fill:#7d787d"
           inkscape:connector-curvature="0" />
        <path
           id="path17563"
           d="m 423.994,64 0,-16 0,-40 c 0,-4.418 3.582,-8 8,-8 l -16,0 c -0.93,0 -1.818,0.167 -2.648,0.458 -2.309,0.811 -4.131,2.647 -4.92,4.966 -0.064,0.187 -0.118,0.377 -0.168,0.569 -0.1,0.387 -0.181,0.781 -0.223,1.189 -0.027,0.269 -0.041,0.542 -0.041,0.818 l 0,56 c 0,0.276 0.014,0.549 0.041,0.818 0.041,0.407 0.122,0.802 0.223,1.189 0.05,0.193 0.104,0.383 0.168,0.569 0.789,2.319 2.611,4.155 4.92,4.966 0.83,0.292 1.719,0.458 2.648,0.458 l 8,0 8,0 c -4.418,0 -8,-3.582 -8,-8 z"
           style="fill:#5f555a"
           inkscape:connector-curvature="0" />
        <path
           id="path17565"
           d="m 423.994,98.158 c -4.778,2.768 -8,7.923 -8,13.842 0,5.919 3.222,11.074 8,13.842 2.355,1.364 5.082,2.158 8,2.158 2.918,0 5.645,-0.794 8,-2.158 4.778,-2.768 8,-7.923 8,-13.842 0,-5.919 -3.222,-11.074 -8,-13.842 -2.355,-1.364 -5.082,-2.158 -8,-2.158 -2.918,0 -5.644,0.794 -8,2.158 z"
           style="fill:#7d787d"
           inkscape:connector-curvature="0" />
      </g>
      <g
         id="g17567" />
      <g
         id="g17569" />
      <g
         id="g17571" />
      <g
         id="g17573" />
      <g
         id="g17575" />
      <g
         id="g17577" />
      <g
         id="g17579" />
      <g
         id="g17581" />
      <g
         id="g17583" />
      <g
         id="g17585" />
      <g
         id="g17587" />
      <g
         id="g17589" />
      <g
         id="g17591" />
      <g
         id="g17593" />
      <g
         id="g17595" />
    </g>
  </g>
</svg>
