<?xml version="1.0" encoding="UTF-8" standalone="no"?>
<!-- Created with Inkscape (http://www.inkscape.org/) -->

<svg
   xmlns:dc="http://purl.org/dc/elements/1.1/"
   xmlns:cc="http://creativecommons.org/ns#"
   xmlns:rdf="http://www.w3.org/1999/02/22-rdf-syntax-ns#"
   xmlns:svg="http://www.w3.org/2000/svg"
   xmlns="http://www.w3.org/2000/svg"
   xmlns:sodipodi="http://sodipodi.sourceforge.net/DTD/sodipodi-0.dtd"
   xmlns:inkscape="http://www.inkscape.org/namespaces/inkscape"
   width="257.51559mm"
   height="75.048386mm"
   viewBox="0 0 912.45683 265.91948"
   id="svg14626"
   version="1.1"
   inkscape:version="0.91 r13725"
   sodipodi:docname="preweb2.svg">
  <defs
     id="defs14628">
    <clipPath
       id="clipPath546"
       clipPathUnits="userSpaceOnUse">
      <path
         inkscape:connector-curvature="0"
         id="path544"
         d="m 435.519,235.251 70.789,0 0,-66.928 -70.789,0 z" />
    </clipPath>
  </defs>
  <sodipodi:namedview
     id="base"
     pagecolor="#ffffff"
     bordercolor="#666666"
     borderopacity="1.0"
     inkscape:pageopacity="0.0"
     inkscape:pageshadow="2"
     inkscape:zoom="0.35"
     inkscape:cx="-133.05729"
     inkscape:cy="-141.32598"
     inkscape:document-units="px"
     inkscape:current-layer="layer1"
     showgrid="false"
     fit-margin-top="0"
     fit-margin-left="0"
     fit-margin-right="0"
     fit-margin-bottom="0"
     inkscape:window-width="1366"
     inkscape:window-height="705"
     inkscape:window-x="-8"
     inkscape:window-y="-8"
     inkscape:window-maximized="1" />
  <metadata
     id="metadata14631">
    <rdf:RDF>
      <cc:Work
         rdf:about="">
        <dc:format>image/svg+xml</dc:format>
        <dc:type
           rdf:resource="http://purl.org/dc/dcmitype/StillImage" />
        <dc:title></dc:title>
      </cc:Work>
    </rdf:RDF>
  </metadata>
  <g
     inkscape:label="Capa 1"
     inkscape:groupmode="layer"
     id="layer1"
     transform="translate(150.51414,-125.11674)">
    <g
       transform="matrix(3.5433071,0,0,3.5433071,-58.361266,-467.26508)"
       id="g14243">
      <g
         transform="matrix(0.35277777,0,0,-0.35277777,128.94338,241.32397)"
         id="g520">
        <path
           inkscape:connector-curvature="0"
           id="path522"
           style="fill:#b7a99f;fill-opacity:1;fill-rule:nonzero;stroke:none"
           d="m 0,0 c 0,-1.412 -34.914,-2.557 -77.984,-2.557 -43.068,0 -77.98,1.145 -77.98,2.557 0,1.412 34.912,2.557 77.98,2.557 C -34.914,2.557 0,1.412 0,0" />
      </g>
      <g
         transform="matrix(0.35277777,0,0,-0.35277777,97.101905,239.23278)"
         id="g524">
        <path
           inkscape:connector-curvature="0"
           id="path526"
           style="fill:#fff7e9;fill-opacity:1;fill-rule:nonzero;stroke:none"
           d="M 0,0 C 0,0 12.468,87.09 50.332,80.172 88.195,73.256 100.455,4.721 100.455,4.721 100.455,4.721 62.025,-21.574 0,0" />
      </g>
      <g
         transform="matrix(0.35277777,0,0,-0.35277777,122.61543,193.67417)"
         id="g528">
        <path
           inkscape:connector-curvature="0"
           id="path530"
           style="fill:#eabb98;fill-opacity:1;fill-rule:nonzero;stroke:none"
           d="m 0,0 c 0,-11.543 -11.471,-20.9 -25.619,-20.9 -14.151,0 -25.619,9.357 -25.619,20.9 0,11.543 11.468,20.898 25.619,20.898 C -11.471,20.898 0,11.543 0,0" />
      </g>
      <g
         transform="matrix(0.35277777,0,0,-0.35277777,121.78996,189.56622)"
         id="g532">
        <path
           inkscape:connector-curvature="0"
           id="path534"
           style="fill:#351f10;fill-opacity:1;fill-rule:nonzero;stroke:none"
           d="m 0,0 c 10.936,10.051 6.209,23.656 -9.123,26.109 -12.09,1.936 -14.813,-8.966 -15.387,-15.283 -4.543,-0.654 -9.722,-2.387 -15.625,-5.615 0,0 9.44,-28.992 26.293,-35.732 0,0 20.901,3.371 18.877,20.224 0,0 -1.371,5.082 -5.035,10.297" />
      </g>
      <g
         transform="matrix(0.35277777,0,0,-0.35277777,115.71767,189.63099)"
         id="g536">
        <path
           inkscape:connector-curvature="0"
           id="path538"
           style="fill:#ffffff;fill-opacity:1;fill-rule:nonzero;stroke:none"
           d="M 0,0 C 1.156,0.744 4.721,3.654 2.779,5.172 1.256,6.363 -2.717,3.025 -2.502,1.715 -2.475,3.41 -3.059,7.297 -5.373,5.984 -7,5.059 -6.256,0.588 -5.211,-0.742 c -1.174,1.894 -5.793,1.689 -6.172,-0.276 -0.656,-3.421 4.61,-3.556 6.686,-2.349 -1.399,-1.649 -3.498,-4.379 -1.477,-5.817 0.197,-0.138 2.231,-0.154 2.485,-0.017 0.652,0.347 1.238,1.361 1.486,2.308 0.191,-1.57 0.91,-3.375 2.336,-3.212 2.902,0.332 1.865,5.822 0.791,7.097 1.422,-1.299 4.082,-1.123 4.48,0.715 C 6.086,0.848 1.971,1.35 0,0" />
      </g>
      <g
         transform="matrix(0.35277777,0,0,-0.35277777,-37.92361,272.55754)"
         id="g540">
        <g
           id="g542" />
        <g
           id="g554">
          <g
             style="opacity:0.69999701"
             id="g552"
             clip-path="url(#clipPath546)">
            <g
               id="g550"
               transform="translate(452.7314,235.251)">
              <path
                 inkscape:connector-curvature="0"
                 id="path548"
                 style="fill:#f7f2e8;fill-opacity:1;fill-rule:nonzero;stroke:none"
                 d="M 0,0 -17.213,-0.184 6.385,-66.928 53.576,-46.029 C 53.576,-46.029 27.324,-0.492 0,0" />
            </g>
          </g>
        </g>
      </g>
      <g
         transform="matrix(0.35277777,0,0,-0.35277777,110.24753,205.09052)"
         id="g556">
        <path
           inkscape:connector-curvature="0"
           id="path558"
           style="fill:#eabb98;fill-opacity:1;fill-rule:nonzero;stroke:none"
           d="M 0,0 C 0,0 -1.348,12.135 9.439,11.461 20.227,10.787 19.551,-5.393 19.551,-5.393 Z" />
      </g>
      <g
         transform="matrix(0.35277777,0,0,-0.35277777,109.99741,203.30663)"
         id="g560">
        <path
           inkscape:connector-curvature="0"
           id="path562"
           style="fill:#ffffff;fill-opacity:1;fill-rule:nonzero;stroke:none"
           d="m 0,0 3.486,-25.959 14.703,0.113 2.965,19.778 z" />
      </g>
      <g
         transform="matrix(0.35277777,0,0,-0.35277777,113.57687,202.95043)"
         id="g564">
        <path
           inkscape:connector-curvature="0"
           id="path566"
           style="fill:#eabb98;fill-opacity:1;fill-rule:nonzero;stroke:none"
           d="M 0,0 -34.383,-37.08 6.744,-4.043 Z" />
      </g>
      <g
         transform="matrix(0.35277777,0,0,-0.35277777,114.52842,195.69573)"
         id="g568">
        <path
           inkscape:connector-curvature="0"
           id="path570"
           style="fill:#eabb98;fill-opacity:1;fill-rule:nonzero;stroke:none"
           d="m 0,0 c 0,-3.91 -2.414,-7.08 -5.393,-7.08 -2.978,0 -5.394,3.17 -5.394,7.08 0,3.908 2.416,7.078 5.394,7.078 C -2.414,7.078 0,3.908 0,0" />
      </g>
      <g
         transform="matrix(0.35277777,0,0,-0.35277777,82.880551,220.41914)"
         id="g572">
        <path
           inkscape:connector-curvature="0"
           id="path574"
           style="fill:#351f10;fill-opacity:1;fill-rule:nonzero;stroke:none"
           d="m 0,0 31.73,0 c 0,0 3.379,74.436 -14.832,73.957 C -8.721,73.283 0,0 0,0" />
      </g>
      <g
         transform="matrix(0.35277777,0,0,-0.35277777,87.890419,193.61491)"
         id="g576">
        <path
           inkscape:connector-curvature="0"
           id="path578"
           style="fill:#665e5a;fill-opacity:1;fill-rule:nonzero;stroke:none"
           d="M 0,0 C -4.043,0 -11.459,-4.719 -11.459,-4.719 L 17.529,-54.148 16.855,-4.719 Z" />
      </g>
      <g
         transform="matrix(0.35277777,0,0,-0.35277777,85.750328,198.13417)"
         id="g580">
        <path
           inkscape:connector-curvature="0"
           id="path582"
           style="fill:#351f10;fill-opacity:1;fill-rule:nonzero;stroke:none"
           d="M 0,0 45.507,-51.742 3.033,-31.146 Z" />
      </g>
      <g
         transform="matrix(0.35277777,0,0,-0.35277777,97.650369,188.32874)"
         id="g584">
        <path
           inkscape:connector-curvature="0"
           id="path586"
           style="fill:#eabb98;fill-opacity:1;fill-rule:nonzero;stroke:none"
           d="M 0,0 C -1.713,-11.414 -14.445,-18.965 -28.437,-16.865 -42.43,-14.764 -52.385,-3.809 -50.67,7.605 -48.957,19.02 -36.227,26.57 -22.234,24.471 -8.24,22.371 1.712,11.414 0,0" />
      </g>
      <g
         transform="matrix(0.35277777,0,0,-0.35277777,84.160746,193.27797)"
         id="g588">
        <path
           inkscape:connector-curvature="0"
           id="path590"
           style="fill:#351f10;fill-opacity:1;fill-rule:nonzero;stroke:none"
           d="m 0,0 9.4,8.133 23.606,20.998 7.902,11.767 c 0,0 -43.299,20.252 -53.472,-11.062 C -20.168,6.434 0,0 0,0" />
      </g>
      <g
         transform="matrix(0.35277777,0,0,-0.35277777,91.82883,188.65743)"
         id="g592">
        <path
           inkscape:connector-curvature="0"
           id="path594"
           style="fill:#eabb98;fill-opacity:1;fill-rule:nonzero;stroke:none"
           d="m 0,0 c -0.58,-3.865 -4.186,-6.529 -8.051,-5.949 -3.865,0.58 -6.529,4.185 -5.949,8.051 0.58,3.867 4.186,6.529 8.051,5.949 C -2.084,7.471 0.58,3.865 0,0" />
      </g>
      <g
         transform="matrix(0.35277777,0,0,-0.35277777,92.393169,194.2667)"
         id="g596">
        <path
           inkscape:connector-curvature="0"
           id="path598"
           style="fill:#ffffff;fill-opacity:1;fill-rule:nonzero;stroke:none"
           d="M 0,0 -15.504,1.719 -8.09,-14.576 1.344,-3.119 16.437,-5.781 10.225,10.865 Z" />
      </g>
      <g
         transform="matrix(0.35277777,0,0,-0.35277777,84.303375,219.3608)"
         id="g600">
        <path
           inkscape:connector-curvature="0"
           id="path602"
           style="fill:#351f10;fill-opacity:1;fill-rule:nonzero;stroke:none"
           d="M 0,0 C 0,0 6.82,-33.373 10.191,-61.014 L 31.766,-60.34 20.305,-53.936 26.687,0 Z" />
      </g>
      <g
         transform="matrix(0.35277777,0,0,-0.35277777,97.16858,174.40228)"
         id="g604">
        <path
           inkscape:connector-curvature="0"
           id="path606"
           style="fill:#351f10;fill-opacity:1;fill-rule:nonzero;stroke:none"
           d="m 0,0 -61.564,-37.014 -3.435,5.711 61.564,37.016 z" />
      </g>
      <g
         transform="matrix(0.35277777,0,0,-0.35277777,90.545213,176.0525)"
         id="g608">
        <path
           inkscape:connector-curvature="0"
           id="path610"
           style="fill:#351f10;fill-opacity:1;fill-rule:nonzero;stroke:none"
           d="m 0,0 -31.78,-19.107 -15.115,25.14 31.78,19.108 z" />
      </g>
      <g
         transform="matrix(0.35277777,0,0,-0.35277777,77.674857,180.03363)"
         id="g612">
        <path
           inkscape:connector-curvature="0"
           id="path614"
           style="fill:#665e5a;fill-opacity:1;fill-rule:nonzero;stroke:none"
           d="m 0,0 4.199,-6.984 31.78,19.107 -4.199,6.984 z" />
      </g>
      <g
         transform="matrix(0.35277777,0,0,-0.35277777,111.2273,212.46439)"
         id="g616">
        <path
           inkscape:connector-curvature="0"
           id="path618"
           style="fill:#ffffff;fill-opacity:1;fill-rule:nonzero;stroke:none"
           d="m 0,0 c 0,0 -26.082,-64.555 56.918,-54.889 0,0 1.57,42.004 -42.215,58.002 z" />
      </g>
      <g
         transform="matrix(0.35277777,0,0,-0.35277777,108.5863,208.33234)"
         id="g620">
        <path
           inkscape:connector-curvature="0"
           id="path622"
           style="fill:#ffffff;fill-opacity:1;fill-rule:nonzero;stroke:none"
           d="M 0,0 -20.236,-21.824 3.498,-2.758 C 2.34,-1.828 1.174,-0.91 0,0" />
      </g>
      <g
         transform="matrix(0.35277777,0,0,-0.35277777,109.44207,178.64736)"
         id="g624">
        <path
           inkscape:connector-curvature="0"
           id="path626"
           style="fill:#fe0000;fill-opacity:1;fill-rule:nonzero;stroke:none"
           d="m 0,0 c -2.84,4.957 -8.354,1.826 -10.021,-0.656 -1.667,2.482 -7.182,5.613 -10.02,0.656 -3.723,-6.498 5.178,-11.785 9.937,-14.441 0,0 0.057,-0.061 0.083,-0.047 0.027,-0.014 0.082,0.047 0.082,0.047 C -5.18,-11.785 3.721,-6.498 0,0" />
      </g>
      <g
         transform="matrix(0.35277777,0,0,-0.35277777,68.172082,241.32948)"
         id="g628">
        <path
           inkscape:connector-curvature="0"
           id="path630"
           style="fill:#b7a99f;fill-opacity:1;fill-rule:nonzero;stroke:none"
           d="m 0,0 c 0,-1.412 -19.917,-2.557 -44.484,-2.557 -24.567,0 -44.482,1.145 -44.482,2.557 0,1.412 19.915,2.557 44.482,2.557 C -19.917,2.557 0,1.412 0,0" />
      </g>
      <g
         transform="matrix(0.35277777,0,0,-0.35277777,40.29022,180.13354)"
         id="g632">
        <path
           inkscape:connector-curvature="0"
           id="path634"
           style="fill:#351f10;fill-opacity:1;fill-rule:nonzero;stroke:none"
           d="M 0,0 C -4.328,-5.654 7.437,-27.492 7.437,-27.492 L 54,-27 c 0,0 12.471,20.788 9,27 C 55.317,13.748 9.573,12.506 0,0" />
      </g>
      <g
         transform="matrix(0.35277777,0,0,-0.35277777,60.935975,220.31644)"
         id="g636">
        <path
           inkscape:connector-curvature="0"
           id="path638"
           style="fill:#351f10;fill-opacity:1;fill-rule:nonzero;stroke:none"
           d="M 0,0 -5.533,35.924 15.477,4.703 -4.945,59.762 -44.346,58.472 -64.523,5.703 l 20.011,31.039 -6.236,-35.68 6.814,-0.126 7.23,-51.336 -12.309,-9.127 18.667,1 0,9.654 c 0,0 6.03,46.812 6.03,45.576 l 0,-54.93 21.019,0.237 -12.383,7.463 10.905,50.742 z" />
      </g>
      <g
         transform="matrix(0.35277777,0,0,-0.35277777,47.528373,198.0005)"
         id="g640">
        <path
           inkscape:connector-curvature="0"
           id="path642"
           style="fill:#e2d4bf;fill-opacity:1;fill-rule:nonzero;stroke:none"
           d="M 0,0 15.205,-46.324 24.729,0.824 Z" />
      </g>
      <g
         transform="matrix(0.35277777,0,0,-0.35277777,63.413709,190.9181)"
         id="g644">
        <path
           inkscape:connector-curvature="0"
           id="path646"
           style="fill:#eabb98;fill-opacity:1;fill-rule:nonzero;stroke:none"
           d="M 0,0 C 0.459,4.072 -1.555,7.642 -4.494,7.972 -5.678,8.104 -6.83,7.687 -7.816,6.88 c -4.231,6.424 -7.731,18.69 -25.318,17.132 -22.379,-1.983 -22.022,-13.406 -24.975,-20.934 -1.52,1.23 -3.313,1.706 -4.889,1.104 -2.765,-1.054 -3.824,-5.012 -2.363,-8.839 1.46,-3.829 4.884,-6.078 7.65,-5.024 0.425,0.161 0.803,0.4 1.145,0.687 4.351,-6.228 14.038,-10.29 25.083,-9.78 11.19,0.515 20.549,5.571 24.215,12.299 0.353,-0.15 0.723,-0.254 1.112,-0.298 C -3.215,-7.103 -0.461,-4.071 0,0" />
      </g>
      <g
         transform="matrix(0.35277777,0,0,-0.35277777,51.281294,190.06646)"
         id="g648">
        <path
           inkscape:connector-curvature="0"
           id="path650"
           style="fill:#351f10;fill-opacity:1;fill-rule:nonzero;stroke:none"
           d="m 0,0 c -0.327,-1.236 -1.627,-1.969 -2.899,-1.631 -1.274,0.338 -2.043,1.615 -1.716,2.852 0.327,1.238 1.628,1.968 2.902,1.632 C -0.441,2.516 0.329,1.238 0,0" />
      </g>
      <g
         transform="matrix(0.35277777,0,0,-0.35277777,57.902227,190.18153)"
         id="g652">
        <path
           inkscape:connector-curvature="0"
           id="path654"
           style="fill:#351f10;fill-opacity:1;fill-rule:nonzero;stroke:none"
           d="m 0,0 c -0.327,-1.236 -1.626,-1.967 -2.901,-1.63 -1.273,0.337 -2.041,1.614 -1.714,2.851 0.327,1.238 1.627,1.967 2.901,1.631 C -0.441,2.515 0.327,1.238 0,0" />
      </g>
      <g
         transform="matrix(0.35277777,0,0,-0.35277777,47.828764,197.92539)"
         id="g656">
        <path
           inkscape:connector-curvature="0"
           id="path658"
           style="fill:#665e5a;fill-opacity:1;fill-rule:nonzero;stroke:none"
           d="m 0,0 -10.285,-5.243 c 0,0 8.551,-32.626 24.213,-40.87 z" />
      </g>
      <g
         transform="matrix(0.35277777,0,0,-0.35277777,55.304619,196.69688)"
         id="g660">
        <path
           inkscape:connector-curvature="0"
           id="path662"
           style="fill:#665e5a;fill-opacity:1;fill-rule:nonzero;stroke:none"
           d="m 0,0 -6.838,-50.02 c 0,0 15.734,23.458 19.856,42.829 z" />
      </g>
      <g
         transform="matrix(0.35277777,0,0,-0.35277777,51.933262,197.49409)"
         id="g664">
        <path
           inkscape:connector-curvature="0"
           id="path666"
           style="fill:#fe0000;fill-opacity:1;fill-rule:nonzero;stroke:none"
           d="m 0,0 -13.854,6.784 1.452,-17.643 12.611,7.506 13.154,-7.524 -0.215,17.568 z" />
      </g>
      <g
         transform="matrix(0.35277777,0,0,-0.35277777,5.3776388,241.32948)"
         id="g668">
        <path
           inkscape:connector-curvature="0"
           id="path670"
           style="fill:#b7a99f;fill-opacity:1;fill-rule:nonzero;stroke:none"
           d="m 0,0 c 0,-1.412 -19.917,-2.557 -44.484,-2.557 -24.567,0 -44.482,1.145 -44.482,2.557 0,1.412 19.915,2.557 44.482,2.557 C -19.917,2.557 0,1.412 0,0" />
      </g>
      <g
         transform="matrix(0.35277777,0,0,-0.35277777,-0.80013499,220.66922)"
         id="g672">
        <path
           inkscape:connector-curvature="0"
           id="path674"
           style="fill:#351f10;fill-opacity:1;fill-rule:nonzero;stroke:none"
           d="m 0,0 -5.533,35.924 21.01,-31.221 -20.422,55.059 -39.401,-1.29 -24.177,-58.769 24.011,37.039 -6.236,-35.68 6.814,-0.126 7.23,-51.336 -12.309,-9.127 18.667,1 0,9.654 c 0,0 6.03,46.812 6.03,45.576 l 0,-54.93 21.019,0.237 -12.383,7.463 10.905,50.742 z" />
      </g>
      <g
         transform="matrix(0.35277777,0,0,-0.35277777,-14.207736,198.35328)"
         id="g676">
        <path
           inkscape:connector-curvature="0"
           id="path678"
           style="fill:#e2d4bf;fill-opacity:1;fill-rule:nonzero;stroke:none"
           d="M 0,0 15.205,-46.324 24.729,0.824 Z" />
      </g>
      <g
         transform="matrix(0.35277777,0,0,-0.35277777,1.6775997,191.27087)"
         id="g680">
        <path
           inkscape:connector-curvature="0"
           id="path682"
           style="fill:#eabb98;fill-opacity:1;fill-rule:nonzero;stroke:none"
           d="M 0,0 C 0.459,4.072 -1.555,7.642 -4.494,7.972 -5.678,8.104 -6.83,7.687 -7.816,6.88 c -4.231,6.424 -3.731,17.489 -25.318,17.132 -22.464,-0.371 -22.022,-13.406 -24.975,-20.934 -1.52,1.23 -3.313,1.706 -4.889,1.104 -2.765,-1.054 -3.824,-5.012 -2.363,-8.839 1.46,-3.829 4.884,-6.078 7.65,-5.024 0.425,0.161 0.803,0.4 1.145,0.687 4.351,-6.228 14.038,-10.29 25.083,-9.78 11.19,0.515 20.549,5.571 24.215,12.299 0.353,-0.15 0.723,-0.254 1.112,-0.298 C -3.215,-7.103 -0.461,-4.071 0,0" />
      </g>
      <g
         transform="matrix(0.35277777,0,0,-0.35277777,-10.454816,189.3609)"
         id="g684">
        <path
           inkscape:connector-curvature="0"
           id="path686"
           style="fill:#351f10;fill-opacity:1;fill-rule:nonzero;stroke:none"
           d="m 0,0 c -0.327,-1.236 -1.627,-1.969 -2.899,-1.631 -1.274,0.338 -2.043,1.615 -1.716,2.852 0.327,1.238 1.628,1.968 2.902,1.632 C -0.441,2.516 0.329,1.238 0,0" />
      </g>
      <g
         transform="matrix(0.35277777,0,0,-0.35277777,-3.8338827,189.47598)"
         id="g688">
        <path
           inkscape:connector-curvature="0"
           id="path690"
           style="fill:#351f10;fill-opacity:1;fill-rule:nonzero;stroke:none"
           d="m 0,0 c -0.327,-1.236 -1.626,-1.967 -2.901,-1.63 -1.273,0.337 -2.041,1.614 -1.714,2.851 0.327,1.238 1.627,1.967 2.901,1.631 C -0.441,2.515 0.327,1.238 0,0" />
      </g>
      <g
         transform="matrix(0.35277777,0,0,-0.35277777,-2.1654202,194.02349)"
         id="g692">
        <path
           inkscape:connector-curvature="0"
           id="path694"
           style="fill:#351f10;fill-opacity:1;fill-rule:nonzero;stroke:none"
           d="m 0,0 c -2.104,-1.619 -5.501,-1.781 -7.281,3.719 -1.781,5.504 -9.709,1.457 -9.709,1.457 l -0.006,-0.104 -0.007,0.104 c 0,0 -7.929,4.047 -9.709,-1.457 -1.78,-5.5 -5.177,-5.338 -7.28,-3.719 -2.084,1.6 6.616,-10.271 16.996,-0.15 C -6.617,-10.271 2.083,1.6 0,0" />
      </g>
      <g
         transform="matrix(0.35277777,0,0,-0.35277777,-13.907346,198.27817)"
         id="g696">
        <path
           inkscape:connector-curvature="0"
           id="path698"
           style="fill:#fe0000;fill-opacity:1;fill-rule:nonzero;stroke:none"
           d="m 0,0 -10.285,-5.243 c 0,0 8.551,-32.626 24.213,-40.87 z" />
      </g>
      <g
         transform="matrix(0.35277777,0,0,-0.35277777,-6.4314912,197.04966)"
         id="g700">
        <path
           inkscape:connector-curvature="0"
           id="path702"
           style="fill:#fe0000;fill-opacity:1;fill-rule:nonzero;stroke:none"
           d="m 0,0 -6.838,-50.02 c 0,0 15.734,23.458 19.856,42.829 z" />
      </g>
      <g
         transform="matrix(0.35277777,0,0,-0.35277777,-9.8028473,197.84686)"
         id="g704">
        <path
           inkscape:connector-curvature="0"
           id="path706"
           style="fill:#665e5a;fill-opacity:1;fill-rule:nonzero;stroke:none"
           d="m 0,0 -13.854,6.784 1.452,-17.643 12.611,7.506 13.154,-7.524 -0.215,17.568 z" />
      </g>
      <g
         transform="matrix(0.35277777,0,0,-0.35277777,12.149314,189.83218)"
         id="g708">
        <path
           inkscape:connector-curvature="0"
           id="path710"
           style="fill:#351f10;fill-opacity:1;fill-rule:nonzero;stroke:none"
           d="M 0,0 C 0,0 -13.23,36.291 41.77,40.291 L 50.293,3.802 Z" />
      </g>
      <g
         transform="matrix(0.35277777,0,0,-0.35277777,29.465728,220.31644)"
         id="g712">
        <path
           inkscape:connector-curvature="0"
           id="path714"
           style="fill:#351f10;fill-opacity:1;fill-rule:nonzero;stroke:none"
           d="M 0,0 -4.533,35.924 13.684,6.703 -4.945,59.762 -44.346,58.472 -67.523,4.904 l 21.011,31.838 -4.236,-35.68 6.814,-0.126 7.23,-51.336 -12.309,-9.127 18.667,1 0,9.654 c 0,0 6.03,46.812 6.03,45.576 l 0,-54.93 21.019,0.237 -12.383,7.463 10.905,50.742 z" />
      </g>
      <g
         transform="matrix(0.35277777,0,0,-0.35277777,16.763647,198.0005)"
         id="g716">
        <path
           inkscape:connector-curvature="0"
           id="path718"
           style="fill:#e2d4bf;fill-opacity:1;fill-rule:nonzero;stroke:none"
           d="M 0,0 15.205,-46.324 24.729,0.824 Z" />
      </g>
      <g
         transform="matrix(0.35277777,0,0,-0.35277777,32.648983,190.9181)"
         id="g720">
        <path
           inkscape:connector-curvature="0"
           id="path722"
           style="fill:#eabb98;fill-opacity:1;fill-rule:nonzero;stroke:none"
           d="M 0,0 C 0.459,4.072 -1.555,7.642 -4.494,7.972 -5.678,8.104 -6.83,7.687 -7.816,6.88 c -4.231,6.424 -7.731,15.69 -25.318,14.132 -22.379,-1.983 -22.022,-10.406 -24.975,-17.934 -1.52,1.23 -3.313,1.706 -4.889,1.104 -2.765,-1.054 -3.824,-5.012 -2.363,-8.839 1.46,-3.829 4.884,-6.078 7.65,-5.024 0.425,0.161 0.803,0.4 1.145,0.687 4.351,-6.228 14.038,-10.29 25.083,-9.78 11.19,0.515 20.549,5.571 24.215,12.299 0.353,-0.15 0.723,-0.254 1.112,-0.298 C -3.215,-7.103 -0.461,-4.071 0,0" />
      </g>
      <g
         transform="matrix(0.35277777,0,0,-0.35277777,20.516568,190.06646)"
         id="g724">
        <path
           inkscape:connector-curvature="0"
           id="path726"
           style="fill:#351f10;fill-opacity:1;fill-rule:nonzero;stroke:none"
           d="m 0,0 c -0.327,-1.236 -1.627,-1.969 -2.899,-1.631 -1.274,0.338 -2.043,1.615 -1.716,2.852 0.327,1.238 1.628,1.968 2.902,1.632 C -0.441,2.516 0.329,1.238 0,0" />
      </g>
      <g
         transform="matrix(0.35277777,0,0,-0.35277777,27.137536,190.18153)"
         id="g728">
        <path
           inkscape:connector-curvature="0"
           id="path730"
           style="fill:#351f10;fill-opacity:1;fill-rule:nonzero;stroke:none"
           d="m 0,0 c -0.327,-1.236 -1.626,-1.967 -2.901,-1.63 -1.273,0.337 -2.041,1.614 -1.714,2.851 0.327,1.238 1.627,1.967 2.901,1.631 C -0.441,2.515 0.327,1.238 0,0" />
      </g>
      <g
         transform="matrix(0.35277777,0,0,-0.35277777,17.064073,197.92539)"
         id="g732">
        <path
           inkscape:connector-curvature="0"
           id="path734"
           style="fill:#665e5a;fill-opacity:1;fill-rule:nonzero;stroke:none"
           d="m 0,0 -10.285,-5.243 c 0,0 8.551,-32.626 24.213,-40.87 z" />
      </g>
      <g
         transform="matrix(0.35277777,0,0,-0.35277777,37.127638,241.32948)"
         id="g736">
        <path
           inkscape:connector-curvature="0"
           id="path738"
           style="fill:#b7a99f;fill-opacity:1;fill-rule:nonzero;stroke:none"
           d="m 0,0 c 0,-1.412 -19.917,-2.557 -44.484,-2.557 -24.567,0 -44.482,1.145 -44.482,2.557 0,1.412 19.915,2.557 44.482,2.557 C -19.917,2.557 0,1.412 0,0" />
      </g>
      <g
         transform="matrix(0.35277777,0,0,-0.35277777,24.539928,196.69688)"
         id="g740">
        <path
           inkscape:connector-curvature="0"
           id="path742"
           style="fill:#665e5a;fill-opacity:1;fill-rule:nonzero;stroke:none"
           d="m 0,0 -6.838,-50.02 c 0,0 15.734,23.458 19.856,42.829 z" />
      </g>
      <g
         transform="matrix(0.35277777,0,0,-0.35277777,21.168571,197.49409)"
         id="g744">
        <path
           inkscape:connector-curvature="0"
           id="path746"
           style="fill:#351f10;fill-opacity:1;fill-rule:nonzero;stroke:none"
           d="m 0,0 -13.854,6.784 1.452,-17.643 12.611,7.506 13.154,-7.524 -0.215,17.568 z" />
      </g>
      <g
         transform="matrix(0.35277777,0,0,-0.35277777,16.526122,238.11863)"
         id="g748">
        <path
           inkscape:connector-curvature="0"
           id="path750"
           style="fill:#fe0000;fill-opacity:1;fill-rule:nonzero;stroke:none"
           d="m 0,0 -17.077,-9.654 24.91,1.113 -1,10.207 z" />
      </g>
      <g
         transform="matrix(0.35277777,0,0,-0.35277777,24.579721,238.10279)"
         id="g752">
        <path
           inkscape:connector-curvature="0"
           id="path754"
           style="fill:#fe0000;fill-opacity:1;fill-rule:nonzero;stroke:none"
           d="m 0,0 -10.966,1.621 0,-9.935 25.406,0.261 z" />
      </g>
      <g
         transform="matrix(0.35277777,0,0,-0.35277777,173.65246,241.32948)"
         id="g756">
        <path
           inkscape:connector-curvature="0"
           id="path758"
           style="fill:#b7a99f;fill-opacity:1;fill-rule:nonzero;stroke:none"
           d="m 0,0 c 0,-1.412 -19.916,-2.557 -44.484,-2.557 -24.567,0 -44.481,1.145 -44.481,2.557 0,1.412 19.914,2.557 44.481,2.557 C -19.916,2.557 0,1.412 0,0" />
      </g>
      <g
         transform="matrix(0.35277777,0,0,-0.35277777,155.17847,210.09485)"
         id="g760">
        <path
           inkscape:connector-curvature="0"
           id="path762"
           style="fill:#eabb98;fill-opacity:1;fill-rule:nonzero;stroke:none"
           d="m 0,0 3,-84.695 3.5,0 2,70.908 2.5,-70.416 3,0 L 18,0 Z" />
      </g>
      <g
         transform="matrix(0.35277777,0,0,-0.35277777,157.82431,239.97347)"
         id="g764">
        <path
           inkscape:connector-curvature="0"
           id="path766"
           style="fill:#fe0000;fill-opacity:1;fill-rule:nonzero;stroke:none"
           d="M 0,0 -8.5,-5.91 -3.5,6.893 -1,5.908 Z" />
      </g>
      <g
         transform="matrix(0.35277777,0,0,-0.35277777,158.70625,239.97347)"
         id="g768">
        <path
           inkscape:connector-curvature="0"
           id="path770"
           style="fill:#fe0000;fill-opacity:1;fill-rule:nonzero;stroke:none"
           d="M 0,0 10.5,-5.91 3.5,6.893 1,5.908 Z" />
      </g>
      <g
         transform="matrix(0.35277777,0,0,-0.35277777,155.99702,184.03858)"
         id="g772">
        <path
           inkscape:connector-curvature="0"
           id="path774"
           style="fill:#351f10;fill-opacity:1;fill-rule:nonzero;stroke:none"
           d="M 0,0 C -13.908,-3.575 -30.32,-14.845 -26,-34.945 -20.746,-59.38 20.279,-61.51 37.018,-43.857 48.65,-31.591 34.105,-12.374 23.221,-4.784 15.309,0.731 7.25,1.864 0,0" />
      </g>
      <g
         transform="matrix(0.35277777,0,0,-0.35277777,161.88746,199.82157)"
         id="g776">
        <path
           inkscape:connector-curvature="0"
           id="path778"
           style="fill:#eabb98;fill-opacity:1;fill-rule:nonzero;stroke:none"
           d="m 0,0 c 4.74,1.306 8.717,3.578 11.363,6.445 1.602,0.021 3.582,1.711 4.795,4.257 1.446,3.034 1.25,6.124 -0.433,6.9 -0.387,0.179 -3.823,0.213 -4.278,0.132 -2.123,7.387 -11.945,12.972 -23.75,12.972 -10.541,0 -16.5,-4.456 -19.81,-10.67 -0.584,0.461 -1.219,0.689 -1.852,0.595 -1.84,-0.266 -2.943,-3.08 -2.461,-6.285 0.479,-3.205 2.358,-5.588 4.199,-5.323 0.104,0.016 0.206,0.042 0.305,0.073 2.279,-3.978 6.901,-7.19 12.748,-8.921 l -15.344,-42.173 15.676,29.769 17.235,1.969 17.089,-32.232 z" />
      </g>
      <g
         transform="matrix(0.35277777,0,0,-0.35277777,156.15549,211.31098)"
         id="g780">
        <path
           inkscape:connector-curvature="0"
           id="path782"
           style="fill:#fe0000;fill-opacity:1;fill-rule:nonzero;stroke:none"
           d="m 0,0 -3.594,24.309 c 0,0 6.657,4.189 9.067,4.232 2.673,0.045 10.168,-4.232 10.168,-4.232 l -4.1,-24.198 z" />
      </g>
      <g
         transform="matrix(0.35277777,0,0,-0.35277777,154.92765,193.79817)"
         id="g784">
        <path
           inkscape:connector-curvature="0"
           id="path786"
           style="fill:#351f10;fill-opacity:1;fill-rule:nonzero;stroke:none"
           d="m 0,0 c 0,-1.26 -0.959,-2.283 -2.139,-2.283 -1.179,0 -2.138,1.023 -2.138,2.283 0,1.262 0.959,2.283 2.138,2.283 C -0.959,2.283 0,1.262 0,0" />
      </g>
      <g
         transform="matrix(0.35277777,0,0,-0.35277777,160.26962,194.15646)"
         id="g788">
        <path
           inkscape:connector-curvature="0"
           id="path790"
           style="fill:#351f10;fill-opacity:1;fill-rule:nonzero;stroke:none"
           d="m 0,0 c 0,-1.26 -0.957,-2.283 -2.137,-2.283 -1.181,0 -2.138,1.023 -2.138,2.283 0,1.262 0.957,2.284 2.138,2.284 C -0.957,2.284 0,1.262 0,0" />
      </g>
      <g
         transform="matrix(0.35277777,0,0,-0.35277777,147.77014,226.79807)"
         id="g792">
        <path
           inkscape:connector-curvature="0"
           id="path794"
           style="fill:#fe0000;fill-opacity:1;fill-rule:nonzero;stroke:none"
           d="M 0,0 C 0,0 3,45.303 31.281,44.494 56.018,43.785 64,2.955 64,2.955 64,2.955 44,-10.834 0,0" />
      </g>
      <path
         inkscape:connector-curvature="0"
         id="path796"
         style="fill:#665e5a;fill-opacity:1;fill-rule:nonzero;stroke:none;stroke-width:0.35277778"
         d="m 161.52847,211.8586 -6.35,0 0,-2.43241 6.35,0 z" />
      <g
         transform="matrix(0.35277777,0,0,-0.35277777,165.58542,190.3176)"
         id="g798">
        <path
           inkscape:connector-curvature="0"
           id="path800"
           style="fill:#fe0000;fill-opacity:1;fill-rule:nonzero;stroke:none"
           d="M 0,0 C 1.156,0.733 4.721,3.599 2.779,5.093 1.256,6.267 -2.717,2.979 -2.502,1.688 -2.475,3.358 -3.059,7.187 -5.373,5.894 -7,4.983 -6.256,0.579 -5.211,-0.731 c -1.174,1.867 -5.793,1.664 -6.172,-0.272 -0.656,-3.369 4.61,-3.501 6.686,-2.313 -1.399,-1.624 -3.498,-4.312 -1.477,-5.728 0.197,-0.137 2.231,-0.152 2.485,-0.018 0.652,0.343 1.238,1.34 1.486,2.274 0.191,-1.547 0.91,-3.324 2.336,-3.164 2.902,0.326 1.865,5.734 0.791,6.99 1.422,-1.279 4.082,-1.106 4.48,0.703 C 6.086,0.835 1.971,1.33 0,0" />
      </g>
      <g
         transform="matrix(0.35277777,0,0,-0.35277777,231.50801,241.32948)"
         id="g802">
        <path
           inkscape:connector-curvature="0"
           id="path804"
           style="fill:#b7a99f;fill-opacity:1;fill-rule:nonzero;stroke:none"
           d="m 0,0 c 0,-1.412 -19.916,-2.557 -44.484,-2.557 -24.567,0 -44.481,1.145 -44.481,2.557 0,1.412 19.914,2.557 44.481,2.557 C -19.916,2.557 0,1.412 0,0" />
      </g>
      <g
         transform="matrix(0.35277777,0,0,-0.35277777,211.50163,211.31306)"
         id="g806">
        <path
           inkscape:connector-curvature="0"
           id="path808"
           style="fill:#eabb98;fill-opacity:1;fill-rule:nonzero;stroke:none"
           d="m 0,0 2.844,-80.242 3.5,0 2,70.908 2.5,-70.416 3,0 L 17.631,0 Z" />
      </g>
      <g
         transform="matrix(0.35277777,0,0,-0.35277777,214.09236,239.62069)"
         id="g810">
        <path
           inkscape:connector-curvature="0"
           id="path812"
           style="fill:#fe0000;fill-opacity:1;fill-rule:nonzero;stroke:none"
           d="M 0,0 -8.5,-5.91 -3.5,6.893 -1,5.908 Z" />
      </g>
      <g
         transform="matrix(0.35277777,0,0,-0.35277777,214.97431,239.62069)"
         id="g814">
        <path
           inkscape:connector-curvature="0"
           id="path816"
           style="fill:#fe0000;fill-opacity:1;fill-rule:nonzero;stroke:none"
           d="M 0,0 10.5,-5.91 3.5,6.893 1,5.908 Z" />
      </g>
      <g
         transform="matrix(0.35277777,0,0,-0.35277777,223.15159,194.34526)"
         id="g818">
        <path
           inkscape:connector-curvature="0"
           id="path820"
           style="fill:#351f10;fill-opacity:1;fill-rule:nonzero;stroke:none"
           d="m 0,0 c 3.984,9.791 2.932,21.798 -5.348,27.569 -7.91,5.516 -20.75,7.198 -28,5.333 C -46.889,29.422 -53.824,19.397 -50.32,0.456 -33.588,1.832 -16.502,2.719 0,0" />
      </g>
      <g
         transform="matrix(0.35277777,0,0,-0.35277777,218.15552,199.46879)"
         id="g822">
        <path
           inkscape:connector-curvature="0"
           id="path824"
           style="fill:#eabb98;fill-opacity:1;fill-rule:nonzero;stroke:none"
           d="m 0,0 c 4.74,1.306 8.717,3.578 11.363,6.445 1.602,0.021 3.582,1.711 4.795,4.257 1.446,3.034 1.25,6.124 -0.433,6.9 -0.387,0.179 -3.823,0.213 -4.278,0.132 -2.123,7.387 -11.945,12.972 -23.75,12.972 -10.541,0 -16.5,-4.456 -19.81,-10.67 -0.584,0.461 -1.219,0.689 -1.852,0.595 -1.84,-0.266 -2.943,-3.08 -2.461,-6.285 0.479,-3.205 2.358,-5.588 4.199,-5.323 0.104,0.016 0.206,0.042 0.305,0.073 2.279,-3.978 6.901,-7.19 10.748,-8.921 l -15.344,-42.173 17.676,31.769 18.235,-0.031 22.089,-29.232 z" />
      </g>
      <g
         transform="matrix(0.35277777,0,0,-0.35277777,212.42355,210.9582)"
         id="g826">
        <path
           inkscape:connector-curvature="0"
           id="path828"
           style="fill:#fe0000;fill-opacity:1;fill-rule:nonzero;stroke:none"
           d="m 0,0 -3.594,24.309 c 0,0 6.657,4.189 9.067,4.232 2.673,0.045 10.168,-4.232 10.168,-4.232 l -4.1,-24.198 z" />
      </g>
      <g
         transform="matrix(0.35277777,0,0,-0.35277777,211.1957,193.4454)"
         id="g830">
        <path
           inkscape:connector-curvature="0"
           id="path832"
           style="fill:#351f10;fill-opacity:1;fill-rule:nonzero;stroke:none"
           d="m 0,0 c 0,-1.26 -0.959,-2.283 -2.139,-2.283 -1.179,0 -2.138,1.023 -2.138,2.283 0,1.262 0.959,2.283 2.138,2.283 C -0.959,2.283 0,1.262 0,0" />
      </g>
      <g
         transform="matrix(0.35277777,0,0,-0.35277777,216.53768,193.80368)"
         id="g834">
        <path
           inkscape:connector-curvature="0"
           id="path836"
           style="fill:#351f10;fill-opacity:1;fill-rule:nonzero;stroke:none"
           d="m 0,0 c 0,-1.26 -0.957,-2.283 -2.137,-2.283 -1.181,0 -2.138,1.023 -2.138,2.283 0,1.262 0.957,2.284 2.138,2.284 C -0.957,2.284 0,1.262 0,0" />
      </g>
      <g
         transform="matrix(0.35277777,0,0,-0.35277777,211.15231,223.07252)"
         id="g838">
        <path
           inkscape:connector-curvature="0"
           id="path840"
           style="fill:#fe0000;fill-opacity:1;fill-rule:nonzero;stroke:none"
           d="M 0,0 C 0,0 -17.166,35.742 11.115,34.934 35.852,34.225 20.666,-0.332 20.666,-0.332 20.666,-0.332 11.334,-4 0,0" />
      </g>
      <g
         transform="matrix(0.35277777,0,0,-0.35277777,221.85347,189.96482)"
         id="g842">
        <path
           inkscape:connector-curvature="0"
           id="path844"
           style="fill:#fe0000;fill-opacity:1;fill-rule:nonzero;stroke:none"
           d="M 0,0 C 1.156,0.733 4.721,3.599 2.779,5.093 1.256,6.267 -2.717,2.979 -2.502,1.688 -2.475,3.358 -3.059,7.187 -5.373,5.894 -7,4.983 -6.256,0.579 -5.211,-0.731 c -1.174,1.867 -5.793,1.664 -6.172,-0.272 -0.656,-3.369 4.61,-3.501 6.686,-2.313 -1.399,-1.624 -3.498,-4.312 -1.477,-5.728 0.197,-0.137 2.231,-0.152 2.485,-0.018 0.652,0.343 1.238,1.34 1.486,2.274 0.191,-1.547 0.91,-3.324 2.336,-3.164 2.902,0.326 1.865,5.734 0.791,6.99 1.422,-1.279 4.082,-1.106 4.48,0.703 C 6.086,0.835 1.971,1.33 0,0" />
      </g>
      <g
         transform="matrix(0.35277777,0,0,-0.35277777,212.32847,202.3124)"
         id="g846">
        <path
           inkscape:connector-curvature="0"
           id="path848"
           style="fill:#665e5a;fill-opacity:1;fill-rule:nonzero;stroke:none"
           d="M 0,0 6.781,-24.734 12,0.334 c 0,0 -6.666,9 -12,-0.334" />
      </g>
      <g
         transform="matrix(0.35277777,0,0,-0.35277777,201.87468,241.32948)"
         id="g850">
        <path
           inkscape:connector-curvature="0"
           id="path852"
           style="fill:#b7a99f;fill-opacity:1;fill-rule:nonzero;stroke:none"
           d="m 0,0 c 0,-1.412 -19.916,-2.557 -44.484,-2.557 -24.567,0 -44.481,1.145 -44.481,2.557 0,1.412 19.914,2.557 44.481,2.557 C -19.916,2.557 0,1.412 0,0" />
      </g>
      <g
         transform="matrix(0.35277777,0,0,-0.35277777,183.19676,211.60174)"
         id="g854">
        <path
           inkscape:connector-curvature="0"
           id="path856"
           style="fill:#eabb98;fill-opacity:1;fill-rule:nonzero;stroke:none"
           d="m 0,0 2.85,-80.424 3.5,0 2,70.908 2.5,-70.416 3,0 L 17.646,0 Z" />
      </g>
      <g
         transform="matrix(0.35277777,0,0,-0.35277777,185.78953,239.97347)"
         id="g858">
        <path
           inkscape:connector-curvature="0"
           id="path860"
           style="fill:#665e5a;fill-opacity:1;fill-rule:nonzero;stroke:none"
           d="M 0,0 -8.5,-5.91 -3.5,6.893 -1,5.908 Z" />
      </g>
      <g
         transform="matrix(0.35277777,0,0,-0.35277777,186.67148,239.97347)"
         id="g862">
        <path
           inkscape:connector-curvature="0"
           id="path864"
           style="fill:#665e5a;fill-opacity:1;fill-rule:nonzero;stroke:none"
           d="M 0,0 10.5,-5.91 3.5,6.893 1,5.908 Z" />
      </g>
      <g
         transform="matrix(0.35277777,0,0,-0.35277777,184.31503,182.98024)"
         id="g866">
        <path
           inkscape:connector-curvature="0"
           id="path868"
           style="fill:#351f10;fill-opacity:1;fill-rule:nonzero;stroke:none"
           d="m 0,0 c -13.908,-3.575 -23.537,-15.009 -19.32,-35.132 14.666,-70 30.593,-22.32 47.332,-4.668 11.633,12.268 6.093,27.426 -4.791,35.016 C 15.309,0.731 7.25,1.864 0,0" />
      </g>
      <g
         transform="matrix(0.35277777,0,0,-0.35277777,195.90568,194.98778)"
         id="g870">
        <path
           inkscape:connector-curvature="0"
           id="path872"
           style="fill:#eabb98;fill-opacity:1;fill-rule:nonzero;stroke:none"
           d="m 0,0 c 1.445,3.034 1.25,6.124 -0.434,6.899 -0.386,0.18 -3.822,0.214 -4.277,0.133 -0.148,0.514 -0.342,1.016 -0.56,1.511 -9.045,-0.241 -18.788,4.558 -26.77,10.181 -3.652,-3.875 -8.693,-6.387 -13.963,-7.533 -0.424,-0.092 -0.816,-0.09 -1.184,-0.04 -0.39,-0.586 -0.751,-1.192 -1.083,-1.817 -0.584,0.461 -1.219,0.688 -1.852,0.595 -1.84,-0.266 -2.943,-3.08 -2.461,-6.285 0.479,-3.206 2.357,-5.588 4.199,-5.323 0.104,0.016 0.205,0.042 0.305,0.073 2.279,-3.978 6.9,-7.19 12.748,-8.921 L -50.676,-52.7 -35,-24.932 l 17.234,0.97 17.09,-29.232 -15.482,42.492 c 4.74,1.306 8.717,3.578 11.363,6.445 C -3.193,-4.236 -1.213,-2.546 0,0" />
      </g>
      <g
         transform="matrix(0.35277777,0,0,-0.35277777,184.12072,210.9582)"
         id="g874">
        <path
           inkscape:connector-curvature="0"
           id="path876"
           style="fill:#665e5a;fill-opacity:1;fill-rule:nonzero;stroke:none"
           d="m 0,0 -2.594,26.309 c 0,0 6.656,4.189 9.067,4.232 2.673,0.045 10.168,-4.232 10.168,-4.232 l -3.1,-26.198 z" />
      </g>
      <g
         transform="matrix(0.35277777,0,0,-0.35277777,183.24565,192.73984)"
         id="g878">
        <path
           inkscape:connector-curvature="0"
           id="path880"
           style="fill:#351f10;fill-opacity:1;fill-rule:nonzero;stroke:none"
           d="m 0,0 c 0,-1.26 -0.959,-2.283 -2.139,-2.283 -1.179,0 -2.138,1.023 -2.138,2.283 0,1.262 0.959,2.283 2.138,2.283 C -0.959,2.283 0,1.262 0,0" />
      </g>
      <g
         transform="matrix(0.35277777,0,0,-0.35277777,188.58762,193.09812)"
         id="g882">
        <path
           inkscape:connector-curvature="0"
           id="path884"
           style="fill:#351f10;fill-opacity:1;fill-rule:nonzero;stroke:none"
           d="m 0,0 c 0,-1.26 -0.957,-2.283 -2.137,-2.283 -1.181,0 -2.138,1.023 -2.138,2.283 0,1.262 0.957,2.284 2.138,2.284 C -0.957,2.284 0,1.262 0,0" />
      </g>
      <g
         transform="matrix(0.35277777,0,0,-0.35277777,189.47369,233.98178)"
         id="g886">
        <path
           inkscape:connector-curvature="0"
           id="path888"
           style="fill:#fe0000;fill-opacity:1;fill-rule:nonzero;stroke:none"
           d="M 0,0 C 2.895,12.559 14.23,67.23 -7.662,67.857 -34,68.611 -19.623,7.475 -17.523,-0.932 -11.672,-0.854 -5.834,-0.484 0,0" />
      </g>
      <g
         transform="matrix(0.35277777,0,0,-0.35277777,189.9636,201.01841)"
         id="g890">
        <path
           inkscape:connector-curvature="0"
           id="path892"
           style="fill:#fe0000;fill-opacity:1;fill-rule:nonzero;stroke:none"
           d="M 0,0 C 1.156,0.732 4.721,3.598 2.779,5.093 1.256,6.266 -2.717,2.979 -2.502,1.687 -2.475,3.357 -3.059,7.186 -5.373,5.893 -7,4.982 -6.256,0.578 -5.211,-0.731 c -1.174,1.866 -5.793,1.663 -6.172,-0.272 -0.656,-3.37 4.61,-3.501 6.686,-2.313 -1.399,-1.624 -3.498,-4.313 -1.477,-5.729 0.197,-0.137 2.231,-0.151 2.485,-0.018 0.652,0.344 1.238,1.341 1.486,2.274 0.191,-1.547 0.91,-3.324 2.336,-3.164 2.902,0.327 1.865,5.734 0.791,6.991 1.422,-1.28 4.082,-1.106 4.48,0.703 C 6.086,0.834 1.971,1.33 0,0" />
      </g>
    </g>
  </g>
</svg>
