<?xml version="1.0" encoding="UTF-8" standalone="no"?>
<!-- Created with Inkscape (http://www.inkscape.org/) -->

<svg
   xmlns:dc="http://purl.org/dc/elements/1.1/"
   xmlns:cc="http://creativecommons.org/ns#"
   xmlns:rdf="http://www.w3.org/1999/02/22-rdf-syntax-ns#"
   xmlns:svg="http://www.w3.org/2000/svg"
   xmlns="http://www.w3.org/2000/svg"
   xmlns:sodipodi="http://sodipodi.sourceforge.net/DTD/sodipodi-0.dtd"
   xmlns:inkscape="http://www.inkscape.org/namespaces/inkscape"
   width="218.29768mm"
   height="72.427605mm"
   viewBox="0 0 773.49573 256.63324"
   id="svg13125"
   version="1.1"
   inkscape:version="0.91 r13725"
   sodipodi:docname="preweb1.svg">
  <defs
     id="defs13127">
    <clipPath
       id="clipPath988"
       clipPathUnits="userSpaceOnUse">
      <path
         inkscape:connector-curvature="0"
         id="path986"
         d="m 374.93,478.837 83.28,0 0,-63.643 -83.28,0 z" />
    </clipPath>
  </defs>
  <sodipodi:namedview
     id="base"
     pagecolor="#ffffff"
     bordercolor="#666666"
     borderopacity="1.0"
     inkscape:pageopacity="0.0"
     inkscape:pageshadow="2"
     inkscape:zoom="0.35"
     inkscape:cx="-379.68071"
     inkscape:cy="-154.54052"
     inkscape:document-units="px"
     inkscape:current-layer="layer1"
     showgrid="false"
     fit-margin-top="0"
     fit-margin-left="0"
     fit-margin-right="0"
     fit-margin-bottom="0"
     inkscape:window-width="1366"
     inkscape:window-height="705"
     inkscape:window-x="-8"
     inkscape:window-y="-8"
     inkscape:window-maximized="1" />
  <metadata
     id="metadata13130">
    <rdf:RDF>
      <cc:Work
         rdf:about="">
        <dc:format>image/svg+xml</dc:format>
        <dc:type
           rdf:resource="http://purl.org/dc/dcmitype/StillImage" />
        <dc:title></dc:title>
      </cc:Work>
    </rdf:RDF>
  </metadata>
  <g
     inkscape:label="Capa 1"
     inkscape:groupmode="layer"
     id="layer1"
     transform="translate(-96.109285,-121.18844)">
    <g
       transform="matrix(3.5433071,0,0,3.5433071,116.07142,-197.36615)"
       id="g12942">
      <g
         transform="matrix(0.35277777,0,0,-0.35277777,47.816558,107.12646)"
         id="g894">
        <path
           inkscape:connector-curvature="0"
           id="path896"
           style="fill:#351f10;fill-opacity:1;fill-rule:nonzero;stroke:none"
           d="m 0,0 c -2.009,-6.831 16.811,-22.99 16.811,-22.99 l 43.283,17.174 c 0,0 4.177,23.879 -1.293,28.431 C 46.695,32.689 4.445,15.109 0,0" />
      </g>
      <g
         transform="matrix(0.35277777,0,0,-0.35277777,81.510962,137.22006)"
         id="g898">
        <path
           inkscape:connector-curvature="0"
           id="path900"
           style="fill:#351f10;fill-opacity:1;fill-rule:nonzero;stroke:none"
           d="M 0,0 -18.846,44.669 26.946,57.355 -30.041,53.531 -62.38,38.656 -98.054,0.355 -60.653,22.6 l 12.906,-39.825 7.405,2.328 9.992,-47.123 -12.123,-6.558 20.975,0.256 c 0,0 -2.459,57.67 -2.015,56.516 0.445,-1.153 6.732,-56.235 6.732,-56.235 l 20.439,-0.151 -13.797,7.651 5.605,59.027 z" />
      </g>
      <g
         transform="matrix(0.35277777,0,0,-0.35277777,60.985928,121.20452)"
         id="g902">
        <path
           inkscape:connector-curvature="0"
           id="path904"
           style="fill:#e2d4bf;fill-opacity:1;fill-rule:nonzero;stroke:none"
           d="M 0,0 30.821,-37.778 22.785,9.646 Z" />
      </g>
      <g
         transform="matrix(0.35277777,0,0,-0.35277777,73.599462,108.76497)"
         id="g906">
        <path
           inkscape:connector-curvature="0"
           id="path908"
           style="fill:#eabb98;fill-opacity:1;fill-rule:nonzero;stroke:none"
           d="M 0,0 C -1.033,3.965 -4.194,6.575 -7.056,5.828 -8.209,5.527 -9.134,4.723 -9.765,3.616 c -6.255,4.477 -13.924,14.669 -29.78,6.902 -20.176,-9.885 -15.743,-20.417 -15.796,-28.505 -1.86,0.603 -3.704,0.404 -4.959,-0.725 -2.202,-1.975 -1.77,-6.05 0.967,-9.097 2.737,-3.05 6.741,-3.919 8.944,-1.942 0.339,0.302 0.606,0.659 0.822,1.05 6.296,-4.248 16.796,-4.563 26.921,-0.123 10.26,4.498 17.181,12.576 18.187,20.173 0.383,-0.015 0.766,0.02 1.145,0.119 C -0.451,-7.782 1.031,-3.965 0,0" />
      </g>
      <g
         transform="matrix(0.35277777,0,0,-0.35277777,59.994446,113.08544)"
         id="g910">
        <path
           inkscape:connector-curvature="0"
           id="path912"
           style="fill:#351f10;fill-opacity:1;fill-rule:nonzero;stroke:none"
           d="m 0,0 c 0.138,-1.271 -0.812,-2.42 -2.12,-2.563 -1.311,-0.141 -2.487,0.775 -2.626,2.047 -0.139,1.272 0.813,2.421 2.123,2.564 C -1.315,2.19 -0.138,1.274 0,0" />
      </g>
      <g
         transform="matrix(0.35277777,0,0,-0.35277777,66.215612,110.81616)"
         id="g914">
        <path
           inkscape:connector-curvature="0"
           id="path916"
           style="fill:#351f10;fill-opacity:1;fill-rule:nonzero;stroke:none"
           d="m 0,0 c 0.138,-1.271 -0.812,-2.419 -2.124,-2.561 -1.308,-0.143 -2.484,0.775 -2.623,2.045 -0.139,1.273 0.813,2.419 2.123,2.563 C -1.315,2.19 -0.14,1.274 0,0" />
      </g>
      <g
         transform="matrix(0.35277777,0,0,-0.35277777,61.239505,121.0264)"
         id="g918">
        <path
           inkscape:connector-curvature="0"
           id="path920"
           style="fill:#665e5a;fill-opacity:1;fill-rule:nonzero;stroke:none"
           d="m 0,0 -8.794,-5.785 c 0,0 20.77,-30.183 38.347,-32.255 z" />
      </g>
      <g
         transform="matrix(0.35277777,0,0,-0.35277777,67.77623,117.19615)"
         id="g922">
        <path
           inkscape:connector-curvature="0"
           id="path924"
           style="fill:#665e5a;fill-opacity:1;fill-rule:nonzero;stroke:none"
           d="m 0,0 11.573,-49.141 c 0,0 6.264,27.542 3.158,47.101 z" />
      </g>
      <g
         transform="matrix(0.35277777,0,0,-0.35277777,64.91559,119.15054)"
         id="g926">
        <path
           inkscape:connector-curvature="0"
           id="path928"
           style="fill:#fe0000;fill-opacity:1;fill-rule:nonzero;stroke:none"
           d="M 0,0 -15.366,1.359 -7.677,-14.587 1.398,-3.053 16.377,-5.354 9.87,10.965 Z" />
      </g>
      <g
         transform="matrix(0.35277777,0,0,-0.35277777,189.08924,161.28889)"
         id="g930">
        <path
           inkscape:connector-curvature="0"
           id="path932"
           style="fill:#b7a99f;fill-opacity:1;fill-rule:nonzero;stroke:none"
           d="M 0,0 C 0,-1.412 -113.943,-2.557 -254.504,-2.557 -395.059,-2.557 -509,-1.412 -509,0 c 0,1.412 113.941,2.557 254.496,2.557 C -113.943,2.557 0,1.412 0,0" />
      </g>
      <g
         transform="matrix(0.35277777,0,0,-0.35277777,106.88443,137.36957)"
         id="g934">
        <path
           inkscape:connector-curvature="0"
           id="path936"
           style="fill:#351f10;fill-opacity:1;fill-rule:nonzero;stroke:none"
           d="m 0,0 -12.061,34.287 35.469,-19.922 -39.285,43.46 -38.487,-8.532 -8.992,-31.25 19.377,-23.264 -6,22 -0.542,11.127 0.448,-36.219 6.72,1.131 6.57,-49.123 -10.414,-9.24 18.162,0.424 1.221,11.49 c 0,0 4.294,45.123 4.523,43.906 0.229,-1.214 0.127,-55.988 0.127,-55.988 l 20.615,0.108 -13.547,13.051 11.364,51.884 z" />
      </g>
      <g
         transform="matrix(0.35277777,0,0,-0.35277777,89.592819,117.90823)"
         id="g938">
        <path
           inkscape:connector-curvature="0"
           id="path940"
           style="fill:#e2d4bf;fill-opacity:1;fill-rule:nonzero;stroke:none"
           d="M 0,0 23.484,-42.729 24.152,5.369 Z" />
      </g>
      <g
         transform="matrix(0.35277777,0,0,-0.35277777,103.90029,108.01874)"
         id="g942">
        <path
           inkscape:connector-curvature="0"
           id="path944"
           style="fill:#eabb98;fill-opacity:1;fill-rule:nonzero;stroke:none"
           d="M 0,0 C -0.299,4.088 -2.938,7.225 -5.887,7.008 -7.076,6.92 -8.131,6.296 -8.951,5.322 c -5.342,5.533 -15.785,7.873 -26.751,5.291 -11.764,-2.774 -20.464,-10.355 -21.978,-18.3 -1.721,0.929 -3.57,1.067 -5.008,0.184 -2.524,-1.546 -2.835,-5.632 -0.695,-9.124 2.141,-3.494 5.922,-5.072 8.445,-3.525 0.389,0.236 0.717,0.539 0.999,0.884 5.425,-5.318 15.695,-7.525 26.457,-4.988 10.902,2.569 19.169,9.264 21.533,16.553 0.373,-0.083 0.758,-0.116 1.146,-0.088 C -1.852,-7.573 0.297,-4.086 0,0" />
      </g>
      <g
         transform="matrix(0.35277777,0,0,-0.35277777,90.237026,109.84465)"
         id="g946">
        <path
           inkscape:connector-curvature="0"
           id="path948"
           style="fill:#351f10;fill-opacity:1;fill-rule:nonzero;stroke:none"
           d="m 0,0 c -0.094,-1.276 -1.125,-2.242 -2.301,-2.156 -1.178,0.086 -2.056,1.192 -1.965,2.468 0.094,1.277 1.126,2.243 2.303,2.157 C -0.786,2.383 0.094,1.276 0,0" />
      </g>
      <g
         transform="matrix(0.35277777,0,0,-0.35277777,96.58565,108.6337)"
         id="g950">
        <path
           inkscape:connector-curvature="0"
           id="path952"
           style="fill:#351f10;fill-opacity:1;fill-rule:nonzero;stroke:none"
           d="m 0,0 c -0.094,-1.275 -1.125,-2.241 -2.303,-2.155 -1.176,0.087 -2.056,1.192 -1.963,2.467 0.094,1.277 1.126,2.243 2.303,2.156 C -0.786,2.382 0.093,1.276 0,0" />
      </g>
      <g
         transform="matrix(0.35277777,0,0,-0.35277777,83.51668,111.90343)"
         id="g954">
        <path
           inkscape:connector-curvature="0"
           id="path956"
           style="fill:#351f10;fill-opacity:1;fill-rule:nonzero;stroke:none"
           d="M 0,0 C 0,0 3.14,14.648 20.886,19.959 38.632,25.27 53.165,9.326 53.165,9.326 c 0,0 -0.588,27.541 -33.881,33.827 C 19.284,43.153 -14.494,22.139 0,0" />
      </g>
      <g
         transform="matrix(0.35277777,0,0,-0.35277777,89.874617,117.77869)"
         id="g958">
        <path
           inkscape:connector-curvature="0"
           id="path960"
           style="fill:#665e5a;fill-opacity:1;fill-rule:nonzero;stroke:none"
           d="m 0,0 -9.143,-7.049 c 0,0 14.418,-30.492 31.332,-35.707 z" />
      </g>
      <g
         transform="matrix(0.35277777,0,0,-0.35277777,96.995613,115.19315)"
         id="g962">
        <path
           inkscape:connector-curvature="0"
           id="path964"
           style="fill:#665e5a;fill-opacity:1;fill-rule:nonzero;stroke:none"
           d="m 0,0 2.5,-50.425 c 0,0 11.139,25.957 11.619,45.756 z" />
      </g>
      <g
         transform="matrix(0.35277777,0,0,-0.35277777,93.828903,116.5984)"
         id="g966">
        <path
           inkscape:connector-curvature="0"
           id="path968"
           style="fill:#ffffff;fill-opacity:1;fill-rule:nonzero;stroke:none"
           d="m 0,0 -14.866,4.114 4.678,-17.073 11.012,9.703 14.315,-4.971 -3.45,17.228 z" />
      </g>
      <g
         transform="matrix(0.35277777,0,0,-0.35277777,102.83543,101.17715)"
         id="g970">
        <path
           inkscape:connector-curvature="0"
           id="path972"
           style="fill:#351f10;fill-opacity:1;fill-rule:nonzero;stroke:none"
           d="m 0,0 -68.081,-10.383 -0.964,6.596 68.08,10.383 z" />
      </g>
      <g
         transform="matrix(0.35277777,0,0,-0.35277777,97.146531,100.14256)"
         id="g974">
        <path
           inkscape:connector-curvature="0"
           id="path976"
           style="fill:#351f10;fill-opacity:1;fill-rule:nonzero;stroke:none"
           d="m 0,0 -36.692,-5.36 -4.24,29.025 36.692,5.36 z" />
      </g>
      <g
         transform="matrix(0.35277777,0,0,-0.35277777,83.736849,98.847896)"
         id="g978">
        <path
           inkscape:connector-curvature="0"
           id="path980"
           style="fill:#665e5a;fill-opacity:1;fill-rule:nonzero;stroke:none"
           d="M 0,0 1.178,-8.063 37.87,-2.703 36.691,5.36 Z" />
      </g>
      <g
         transform="matrix(0.35277777,0,0,-0.35277777,-37.92361,272.55754)"
         id="g982">
        <g
           id="g984" />
        <g
           id="g996">
          <g
             style="opacity:0.69999701"
             id="g994"
             clip-path="url(#clipPath988)">
            <g
               id="g992"
               transform="translate(403.3467,478.8369)">
              <path
                 inkscape:connector-curvature="0"
                 id="path990"
                 style="fill:#f7f2e8;fill-opacity:1;fill-rule:nonzero;stroke:none"
                 d="m 0,0 c 0,0 -27.932,-7.889 -28.417,-60.705 0,0 49.763,-12.344 83.28,13.574 0,0 -8.74,40.944 -35.935,44.087 z" />
            </g>
          </g>
        </g>
      </g>
      <g
         transform="matrix(0.35277777,0,0,-0.35277777,111.5484,118.80672)"
         id="g998">
        <path
           inkscape:connector-curvature="0"
           id="path1000"
           style="fill:#eabb98;fill-opacity:1;fill-rule:nonzero;stroke:none"
           d="m 0,0 c 4.641,1.639 8.455,4.205 10.902,7.287 1.596,0.126 3.457,1.971 4.496,4.631 1.237,3.17 0.832,6.287 -0.898,6.961 -0.398,0.156 -0.836,0.162 -1.283,0.051 -2.619,7.341 -12.797,12.345 -24.576,11.559 -10.518,-0.702 -19.157,-5.812 -22.037,-12.329 -0.614,0.428 -1.264,0.617 -1.889,0.481 -1.819,-0.393 -2.727,-3.318 -2.031,-6.534 0.695,-3.214 2.732,-5.503 4.55,-5.111 0.102,0.024 0.202,0.056 0.299,0.094 2.543,-3.879 7.373,-6.824 13.322,-8.19 l -14.054,-51.74 15.092,37.221 17.062,5.142 20.846,-37.363 z" />
      </g>
      <g
         transform="matrix(0.35277777,0,0,-0.35277777,106.60606,130.82872)"
         id="g1002">
        <path
           inkscape:connector-curvature="0"
           id="path1004"
           style="fill:#ffffff;fill-opacity:1;fill-rule:nonzero;stroke:none"
           d="m 0,0 -5.229,24.389 c 0,0 6.424,3.689 8.827,3.892 2.664,0.225 10.363,-2.612 10.363,-2.612 L 11.506,0.881 Z" />
      </g>
      <g
         transform="matrix(0.35277777,0,0,-0.35277777,111.21422,104.48892)"
         id="g1006">
        <path
           inkscape:connector-curvature="0"
           id="path1008"
           style="fill:#351f10;fill-opacity:1;fill-rule:nonzero;stroke:none"
           d="M 0,0 C 2.42,3.258 12.436,18.285 -6.84,20.433 -26.166,22.586 -20.65,5.034 -19.52,1.9 c -21.276,-3.718 -15.154,-26.558 -15.154,-26.558 0,0 15.992,-0.31 23.266,14.496 0,0 6.105,-15.152 25.369,-14.969 0,0 1.65,18.419 -13.961,25.131" />
      </g>
      <g
         transform="matrix(0.35277777,0,0,-0.35277777,104.90006,113.12058)"
         id="g1010">
        <path
           inkscape:connector-curvature="0"
           id="path1012"
           style="fill:#351f10;fill-opacity:1;fill-rule:nonzero;stroke:none"
           d="m 0,0 c 0.086,-1.276 -0.801,-2.377 -1.979,-2.456 -1.175,-0.078 -2.203,0.894 -2.287,2.172 -0.086,1.277 0.801,2.376 1.979,2.455 C -1.109,2.249 -0.084,1.277 0,0" />
      </g>
      <g
         transform="matrix(0.35277777,0,0,-0.35277777,111.31137,113.05719)"
         id="g1014">
        <path
           inkscape:connector-curvature="0"
           id="path1016"
           style="fill:#351f10;fill-opacity:1;fill-rule:nonzero;stroke:none"
           d="m 0,0 c 0.084,-1.276 -0.803,-2.377 -1.98,-2.456 -1.178,-0.078 -2.202,0.894 -2.288,2.172 -0.086,1.277 0.801,2.377 1.979,2.455 C -1.111,2.249 -0.086,1.277 0,0" />
      </g>
      <g
         transform="matrix(0.35277777,0,0,-0.35277777,111.62351,104.27323)"
         id="g1018">
        <path
           inkscape:connector-curvature="0"
           id="path1020"
           style="fill:#ffffff;fill-opacity:1;fill-rule:nonzero;stroke:none"
           d="M 0,0 C 1.09,0.81 4.416,3.916 2.4,5.285 0.818,6.361 -2.881,2.806 -2.582,1.525 -2.666,3.201 -3.5,6.998 -5.695,5.55 -7.242,4.531 -6.213,0.168 -5.094,-1.076 c -1.281,1.793 -5.828,1.286 -6.072,-0.678 -0.422,-3.42 4.783,-3.204 6.752,-1.878 -1.272,-1.719 -3.164,-4.55 -1.074,-5.835 0.205,-0.125 2.211,-0.006 2.451,0.145 0.623,0.387 1.135,1.425 1.314,2.377 0.293,-1.538 1.121,-3.272 2.518,-3.017 2.842,0.519 1.457,5.866 0.312,7.056 1.491,-1.19 4.102,-0.841 4.375,0.998 C 5.947,1.236 1.854,1.462 0,0" />
      </g>
      <g
         transform="matrix(0.35277777,0,0,-0.35277777,94.282611,159.46746)"
         id="g1022">
        <path
           inkscape:connector-curvature="0"
           id="path1024"
           style="fill:#fff7e9;fill-opacity:1;fill-rule:nonzero;stroke:none"
           d="M 0,0 C 0,0 6.569,86.747 44.382,82.415 82.196,78.085 98.802,11.27 98.802,11.27 98.802,11.27 62.618,-17.202 0,0" />
      </g>
      <g
         transform="matrix(0.35277777,0,0,-0.35277777,110.66508,130.16521)"
         id="g1026">
        <path
           inkscape:connector-curvature="0"
           id="path1028"
           style="fill:#ffffff;fill-opacity:1;fill-rule:nonzero;stroke:none"
           d="m 0,0 -11.506,-0.881 c 0,0 -33.189,-17.762 -32.189,-63.762 0,0 39,5 42,46 0,0 19,-35 49,-32 0,0 -17.61,50.286 -47.305,50.643" />
      </g>
      <g
         transform="matrix(0.35277777,0,0,-0.35277777,7.1371885,109.68068)"
         id="g1030">
        <path
           inkscape:connector-curvature="0"
           id="path1032"
           style="fill:#351f10;fill-opacity:1;fill-rule:nonzero;stroke:none"
           d="M 0,0 C 0,0 -13.23,36.291 41.77,40.291 L 50.293,3.803 Z" />
      </g>
      <g
         transform="matrix(0.35277777,0,0,-0.35277777,24.453638,140.16495)"
         id="g1034">
        <path
           inkscape:connector-curvature="0"
           id="path1036"
           style="fill:#351f10;fill-opacity:1;fill-rule:nonzero;stroke:none"
           d="m 0,0 -2.533,37.924 16.217,-23.221 -18.629,45.059 -39.401,-1.289 -32.97,-46.77 30.804,27.039 -4.236,-37.68 6.814,-0.126 7.23,-51.336 -12.309,-9.127 18.667,1 0,9.654 c 0,0 6.03,46.812 6.03,45.576 l 0,-54.93 21.019,0.237 -12.383,7.463 10.905,50.742 z" />
      </g>
      <g
         transform="matrix(0.35277777,0,0,-0.35277777,11.751557,117.849)"
         id="g1038">
        <path
           inkscape:connector-curvature="0"
           id="path1040"
           style="fill:#e2d4bf;fill-opacity:1;fill-rule:nonzero;stroke:none"
           d="M 0,0 15.205,-46.324 24.729,0.824 Z" />
      </g>
      <g
         transform="matrix(0.35277777,0,0,-0.35277777,27.636893,110.76656)"
         id="g1042">
        <path
           inkscape:connector-curvature="0"
           id="path1044"
           style="fill:#eabb98;fill-opacity:1;fill-rule:nonzero;stroke:none"
           d="M 0,0 C 0.459,4.072 -1.555,7.643 -4.494,7.973 -5.678,8.105 -6.83,7.687 -7.816,6.881 -12.047,13.305 -15.547,22.57 -33.134,21.012 -55.513,19.029 -55.156,10.607 -58.109,3.078 c -1.52,1.231 -3.313,1.707 -4.889,1.104 -2.765,-1.053 -3.824,-5.012 -2.363,-8.838 1.46,-3.83 4.884,-6.078 7.65,-5.024 0.425,0.16 0.803,0.399 1.145,0.686 4.351,-6.227 14.038,-10.289 25.083,-9.779 11.19,0.515 20.549,5.57 24.215,12.298 0.353,-0.15 0.723,-0.254 1.112,-0.298 C -3.215,-7.102 -0.461,-4.07 0,0" />
      </g>
      <g
         transform="matrix(0.35277777,0,0,-0.35277777,15.504477,109.91492)"
         id="g1046">
        <path
           inkscape:connector-curvature="0"
           id="path1048"
           style="fill:#351f10;fill-opacity:1;fill-rule:nonzero;stroke:none"
           d="m 0,0 c -0.327,-1.236 -1.627,-1.968 -2.899,-1.631 -1.274,0.338 -2.043,1.615 -1.716,2.853 0.327,1.237 1.628,1.968 2.902,1.632 C -0.441,2.516 0.329,1.238 0,0" />
      </g>
      <g
         transform="matrix(0.35277777,0,0,-0.35277777,22.125446,110.03)"
         id="g1050">
        <path
           inkscape:connector-curvature="0"
           id="path1052"
           style="fill:#351f10;fill-opacity:1;fill-rule:nonzero;stroke:none"
           d="m 0,0 c -0.327,-1.236 -1.626,-1.967 -2.901,-1.629 -1.273,0.336 -2.041,1.614 -1.714,2.851 0.327,1.237 1.627,1.966 2.901,1.63 C -0.441,2.516 0.327,1.238 0,0" />
      </g>
      <g
         transform="matrix(0.35277777,0,0,-0.35277777,12.051983,117.77389)"
         id="g1054">
        <path
           inkscape:connector-curvature="0"
           id="path1056"
           style="fill:#665e5a;fill-opacity:1;fill-rule:nonzero;stroke:none"
           d="m 0,0 -10.285,-5.242 c 0,0 8.551,-32.627 24.213,-40.871 z" />
      </g>
      <g
         transform="matrix(0.35277777,0,0,-0.35277777,19.527837,116.54535)"
         id="g1058">
        <path
           inkscape:connector-curvature="0"
           id="path1060"
           style="fill:#665e5a;fill-opacity:1;fill-rule:nonzero;stroke:none"
           d="m 0,0 -6.838,-50.02 c 0,0 15.734,23.458 19.856,42.829 z" />
      </g>
      <g
         transform="matrix(0.35277777,0,0,-0.35277777,16.156481,117.34255)"
         id="g1062">
        <path
           inkscape:connector-curvature="0"
           id="path1064"
           style="fill:#351f10;fill-opacity:1;fill-rule:nonzero;stroke:none"
           d="m 0,0 -13.854,6.785 1.452,-17.644 12.611,7.507 13.154,-7.525 -0.215,17.568 z" />
      </g>
      <g
         transform="matrix(0.35277777,0,0,-0.35277777,11.514032,157.96714)"
         id="g1066">
        <path
           inkscape:connector-curvature="0"
           id="path1068"
           style="fill:#fe0000;fill-opacity:1;fill-rule:nonzero;stroke:none"
           d="m 0,0 -17.077,-9.653 24.91,1.113 -1,10.206 z" />
      </g>
      <g
         transform="matrix(0.35277777,0,0,-0.35277777,19.567631,157.95126)"
         id="g1070">
        <path
           inkscape:connector-curvature="0"
           id="path1072"
           style="fill:#fe0000;fill-opacity:1;fill-rule:nonzero;stroke:none"
           d="m 0,0 -10.966,1.621 0,-9.935 25.406,0.262 z" />
      </g>
      <g
         transform="matrix(0.35277777,0,0,-0.35277777,184.97028,131.51395)"
         id="g1074">
        <path
           inkscape:connector-curvature="0"
           id="path1076"
           style="fill:#eabb98;fill-opacity:1;fill-rule:nonzero;stroke:none"
           d="m 0,0 2.843,-80.243 3.5,0 2,70.909 2.5,-70.417 3,0 L 17.631,0 Z" />
      </g>
      <g
         transform="matrix(0.35277777,0,0,-0.35277777,187.56065,159.82197)"
         id="g1078">
        <path
           inkscape:connector-curvature="0"
           id="path1080"
           style="fill:#fe0000;fill-opacity:1;fill-rule:nonzero;stroke:none"
           d="M 0,0 -8.5,-4.909 -3.5,6.894 -1,5.909 Z" />
      </g>
      <g
         transform="matrix(0.35277777,0,0,-0.35277777,188.4426,159.82197)"
         id="g1082">
        <path
           inkscape:connector-curvature="0"
           id="path1084"
           style="fill:#fe0000;fill-opacity:1;fill-rule:nonzero;stroke:none"
           d="M 0,0 10.5,-4.909 3.5,6.894 1,5.909 Z" />
      </g>
      <g
         transform="matrix(0.35277777,0,0,-0.35277777,196.6202,114.54651)"
         id="g1086">
        <path
           inkscape:connector-curvature="0"
           id="path1088"
           style="fill:#351f10;fill-opacity:1;fill-rule:nonzero;stroke:none"
           d="m 0,0 c 3.984,9.791 2.931,21.799 -5.348,27.57 -7.911,5.516 -20.75,7.198 -28,5.333 C -46.89,29.422 -53.825,19.398 -50.321,0.457 -33.589,1.833 -16.503,2.72 0,0" />
      </g>
      <g
         transform="matrix(0.35277777,0,0,-0.35277777,191.62377,119.67008)"
         id="g1090">
        <path
           inkscape:connector-curvature="0"
           id="path1092"
           style="fill:#eabb98;fill-opacity:1;fill-rule:nonzero;stroke:none"
           d="m 0,0 c 4.74,1.307 8.717,3.579 11.363,6.446 1.602,0.021 3.582,1.711 4.795,4.257 1.446,3.034 1.25,6.123 -0.433,6.899 -0.387,0.179 -3.823,0.214 -4.278,0.133 -2.123,7.386 -11.945,12.972 -23.75,12.972 -10.541,0 -16.5,-4.457 -19.81,-10.67 -0.584,0.461 -1.219,0.688 -1.852,0.595 -1.84,-0.267 -2.943,-3.081 -2.461,-6.286 0.479,-3.205 2.358,-5.588 4.199,-5.322 0.104,0.016 0.206,0.042 0.305,0.073 2.279,-3.978 7.901,-8.19 11.748,-9.921 l -41.011,-21.569 42.343,12.164 18.235,-0.031 43.422,24.867 z" />
      </g>
      <g
         transform="matrix(0.35277777,0,0,-0.35277777,185.89184,131.15909)"
         id="g1094">
        <path
           inkscape:connector-curvature="0"
           id="path1096"
           style="fill:#fe0000;fill-opacity:1;fill-rule:nonzero;stroke:none"
           d="m 0,0 -3.594,24.308 c 0,0 6.657,4.189 9.067,4.232 2.673,0.046 10.168,-4.232 10.168,-4.232 l -4.1,-24.197 z" />
      </g>
      <g
         transform="matrix(0.35277777,0,0,-0.35277777,184.66399,113.64632)"
         id="g1098">
        <path
           inkscape:connector-curvature="0"
           id="path1100"
           style="fill:#351f10;fill-opacity:1;fill-rule:nonzero;stroke:none"
           d="m 0,0 c 0,-1.261 -0.959,-2.283 -2.139,-2.283 -1.179,0 -2.138,1.022 -2.138,2.283 0,1.261 0.959,2.282 2.138,2.282 C -0.959,2.282 0,1.261 0,0" />
      </g>
      <g
         transform="matrix(0.35277777,0,0,-0.35277777,190.00597,114.00461)"
         id="g1102">
        <path
           inkscape:connector-curvature="0"
           id="path1104"
           style="fill:#351f10;fill-opacity:1;fill-rule:nonzero;stroke:none"
           d="m 0,0 c 0,-1.26 -0.957,-2.283 -2.137,-2.283 -1.181,0 -2.138,1.023 -2.138,2.283 0,1.261 0.957,2.284 2.138,2.284 C -0.957,2.284 0,1.261 0,0" />
      </g>
      <g
         transform="matrix(0.35277777,0,0,-0.35277777,184.6206,143.27345)"
         id="g1106">
        <path
           inkscape:connector-curvature="0"
           id="path1108"
           style="fill:#fe0000;fill-opacity:1;fill-rule:nonzero;stroke:none"
           d="M 0,0 C 0,0 -17.166,35.742 11.115,34.933 35.852,34.225 20.667,-0.333 20.667,-0.333 20.667,-0.333 11.334,-4 0,0" />
      </g>
      <g
         transform="matrix(0.35277777,0,0,-0.35277777,195.32176,110.16575)"
         id="g1110">
        <path
           inkscape:connector-curvature="0"
           id="path1112"
           style="fill:#fe0000;fill-opacity:1;fill-rule:nonzero;stroke:none"
           d="M 0,0 C 1.156,0.732 4.721,3.598 2.779,5.093 1.256,6.266 -2.717,2.979 -2.502,1.687 -2.475,3.357 -3.059,7.186 -5.373,5.893 -7,4.982 -6.256,0.578 -5.211,-0.731 c -1.174,1.866 -5.793,1.663 -6.172,-0.272 -0.656,-3.37 4.61,-3.501 6.686,-2.313 -1.399,-1.624 -3.498,-4.313 -1.477,-5.729 0.197,-0.137 2.231,-0.151 2.485,-0.018 0.652,0.344 1.238,1.341 1.486,2.274 0.191,-1.547 0.91,-3.324 2.336,-3.164 2.902,0.327 1.865,5.734 0.791,6.991 1.422,-1.28 4.082,-1.106 4.48,0.703 C 6.086,0.834 1.971,1.33 0,0" />
      </g>
      <g
         transform="matrix(0.35277777,0,0,-0.35277777,185.79676,122.51329)"
         id="g1114">
        <path
           inkscape:connector-curvature="0"
           id="path1116"
           style="fill:#665e5a;fill-opacity:1;fill-rule:nonzero;stroke:none"
           d="M 0,0 6.781,-24.734 12,0.333 c 0,0 -6.666,9 -12,-0.333" />
      </g>
      <g
         transform="matrix(0.35277777,0,0,-0.35277777,37.184823,129.68184)"
         id="g1118">
        <path
           inkscape:connector-curvature="0"
           id="path1120"
           style="fill:#eabb98;fill-opacity:1;fill-rule:nonzero;stroke:none"
           d="m 0,0 3.09,-87.258 3.606,0 2.061,73.054 2.576,-72.547 3.09,0 L 18.544,0 Z" />
      </g>
      <g
         transform="matrix(0.35277777,0,0,-0.35277777,39.910561,160.46448)"
         id="g1122">
        <path
           inkscape:connector-curvature="0"
           id="path1124"
           style="fill:#fe0000;fill-opacity:1;fill-rule:nonzero;stroke:none"
           d="M 0,0 -9.757,-4.088 -3.606,7.103 -1.03,6.088 Z" />
      </g>
      <g
         transform="matrix(0.35277777,0,0,-0.35277777,40.81921,160.46448)"
         id="g1126">
        <path
           inkscape:connector-curvature="0"
           id="path1128"
           style="fill:#fe0000;fill-opacity:1;fill-rule:nonzero;stroke:none"
           d="M 0,0 10.817,-3.088 3.606,7.103 1.03,6.088 Z" />
      </g>
      <g
         transform="matrix(0.35277777,0,0,-0.35277777,38.027997,102.83732)"
         id="g1130">
        <path
           inkscape:connector-curvature="0"
           id="path1132"
           style="fill:#351f10;fill-opacity:1;fill-rule:nonzero;stroke:none"
           d="M 0,0 C -14.328,-3.684 -31.237,-15.294 -26.785,-36.002 -21.374,-61.177 20.893,-63.37 38.139,-45.184 50.122,-32.547 35.138,-12.748 23.923,-4.93 15.773,0.753 7.469,1.92 0,0" />
      </g>
      <g
         transform="matrix(0.35277777,0,0,-0.35277777,44.096692,119.09819)"
         id="g1134">
        <path
           inkscape:connector-curvature="0"
           id="path1136"
           style="fill:#eabb98;fill-opacity:1;fill-rule:nonzero;stroke:none"
           d="m 0,0 c 4.883,1.347 8.98,3.688 11.707,6.642 1.65,0.021 3.69,1.762 4.94,4.385 1.489,3.126 1.288,6.309 -0.447,7.108 -0.398,0.184 -3.938,0.22 -4.407,0.137 -2.187,7.61 -12.306,13.365 -24.468,13.365 -10.86,0 -16.999,-4.592 -20.41,-10.993 -0.602,0.474 -1.255,0.708 -1.907,0.612 -1.896,-0.275 -3.033,-3.174 -2.536,-6.476 0.493,-3.301 2.429,-5.757 4.326,-5.482 0.107,0.015 0.212,0.043 0.314,0.074 2.348,-4.098 7.11,-7.407 13.134,-9.19 l -21.244,-45.196 21.586,32.416 17.756,3.029 20.658,-29.445 z" />
      </g>
      <g
         transform="matrix(0.35277777,0,0,-0.35277777,38.191298,130.93448)"
         id="g1138">
        <path
           inkscape:connector-curvature="0"
           id="path1140"
           style="fill:#fe0000;fill-opacity:1;fill-rule:nonzero;stroke:none"
           d="m 0,0 -3.703,25.043 c 0,0 6.858,4.315 9.341,4.36 2.755,0.047 10.476,-4.36 10.476,-4.36 L 11.89,0.114 Z" />
      </g>
      <g
         transform="matrix(0.35277777,0,0,-0.35277777,38.016638,112.89219)"
         id="g1142">
        <path
           inkscape:connector-curvature="0"
           id="path1144"
           style="fill:#351f10;fill-opacity:1;fill-rule:nonzero;stroke:none"
           d="m 0,0 c 0,-1.299 -0.988,-2.352 -2.203,-2.352 -1.215,0 -2.204,1.053 -2.204,2.352 0,1.299 0.989,2.352 2.204,2.352 C -0.988,2.352 0,1.299 0,0" />
      </g>
      <g
         transform="matrix(0.35277777,0,0,-0.35277777,44.610548,113.26116)"
         id="g1146">
        <path
           inkscape:connector-curvature="0"
           id="path1148"
           style="fill:#351f10;fill-opacity:1;fill-rule:nonzero;stroke:none"
           d="m 0,0 c 0,-1.298 -0.986,-2.353 -2.201,-2.353 -1.217,0 -2.204,1.055 -2.204,2.353 0,1.299 0.987,2.354 2.204,2.354 C -0.986,2.354 0,1.299 0,0" />
      </g>
      <g
         transform="matrix(0.35277777,0,0,-0.35277777,29.55237,146.89009)"
         id="g1150">
        <path
           inkscape:connector-curvature="0"
           id="path1152"
           style="fill:#fe0000;fill-opacity:1;fill-rule:nonzero;stroke:none"
           d="M 0,0 C 0,0 3.09,46.673 32.227,45.839 57.712,45.109 65.936,3.043 65.936,3.043 65.936,3.043 45.331,-11.162 0,0" />
      </g>
      <path
         inkscape:connector-curvature="0"
         id="path1154"
         style="fill:#665e5a;fill-opacity:1;fill-rule:nonzero;stroke:none;stroke-width:0.35277778"
         d="m 43.726805,131.49864 -6.541911,0 0,-2.50578 6.541911,0 z" />
      <g
         transform="matrix(0.35277777,0,0,-0.35277777,47.906481,109.30617)"
         id="g1156">
        <path
           inkscape:connector-curvature="0"
           id="path1158"
           style="fill:#fe0000;fill-opacity:1;fill-rule:nonzero;stroke:none"
           d="M 0,0 C 1.191,0.755 4.863,3.706 2.863,5.247 1.294,6.455 -2.799,3.068 -2.578,1.738 -2.549,3.459 -3.151,7.403 -5.536,6.07 -7.212,5.133 -6.445,0.596 -5.369,-0.754 c -1.209,1.923 -5.968,1.714 -6.358,-0.279 -0.676,-3.472 4.748,-3.608 6.888,-2.384 -1.441,-1.673 -3.604,-4.442 -1.521,-5.901 0.203,-0.141 2.298,-0.157 2.559,-0.019 0.672,0.355 1.276,1.382 1.531,2.343 0.197,-1.594 0.938,-3.425 2.407,-3.26 2.99,0.337 1.922,5.907 0.815,7.202 C 2.417,-4.37 5.157,-4.191 5.568,-2.327 6.27,0.859 2.03,1.37 0,0" />
      </g>
      <g
         transform="matrix(0.35277777,0,0,-0.35277777,168.81277,140.51772)"
         id="g1160">
        <path
           inkscape:connector-curvature="0"
           id="path1162"
           style="fill:#351f10;fill-opacity:1;fill-rule:nonzero;stroke:none"
           d="m 0,0 -3.533,37.924 27.01,55.779 -28.422,-33.941 -39.401,-1.289 -28.177,33.23 24,-50 -2.225,-40.641 6.814,-0.126 7.23,-51.336 -12.309,-9.127 18.667,1 0,9.654 c 0,0 6.03,46.812 6.03,45.576 l 0,-54.93 21.019,0.237 -12.383,7.463 10.905,50.742 z" />
      </g>
      <g
         transform="matrix(0.35277777,0,0,-0.35277777,155.40517,118.20178)"
         id="g1164">
        <path
           inkscape:connector-curvature="0"
           id="path1166"
           style="fill:#e2d4bf;fill-opacity:1;fill-rule:nonzero;stroke:none"
           d="M 0,0 15.205,-46.324 24.729,0.824 Z" />
      </g>
      <g
         transform="matrix(0.35277777,0,0,-0.35277777,171.29051,111.11934)"
         id="g1168">
        <path
           inkscape:connector-curvature="0"
           id="path1170"
           style="fill:#eabb98;fill-opacity:1;fill-rule:nonzero;stroke:none"
           d="M 0,0 C 0.459,4.072 -1.555,7.643 -4.494,7.973 -5.678,8.105 -6.83,7.687 -7.816,6.881 c -4.231,6.424 -3.731,17.488 -25.318,17.131 -22.464,-0.371 -22.022,-13.405 -24.975,-20.934 -1.52,1.231 -3.313,1.707 -4.889,1.104 -2.765,-1.053 -3.824,-5.012 -2.363,-8.838 1.46,-3.83 4.884,-6.078 7.65,-5.024 0.425,0.16 0.803,0.399 1.145,0.686 4.351,-6.227 14.038,-10.289 25.083,-9.779 11.19,0.515 20.549,5.57 24.215,12.298 0.353,-0.15 0.723,-0.254 1.112,-0.298 C -3.215,-7.102 -0.461,-4.07 0,0" />
      </g>
      <g
         transform="matrix(0.35277777,0,0,-0.35277777,157.04156,109.20937)"
         id="g1172">
        <path
           inkscape:connector-curvature="0"
           id="path1174"
           style="fill:#351f10;fill-opacity:1;fill-rule:nonzero;stroke:none"
           d="m 0,0 c -0.328,-1.236 -1.627,-1.968 -2.899,-1.631 -1.275,0.338 -2.043,1.615 -1.716,2.853 0.327,1.237 1.627,1.968 2.901,1.632 C -0.441,2.516 0.328,1.238 0,0" />
      </g>
      <g
         transform="matrix(0.35277777,0,0,-0.35277777,163.66236,109.32444)"
         id="g1176">
        <path
           inkscape:connector-curvature="0"
           id="path1178"
           style="fill:#351f10;fill-opacity:1;fill-rule:nonzero;stroke:none"
           d="m 0,0 c -0.327,-1.236 -1.627,-1.967 -2.9,-1.629 -1.274,0.336 -2.042,1.614 -1.715,2.851 0.327,1.237 1.627,1.966 2.901,1.63 C -0.441,2.516 0.327,1.238 0,0" />
      </g>
      <g
         transform="matrix(0.35277777,0,0,-0.35277777,165.6836,113.87196)"
         id="g1180">
        <path
           inkscape:connector-curvature="0"
           id="path1182"
           style="fill:#351f10;fill-opacity:1;fill-rule:nonzero;stroke:none"
           d="m 0,0 c -2.104,-1.618 -5.501,-1.781 -7.281,3.72 -1.781,5.503 -9.709,1.457 -9.709,1.457 l -0.006,-0.104 -0.007,0.104 c 0,0 -7.929,4.046 -9.709,-1.457 -1.78,-5.501 -5.177,-5.338 -7.28,-3.72 -2.084,1.601 6.616,-10.271 16.996,-0.149 C -6.617,-10.271 2.083,1.601 0,0" />
      </g>
      <g
         transform="matrix(0.35277777,0,0,-0.35277777,155.70556,118.12667)"
         id="g1184">
        <path
           inkscape:connector-curvature="0"
           id="path1186"
           style="fill:#fe0000;fill-opacity:1;fill-rule:nonzero;stroke:none"
           d="m 0,0 -10.285,-5.242 c 0,0 8.551,-32.627 24.213,-40.871 z" />
      </g>
      <g
         transform="matrix(0.35277777,0,0,-0.35277777,163.18141,116.89812)"
         id="g1188">
        <path
           inkscape:connector-curvature="0"
           id="path1190"
           style="fill:#fe0000;fill-opacity:1;fill-rule:nonzero;stroke:none"
           d="m 0,0 -6.838,-50.02 c 0,0 15.734,23.458 19.856,42.829 z" />
      </g>
      <g
         transform="matrix(0.35277777,0,0,-0.35277777,159.81006,117.69533)"
         id="g1192">
        <path
           inkscape:connector-curvature="0"
           id="path1194"
           style="fill:#665e5a;fill-opacity:1;fill-rule:nonzero;stroke:none"
           d="m 0,0 -13.854,6.785 1.452,-17.644 12.611,7.507 13.154,-7.525 -0.215,17.568 z" />
      </g>
      <g
         transform="matrix(0.35277777,0,0,-0.35277777,133.27006,132.07515)"
         id="g1196">
        <path
           inkscape:connector-curvature="0"
           id="path1198"
           style="fill:#eabb98;fill-opacity:1;fill-rule:nonzero;stroke:none"
           d="m 0,0 7.139,-82.165 3.426,0.712 -0.457,73.835 4.763,-72.439 2.938,0.61 -0.532,83.035 z" />
      </g>
      <g
         transform="matrix(0.35277777,0,0,-0.35277777,137.34288,160.73835)"
         id="g1200">
        <path
           inkscape:connector-curvature="0"
           id="path1202"
           style="fill:#665e5a;fill-opacity:1;fill-rule:nonzero;stroke:none"
           d="M 0,0 -9.122,-4.514 -4.829,6.038 -2.181,5.582 Z" />
      </g>
      <g
         transform="matrix(0.35277777,0,0,-0.35277777,138.2062,160.55921)"
         id="g1204">
        <path
           inkscape:connector-curvature="0"
           id="path1206"
           style="fill:#665e5a;fill-opacity:1;fill-rule:nonzero;stroke:none"
           d="M 0,0 11.482,-3.651 2.025,7.461 -0.222,5.989 Z" />
      </g>
      <g
         transform="matrix(0.35277777,0,0,-0.35277777,128.54615,103.82365)"
         id="g1208">
        <path
           inkscape:connector-curvature="0"
           id="path1210"
           style="fill:#351f10;fill-opacity:1;fill-rule:nonzero;stroke:none"
           d="m 0,0 c -12.89,-6.327 -19.993,-19.48 -11.774,-38.326 28.589,-65.558 34.492,-15.634 47.293,5.053 8.895,14.375 0.391,28.091 -11.81,33.308 C 14.842,3.828 6.72,3.299 0,0" />
      </g>
      <g
         transform="matrix(0.35277777,0,0,-0.35277777,142.33585,113.2243)"
         id="g1212">
        <path
           inkscape:connector-curvature="0"
           id="path1214"
           style="fill:#eabb98;fill-opacity:1;fill-rule:nonzero;stroke:none"
           d="M 0,0 C 0.799,3.266 -0.021,6.25 -1.827,6.667 -2.242,6.764 -5.613,6.1 -6.042,5.928 -6.291,6.4 -6.582,6.854 -6.898,7.293 -15.704,5.219 -26.219,7.936 -35.178,11.82 -37.967,7.283 -42.391,3.799 -47.317,1.606 c -0.398,-0.177 -0.781,-0.255 -1.152,-0.28 -0.262,-0.653 -0.493,-1.32 -0.692,-2 -0.665,0.333 -1.333,0.426 -1.934,0.206 -1.747,-0.635 -2.256,-3.615 -1.132,-6.655 1.121,-3.041 3.445,-4.991 5.194,-4.356 0.098,0.036 0.192,0.083 0.283,0.132 3.041,-3.43 8.219,-5.636 14.296,-6.142 l -24.017,-36.175 27.27,27.139 16.678,-0.548 18.052,-31.591 -19.174,44.9 c 4.375,2.243 7.807,5.277 9.816,8.621 C -2.266,-4.797 -0.67,-2.739 0,0" />
      </g>
      <g
         transform="matrix(0.35277777,0,0,-0.35277777,134.04349,131.25696)"
         id="g1216">
        <path
           inkscape:connector-curvature="0"
           id="path1218"
           style="fill:#665e5a;fill-opacity:1;fill-rule:nonzero;stroke:none"
           d="m 0,0 -7.888,25.231 c 0,0 5.666,5.456 8.017,5.988 2.609,0.588 10.816,-2.077 10.816,-2.077 l 2.29,-26.28 z" />
      </g>
      <g
         transform="matrix(0.35277777,0,0,-0.35277777,129.48324,113.59669)"
         id="g1220">
        <path
           inkscape:connector-curvature="0"
           id="path1222"
           style="fill:#351f10;fill-opacity:1;fill-rule:nonzero;stroke:none"
           d="M 0,0 C 0.256,-1.234 -0.475,-2.431 -1.63,-2.671 -2.785,-2.91 -3.932,-2.104 -4.188,-0.87 -4.444,0.364 -3.713,1.56 -2.558,1.8 -1.403,2.039 -0.257,1.234 0,0" />
      </g>
      <g
         transform="matrix(0.35277777,0,0,-0.35277777,134.78661,112.86153)"
         id="g1224">
        <path
           inkscape:connector-curvature="0"
           id="path1226"
           style="fill:#351f10;fill-opacity:1;fill-rule:nonzero;stroke:none"
           d="m 0,0 c 0.256,-1.233 -0.474,-2.431 -1.628,-2.67 -1.157,-0.24 -2.303,0.567 -2.559,1.801 -0.255,1.234 0.473,2.431 1.63,2.671 C -1.401,2.042 -0.257,1.234 0,0" />
      </g>
      <g
         transform="matrix(0.35277777,0,0,-0.35277777,139.73238,154.12274)"
         id="g1228">
        <path
           inkscape:connector-curvature="0"
           id="path1230"
           style="fill:#fe0000;fill-opacity:1;fill-rule:nonzero;stroke:none"
           d="M 0,0 C 0.28,12.885 11.266,71.72 -10.298,67.883 -36.239,63.267 -17.734,6.329 -13.969,-1.474 -8.256,-0.209 -5.615,-1.66 0,0" />
      </g>
      <g
         transform="matrix(0.35277777,0,0,-0.35277777,137.74423,120.33704)"
         id="g1232">
        <path
           inkscape:connector-curvature="0"
           id="path1234"
           style="fill:#fe0000;fill-opacity:1;fill-rule:nonzero;stroke:none"
           d="m 0,0 c 0.983,0.952 3.891,4.483 1.686,5.553 -1.73,0.838 -4.952,-3.188 -4.479,-4.408 -0.312,1.64 -1.662,5.269 -3.666,3.533 -1.408,-1.223 0.216,-5.384 1.505,-6.452 -1.528,1.588 -6.01,0.45 -5.987,-1.521 0.043,-3.434 5.224,-2.492 7.016,-0.907 -1.04,-1.873 -2.549,-4.933 -0.281,-5.909 0.221,-0.094 2.214,0.306 2.435,0.488 0.57,0.469 0.941,1.565 0.994,2.528 0.502,-1.475 1.567,-3.069 2.93,-2.624 2.776,0.912 0.66,5.994 -0.647,7.008 C 3.159,-3.677 5.729,-2.966 5.75,-1.112 5.789,2.054 1.659,1.703 0,0" />
      </g>
      <g
         transform="matrix(0.35277777,0,0,-0.35277777,1.737713,116.74241)"
         id="g1236">
        <path
           inkscape:connector-curvature="0"
           id="path1238"
           style="fill:#665e5a;fill-opacity:1;fill-rule:nonzero;stroke:none"
           d="m 0,0 -1.143,0 c 0.044,-5.862 0.988,-14.248 3.695,-26.236 7.918,-35.066 -5.449,-46.047 -5.584,-46.154 l 0.711,-0.915 c 0.579,0.451 14.102,11.454 6.004,47.325 C 0.974,-13.987 0.05,-5.706 0,0" />
      </g>
      <g
         transform="matrix(0.35277777,0,0,-0.35277777,8.3453818,106.34686)"
         id="g1240">
        <path
           inkscape:connector-curvature="0"
           id="path1242"
           style="fill:#fe0000;fill-opacity:1;fill-rule:nonzero;stroke:none"
           d="M 0,0 C -5.376,9.387 -15.815,3.46 -18.974,-1.242 -22.132,3.46 -32.571,9.387 -37.947,0 c -7.047,-12.304 9.805,-22.315 18.818,-27.345 0,0 0.105,-0.114 0.155,-0.087 0.051,-0.027 0.156,0.087 0.156,0.087 C -9.806,-22.315 7.046,-12.304 0,0" />
      </g>
      <g
         transform="matrix(0.35277777,0,0,-0.35277777,1.5971311,115.99346)"
         id="g1244">
        <path
           inkscape:connector-curvature="0"
           id="path1246"
           style="fill:#fe0000;fill-opacity:1;fill-rule:nonzero;stroke:none"
           d="M 0,0 -3.815,-5.55 5.177,-6.191 Z" />
      </g>
      <g
         transform="matrix(0.35277777,0,0,-0.35277777,205.676,120.1083)"
         id="g1248">
        <path
           inkscape:connector-curvature="0"
           id="path1250"
           style="fill:#ffffff;fill-opacity:1;fill-rule:nonzero;stroke:none"
           d="m 0,0 c 0,0 3.42,-10.813 9.262,-15.098 l 3.094,1.744 c 0,0 -10.64,11.366 -11.291,15.045 z" />
      </g>
      <g
         transform="matrix(0.35277777,0,0,-0.35277777,204.94254,119.47506)"
         id="g1252">
        <path
           inkscape:connector-curvature="0"
           id="path1254"
           style="fill:#fff7e9;fill-opacity:1;fill-rule:nonzero;stroke:none"
           d="M 0,0 -1.888,1.614 C -2.443,1.6 -7.686,-17.198 2.747,-27.646 l 5.27,3.462 c 0,0 -10.126,12.859 -8.017,24.184" />
      </g>
      <g
         transform="matrix(0.35277777,0,0,-0.35277777,211.58503,112.73027)"
         id="g1256">
        <path
           inkscape:connector-curvature="0"
           id="path1258"
           style="fill:#ffffff;fill-opacity:1;fill-rule:nonzero;stroke:none"
           d="m 0,0 c 4.132,3.465 -4.029,4.154 -6.218,3.818 1.217,0.188 0.47,3.589 -0.176,4.076 -1.456,1.091 -4.035,-0.068 -5.298,-0.896 0.706,1.875 0.749,4.064 -1.782,4.062 -2.563,-0.004 -4.335,-2.762 -5.401,-4.722 0.023,1.764 -0.487,4.325 -2.815,3.852 -2.572,-0.526 -2.556,-3.94 -2.107,-5.873 -0.561,1.649 -1.693,4.037 -3.693,2.559 -2.05,-1.519 -0.935,-4.679 0,-6.448 -1.322,0.568 -3.967,1.737 -5.17,0.372 -1.197,-1.355 0.315,-3.518 1.225,-4.584 -2.361,-1.895 -3.497,-4.979 -0.011,-6.237 -1.203,-1.107 -2.138,-2.894 -0.732,-4.244 1.606,-1.539 4.344,-0.373 6.162,0.056 -1.923,-1.446 -3.172,-4.7 -0.178,-5.726 2.048,-0.7 4.667,0.365 6.121,1.79 -0.82,-1.511 -1.592,-5.042 0.891,-5.032 1.725,0.01 3.215,1.983 4.277,3.101 -0.4,-1.605 -0.423,-4.69 1.876,-4.815 2.137,-0.117 3.361,3.119 3.937,4.704 3.703,-3.563 5.153,1.217 5.726,4.541 0.917,-2.704 4.008,-1.505 5.037,0.507 1.366,2.669 -0.797,6.224 -2.093,8.511 1.773,-0.75 3.193,-0.353 3.45,1.693 C 3.299,-2.757 1.707,-1.05 0,0" />
      </g>
    </g>
  </g>
</svg>
