<?xml version="1.0" encoding="UTF-8" standalone="no"?>
<!-- Created with Inkscape (http://www.inkscape.org/) -->

<svg
   xmlns:dc="http://purl.org/dc/elements/1.1/"
   xmlns:cc="http://creativecommons.org/ns#"
   xmlns:rdf="http://www.w3.org/1999/02/22-rdf-syntax-ns#"
   xmlns:svg="http://www.w3.org/2000/svg"
   xmlns="http://www.w3.org/2000/svg"
   xmlns:sodipodi="http://sodipodi.sourceforge.net/DTD/sodipodi-0.dtd"
   xmlns:inkscape="http://www.inkscape.org/namespaces/inkscape"
   width="95.423958mm"
   height="87.47393mm"
   viewBox="0 0 338.11638 309.947"
   id="svg6456"
   version="1.1"
   inkscape:version="0.91 r13725"
   sodipodi:docname="red1.svg">
  <defs
     id="defs6458">
    <clipPath
       id="clipPath458"
       clipPathUnits="userSpaceOnUse">
      <path
         inkscape:connector-curvature="0"
         id="path456"
         d="m 380.178,708.089 84,0 0,-63.747 -84,0 z" />
    </clipPath>
  </defs>
  <sodipodi:namedview
     id="base"
     pagecolor="#ffffff"
     bordercolor="#666666"
     borderopacity="1.0"
     inkscape:pageopacity="0.0"
     inkscape:pageshadow="2"
     inkscape:zoom="0.35"
     inkscape:cx="270.13827"
     inkscape:cy="-430.05299"
     inkscape:document-units="px"
     inkscape:current-layer="layer1"
     showgrid="false"
     fit-margin-top="0"
     fit-margin-left="0"
     fit-margin-right="0"
     fit-margin-bottom="0"
     inkscape:window-width="1366"
     inkscape:window-height="705"
     inkscape:window-x="-8"
     inkscape:window-y="-8"
     inkscape:window-maximized="1" />
  <metadata
     id="metadata6461">
    <rdf:RDF>
      <cc:Work
         rdf:about="">
        <dc:format>image/svg+xml</dc:format>
        <dc:type
           rdf:resource="http://purl.org/dc/dcmitype/StillImage" />
        <dc:title></dc:title>
      </cc:Work>
    </rdf:RDF>
  </metadata>
  <g
     inkscape:label="Capa 1"
     inkscape:groupmode="layer"
     id="layer1"
     transform="translate(1212.2811,207.63781)">
    <g
       id="g12873"
       transform="translate(-914.65151,-342.16937)">
      <g
         transform="matrix(1.25,0,0,-1.25,-175.52805,360.60732)"
         id="g400">
        <path
           inkscape:connector-curvature="0"
           id="path402"
           style="fill:#351f10;fill-opacity:1;fill-rule:nonzero;stroke:none"
           d="m 0,0 -5.533,35.924 39.01,60.979 -38.422,-37.141 -39.401,-1.29 -32.667,-56 32.501,34.27 -6.236,-35.68 6.814,-0.127 7.23,-51.336 -7.819,-15.696 14.177,7.569 0,9.655 c 0,0 6.03,46.812 6.03,45.576 l 0,-54.931 15.793,-8.869 -7.157,16.569 10.905,50.743 z" />
      </g>
      <g
         transform="matrix(1.25,0,0,-1.25,-223.0353,281.53495)"
         id="g404">
        <path
           inkscape:connector-curvature="0"
           id="path406"
           style="fill:#e2d4bf;fill-opacity:1;fill-rule:nonzero;stroke:none"
           d="M 0,0 15.205,-46.325 24.729,0.824 Z" />
      </g>
      <g
         transform="matrix(1.25,0,0,-1.25,-169.77667,247.09595)"
         id="g408">
        <path
           inkscape:connector-curvature="0"
           id="path410"
           style="fill:#eabb98;fill-opacity:1;fill-rule:nonzero;stroke:none"
           d="M 0,0 C -0.443,4.074 -3.189,7.117 -6.129,6.795 -7.313,6.666 -8.346,6.006 -9.132,5.003 -14.666,10.346 -25.186,12.317 -36.053,9.35 -47.712,6.165 -56.141,-1.718 -57.375,-9.71 c -1.751,0.867 -3.605,0.94 -5.012,0.007 -2.467,-1.633 -2.634,-5.727 -0.372,-9.142 2.262,-3.417 6.096,-4.862 8.564,-3.228 0.38,0.251 0.696,0.566 0.967,0.921 5.609,-5.125 15.949,-6.97 26.615,-4.056 10.806,2.952 18.833,9.933 20.938,17.3 0.377,-0.069 0.761,-0.089 1.15,-0.048 C -1.583,-7.634 0.441,-4.073 0,0" />
      </g>
      <g
         transform="matrix(1.25,0,0,-1.25,-217.9328,255.26482)"
         id="g412">
        <path
           inkscape:connector-curvature="0"
           id="path414"
           style="fill:#351f10;fill-opacity:1;fill-rule:nonzero;stroke:none"
           d="m 0,0 c -0.049,-1.278 -1.045,-2.28 -2.223,-2.235 -1.18,0.045 -2.098,1.119 -2.05,2.398 0.048,1.278 1.046,2.281 2.226,2.236 C -0.869,2.354 0.049,1.28 0,0" />
      </g>
      <g
         transform="matrix(1.25,0,0,-1.25,-195.60305,250.18545)"
         id="g416">
        <path
           inkscape:connector-curvature="0"
           id="path418"
           style="fill:#351f10;fill-opacity:1;fill-rule:nonzero;stroke:none"
           d="m 0,0 c -0.048,-1.278 -1.045,-2.279 -2.225,-2.234 -1.178,0.045 -2.096,1.119 -2.048,2.397 0.049,1.278 1.046,2.28 2.225,2.235 C -0.869,2.353 0.048,1.28 0,0" />
      </g>
      <g
         transform="matrix(1.25,0,0,-1.25,-246.26167,244.7277)"
         id="g420">
        <path
           inkscape:connector-curvature="0"
           id="path422"
           style="fill:#351f10;fill-opacity:1;fill-rule:nonzero;stroke:none"
           d="m 0,0 c -0.662,-4.816 0.27,-9.889 3.83,-14.931 0,0 2.393,13.389 17.803,19.782 z" />
      </g>
      <g
         transform="matrix(1.25,0,0,-1.25,-206.72792,235.86357)"
         id="g424">
        <path
           inkscape:connector-curvature="0"
           id="path426"
           style="fill:#351f10;fill-opacity:1;fill-rule:nonzero;stroke:none"
           d="m 0,0 c 14.076,0.333 25.009,-10.833 25.009,-10.833 0,0 -0.43,7.384 -5.49,15.21 z" />
      </g>
      <g
         transform="matrix(1.25,0,0,-1.25,-221.97092,281.26882)"
         id="g428">
        <path
           inkscape:connector-curvature="0"
           id="path430"
           style="fill:#665e5a;fill-opacity:1;fill-rule:nonzero;stroke:none"
           d="m 0,0 -10.285,-5.243 c 0,0 8.551,-32.627 24.213,-40.87 z" />
      </g>
      <g
         transform="matrix(1.25,0,0,-1.25,-195.48167,276.91582)"
         id="g432">
        <path
           inkscape:connector-curvature="0"
           id="path434"
           style="fill:#665e5a;fill-opacity:1;fill-rule:nonzero;stroke:none"
           d="m 0,0 -6.838,-50.021 c 0,0 15.734,23.459 19.856,42.83 z" />
      </g>
      <g
         transform="matrix(1.25,0,0,-1.25,-207.42742,279.74057)"
         id="g436">
        <path
           inkscape:connector-curvature="0"
           id="path438"
           style="fill:#ffffff;fill-opacity:1;fill-rule:nonzero;stroke:none"
           d="m 0,0 -13.854,6.784 1.452,-17.643 12.611,7.506 13.154,-7.524 -0.215,17.568 z" />
      </g>
      <g
         transform="matrix(1.25,0,0,-1.25,-169.54955,228.38069)"
         id="g440">
        <path
           inkscape:connector-curvature="0"
           id="path442"
           style="fill:#351f10;fill-opacity:1;fill-rule:nonzero;stroke:none"
           d="m 0,0 -70.093,-15.717 -1.459,6.505 70.094,15.717 z" />
      </g>
      <g
         transform="matrix(1.25,0,0,-1.25,-193.66405,226.52894)"
         id="g444">
        <path
           inkscape:connector-curvature="0"
           id="path446"
           style="fill:#351f10;fill-opacity:1;fill-rule:nonzero;stroke:none"
           d="m 0,0 -36.184,-8.113 -6.418,28.622 36.184,8.114 z" />
      </g>
      <g
         transform="matrix(1.25,0,0,-1.25,-241.38917,225.53957)"
         id="g448">
        <path
           inkscape:connector-curvature="0"
           id="path450"
           style="fill:#665e5a;fill-opacity:1;fill-rule:nonzero;stroke:none"
           d="M 0,0 1.783,-7.951 37.966,0.162 36.184,8.113 Z" />
      </g>
      <g
         transform="matrix(1.25,0,0,-1.25,-594.93229,1104.6984)"
         id="g452">
        <g
           id="g454" />
        <g
           id="g466">
          <g
             style="opacity:0.69999701"
             id="g464"
             clip-path="url(#clipPath458)">
            <g
               id="g462"
               transform="translate(412.5723,708.0894)">
              <path
                 inkscape:connector-curvature="0"
                 id="path460"
                 style="fill:#f7f2e8;fill-opacity:1;fill-rule:nonzero;stroke:none"
                 d="m 0,0 c 0,0 -28.395,-6.012 -32.395,-58.679 0,0 48.831,-15.629 84,8 0,0 -5.994,41.436 -32.921,46.382 z" />
            </g>
          </g>
        </g>
      </g>
      <g
         transform="matrix(1.25,0,0,-1.25,-58.681044,277.76182)"
         id="g468">
        <path
           inkscape:connector-curvature="0"
           id="path470"
           style="fill:#eabb98;fill-opacity:1;fill-rule:nonzero;stroke:none"
           d="m 0,0 c 4.902,0.437 9.234,1.98 12.368,4.358 1.578,-0.272 3.839,1.054 5.504,3.374 1.983,2.765 2.365,5.885 0.854,6.966 -0.347,0.25 -0.769,0.365 -1.232,0.367 -0.717,7.762 -9.337,15.132 -20.943,17.289 -10.364,1.926 -19.998,-0.886 -24.406,-6.484 -0.489,0.567 -1.071,0.909 -1.71,0.932 -1.859,0.071 -3.466,-2.538 -3.586,-5.825 -0.124,-3.288 1.281,-6.009 3.141,-6.08 0.105,-0.003 0.209,0.004 0.313,0.017 1.503,-4.388 5.451,-10.438 10.879,-13.236 l -49.183,29.949 47.578,-38.396 17.311,-1.183 53.111,-22.421 z" />
      </g>
      <g
         transform="matrix(1.25,0,0,-1.25,-77.720434,316.25669)"
         id="g472">
        <path
           inkscape:connector-curvature="0"
           id="path474"
           style="fill:#ffffff;fill-opacity:1;fill-rule:nonzero;stroke:none"
           d="m 0,0 -3.594,24.682 c 0,0 6.657,4.254 9.067,4.297 2.673,0.046 10.168,-4.297 10.168,-4.297 l -4.1,-24.57 z" />
      </g>
      <g
         transform="matrix(1.25,0,0,-1.25,-47.257804,228.31719)"
         id="g476">
        <path
           inkscape:connector-curvature="0"
           id="path478"
           style="fill:#351f10;fill-opacity:1;fill-rule:nonzero;stroke:none"
           d="M 0,0 C 3.151,2.557 16.578,14.634 -1.564,21.49 -19.755,28.364 -18.759,9.993 -18.439,6.677 c -21.535,1.669 -21.262,-21.975 -21.262,-21.975 0,0 15.416,-4.263 26.13,8.279 0,0 2.162,-16.192 20.872,-20.787 0,0 6.16,17.435 -7.301,27.806" />
      </g>
      <g
         transform="matrix(1.25,0,0,-1.25,-76.508164,252.40532)"
         id="g480">
        <path
           inkscape:connector-curvature="0"
           id="path482"
           style="fill:#351f10;fill-opacity:1;fill-rule:nonzero;stroke:none"
           d="m 0,0 c -0.234,-1.259 -1.367,-2.104 -2.526,-1.889 -1.161,0.216 -1.913,1.412 -1.68,2.671 0.234,1.259 1.366,2.103 2.526,1.887 C -0.52,2.454 0.233,1.259 0,0" />
      </g>
      <g
         transform="matrix(1.25,0,0,-1.25,-54.447674,257.81607)"
         id="g484">
        <path
           inkscape:connector-curvature="0"
           id="path486"
           style="fill:#351f10;fill-opacity:1;fill-rule:nonzero;stroke:none"
           d="m 0,0 c -0.233,-1.258 -1.364,-2.104 -2.524,-1.889 -1.163,0.216 -1.913,1.412 -1.679,2.67 0.233,1.259 1.364,2.105 2.525,1.888 C -0.518,2.454 0.233,1.259 0,0" />
      </g>
      <g
         transform="matrix(1.25,0,0,-1.25,-45.664664,227.93694)"
         id="g488">
        <path
           inkscape:connector-curvature="0"
           id="path490"
           style="fill:#ffffff;fill-opacity:1;fill-rule:nonzero;stroke:none"
           d="M 0,0 C 1.258,0.515 5.25,2.701 3.637,4.526 2.371,5.96 -2.095,3.433 -2.123,2.119 -1.789,3.764 -1.655,7.647 -4.142,6.788 -5.893,6.184 -5.977,1.703 -5.201,0.221 c -0.796,2.054 -5.327,2.689 -6.051,0.847 -1.256,-3.208 3.84,-4.289 6.076,-3.492 -1.656,-1.351 -4.192,-3.624 -2.485,-5.388 0.166,-0.171 2.14,-0.552 2.41,-0.466 0.698,0.22 1.452,1.099 1.863,1.976 -0.097,-1.562 0.276,-3.447 1.692,-3.546 2.88,-0.202 2.864,5.323 2.05,6.758 C 1.504,-4.611 4.12,-4.92 4.84,-3.206 6.069,-0.275 2.159,0.958 0,0" />
      </g>
      <g
         transform="matrix(1.25,0,0,-1.25,-114.5148,419.47807)"
         id="g492">
        <path
           inkscape:connector-curvature="0"
           id="path494"
           style="fill:#fff7e9;fill-opacity:1;fill-rule:nonzero;stroke:none"
           d="M 0,0 C 0,0 1.506,90.02 38.947,83.179 76.389,76.34 103.333,4.667 103.333,4.667 103.333,4.667 52,-28 0,0" />
      </g>
      <g
         transform="matrix(1.25,0,0,-1.25,0.04080643,379.63319)"
         id="g496">
        <path
           inkscape:connector-curvature="0"
           id="path498"
           style="fill:#ffffff;fill-opacity:1;fill-rule:nonzero;stroke:none"
           d="m 0,0 c 0,0 -16.155,55.41 -55.513,51.289 0.025,0.217 0.034,0.335 0.034,0.335 -39.5,-2.5 -34,-61 -34,-61 34.614,12.426 32.657,51.054 33.803,59.361 C -53.917,42.605 -36.25,8.924 0,0" />
      </g>
      <g
         transform="matrix(1.25,0,0,-1.25,-114.50867,255.99295)"
         id="g500">
        <path
           inkscape:connector-curvature="0"
           id="path502"
           style="fill:#ffffff;fill-opacity:1;fill-rule:nonzero;stroke:none"
           d="M 0,0 -23.339,14.212 -1.713,-3.241 C -1.162,-2.149 -0.595,-1.066 0,0" />
      </g>
      <g
         transform="matrix(1.25,0,0,-1.25,-34.104664,299.71857)"
         id="g504">
        <path
           inkscape:connector-curvature="0"
           id="path506"
           style="fill:#ffffff;fill-opacity:1;fill-rule:nonzero;stroke:none"
           d="M 0,0 30.338,-12.808 1.731,4.57 C 1.285,3.028 0.695,1.499 0,0" />
      </g>
      <g
         transform="matrix(1.25,0,0,-1.25,-141.73167,201.56119)"
         id="g508">
        <path
           inkscape:connector-curvature="0"
           id="path510"
           style="fill:#665e5a;fill-opacity:1;fill-rule:nonzero;stroke:none"
           d="m 0,0 -1.779,0 c 0.069,-9.127 1.538,-22.182 5.752,-40.845 12.327,-54.592 -8.485,-71.688 -8.695,-71.853 l 1.108,-1.425 c 0.902,0.703 21.956,17.832 9.346,73.675 C 1.516,-21.776 0.077,-8.883 0,0" />
      </g>
      <g
         transform="matrix(1.25,0,0,-1.25,-105.28141,144.2157)"
         id="g512">
        <path
           inkscape:connector-curvature="0"
           id="path514"
           style="fill:#fe0000;fill-opacity:1;fill-rule:nonzero;stroke:none"
           d="m 0,0 c -8.369,14.614 -24.622,5.387 -29.539,-1.933 -4.917,7.32 -21.169,16.547 -29.539,1.933 -10.971,-19.153 15.265,-34.742 29.297,-42.571 0,0 0.163,-0.179 0.242,-0.135 0.079,-0.044 0.242,0.135 0.242,0.135 C -15.266,-34.742 10.97,-19.153 0,0" />
      </g>
      <g
         transform="matrix(1.25,0,0,-1.25,-142.50792,197.42919)"
         id="g516">
        <path
           inkscape:connector-curvature="0"
           id="path518"
           style="fill:#fe0000;fill-opacity:1;fill-rule:nonzero;stroke:none"
           d="m 0,0 -5.939,-8.639 14,-1 z" />
      </g>
    </g>
  </g>
</svg>
