<?xml version="1.0" encoding="UTF-8" standalone="no"?>
<!-- Created with Inkscape (http://www.inkscape.org/) -->

<svg
   xmlns:dc="http://purl.org/dc/elements/1.1/"
   xmlns:cc="http://creativecommons.org/ns#"
   xmlns:rdf="http://www.w3.org/1999/02/22-rdf-syntax-ns#"
   xmlns:svg="http://www.w3.org/2000/svg"
   xmlns="http://www.w3.org/2000/svg"
   xmlns:sodipodi="http://sodipodi.sourceforge.net/DTD/sodipodi-0.dtd"
   xmlns:inkscape="http://www.inkscape.org/namespaces/inkscape"
   width="95.423958mm"
   height="73.352089mm"
   viewBox="0 0 338.11639 259.90898"
   id="svg9293"
   version="1.1"
   inkscape:version="0.91 r13725"
   sodipodi:docname="red2.svg">
  <defs
     id="defs9295">
    <clipPath
       id="clipPath152"
       clipPathUnits="userSpaceOnUse">
      <path
         inkscape:connector-curvature="0"
         id="path150"
         d="m 649.361,691.913 84.73,0 0,-59.326 -84.73,0 z" />
    </clipPath>
  </defs>
  <sodipodi:namedview
     id="base"
     pagecolor="#ffffff"
     bordercolor="#666666"
     borderopacity="1.0"
     inkscape:pageopacity="0.0"
     inkscape:pageshadow="2"
     inkscape:zoom="0.35"
     inkscape:cx="771.201"
     inkscape:cy="124.24021"
     inkscape:document-units="px"
     inkscape:current-layer="layer1"
     showgrid="false"
     fit-margin-top="0"
     fit-margin-left="0"
     fit-margin-right="0"
     fit-margin-bottom="0"
     inkscape:window-width="1366"
     inkscape:window-height="705"
     inkscape:window-x="-8"
     inkscape:window-y="-8"
     inkscape:window-maximized="1" />
  <metadata
     id="metadata9298">
    <rdf:RDF>
      <cc:Work
         rdf:about="">
        <dc:format>image/svg+xml</dc:format>
        <dc:type
           rdf:resource="http://purl.org/dc/dcmitype/StillImage" />
        <dc:title />
      </cc:Work>
    </rdf:RDF>
  </metadata>
  <g
     inkscape:label="Capa 1"
     inkscape:groupmode="layer"
     id="layer1"
     transform="translate(1054.7725,-396.69342)">
    <g
       transform="matrix(3.5433071,0,0,3.5433071,-1542.2942,351.06658)"
       id="g9140">
      <g
         transform="matrix(0.35277777,0,0,-0.35277777,219.33923,85.326947)"
         id="g134">
        <path
           inkscape:connector-curvature="0"
           id="path136"
           style="fill:#b7a99f;fill-opacity:1;fill-rule:nonzero;stroke:none"
           d="m 0,0 c 0,-1.412 -34.915,-2.557 -77.983,-2.557 -43.069,0 -77.983,1.145 -77.983,2.557 0,1.412 34.914,2.557 77.983,2.557 C -34.915,2.557 0,1.412 0,0" />
      </g>
      <g
         transform="matrix(0.35277777,0,0,-0.35277777,220.27218,76.123716)"
         id="g138">
        <path
           inkscape:connector-curvature="0"
           id="path140"
           style="fill:#ffffff;fill-opacity:1;fill-rule:nonzero;stroke:none"
           d="M 0,0 13.737,-0.551 9.892,8.791 Z" />
      </g>
      <g
         transform="matrix(0.35277777,0,0,-0.35277777,206.12004,81.908707)"
         id="g142">
        <path
           inkscape:connector-curvature="0"
           id="path144"
           style="fill:#ffffff;fill-opacity:1;fill-rule:nonzero;stroke:none"
           d="M 0,0 8.242,-10.441 14.288,3.848 Z" />
      </g>
      <g
         transform="matrix(0.35277777,0,0,-0.35277777,-37.92361,272.55754)"
         id="g146">
        <g
           id="g148" />
        <g
           id="g160">
          <g
             style="opacity:0.69999701"
             id="g158"
             clip-path="url(#clipPath152)">
            <g
               id="g156"
               transform="translate(680.7871,691.9126)">
              <path
                 inkscape:connector-curvature="0"
                 id="path154"
                 style="fill:#f7f2e8;fill-opacity:1;fill-rule:nonzero;stroke:none"
                 d="m 0,0 c 0,0 -33.521,0.55 -31.322,-54.402 0,0 49.457,-15.387 84.626,8.242 0,0 -7.694,37.917 -34.62,42.863 z" />
            </g>
          </g>
        </g>
      </g>
      <g
         transform="matrix(0.35277777,0,0,-0.35277777,208.04448,43.730003)"
         id="g162">
        <path
           inkscape:connector-curvature="0"
           id="path164"
           style="fill:#eabb98;fill-opacity:1;fill-rule:nonzero;stroke:none"
           d="m 0,0 c 4.74,1.326 8.717,3.634 11.363,6.545 1.602,0.02 3.582,1.737 4.795,4.322 1.445,3.081 1.25,6.218 -0.433,7.005 -0.388,0.183 -0.823,0.218 -1.278,0.136 -2.123,7.5 -11.945,13.171 -23.75,13.171 -10.541,0 -19.501,-4.525 -22.81,-10.834 -0.584,0.467 -1.22,0.698 -1.852,0.604 -1.84,-0.27 -2.943,-3.129 -2.462,-6.383 0.48,-3.254 2.359,-5.673 4.199,-5.403 0.105,0.016 0.207,0.042 0.306,0.073 2.278,-4.039 6.901,-7.299 12.748,-9.058 l -36.837,-27.249 35.169,18.684 19.235,0 49.603,-8.532 z" />
      </g>
      <g
         transform="matrix(0.35277777,0,0,-0.35277777,193.49102,49.429375)"
         id="g166">
        <path
           inkscape:connector-curvature="0"
           id="path168"
           style="fill:#ffffff;fill-opacity:1;fill-rule:nonzero;stroke:none"
           d="M 0,0 -14.757,-10.916 1.494,-2.282 C 0.971,-1.533 0.47,-0.774 0,0" />
      </g>
      <g
         transform="matrix(0.35277777,0,0,-0.35277777,224.97644,49.698615)"
         id="g170">
        <path
           inkscape:connector-curvature="0"
           id="path172"
           style="fill:#ffffff;fill-opacity:1;fill-rule:nonzero;stroke:none"
           d="M 0,0 -22.748,8.019 C -23.157,6.72 -23.572,5.423 -23.986,4.126 Z" />
      </g>
      <g
         transform="matrix(0.35277777,0,0,-0.35277777,203.0181,55.395765)"
         id="g174">
        <path
           inkscape:connector-curvature="0"
           id="path176"
           style="fill:#ffffff;fill-opacity:1;fill-rule:nonzero;stroke:none"
           d="m 0,0 -6.594,24.682 c 0,0 6.656,3.254 9.067,3.297 2.673,0.046 10.168,-3.297 10.168,-3.297 L 11.54,3.112 Z" />
      </g>
      <g
         transform="matrix(0.35277777,0,0,-0.35277777,209.01737,29.421478)"
         id="g178">
        <path
           inkscape:connector-curvature="0"
           id="path180"
           style="fill:#351f10;fill-opacity:1;fill-rule:nonzero;stroke:none"
           d="M 0,0 C 2.631,3.09 13.625,17.417 -5.466,20.843 -24.605,24.277 -20.271,6.397 -19.35,3.195 c -21.477,-2.294 -16.888,-25.49 -16.888,-25.49 0,0 15.935,-1.374 24.177,12.915 0,0 5.084,-15.525 24.318,-16.624 0,0 2.872,18.268 -12.257,26.004" />
      </g>
      <g
         transform="matrix(0.35277777,0,0,-0.35277777,202.14269,37.613578)"
         id="g182">
        <path
           inkscape:connector-curvature="0"
           id="path184"
           style="fill:#351f10;fill-opacity:1;fill-rule:nonzero;stroke:none"
           d="m 0,0 c 0,-1.28 -0.958,-2.318 -2.138,-2.318 -1.179,0 -2.138,1.038 -2.138,2.318 0,1.28 0.959,2.317 2.138,2.317 C -0.958,2.317 0,1.28 0,0" />
      </g>
      <g
         transform="matrix(0.35277777,0,0,-0.35277777,208.54334,37.977362)"
         id="g186">
        <path
           inkscape:connector-curvature="0"
           id="path188"
           style="fill:#351f10;fill-opacity:1;fill-rule:nonzero;stroke:none"
           d="m 0,0 c 0,-1.279 -0.957,-2.318 -2.138,-2.318 -1.18,0 -2.138,1.039 -2.138,2.318 0,1.28 0.958,2.318 2.138,2.318 C -0.957,2.318 0,1.28 0,0" />
      </g>
      <g
         transform="matrix(0.35277777,0,0,-0.35277777,209.43975,29.23373)"
         id="g190">
        <path
           inkscape:connector-curvature="0"
           id="path192"
           style="fill:#ffffff;fill-opacity:1;fill-rule:nonzero;stroke:none"
           d="M 0,0 C 1.143,0.735 4.667,3.614 2.748,5.114 1.241,6.293 -2.688,2.992 -2.475,1.695 c 0.028,1.678 -0.55,5.521 -2.838,4.222 -1.611,-0.914 -0.874,-5.335 0.159,-6.65 -1.159,1.874 -5.729,1.67 -6.104,-0.273 -0.648,-3.384 4.559,-3.515 6.612,-2.323 -1.382,-1.631 -3.459,-4.329 -1.46,-5.751 0.196,-0.139 2.206,-0.152 2.456,-0.019 0.646,0.345 1.226,1.346 1.47,2.284 0.19,-1.554 0.901,-3.338 2.31,-3.177 2.87,0.327 1.845,5.756 0.782,7.018 1.407,-1.285 4.037,-1.111 4.431,0.706 C 6.018,0.838 1.947,1.336 0,0" />
      </g>
      <g
         transform="matrix(0.35277777,0,0,-0.35277777,199.52888,83.328779)"
         id="g194">
        <path
           inkscape:connector-curvature="0"
           id="path196"
           style="fill:#fff7e9;fill-opacity:1;fill-rule:nonzero;stroke:none"
           d="M 0,0 C 0,0 -23.08,69.242 13.188,80.781 49.457,92.322 80.232,51.107 80.232,51.107 80.232,51.107 70.34,2.199 0,0" />
      </g>
      <g
         transform="matrix(0.35277777,0,0,-0.35277777,176.12017,65.443228)"
         id="g198">
        <path
           inkscape:connector-curvature="0"
           id="path200"
           style="fill:#351f10;fill-opacity:1;fill-rule:nonzero;stroke:none"
           d="M 0,0 -4.534,44.924 36.681,34.621 -4.946,59.762 -44.101,53.993 -85.869,25.455 l 41.357,13.288 -1.237,-36.68 2.814,-0.127 -20.536,-36.555 -16.486,-5.358 21.845,-5.771 0,8.656 c 0,0 33.796,35.031 33.796,33.795 l 0,-51.93 21.018,1.237 -12.776,6.594 11.299,47.611 z" />
      </g>
      <g
         transform="matrix(0.35277777,0,0,-0.35277777,162.00663,43.127106)"
         id="g202">
        <path
           inkscape:connector-curvature="0"
           id="path204"
           style="fill:#e2d4bf;fill-opacity:1;fill-rule:nonzero;stroke:none"
           d="M 0,0 17.205,-46.325 24.729,0.824 Z" />
      </g>
      <g
         transform="matrix(0.35277777,0,0,-0.35277777,177.26324,33.180078)"
         id="g206">
        <path
           inkscape:connector-curvature="0"
           id="path208"
           style="fill:#eabb98;fill-opacity:1;fill-rule:nonzero;stroke:none"
           d="M 0,0 C -0.597,4.055 -3.456,6.99 -6.382,6.559 -7.561,6.385 -8.567,5.685 -9.315,4.653 c -5.733,5.128 -16.32,6.699 -27.067,3.321 -11.529,-3.627 -19.651,-11.825 -20.581,-19.859 -1.784,0.801 -3.639,0.804 -5.008,-0.181 -2.404,-1.727 -2.416,-5.825 -0.025,-9.151 2.391,-3.329 6.277,-4.627 8.681,-2.899 0.37,0.264 0.674,0.591 0.93,0.956 5.8,-4.908 16.203,-6.359 26.751,-3.041 10.686,3.36 18.441,10.641 20.266,18.084 0.378,-0.056 0.763,-0.061 1.15,-0.004 C -1.291,-7.687 0.597,-4.053 0,0" />
      </g>
      <g
         transform="matrix(0.35277777,0,0,-0.35277777,163.7702,36.000219)"
         id="g210">
        <path
           inkscape:connector-curvature="0"
           id="path212"
           style="fill:#351f10;fill-opacity:1;fill-rule:nonzero;stroke:none"
           d="m 0,0 c 0,-1.279 -0.957,-2.318 -2.137,-2.318 -1.18,0 -2.138,1.039 -2.138,2.318 0,1.28 0.958,2.318 2.138,2.318 C -0.957,2.318 0,1.28 0,0" />
      </g>
      <g
         transform="matrix(0.35277777,0,0,-0.35277777,170.01338,34.328335)"
         id="g214">
        <path
           inkscape:connector-curvature="0"
           id="path216"
           style="fill:#351f10;fill-opacity:1;fill-rule:nonzero;stroke:none"
           d="m 0,0 c 0,-1.279 -0.958,-2.317 -2.139,-2.317 -1.179,0 -2.137,1.038 -2.137,2.317 0,1.28 0.958,2.318 2.137,2.318 C -0.958,2.318 0,1.28 0,0" />
      </g>
      <g
         transform="matrix(0.35277777,0,0,-0.35277777,157.21866,38.54477)"
         id="g218">
        <path
           inkscape:connector-curvature="0"
           id="path220"
           style="fill:#351f10;fill-opacity:1;fill-rule:nonzero;stroke:none"
           d="m 0,0 c 0,0 2.06,14.838 19.37,21.433 17.311,6.593 32.972,-8.245 32.972,-8.245 0,0 -2.601,27.425 -36.266,31.26 C 16.076,44.448 -16.074,21.02 0,0" />
      </g>
      <g
         transform="matrix(0.35277777,0,0,-0.35277777,162.30741,43.052)"
         id="g222">
        <path
           inkscape:connector-curvature="0"
           id="path224"
           style="fill:#665e5a;fill-opacity:1;fill-rule:nonzero;stroke:none"
           d="m 0,0 -8.285,-8.243 c 0,0 8.551,-29.627 24.212,-37.87 z" />
      </g>
      <g
         transform="matrix(0.35277777,0,0,-0.35277777,169.78326,41.823486)"
         id="g226">
        <path
           inkscape:connector-curvature="0"
           id="path228"
           style="fill:#665e5a;fill-opacity:1;fill-rule:nonzero;stroke:none"
           d="m 0,0 -4.839,-50.021 c 0,0 13.734,23.459 17.856,42.83 z" />
      </g>
      <g
         transform="matrix(0.35277777,0,0,-0.35277777,167.02546,42.615861)"
         id="g230">
        <path
           inkscape:connector-curvature="0"
           id="path232"
           style="fill:#ffffff;fill-opacity:1;fill-rule:nonzero;stroke:none"
           d="m 0,0 -14.61,4.946 3.709,-17.31 11.54,9.067 14.012,-5.77 -2.472,17.394 z" />
      </g>
      <g
         transform="matrix(0.35277777,0,0,-0.35277777,147.6375,45.721434)"
         id="g234">
        <path
           inkscape:connector-curvature="0"
           id="path236"
           style="fill:#351f10;fill-opacity:1;fill-rule:nonzero;stroke:none"
           d="m 0,0 3.913,-65.849 -5.617,-0.335 -3.913,65.85 z" />
      </g>
      <g
         transform="matrix(0.35277777,0,0,-0.35277777,146.30837,51.804275)"
         id="g238">
        <path
           inkscape:connector-curvature="0"
           id="path240"
           style="fill:#351f10;fill-opacity:1;fill-rule:nonzero;stroke:none"
           d="m 0,0 2.021,-33.992 -24.715,-1.469 -2.021,33.992 z" />
      </g>
      <g
         transform="matrix(0.35277777,0,0,-0.35277777,144.30886,63.957363)"
         id="g242">
        <path
           inkscape:connector-curvature="0"
           id="path244"
           style="fill:#665e5a;fill-opacity:1;fill-rule:nonzero;stroke:none"
           d="M 0,0 6.865,0.408 4.845,34.401 -2.021,33.992 Z" />
      </g>
      <g
         transform="matrix(0.35277777,0,0,-0.35277777,204.18149,54.831144)"
         id="g246">
        <path
           inkscape:connector-curvature="0"
           id="path248"
           style="fill:#ffffff;fill-opacity:1;fill-rule:nonzero;stroke:none"
           d="m 0,0 c 0,0 12.718,-43.177 -16.282,-65.177 0,0 -19.436,50.354 16.282,65.177" />
      </g>
      <g
         transform="matrix(0.35277777,0,0,-0.35277777,224.89583,61.243656)"
         id="g250">
        <path
           inkscape:connector-curvature="0"
           id="path252"
           style="fill:#ffffff;fill-opacity:1;fill-rule:nonzero;stroke:none"
           d="M 0,0 C 0,0 -26.436,-19.646 -58.718,18.177 -58.718,18.177 -24,33 0,0" />
      </g>
      <g
         transform="matrix(0.35277777,0,0,-0.35277777,226.9684,53.269291)"
         id="g254">
        <path
           inkscape:connector-curvature="0"
           id="path256"
           style="fill:#ffffff;fill-opacity:1;fill-rule:nonzero;stroke:none"
           d="m 0,0 c 0,0 2.959,-9.354 8.012,-13.061 l 2.677,1.509 c 0,0 -9.205,9.832 -9.767,13.015 z" />
      </g>
      <g
         transform="matrix(0.35277777,0,0,-0.35277777,226.33382,52.721533)"
         id="g258">
        <path
           inkscape:connector-curvature="0"
           id="path260"
           style="fill:#fff7e9;fill-opacity:1;fill-rule:nonzero;stroke:none"
           d="m 0,0 -1.633,1.396 c -0.48,-0.012 -5.015,-16.274 4.01,-25.312 l 4.559,2.995 c 0,0 -8.76,11.124 -6.936,20.921" />
      </g>
      <g
         transform="matrix(0.35277777,0,0,-0.35277777,232.08022,46.886906)"
         id="g262">
        <path
           inkscape:connector-curvature="0"
           id="path264"
           style="fill:#ffffff;fill-opacity:1;fill-rule:nonzero;stroke:none"
           d="m 0,0 c 3.574,2.998 -3.486,3.594 -5.379,3.304 1.053,0.161 0.406,3.104 -0.152,3.525 -1.26,0.944 -3.49,-0.059 -4.584,-0.775 0.611,1.622 0.648,3.515 -1.541,3.513 -2.217,-0.003 -3.75,-2.388 -4.672,-4.084 0.019,1.526 -0.422,3.742 -2.436,3.332 -2.224,-0.454 -2.211,-3.407 -1.822,-5.079 -0.486,1.426 -1.465,3.492 -3.195,2.212 -1.774,-1.313 -0.809,-4.046 0,-5.578 -1.143,0.493 -3.432,1.503 -4.473,0.323 -1.035,-1.173 0.274,-3.044 1.061,-3.966 -2.043,-1.639 -3.026,-4.307 -0.01,-5.395 -1.041,-0.958 -1.85,-2.504 -0.633,-3.672 1.389,-1.331 3.758,-0.322 5.33,0.049 -1.664,-1.252 -2.744,-4.066 -0.154,-4.953 1.771,-0.607 4.037,0.314 5.295,1.548 -0.709,-1.308 -1.377,-4.363 0.771,-4.353 1.492,0.008 2.781,1.715 3.699,2.682 -0.345,-1.388 -0.365,-4.057 1.624,-4.165 1.849,-0.101 2.908,2.698 3.406,4.069 3.203,-3.082 4.457,1.053 4.953,3.928 0.793,-2.338 3.467,-1.302 4.357,0.439 1.182,2.309 -0.689,5.384 -1.81,7.363 1.533,-0.649 2.761,-0.306 2.984,1.464 C 2.854,-2.385 1.477,-0.908 0,0" />
      </g>
      <g
         transform="matrix(0.35277777,0,0,-0.35277777,190.3181,28.514733)"
         id="g266">
        <path
           inkscape:connector-curvature="0"
           id="path268"
           style="fill:#fe0000;fill-opacity:1;fill-rule:nonzero;stroke:none"
           d="m 0,0 c -3.386,5.912 -9.96,2.179 -11.949,-0.782 -1.989,2.961 -8.564,6.694 -11.948,0.782 -4.439,-7.748 6.174,-14.054 11.85,-17.22 0,0 0.067,-0.073 0.098,-0.055 0.032,-0.018 0.097,0.055 0.097,0.055 C -6.176,-14.054 4.437,-7.748 0,0" />
      </g>
      <g
         transform="matrix(0.35277777,0,0,-0.35277777,183.27528,18.764238)"
         id="g270">
        <path
           inkscape:connector-curvature="0"
           id="path272"
           style="fill:#fe0000;fill-opacity:1;fill-rule:nonzero;stroke:none"
           d="M 0,0 C -2.84,4.958 -8.353,1.827 -10.021,-0.656 -11.688,1.827 -17.203,4.958 -20.04,0 c -3.724,-6.498 5.178,-11.786 9.937,-14.441 0,0 0.056,-0.061 0.082,-0.046 0.027,-0.015 0.083,0.046 0.083,0.046 C -5.18,-11.786 3.721,-6.498 0,0" />
      </g>
      <g
         transform="matrix(0.35277777,0,0,-0.35277777,191.45394,13.590752)"
         id="g274">
        <path
           inkscape:connector-curvature="0"
           id="path276"
           style="fill:#fe0000;fill-opacity:1;fill-rule:nonzero;stroke:none"
           d="m 0,0 c -2.187,3.817 -6.431,1.407 -7.715,-0.505 -1.283,1.912 -5.529,4.322 -7.713,0.505 -2.867,-5.002 3.987,-9.073 7.651,-11.118 0,0 0.043,-0.046 0.062,-0.035 0.021,-0.011 0.064,0.035 0.064,0.035 C -3.987,-9.073 2.864,-5.002 0,0" />
      </g>
    </g>
  </g>
</svg>
