<?xml version="1.0" encoding="UTF-8" standalone="no"?>
<!-- Created with Inkscape (http://www.inkscape.org/) -->

<svg
   xmlns:dc="http://purl.org/dc/elements/1.1/"
   xmlns:cc="http://creativecommons.org/ns#"
   xmlns:rdf="http://www.w3.org/1999/02/22-rdf-syntax-ns#"
   xmlns:svg="http://www.w3.org/2000/svg"
   xmlns="http://www.w3.org/2000/svg"
   xmlns:sodipodi="http://sodipodi.sourceforge.net/DTD/sodipodi-0.dtd"
   xmlns:inkscape="http://www.inkscape.org/namespaces/inkscape"
   width="95.423958mm"
   height="73.352089mm"
   viewBox="0 0 338.11639 259.90897"
   id="svg10084"
   version="1.1"
   inkscape:version="0.91 r13725"
   sodipodi:docname="white2.svg">
  <defs
     id="defs10086">
    <clipPath
       id="clipPath2827"
       clipPathUnits="userSpaceOnUse">
      <path
         inkscape:connector-curvature="0"
         id="path2825"
         d="m 168.198,264.347 70.789,0 0,-66.928 -70.789,0 z" />
    </clipPath>
  </defs>
  <sodipodi:namedview
     id="base"
     pagecolor="#ffffff"
     bordercolor="#666666"
     borderopacity="1.0"
     inkscape:pageopacity="0.0"
     inkscape:pageshadow="2"
     inkscape:zoom="0.35"
     inkscape:cx="-679.64758"
     inkscape:cy="-7.188363"
     inkscape:document-units="px"
     inkscape:current-layer="layer1"
     showgrid="false"
     inkscape:window-width="1366"
     inkscape:window-height="705"
     inkscape:window-x="-8"
     inkscape:window-y="-8"
     inkscape:window-maximized="1"
     fit-margin-top="0"
     fit-margin-left="0"
     fit-margin-right="0"
     fit-margin-bottom="0" />
  <metadata
     id="metadata10089">
    <rdf:RDF>
      <cc:Work
         rdf:about="">
        <dc:format>image/svg+xml</dc:format>
        <dc:type
           rdf:resource="http://purl.org/dc/dcmitype/StillImage" />
        <dc:title></dc:title>
      </cc:Work>
    </rdf:RDF>
  </metadata>
  <g
     inkscape:label="Capa 1"
     inkscape:groupmode="layer"
     id="layer1"
     transform="translate(-138.79893,-265.26487)">
    <g
       transform="matrix(3.5433071,0,0,3.5433071,453.48513,-376.55366)"
       id="g9991">
      <g
         transform="matrix(0.35277777,0,0,-0.35277777,-16.111236,249.45467)"
         id="g2801">
        <path
           inkscape:connector-curvature="0"
           id="path2803"
           style="fill:#b7a99f;fill-opacity:1;fill-rule:nonzero;stroke:none"
           d="m 0,0 c 0,-1.412 -34.915,-2.557 -77.983,-2.557 -43.069,0 -77.982,1.145 -77.982,2.557 0,1.412 34.913,2.557 77.982,2.557 C -34.915,2.557 0,1.412 0,0" />
      </g>
      <g
         transform="matrix(0.35277777,0,0,-0.35277777,-53.949932,246.65743)"
         id="g2805">
        <path
           inkscape:connector-curvature="0"
           id="path2807"
           style="fill:#fff7e9;fill-opacity:1;fill-rule:nonzero;stroke:none"
           d="M 0,0 C 0,0 12.468,87.089 50.332,80.172 88.196,73.256 100.454,4.719 100.454,4.719 100.454,4.719 62.025,-21.574 0,0" />
      </g>
      <g
         transform="matrix(0.35277777,0,0,-0.35277777,-29.141965,200.04081)"
         id="g2809">
        <path
           inkscape:connector-curvature="0"
           id="path2811"
           style="fill:#eabb98;fill-opacity:1;fill-rule:nonzero;stroke:none"
           d="m 0,0 c 0,-11.543 -11.47,-20.9 -25.619,-20.9 -14.15,0 -25.619,9.357 -25.619,20.9 0,11.543 11.469,20.899 25.619,20.899 C -11.47,20.899 0,11.543 0,0" />
      </g>
      <g
         transform="matrix(0.35277777,0,0,-0.35277777,-29.96757,195.93285)"
         id="g2813">
        <path
           inkscape:connector-curvature="0"
           id="path2815"
           style="fill:#351f10;fill-opacity:1;fill-rule:nonzero;stroke:none"
           d="m 0,0 c 10.937,10.051 6.209,23.657 -9.122,26.11 -12.09,1.934 -14.813,-8.967 -15.387,-15.284 -4.543,-0.654 -9.723,-2.387 -15.625,-5.616 0,0 9.439,-28.99 26.293,-35.732 0,0 20.9,3.372 18.877,20.226 0,0 -1.37,5.081 -5.036,10.296" />
      </g>
      <g
         transform="matrix(0.35277777,0,0,-0.35277777,-36.039405,195.99762)"
         id="g2817">
        <path
           inkscape:connector-curvature="0"
           id="path2819"
           style="fill:#ffffff;fill-opacity:1;fill-rule:nonzero;stroke:none"
           d="M 0,0 C 1.156,0.744 4.72,3.654 2.779,5.172 1.255,6.364 -2.718,3.025 -2.502,1.714 -2.475,3.411 -3.06,7.297 -5.374,5.984 -7.001,5.06 -6.257,0.588 -5.212,-0.742 c -1.173,1.895 -5.793,1.69 -6.172,-0.275 -0.657,-3.422 4.61,-3.556 6.685,-2.35 -1.397,-1.649 -3.497,-4.378 -1.476,-5.816 0.198,-0.14 2.231,-0.154 2.484,-0.018 0.653,0.348 1.24,1.361 1.486,2.309 0.192,-1.571 0.911,-3.376 2.336,-3.213 2.904,0.331 1.867,5.821 0.791,7.098 1.424,-1.3 4.083,-1.124 4.481,0.714 C 6.085,0.848 1.97,1.351 0,0" />
      </g>
      <g
         transform="matrix(0.35277777,0,0,-0.35277777,-95.375991,289.18849)"
         id="g2821">
        <g
           id="g2823" />
        <g
           id="g2835">
          <g
             style="opacity:0.69999701"
             id="g2833"
             clip-path="url(#clipPath2827)">
            <g
               id="g2831"
               transform="translate(185.4097,264.3467)">
              <path
                 inkscape:connector-curvature="0"
                 id="path2829"
                 style="fill:#f7f2e8;fill-opacity:1;fill-rule:nonzero;stroke:none"
                 d="m 0,0 -17.211,-0.184 23.596,-66.744 47.193,20.9 C 53.578,-46.028 27.324,-0.491 0,0" />
            </g>
          </g>
        </g>
      </g>
      <g
         transform="matrix(0.35277777,0,0,-0.35277777,-41.156905,211.10438)"
         id="g2837">
        <path
           inkscape:connector-curvature="0"
           id="path2839"
           style="fill:#eabb98;fill-opacity:1;fill-rule:nonzero;stroke:none"
           d="M 0,0 C 0,0 -1.348,12.136 9.439,11.461 20.226,10.788 19.551,-5.393 19.551,-5.393 Z" />
      </g>
      <g
         transform="matrix(0.35277777,0,0,-0.35277777,-41.407025,209.32066)"
         id="g2841">
        <path
           inkscape:connector-curvature="0"
           id="path2843"
           style="fill:#ffffff;fill-opacity:1;fill-rule:nonzero;stroke:none"
           d="m 0,0 3.485,-25.958 14.703,0.113 2.965,19.778 z" />
      </g>
      <g
         transform="matrix(0.35277777,0,0,-0.35277777,-37.827389,208.96393)"
         id="g2845">
        <path
           inkscape:connector-curvature="0"
           id="path2847"
           style="fill:#eabb98;fill-opacity:1;fill-rule:nonzero;stroke:none"
           d="M 0,0 -34.383,-37.08 6.743,-4.044 Z" />
      </g>
      <g
         transform="matrix(0.35277777,0,0,-0.35277777,-37.228654,202.06236)"
         id="g2849">
        <path
           inkscape:connector-curvature="0"
           id="path2851"
           style="fill:#eabb98;fill-opacity:1;fill-rule:nonzero;stroke:none"
           d="m 0,0 c 0,-3.91 -2.415,-7.079 -5.394,-7.079 -2.978,0 -5.393,3.169 -5.393,7.079 0,3.909 2.415,7.079 5.393,7.079 C -2.415,7.079 0,3.909 0,0" />
      </g>
      <g
         transform="matrix(0.35277777,0,0,-0.35277777,-62.174417,228.54966)"
         id="g2853">
        <path
           inkscape:connector-curvature="0"
           id="path2855"
           style="fill:#351f10;fill-opacity:1;fill-rule:nonzero;stroke:none"
           d="M 0,0 31.732,0 C 31.732,0 35.11,74.437 16.9,73.958 -8.719,73.284 0,0 0,0" />
      </g>
      <g
         transform="matrix(0.35277777,0,0,-0.35277777,-57.16402,201.74543)"
         id="g2857">
        <path
           inkscape:connector-curvature="0"
           id="path2859"
           style="fill:#665e5a;fill-opacity:1;fill-rule:nonzero;stroke:none"
           d="M 0,0 C -4.044,0 -11.46,-4.719 -11.46,-4.719 L 17.529,-54.148 16.855,-4.719 Z" />
      </g>
      <g
         transform="matrix(0.35277777,0,0,-0.35277777,-59.304288,206.61715)"
         id="g2861">
        <path
           inkscape:connector-curvature="0"
           id="path2863"
           style="fill:#351f10;fill-opacity:1;fill-rule:nonzero;stroke:none"
           d="M 0,0 55.094,-34.583 3.033,-17.146 Z" />
      </g>
      <g
         transform="matrix(0.35277777,0,0,-0.35277777,-46.737955,199.94535)"
         id="g2865">
        <path
           inkscape:connector-curvature="0"
           id="path2867"
           style="fill:#eabb98;fill-opacity:1;fill-rule:nonzero;stroke:none"
           d="m 0,0 c -5.338,-10.234 -19.834,-13.227 -32.38,-6.684 -12.545,6.543 -18.389,20.142 -13.051,30.377 5.337,10.235 19.833,13.227 32.379,6.685 C -0.506,23.835 5.337,10.234 0,0" />
      </g>
      <g
         transform="matrix(0.35277777,0,0,-0.35277777,-61.104195,200.23184)"
         id="g2869">
        <path
           inkscape:connector-curvature="0"
           id="path2871"
           style="fill:#351f10;fill-opacity:1;fill-rule:nonzero;stroke:none"
           d="m 0,0 11.537,4.628 29.157,12.167 11.304,8.552 c 0,0 -34.344,33.248 -54.161,6.955 C -16.972,12.652 0,0 0,0" />
      </g>
      <g
         transform="matrix(0.35277777,0,0,-0.35277777,-52.348992,198.3601)"
         id="g2873">
        <path
           inkscape:connector-curvature="0"
           id="path2875"
           style="fill:#eabb98;fill-opacity:1;fill-rule:nonzero;stroke:none"
           d="m 0,0 c -1.808,-3.467 -6.084,-4.811 -9.55,-3.003 -3.466,1.807 -4.811,6.084 -3.003,9.549 1.807,3.467 6.084,4.811 9.549,3.004 C 0.462,7.742 1.807,3.466 0,0" />
      </g>
      <g
         transform="matrix(0.35277777,0,0,-0.35277777,-51.710781,203.79493)"
         id="g2877">
        <path
           inkscape:connector-curvature="0"
           id="path2879"
           style="fill:#ffffff;fill-opacity:1;fill-rule:nonzero;stroke:none"
           d="m 0,0 -14.022,6.833 1.502,-17.839 12.738,7.617 13.318,-7.584 -0.252,17.765 z" />
      </g>
      <g
         transform="matrix(0.35277777,0,0,-0.35277777,-60.751417,227.49133)"
         id="g2881">
        <path
           inkscape:connector-curvature="0"
           id="path2883"
           style="fill:#351f10;fill-opacity:1;fill-rule:nonzero;stroke:none"
           d="m 0,0 c 0,0 6.821,-33.372 10.192,-61.014 l 21.574,0.675 -11.461,6.404 L 26.687,0 Z" />
      </g>
    </g>
  </g>
</svg>
