<?xml version="1.0" encoding="UTF-8" standalone="no"?>
<!-- Created with Inkscape (http://www.inkscape.org/) -->

<svg
   xmlns:dc="http://purl.org/dc/elements/1.1/"
   xmlns:cc="http://creativecommons.org/ns#"
   xmlns:rdf="http://www.w3.org/1999/02/22-rdf-syntax-ns#"
   xmlns:svg="http://www.w3.org/2000/svg"
   xmlns="http://www.w3.org/2000/svg"
   xmlns:sodipodi="http://sodipodi.sourceforge.net/DTD/sodipodi-0.dtd"
   xmlns:inkscape="http://www.inkscape.org/namespaces/inkscape"
   width="95.423958mm"
   height="73.352089mm"
   viewBox="0 0 338.11639 259.90897"
   id="svg10084"
   version="1.1"
   inkscape:version="0.91 r13725"
   sodipodi:docname="white3.svg">
  <defs
     id="defs10086">
    <clipPath
       id="clipPath2827"
       clipPathUnits="userSpaceOnUse">
      <path
         inkscape:connector-curvature="0"
         id="path2825"
         d="m 168.198,264.347 70.789,0 0,-66.928 -70.789,0 z" />
    </clipPath>
    <clipPath
       id="clipPath3007"
       clipPathUnits="userSpaceOnUse">
      <path
         inkscape:connector-curvature="0"
         id="path3005"
         d="m 667.812,486.797 70.789,0 0,-66.928 -70.789,0 z" />
    </clipPath>
  </defs>
  <sodipodi:namedview
     id="base"
     pagecolor="#ffffff"
     bordercolor="#666666"
     borderopacity="1.0"
     inkscape:pageopacity="0.0"
     inkscape:pageshadow="2"
     inkscape:zoom="0.93303299"
     inkscape:cx="97.687047"
     inkscape:cy="57.691285"
     inkscape:document-units="px"
     inkscape:current-layer="layer1"
     showgrid="false"
     inkscape:window-width="1366"
     inkscape:window-height="705"
     inkscape:window-x="-8"
     inkscape:window-y="-8"
     inkscape:window-maximized="1"
     fit-margin-top="0"
     fit-margin-left="0"
     fit-margin-right="0"
     fit-margin-bottom="0" />
  <metadata
     id="metadata10089">
    <rdf:RDF>
      <cc:Work
         rdf:about="">
        <dc:format>image/svg+xml</dc:format>
        <dc:type
           rdf:resource="http://purl.org/dc/dcmitype/StillImage" />
        <dc:title />
      </cc:Work>
    </rdf:RDF>
  </metadata>
  <g
     inkscape:label="Capa 1"
     inkscape:groupmode="layer"
     id="layer1"
     transform="translate(-138.79893,-265.26487)">
    <g
       id="g7784"
       transform="translate(-7.7844149,-217.83992)">
      <g
         transform="matrix(1.25,0,0,-1.25,317.23562,570.52253)"
         id="g2977">
        <path
           inkscape:connector-curvature="0"
           id="path2979"
           style="fill:#eabb98;fill-opacity:1;fill-rule:nonzero;stroke:none"
           d="m 0,0 -66.785,37.069 72,-32 z" />
      </g>
      <g
         transform="matrix(1.25,0,0,-1.25,370.0041,722.74367)"
         id="g2981">
        <path
           inkscape:connector-curvature="0"
           id="path2983"
           style="fill:#b7a99f;fill-opacity:1;fill-rule:nonzero;stroke:none"
           d="m 0,0 c 0,-1.412 -27.003,-2.557 -60.312,-2.557 -33.309,0 -60.311,1.145 -60.311,2.557 0,1.412 27.002,2.557 60.311,2.557 C -27.003,2.557 0,1.412 0,0" />
      </g>
      <g
         transform="matrix(1.25,0,0,-1.25,226.12111,684.55752)"
         id="g2985">
        <path
           inkscape:connector-curvature="0"
           id="path2987"
           style="fill:#fff7e9;fill-opacity:1;fill-rule:nonzero;stroke:none"
           d="M 0,0 C 0,0 42.883,76.818 75.744,56.777 108.606,36.737 95.46,-31.635 95.46,-31.635 95.46,-31.635 50.156,-42.391 0,0" />
      </g>
      <g
         transform="matrix(1.25,0,0,-1.25,348.01073,547.65516)"
         id="g2989">
        <path
           inkscape:connector-curvature="0"
           id="path2991"
           style="fill:#eabb98;fill-opacity:1;fill-rule:nonzero;stroke:none"
           d="m 0,0 c 0,-11.543 -11.47,-20.9 -25.619,-20.9 -14.15,0 -25.619,9.357 -25.619,20.9 0,11.543 11.469,20.899 25.619,20.899 C -11.47,20.899 0,11.543 0,0" />
      </g>
      <g
         transform="matrix(1.25,0,0,-1.25,345.08523,533.09943)"
         id="g2993">
        <path
           inkscape:connector-curvature="0"
           id="path2995"
           style="fill:#351f10;fill-opacity:1;fill-rule:nonzero;stroke:none"
           d="m 0,0 c 10.937,10.051 6.209,23.657 -9.122,26.11 -12.09,1.934 -14.813,-8.967 -15.387,-15.284 -4.543,-0.654 -9.723,-2.387 -15.625,-5.616 0,0 9.439,-28.99 26.293,-35.732 0,0 20.9,3.372 18.877,20.226 0,0 -1.37,5.081 -5.036,10.296" />
      </g>
      <g
         transform="matrix(1.25,0,0,-1.25,323.57098,533.32893)"
         id="g2997">
        <path
           inkscape:connector-curvature="0"
           id="path2999"
           style="fill:#ffffff;fill-opacity:1;fill-rule:nonzero;stroke:none"
           d="M 0,0 C 1.156,0.744 4.72,3.654 2.779,5.172 1.255,6.364 -2.718,3.025 -2.502,1.714 -2.475,3.411 -3.06,7.297 -5.374,5.984 -7.001,5.06 -6.257,0.588 -5.212,-0.742 c -1.173,1.895 -5.793,1.69 -6.172,-0.275 -0.657,-3.422 4.61,-3.556 6.685,-2.35 -1.397,-1.649 -3.497,-4.378 -1.476,-5.816 0.198,-0.14 2.231,-0.154 2.484,-0.018 0.653,0.348 1.24,1.361 1.486,2.309 0.192,-1.571 0.911,-3.376 2.336,-3.213 2.904,0.331 1.867,5.821 0.791,7.098 1.424,-1.3 4.083,-1.124 4.481,0.714 C 6.085,0.848 1.97,1.351 0,0" />
      </g>
      <g
         transform="matrix(1.25,0,0,-1.25,-511.19337,1141.5955)"
         id="g3001">
        <g
           id="g3003" />
        <g
           id="g3015">
          <g
             style="opacity:0.69999701"
             id="g3013"
             clip-path="url(#clipPath3007)">
            <g
               id="g3011"
               transform="translate(685.0229,486.7969)">
              <path
                 inkscape:connector-curvature="0"
                 id="path3009"
                 style="fill:#f7f2e8;fill-opacity:1;fill-rule:nonzero;stroke:none"
                 d="m 0,0 -17.211,-0.184 23.596,-66.744 47.193,20.9 C 53.578,-46.028 27.324,-0.491 0,0" />
            </g>
          </g>
        </g>
      </g>
      <g
         transform="matrix(1.25,0,0,-1.25,304.1881,588.10679)"
         id="g3017">
        <path
           inkscape:connector-curvature="0"
           id="path3019"
           style="fill:#eabb98;fill-opacity:1;fill-rule:nonzero;stroke:none"
           d="M 0,0 C 0,0 -1.348,12.136 9.439,11.461 20.226,10.788 19.551,-5.393 19.551,-5.393 Z" />
      </g>
      <g
         transform="matrix(1.25,0,0,-1.25,303.30185,581.78653)"
         id="g3021">
        <path
           inkscape:connector-curvature="0"
           id="path3023"
           style="fill:#ffffff;fill-opacity:1;fill-rule:nonzero;stroke:none"
           d="m 0,0 3.485,-21.958 14.703,-5.887 2.965,21.778 z" />
      </g>
      <g
         transform="matrix(1.25,0,0,-1.25,308.4856,581.77253)"
         id="g3025">
        <path
           inkscape:connector-curvature="0"
           id="path3027"
           style="fill:#eabb98;fill-opacity:1;fill-rule:nonzero;stroke:none"
           d="m 0,0 -62.785,39.069 68,-32 z" />
      </g>
      <g
         transform="matrix(1.25,0,0,-1.25,319.3571,554.81817)"
         id="g3029">
        <path
           inkscape:connector-curvature="0"
           id="path3031"
           style="fill:#eabb98;fill-opacity:1;fill-rule:nonzero;stroke:none"
           d="m 0,0 c 0,-3.91 -2.415,-7.079 -5.394,-7.079 -2.978,0 -5.393,3.169 -5.393,7.079 0,3.909 2.415,7.079 5.393,7.079 C -2.415,7.079 0,3.909 0,0" />
      </g>
      <g
         transform="matrix(1.25,0,0,-1.25,240.83111,539.3488)"
         id="g3033">
        <path
           inkscape:connector-curvature="0"
           id="path3035"
           style="fill:#ffffff;fill-opacity:1;fill-rule:nonzero;stroke:none"
           d="m 0,0 c 0,0 2.959,-9.354 8.011,-13.061 l 2.678,1.509 c 0,0 -9.205,9.832 -9.767,13.015 z" />
      </g>
      <g
         transform="matrix(1.25,0,0,-1.25,238.58324,537.40792)"
         id="g3037">
        <path
           inkscape:connector-curvature="0"
           id="path3039"
           style="fill:#fff7e9;fill-opacity:1;fill-rule:nonzero;stroke:none"
           d="m 0,0 -1.634,1.396 c -0.479,-0.013 -5.015,-16.274 4.01,-25.313 l 4.558,2.996 c 0,0 -8.759,11.123 -6.934,20.921" />
      </g>
      <g
         transform="matrix(1.25,0,0,-1.25,258.944,516.73467)"
         id="g3041">
        <path
           inkscape:connector-curvature="0"
           id="path3043"
           style="fill:#ffffff;fill-opacity:1;fill-rule:nonzero;stroke:none"
           d="m 0,0 c 3.574,2.998 -3.487,3.594 -5.378,3.304 1.052,0.161 0.406,3.104 -0.154,3.525 -1.259,0.944 -3.49,-0.059 -4.584,-0.775 0.612,1.622 0.649,3.515 -1.541,3.513 -2.216,-0.003 -3.749,-2.388 -4.671,-4.084 0.018,1.526 -0.422,3.742 -2.435,3.332 -2.226,-0.454 -2.213,-3.407 -1.822,-5.079 -0.487,1.426 -1.465,3.492 -3.196,2.212 -1.774,-1.313 -0.808,-4.046 0,-5.578 -1.144,0.493 -3.432,1.503 -4.474,0.323 -1.035,-1.173 0.275,-3.044 1.061,-3.966 -2.042,-1.639 -3.026,-4.307 -0.009,-5.395 -1.042,-0.958 -1.849,-2.503 -0.632,-3.672 1.387,-1.331 3.756,-0.322 5.33,0.048 -1.665,-1.251 -2.746,-4.065 -0.155,-4.953 1.771,-0.606 4.036,0.316 5.294,1.549 -0.709,-1.308 -1.377,-4.363 0.772,-4.352 1.491,0.007 2.781,1.714 3.7,2.681 -0.347,-1.388 -0.367,-4.057 1.622,-4.165 1.85,-0.101 2.908,2.698 3.407,4.07 3.202,-3.083 4.457,1.052 4.953,3.927 0.792,-2.338 3.467,-1.302 4.358,0.439 1.181,2.308 -0.691,5.384 -1.811,7.363 1.533,-0.649 2.762,-0.306 2.984,1.464 C 2.853,-2.385 1.477,-0.908 0,0" />
      </g>
    </g>
  </g>
</svg>
