<?xml version="1.0" encoding="UTF-8" standalone="no"?>
<!-- Created with Inkscape (http://www.inkscape.org/) -->

<svg
   xmlns:dc="http://purl.org/dc/elements/1.1/"
   xmlns:cc="http://creativecommons.org/ns#"
   xmlns:rdf="http://www.w3.org/1999/02/22-rdf-syntax-ns#"
   xmlns:svg="http://www.w3.org/2000/svg"
   xmlns="http://www.w3.org/2000/svg"
   xmlns:sodipodi="http://sodipodi.sourceforge.net/DTD/sodipodi-0.dtd"
   xmlns:inkscape="http://www.inkscape.org/namespaces/inkscape"
   width="95.423958mm"
   height="73.352089mm"
   viewBox="0 0 338.11639 259.90897"
   id="svg8504"
   version="1.1"
   inkscape:version="0.91 r13725"
   sodipodi:docname="white1.svg">
  <defs
     id="defs8506">
    <clipPath
       id="clipPath2743"
       clipPathUnits="userSpaceOnUse">
      <path
         inkscape:connector-curvature="0"
         id="path2741"
         d="m 665.812,696.797 70.789,0 0,-66.928 -70.789,0 z" />
    </clipPath>
  </defs>
  <sodipodi:namedview
     id="base"
     pagecolor="#ffffff"
     bordercolor="#666666"
     borderopacity="1.0"
     inkscape:pageopacity="0.0"
     inkscape:pageshadow="2"
     inkscape:zoom="0.35"
     inkscape:cx="1059.7724"
     inkscape:cy="-347.18837"
     inkscape:document-units="px"
     inkscape:current-layer="layer1"
     showgrid="false"
     fit-margin-top="0"
     fit-margin-left="0"
     fit-margin-right="0"
     fit-margin-bottom="0"
     inkscape:window-width="1366"
     inkscape:window-height="705"
     inkscape:window-x="-8"
     inkscape:window-y="-8"
     inkscape:window-maximized="1" />
  <metadata
     id="metadata8509">
    <rdf:RDF>
      <cc:Work
         rdf:about="">
        <dc:format>image/svg+xml</dc:format>
        <dc:type
           rdf:resource="http://purl.org/dc/dcmitype/StillImage" />
        <dc:title></dc:title>
      </cc:Work>
    </rdf:RDF>
  </metadata>
  <g
     inkscape:label="Capa 1"
     inkscape:groupmode="layer"
     id="layer1"
     transform="translate(1343.3439,74.735138)">
    <g
       id="g11578">
      <g
         transform="matrix(1.25,0,0,-1.25,-1097.6202,168.32031)"
         id="g2717">
        <path
           inkscape:connector-curvature="0"
           id="path2719"
           style="fill:#b7a99f;fill-opacity:1;fill-rule:nonzero;stroke:none"
           d="m 0,0 c 0,-1.412 -34.915,-2.557 -77.983,-2.557 -43.069,0 -77.982,1.145 -77.982,2.557 0,1.412 34.913,2.557 77.982,2.557 C -34.915,2.557 0,1.412 0,0" />
      </g>
      <g
         transform="matrix(1.25,0,0,-1.25,-1215.4443,160.90881)"
         id="g2721">
        <path
           inkscape:connector-curvature="0"
           id="path2723"
           style="fill:#fff7e9;fill-opacity:1;fill-rule:nonzero;stroke:none"
           d="M 0,0 C 0,0 12.468,87.089 50.332,80.172 88.196,73.256 100.454,4.719 100.454,4.719 100.454,4.719 62.025,-21.574 0,0" />
      </g>
      <g
         transform="matrix(1.25,0,0,-1.25,-1120.042,-0.5181857)"
         id="g2725">
        <path
           inkscape:connector-curvature="0"
           id="path2727"
           style="fill:#eabb98;fill-opacity:1;fill-rule:nonzero;stroke:none"
           d="m 0,0 c 0,-11.543 -11.47,-20.9 -25.619,-20.9 -14.15,0 -25.619,9.357 -25.619,20.9 0,11.543 11.469,20.899 25.619,20.899 C -11.47,20.899 0,11.543 0,0" />
      </g>
      <g
         transform="matrix(1.25,0,0,-1.25,-1122.9676,-15.073936)"
         id="g2729">
        <path
           inkscape:connector-curvature="0"
           id="path2731"
           style="fill:#351f10;fill-opacity:1;fill-rule:nonzero;stroke:none"
           d="m 0,0 c 10.937,10.051 6.209,23.657 -9.122,26.11 -12.09,1.934 -14.813,-8.967 -15.387,-15.284 -4.543,-0.654 -9.723,-2.387 -15.625,-5.616 0,0 9.439,-28.99 26.293,-35.732 0,0 20.9,3.372 18.877,20.226 0,0 -1.37,5.081 -5.036,10.296" />
      </g>
      <g
         transform="matrix(1.25,0,0,-1.25,-1144.4818,-14.844436)"
         id="g2733">
        <path
           inkscape:connector-curvature="0"
           id="path2735"
           style="fill:#ffffff;fill-opacity:1;fill-rule:nonzero;stroke:none"
           d="M 0,0 C 1.156,0.744 4.72,3.654 2.779,5.172 1.255,6.364 -2.718,3.025 -2.502,1.714 -2.475,3.411 -3.06,7.297 -5.374,5.984 -7.001,5.06 -6.257,0.588 -5.212,-0.742 c -1.173,1.895 -5.793,1.69 -6.172,-0.275 -0.657,-3.422 4.61,-3.556 6.685,-2.35 -1.397,-1.649 -3.497,-4.378 -1.476,-5.816 0.198,-0.14 2.231,-0.154 2.484,-0.018 0.653,0.348 1.24,1.361 1.486,2.309 0.192,-1.571 0.911,-3.376 2.336,-3.213 2.904,0.331 1.867,5.821 0.791,7.098 1.424,-1.3 4.083,-1.124 4.481,0.714 C 6.085,0.848 1.97,1.351 0,0" />
      </g>
      <g
         transform="matrix(1.25,0,0,-1.25,-1976.7461,855.92216)"
         id="g2737">
        <g
           id="g2739" />
        <g
           id="g2751">
          <g
             style="opacity:0.69999701"
             id="g2749"
             clip-path="url(#clipPath2743)">
            <g
               id="g2747"
               transform="translate(683.0229,696.7969)">
              <path
                 inkscape:connector-curvature="0"
                 id="path2745"
                 style="fill:#f7f2e8;fill-opacity:1;fill-rule:nonzero;stroke:none"
                 d="m 0,0 -17.211,-0.184 23.596,-66.744 47.193,20.9 C 53.578,-46.028 27.324,-0.491 0,0" />
            </g>
          </g>
        </g>
      </g>
      <g
         transform="matrix(1.25,0,0,-1.25,-1163.8647,39.933441)"
         id="g2753">
        <path
           inkscape:connector-curvature="0"
           id="path2755"
           style="fill:#eabb98;fill-opacity:1;fill-rule:nonzero;stroke:none"
           d="M 0,0 C 0,0 -1.348,12.136 9.439,11.461 20.226,10.788 19.551,-5.393 19.551,-5.393 Z" />
      </g>
      <g
         transform="matrix(1.25,0,0,-1.25,-1164.7509,33.613194)"
         id="g2757">
        <path
           inkscape:connector-curvature="0"
           id="path2759"
           style="fill:#ffffff;fill-opacity:1;fill-rule:nonzero;stroke:none"
           d="m 0,0 3.485,-25.958 14.703,0.113 2.965,19.778 z" />
      </g>
      <g
         transform="matrix(1.25,0,0,-1.25,-1152.0672,32.349194)"
         id="g2761">
        <path
           inkscape:connector-curvature="0"
           id="path2763"
           style="fill:#eabb98;fill-opacity:1;fill-rule:nonzero;stroke:none"
           d="M 0,0 -34.383,-37.08 6.743,-4.044 Z" />
      </g>
      <g
         transform="matrix(1.25,0,0,-1.25,-1148.6957,6.6448143)"
         id="g2765">
        <path
           inkscape:connector-curvature="0"
           id="path2767"
           style="fill:#eabb98;fill-opacity:1;fill-rule:nonzero;stroke:none"
           d="m 0,0 c 0,-3.91 -2.415,-7.079 -5.394,-7.079 -2.978,0 -5.393,3.169 -5.393,7.079 0,3.909 2.415,7.079 5.393,7.079 C -2.415,7.079 0,3.909 0,0" />
      </g>
      <g
         transform="matrix(1.25,0,0,-1.25,-1260.8361,94.247431)"
         id="g2769">
        <path
           inkscape:connector-curvature="0"
           id="path2771"
           style="fill:#351f10;fill-opacity:1;fill-rule:nonzero;stroke:none"
           d="M 0,0 31.732,0 C 31.732,0 35.11,74.437 16.9,73.958 -8.719,73.284 0,0 0,0" />
      </g>
      <g
         transform="matrix(1.25,0,0,-1.25,-1243.0828,-0.7281857)"
         id="g2773">
        <path
           inkscape:connector-curvature="0"
           id="path2775"
           style="fill:#665e5a;fill-opacity:1;fill-rule:nonzero;stroke:none"
           d="M 0,0 C -4.044,0 -11.46,-4.719 -11.46,-4.719 L 17.529,-54.148 16.855,-4.719 Z" />
      </g>
      <g
         transform="matrix(1.25,0,0,-1.25,-1250.6664,15.283814)"
         id="g2777">
        <path
           inkscape:connector-curvature="0"
           id="path2779"
           style="fill:#351f10;fill-opacity:1;fill-rule:nonzero;stroke:none"
           d="M 0,0 45.507,-51.743 3.033,-31.146 Z" />
      </g>
      <g
         transform="matrix(1.25,0,0,-1.25,-1208.5009,-19.459306)"
         id="g2781">
        <path
           inkscape:connector-curvature="0"
           id="path2783"
           style="fill:#eabb98;fill-opacity:1;fill-rule:nonzero;stroke:none"
           d="m 0,0 c -1.713,-11.415 -14.445,-18.965 -28.438,-16.865 -13.992,2.1 -23.946,13.055 -22.232,24.47 1.712,11.415 14.444,18.966 28.436,16.866 C -8.241,22.371 1.713,11.415 0,0" />
      </g>
      <g
         transform="matrix(1.25,0,0,-1.25,-1256.2988,-1.9214357)"
         id="g2785">
        <path
           inkscape:connector-curvature="0"
           id="path2787"
           style="fill:#351f10;fill-opacity:1;fill-rule:nonzero;stroke:none"
           d="m 0,0 9.401,8.133 23.605,20.999 7.902,11.767 c 0,0 -43.299,20.251 -53.473,-11.062 C -20.167,6.435 0,0 0,0" />
      </g>
      <g
         transform="matrix(1.25,0,0,-1.25,-1229.1278,-18.294686)"
         id="g2789">
        <path
           inkscape:connector-curvature="0"
           id="path2791"
           style="fill:#eabb98;fill-opacity:1;fill-rule:nonzero;stroke:none"
           d="m 0,0 c -0.58,-3.866 -4.186,-6.53 -8.052,-5.95 -3.865,0.58 -6.53,4.185 -5.949,8.052 0.58,3.866 4.186,6.529 8.051,5.949 C -2.084,7.471 0.58,3.866 0,0" />
      </g>
      <g
         transform="matrix(1.25,0,0,-1.25,-1227.1301,1.5813143)"
         id="g2793">
        <path
           inkscape:connector-curvature="0"
           id="path2795"
           style="fill:#ffffff;fill-opacity:1;fill-rule:nonzero;stroke:none"
           d="m 0,0 -15.503,1.719 7.414,-16.295 9.434,11.457 15.093,-2.662 -6.212,16.646 z" />
      </g>
      <g
         transform="matrix(1.25,0,0,-1.25,-1255.794,90.497431)"
         id="g2797">
        <path
           inkscape:connector-curvature="0"
           id="path2799"
           style="fill:#351f10;fill-opacity:1;fill-rule:nonzero;stroke:none"
           d="m 0,0 c 0,0 6.821,-33.372 10.192,-61.014 l 21.574,0.675 -11.461,6.404 L 26.687,0 Z" />
      </g>
    </g>
  </g>
</svg>
