<?xml version="1.0" encoding="UTF-8" standalone="no"?>
<!-- Created with Inkscape (http://www.inkscape.org/) -->

<svg
   xmlns:dc="http://purl.org/dc/elements/1.1/"
   xmlns:cc="http://creativecommons.org/ns#"
   xmlns:rdf="http://www.w3.org/1999/02/22-rdf-syntax-ns#"
   xmlns:svg="http://www.w3.org/2000/svg"
   xmlns="http://www.w3.org/2000/svg"
   xmlns:sodipodi="http://sodipodi.sourceforge.net/DTD/sodipodi-0.dtd"
   xmlns:inkscape="http://www.inkscape.org/namespaces/inkscape"
   width="95.423958mm"
   height="73.352089mm"
   viewBox="0 0 338.11639 259.90897"
   id="svg10084"
   version="1.1"
   inkscape:version="0.91 r13725"
   sodipodi:docname="white4.svg">
  <defs
     id="defs10086">
    <clipPath
       id="clipPath2827"
       clipPathUnits="userSpaceOnUse">
      <path
         inkscape:connector-curvature="0"
         id="path2825"
         d="m 168.198,264.347 70.789,0 0,-66.928 -70.789,0 z" />
    </clipPath>
    <clipPath
       id="clipPath3007"
       clipPathUnits="userSpaceOnUse">
      <path
         inkscape:connector-curvature="0"
         id="path3005"
         d="m 667.812,486.797 70.789,0 0,-66.928 -70.789,0 z" />
    </clipPath>
    <clipPath
       id="clipPath3195"
       clipPathUnits="userSpaceOnUse">
      <path
         inkscape:connector-curvature="0"
         id="path3193"
         d="m 195.426,475.231 51.115,0 0,-76.545 -51.115,0 z" />
    </clipPath>
  </defs>
  <sodipodi:namedview
     id="base"
     pagecolor="#ffffff"
     bordercolor="#666666"
     borderopacity="1.0"
     inkscape:pageopacity="0.0"
     inkscape:pageshadow="2"
     inkscape:zoom="0.93303299"
     inkscape:cx="97.687047"
     inkscape:cy="57.691285"
     inkscape:document-units="px"
     inkscape:current-layer="layer1"
     showgrid="false"
     inkscape:window-width="1366"
     inkscape:window-height="705"
     inkscape:window-x="-8"
     inkscape:window-y="-8"
     inkscape:window-maximized="1"
     fit-margin-top="0"
     fit-margin-left="0"
     fit-margin-right="0"
     fit-margin-bottom="0" />
  <metadata
     id="metadata10089">
    <rdf:RDF>
      <cc:Work
         rdf:about="">
        <dc:format>image/svg+xml</dc:format>
        <dc:type
           rdf:resource="http://purl.org/dc/dcmitype/StillImage" />
        <dc:title></dc:title>
      </cc:Work>
    </rdf:RDF>
  </metadata>
  <g
     inkscape:label="Capa 1"
     inkscape:groupmode="layer"
     id="layer1"
     transform="translate(-138.79893,-265.26487)">
    <g
       transform="matrix(3.5433071,0,0,3.5433071,449.59833,-97.595291)"
       id="g7818">
      <g
         transform="matrix(0.35277777,0,0,-0.35277777,-15.200364,170.97919)"
         id="g3129">
        <path
           inkscape:connector-curvature="0"
           id="path3131"
           style="fill:#b7a99f;fill-opacity:1;fill-rule:nonzero;stroke:none"
           d="m 0,0 c 0,-1.412 -34.915,-2.557 -77.983,-2.557 -43.069,0 -77.982,1.145 -77.982,2.557 0,1.412 34.913,2.557 77.982,2.557 C -34.915,2.557 0,1.412 0,0" />
      </g>
      <g
         transform="matrix(0.35277777,0,0,-0.35277777,-36.38287,136.65828)"
         id="g3133">
        <path
           inkscape:connector-curvature="0"
           id="path3135"
           style="fill:#351f10;fill-opacity:1;fill-rule:nonzero;stroke:none"
           d="m 0,0 13.497,-9.61 -12.909,33.448 -39.4,-1.291 -12.691,-24.157 12.525,2.428 0.578,-35.807 7.23,-51.336 -12.309,-9.128 18.667,1 0,9.656 c 0,0 6.03,46.813 6.03,45.576 l 0,-54.93 21.018,0.236 -12.382,7.462 10.904,50.744 z" />
      </g>
      <g
         transform="matrix(0.35277777,0,0,-0.35277777,-47.838481,127.01546)"
         id="g3137">
        <path
           inkscape:connector-curvature="0"
           id="path3139"
           style="fill:#e2d4bf;fill-opacity:1;fill-rule:nonzero;stroke:none"
           d="m 0,0 15.205,-46.326 9.524,47.15 z" />
      </g>
      <g
         transform="matrix(0.35277777,0,0,-0.35277777,-31.953004,119.93319)"
         id="g3141">
        <path
           inkscape:connector-curvature="0"
           id="path3143"
           style="fill:#eabb98;fill-opacity:1;fill-rule:nonzero;stroke:none"
           d="M 0,0 C 0.459,4.072 -1.555,7.642 -4.494,7.972 -5.678,8.105 -6.83,7.687 -7.816,6.88 -12.047,13.304 -21.88,17.53 -33.134,17.012 -45.208,16.455 -55.156,10.607 -58.109,3.078 c -1.52,1.23 -3.312,1.707 -4.889,1.104 -2.765,-1.054 -3.824,-5.012 -2.363,-8.839 1.46,-3.829 4.885,-6.078 7.65,-5.023 0.425,0.161 0.803,0.399 1.144,0.686 4.352,-6.228 14.039,-10.29 25.084,-9.78 11.19,0.515 20.549,5.571 24.216,12.299 0.352,-0.15 0.723,-0.254 1.111,-0.298 C -3.215,-7.103 -0.46,-4.071 0,0" />
      </g>
      <g
         transform="matrix(0.35277777,0,0,-0.35277777,-45.718745,119.20919)"
         id="g3145">
        <path
           inkscape:connector-curvature="0"
           id="path3147"
           style="fill:#351f10;fill-opacity:1;fill-rule:nonzero;stroke:none"
           d="m 0,0 c -0.328,-1.237 -1.519,-1.996 -2.659,-1.694 -1.141,0.301 -1.802,1.55 -1.475,2.788 0.327,1.237 1.519,1.996 2.66,1.695 C -0.333,2.487 0.327,1.238 0,0" />
      </g>
      <g
         transform="matrix(0.35277777,0,0,-0.35277777,-39.255892,119.18922)"
         id="g3149">
        <path
           inkscape:connector-curvature="0"
           id="path3151"
           style="fill:#351f10;fill-opacity:1;fill-rule:nonzero;stroke:none"
           d="m 0,0 c -0.327,-1.236 -1.519,-1.996 -2.66,-1.693 -1.14,0.301 -1.801,1.55 -1.474,2.786 0.327,1.238 1.52,1.997 2.66,1.695 C -0.333,2.486 0.327,1.238 0,0" />
      </g>
      <g
         transform="matrix(0.35277777,0,0,-0.35277777,-52.703498,119.99348)"
         id="g3153">
        <path
           inkscape:connector-curvature="0"
           id="path3155"
           style="fill:#351f10;fill-opacity:1;fill-rule:nonzero;stroke:none"
           d="m 0,0 c 0,0 5.786,13.818 24.207,15.766 18.421,1.948 29.767,-16.401 29.767,-16.401 0,0 4.5,27.177 -27.065,39.493 C 26.909,38.858 -10.164,24.431 0,0" />
      </g>
      <g
         transform="matrix(0.35277777,0,0,-0.35277777,-47.537738,126.94053)"
         id="g3157">
        <path
           inkscape:connector-curvature="0"
           id="path3159"
           style="fill:#665e5a;fill-opacity:1;fill-rule:nonzero;stroke:none"
           d="m 0,0 -10.285,-5.243 c 0,0 8.55,-32.627 24.212,-40.87 z" />
      </g>
      <g
         transform="matrix(0.35277777,0,0,-0.35277777,-40.062059,125.71184)"
         id="g3161">
        <path
           inkscape:connector-curvature="0"
           id="path3163"
           style="fill:#665e5a;fill-opacity:1;fill-rule:nonzero;stroke:none"
           d="m 0,0 -6.838,-50.021 c 0,0 15.734,23.459 19.855,42.83 z" />
      </g>
      <g
         transform="matrix(0.35277777,0,0,-0.35277777,-43.433592,126.50918)"
         id="g3165">
        <path
           inkscape:connector-curvature="0"
           id="path3167"
           style="fill:#ffffff;fill-opacity:1;fill-rule:nonzero;stroke:none"
           d="m 0,0 -13.853,6.784 1.452,-17.643 12.61,7.507 13.155,-7.525 -0.215,17.568 z" />
      </g>
      <g
         transform="matrix(0.35277777,0,0,-0.35277777,-33.045592,130.05125)"
         id="g3169">
        <path
           inkscape:connector-curvature="0"
           id="path3171"
           style="fill:#ffffff;fill-opacity:1;fill-rule:nonzero;stroke:none"
           d="m 0,0 -10.904,-23.814 11.496,-8.75 14.061,16.145 z" />
      </g>
      <g
         transform="matrix(0.35277777,0,0,-0.35277777,-68.663235,125.23192)"
         id="g3173">
        <path
           inkscape:connector-curvature="0"
           id="path3175"
           style="fill:#fff7e9;fill-opacity:1;fill-rule:nonzero;stroke:none"
           d="M 0,0 C 0,0 97.64,-14.245 100.763,-49.532 102.095,-64.587 89,-86 63,-62 c -2.859,2.639 -4.546,2.614 -8,1 -18.146,-8.478 -29.239,-43.309 -28,-43 0,0 -56,40 -27,104" />
      </g>
      <g
         transform="matrix(0.35277777,0,0,-0.35277777,-17.234163,128.63739)"
         id="g3177">
        <path
           inkscape:connector-curvature="0"
           id="path3179"
           style="fill:#eabb98;fill-opacity:1;fill-rule:nonzero;stroke:none"
           d="m 0,0 c -6.16,-9.762 -20.853,-11.556 -32.819,-4.006 -11.967,7.55 -16.675,21.584 -10.515,31.346 6.159,9.763 20.852,11.556 32.818,4.006 C 1.451,23.796 6.159,9.763 0,0" />
      </g>
      <g
         transform="matrix(0.35277777,0,0,-0.35277777,-15.740537,124.72258)"
         id="g3181">
        <path
           inkscape:connector-curvature="0"
           id="path3183"
           style="fill:#351f10;fill-opacity:1;fill-rule:nonzero;stroke:none"
           d="m 0,0 c 14.613,2.665 17.875,16.695 6.217,26.95 -9.193,8.087 -17.313,0.32 -21.169,-4.716 -4.191,1.87 -9.497,3.17 -16.211,3.588 0,0 -7.486,-29.555 3.171,-44.25 0,0 19.475,-8.301 26.757,7.033 0,0 1.552,5.029 1.235,11.395" />
      </g>
      <g
         transform="matrix(0.35277777,0,0,-0.35277777,-20.910425,121.53742)"
         id="g3185">
        <path
           inkscape:connector-curvature="0"
           id="path3187"
           style="fill:#ffffff;fill-opacity:1;fill-rule:nonzero;stroke:none"
           d="m 0,0 c 1.375,0.012 5.942,0.572 5.11,2.891 -0.652,1.821 -5.794,1.118 -6.311,-0.106 0.929,1.42 2.508,5.019 -0.151,5.143 -1.87,0.087 -3.626,-4.092 -3.452,-5.775 0.02,2.229 -3.998,4.521 -5.367,3.061 -2.381,-2.544 2.002,-5.467 4.401,-5.554 -2.062,-0.649 -5.294,-1.837 -4.353,-4.132 0.094,-0.223 1.806,-1.32 2.092,-1.34 0.738,-0.054 1.775,0.489 2.489,1.159 -0.676,-1.431 -1.031,-3.34 0.261,-3.964 2.633,-1.269 4.685,3.928 4.457,5.582 0.51,-1.86 2.853,-3.13 4.17,-1.788 C 5.599,-2.53 2.387,0.091 0,0" />
      </g>
      <g
         transform="matrix(0.35277777,0,0,-0.35277777,-95.375991,289.18849)"
         id="g3189">
        <g
           id="g3191" />
        <g
           id="g3203">
          <g
             style="opacity:0.69999701"
             id="g3201"
             clip-path="url(#clipPath3195)">
            <g
               id="g3199"
               transform="translate(225.7383,466.2026)">
              <path
                 inkscape:connector-curvature="0"
                 id="path3197"
                 style="fill:#f7f2e8;fill-opacity:1;fill-rule:nonzero;stroke:none"
                 d="m 0,0 -14.655,9.029 -15.657,-69.039 51.064,-7.507 c 0,0 2.095,52.522 -20.752,67.517" />
            </g>
          </g>
        </g>
      </g>
      <g
         transform="matrix(0.35277777,0,0,-0.35277777,-33.78579,131.69336)"
         id="g3205">
        <path
           inkscape:connector-curvature="0"
           id="path3207"
           style="fill:#eabb98;fill-opacity:1;fill-rule:nonzero;stroke:none"
           d="m 0,0 c 0,0 5.335,10.983 14.099,4.657 8.762,-6.325 -0.442,-19.65 -0.442,-19.65 z" />
      </g>
      <g
         transform="matrix(0.35277777,0,0,-0.35277777,-29.827871,131.65977)"
         id="g3209">
        <path
           inkscape:connector-curvature="0"
           id="path3211"
           style="fill:#eabb98;fill-opacity:1;fill-rule:nonzero;stroke:none"
           d="M 0,0 -51.084,8.221 3.544,-7.018 Z" />
      </g>
      <g
         transform="matrix(0.35277777,0,0,-0.35277777,-25.152189,126.03205)"
         id="g3213">
        <path
           inkscape:connector-curvature="0"
           id="path3215"
           style="fill:#eabb98;fill-opacity:1;fill-rule:nonzero;stroke:none"
           d="m 0,0 c -2.086,-3.307 -5.82,-4.699 -8.339,-3.109 -2.519,1.589 -2.87,5.558 -0.784,8.865 2.086,3.306 5.82,4.698 8.339,3.109 C 1.735,7.276 2.086,3.306 0,0" />
      </g>
      <g
         transform="matrix(0.35277777,0,0,-0.35277777,-32.327125,144.28192)"
         id="g3217">
        <path
           inkscape:connector-curvature="0"
           id="path3219"
           style="fill:#351f10;fill-opacity:1;fill-rule:nonzero;stroke:none"
           d="M 0,0 -12.94,16.525 2,12 Z" />
      </g>
      <g
         transform="matrix(0.35277777,0,0,-0.35277777,-51.024346,147.45692)"
         id="g3221">
        <path
           inkscape:connector-curvature="0"
           id="path3223"
           style="fill:#351f10;fill-opacity:1;fill-rule:nonzero;stroke:none"
           d="M 0,0 6,20 11,0 Z" />
      </g>
    </g>
  </g>
</svg>
