<?xml version="1.0" encoding="UTF-8" standalone="no"?>
<!-- Created with Inkscape (http://www.inkscape.org/) -->

<svg
   xmlns:dc="http://purl.org/dc/elements/1.1/"
   xmlns:cc="http://creativecommons.org/ns#"
   xmlns:rdf="http://www.w3.org/1999/02/22-rdf-syntax-ns#"
   xmlns:svg="http://www.w3.org/2000/svg"
   xmlns="http://www.w3.org/2000/svg"
   xmlns:sodipodi="http://sodipodi.sourceforge.net/DTD/sodipodi-0.dtd"
   xmlns:inkscape="http://www.inkscape.org/namespaces/inkscape"
   width="90.311111mm"
   height="16.368889mm"
   viewBox="0 0 320 58"
   id="svg2"
   version="1.1"
   inkscape:version="0.91 r13725"
   sodipodi:docname="confirm.svg"
   inkscape:export-filename="C:\Users\Esco\git\boda\img\confirm.png"
   inkscape:export-xdpi="90"
   inkscape:export-ydpi="90">
  <defs
     id="defs4" />
  <sodipodi:namedview
     id="base"
     pagecolor="#ffffff"
     bordercolor="#666666"
     borderopacity="1.0"
     inkscape:pageopacity="0.0"
     inkscape:pageshadow="2"
     inkscape:zoom="2.8284271"
     inkscape:cx="106.41144"
     inkscape:cy="-19.22327"
     inkscape:document-units="px"
     inkscape:current-layer="layer1"
     showgrid="false"
     inkscape:window-width="1366"
     inkscape:window-height="705"
     inkscape:window-x="-8"
     inkscape:window-y="-8"
     inkscape:window-maximized="1"
     fit-margin-top="0"
     fit-margin-left="0"
     fit-margin-right="0"
     fit-margin-bottom="0" />
  <metadata
     id="metadata7">
    <rdf:RDF>
      <cc:Work
         rdf:about="">
        <dc:format>image/svg+xml</dc:format>
        <dc:type
           rdf:resource="http://purl.org/dc/dcmitype/StillImage" />
        <dc:title></dc:title>
      </cc:Work>
    </rdf:RDF>
  </metadata>
  <g
     inkscape:label="Capa 1"
     inkscape:groupmode="layer"
     id="layer1"
     transform="translate(-196.11122,-282.96893)">
    <g
       style="font-style:normal;font-weight:normal;font-size:40px;line-height:125%;font-family:Sans;letter-spacing:0px;word-spacing:0px;fill:#000000;fill-opacity:1;stroke:none;stroke-width:1px;stroke-linecap:butt;stroke-linejoin:miter;stroke-opacity:1"
       id="text8079">
      <path
         d="m 216.43977,325.92893 q 0,0.12 0,0.32 0,0.2 0.04,0.24 0.04,0.08 0.24,0.28 0.2,0.2 0.28,0.24 l 0.44,0 0.6,0 q 0.12,0 0.64,-0.08 0.56,-0.08 1.16,-0.16 0.64,-0.12 1.16,-0.2 0.56,-0.08 0.68,-0.08 l 0.52,0 q 0.2,-0.04 0.6,-0.08 0.4,-0.08 0.8,-0.16 0.44,-0.12 0.76,-0.16 0.36,-0.08 0.44,-0.12 0.08,-0.04 0.48,-0.24 0.4,-0.2 0.52,-0.28 0.12,-0.08 0.32,-0.24 0.2,-0.2 0.2,-0.28 0.04,0 0.04,-0.2 0,-0.24 0,-0.32 0,-0.08 0,-0.28 0,-0.2 -0.04,-0.24 -0.04,-0.08 -0.24,-0.28 -0.2,-0.2 -0.28,-0.24 -0.08,-0.04 -0.52,0 -0.4,0.04 -0.48,0 -0.28,-0.08 -0.88,-0.24 -0.6,-0.2 -0.68,-0.28 -0.08,-0.08 -0.28,-0.44 -0.2,-0.4 -0.24,-0.6 0,-0.08 -0.08,-0.64 -0.08,-0.56 -0.16,-1.28 -0.08,-0.76 -0.16,-1.52 -0.08,-0.76 -0.12,-1.24 0,0 -0.04,-0.12 0,-0.12 0,-0.16 0,-0.08 0,-0.12 0.04,-0.08 0.04,-0.12 0.04,-0.04 0.16,-0.28 0.16,-0.24 0.32,-0.48 0.2,-0.28 0.36,-0.48 0.16,-0.24 0.2,-0.32 0.04,-0.08 0.24,-0.48 0.2,-0.44 0.28,-0.52 0.04,-0.08 0.24,-0.28 0.2,-0.2 0.28,-0.24 0.12,-0.08 0.64,-0.4 0.56,-0.32 1.16,-0.64 0.6,-0.36 1.12,-0.64 0.56,-0.32 0.68,-0.4 0.04,-0.04 0.2,-0.16 0.16,-0.16 0.32,-0.32 0.16,-0.16 0.28,-0.32 0.16,-0.16 0.24,-0.24 0.08,-0.12 0.24,-0.32 0.16,-0.24 0.32,-0.48 0.2,-0.24 0.32,-0.44 0.12,-0.24 0.16,-0.32 0.04,-0.12 0.12,-0.32 0.12,-0.24 0.2,-0.48 0.08,-0.24 0.12,-0.44 0.08,-0.24 0.08,-0.32 0.04,-0.08 0.04,-0.64 0,-0.56 0,-0.88 0,-0.32 0,-0.92 0,-0.6 -0.04,-0.68 0,-0.16 -0.08,-0.52 -0.08,-0.4 -0.16,-0.8 -0.08,-0.44 -0.16,-0.8 -0.08,-0.36 -0.12,-0.48 -0.04,-0.12 -0.2,-0.4 -0.12,-0.32 -0.28,-0.64 -0.16,-0.36 -0.32,-0.64 -0.16,-0.28 -0.24,-0.4 -0.08,-0.08 -0.28,-0.28 -0.2,-0.24 -0.44,-0.48 -0.24,-0.24 -0.48,-0.48 -0.24,-0.24 -0.36,-0.32 -0.08,-0.04 -0.48,-0.24 -0.36,-0.2 -0.56,-0.28 -0.12,-0.04 -0.4,-0.12 -0.24,-0.08 -0.48,-0.16 -0.24,-0.12 -0.44,-0.16 -0.16,-0.08 -0.2,-0.08 -0.04,0 -0.28,0 -0.2,0 -0.48,0 -0.28,-0.04 -0.6,-0.04 -0.28,0 -0.44,0 -0.16,0 -0.48,0 -0.28,0 -0.6,0.04 -0.28,0 -0.52,0 -0.2,0 -0.24,0 -0.12,0 -0.6,0.08 -0.44,0.08 -0.96,0.2 -0.52,0.08 -1,0.16 -0.44,0.08 -0.56,0.08 -0.16,0.04 -0.76,0.12 -0.6,0.04 -1.32,0.16 -0.72,0.08 -1.32,0.16 -0.6,0.04 -0.76,0.08 -0.08,0.04 -0.48,0.24 -0.4,0.2 -0.56,0.28 -0.12,0.08 -0.32,0.28 -0.2,0.2 -0.2,0.24 0,0.2 0.2,0.6 0.2,0.36 0.32,0.44 0.12,0.08 0.52,0.2 0.36,0.08 0.76,0.16 0.44,0.08 0.8,0.12 0.36,0.04 0.52,0.04 -0.08,-0.2 -0.08,-0.76 0,-0.6 0.08,-0.8 0.04,-0.08 0.44,-0.24 0.4,-0.2 0.6,-0.28 0.08,0 0.4,-0.08 0.36,-0.08 0.76,-0.16 0.44,-0.08 0.84,-0.16 0.4,-0.08 0.6,-0.12 0.24,-0.04 0.8,-0.12 0.56,-0.08 1.12,-0.16 0.6,-0.08 1.08,-0.16 0.48,-0.08 0.64,-0.08 l 0.8,0 0.76,0 q 0.08,0 0.28,0.08 0.24,0.08 0.48,0.16 0.24,0.08 0.44,0.16 0.24,0.08 0.32,0.12 0.12,0.08 0.36,0.24 0.24,0.12 0.48,0.28 0.28,0.16 0.48,0.32 0.2,0.16 0.24,0.2 0.04,0.08 0.2,0.28 0.16,0.2 0.32,0.44 0.16,0.24 0.28,0.48 0.16,0.24 0.24,0.36 0.04,0.12 0.12,0.36 0.12,0.2 0.2,0.44 0.08,0.24 0.12,0.48 0.08,0.2 0.08,0.28 0,0.04 0,0.36 0.04,0.28 0.04,0.72 0,0.4 0,0.84 0,0.44 0,0.68 0,0.24 0,0.68 0,0.4 0,0.84 0,0.4 -0.04,0.72 0,0.32 0,0.36 0,0.12 -0.08,0.36 -0.04,0.2 -0.12,0.44 -0.08,0.24 -0.2,0.48 -0.08,0.2 -0.12,0.28 -0.08,0.12 -0.36,0.44 -0.28,0.28 -0.64,0.6 -0.32,0.32 -0.64,0.64 -0.28,0.28 -0.44,0.4 -0.04,0.04 -0.32,0.16 -0.24,0.12 -0.56,0.32 -0.32,0.16 -0.68,0.32 -0.32,0.16 -0.48,0.24 -0.12,0.04 -0.36,0.12 -0.2,0.08 -0.48,0.16 -0.24,0.08 -0.48,0.16 -0.2,0.08 -0.24,0.08 -0.04,0 -0.2,0 -0.16,-0.04 -0.36,-0.04 -0.16,0 -0.32,0 -0.12,0 -0.16,0.04 -0.2,0.08 -0.6,0.48 -0.36,0.36 -0.44,0.56 0,0.28 0.08,1.04 0.08,0.72 0.16,1.56 0.08,0.8 0.16,1.56 0.08,0.72 0.12,1 0.04,0.28 0.08,0.84 0.08,0.56 0.16,1.16 0.12,0.56 0.16,1.04 0.08,0.48 0.12,0.6 0,0.08 0.08,0.32 0.08,0.2 0.16,0.48 0.08,0.24 0.16,0.48 0.12,0.24 0.12,0.28 l 0,0.28 0,0.24 q -0.08,0.08 -0.28,0.28 -0.16,0.2 -0.24,0.24 -0.16,0.04 -0.52,0.12 -0.36,0.08 -0.8,0.16 -0.4,0.08 -0.76,0.16 -0.36,0.08 -0.52,0.08 -0.12,0 -0.32,-0.2 -0.2,-0.2 -0.2,-0.32 0,-0.04 0.08,-0.28 0.08,-0.24 0.16,-0.48 0.08,-0.28 0.16,-0.48 0.12,-0.24 0.12,-0.32 l 0,-0.52 0,-0.52 q -0.08,0.08 -0.28,0.28 -0.2,0.16 -0.24,0.24 -0.04,0.04 -0.12,0.2 -0.04,0.16 -0.16,0.36 -0.08,0.16 -0.16,0.32 -0.04,0.12 -0.08,0.16 -0.08,0.08 -0.32,0.32 -0.2,0.2 -0.48,0.48 -0.28,0.24 -0.52,0.48 -0.2,0.2 -0.24,0.28 -0.04,0.04 -0.04,0.24 0,0.16 0,0.24 z m 17.64,-9.48 q 0,0.12 0,0.4 0.04,0.28 0.04,0.28 0.04,0.08 0.28,0.4 0.24,0.32 0.48,0.68 0.28,0.32 0.52,0.64 0.24,0.28 0.28,0.36 0.04,0.08 0.08,0.4 0.08,0.28 0.16,0.64 0.12,0.36 0.16,0.68 0.08,0.28 0.12,0.36 0.04,0.12 0.16,0.44 0.16,0.28 0.32,0.64 0.16,0.32 0.32,0.6 0.16,0.28 0.24,0.4 0.08,-0.08 0.28,-0.48 0.2,-0.4 0.24,-0.56 0,-0.04 0,-0.52 0.04,-0.48 0.04,-0.72 0,-0.28 -0.04,-0.76 0,-0.52 0,-0.6 0,-0.08 -0.08,-0.36 -0.08,-0.32 -0.2,-0.64 -0.08,-0.36 -0.16,-0.68 -0.08,-0.32 -0.08,-0.4 0,-0.08 -0.08,-0.44 -0.08,-0.4 -0.16,-0.84 -0.08,-0.44 -0.16,-0.8 -0.08,-0.4 -0.12,-0.52 -0.08,-0.32 -0.24,-0.96 -0.16,-0.64 -0.32,-1.28 -0.16,-0.68 -0.32,-1.2 -0.12,-0.56 -0.16,-0.68 -0.04,-0.16 -0.24,-0.56 -0.2,-0.4 -0.28,-0.48 -0.04,0.12 -0.12,0.4 -0.08,0.28 -0.16,0.64 -0.08,0.32 -0.16,0.64 -0.08,0.28 -0.08,0.4 0,0.08 0,0.48 0,0.36 0,0.8 0,0.44 0,0.84 0,0.36 0,0.44 0,0.04 -0.08,0.2 -0.08,0.16 -0.16,0.36 -0.08,0.16 -0.2,0.32 -0.08,0.12 -0.08,0.16 0,0.08 -0.04,0.4 0,0.28 0,0.48 z m -18.12,-13.32 q 0.04,0.24 0.08,0.92 0.08,0.64 0.16,1.4 0.12,0.76 0.16,1.44 0.08,0.64 0.12,0.92 l 0,0.52 q 0,0.16 0.08,0.76 0.08,0.6 0.16,1.32 0.12,0.68 0.2,1.32 0.08,0.6 0.08,0.76 0,0.08 0,0.4 0,0.28 0,0.64 0,0.32 0,0.64 0,0.28 0,0.36 0.04,0.16 0.16,0.8 0.16,0.6 0.32,1.32 0.2,0.68 0.36,1.28 0.16,0.6 0.2,0.76 0,0.08 -0.04,0.28 0,0.2 0.04,0.24 0,0.08 0.08,0.32 0.08,0.24 0.16,0.48 0.08,0.24 0.16,0.48 0.08,0.2 0.12,0.28 l 0,-1.56 q 0,-2.76 -0.36,-5.44 -0.36,-2.72 -0.68,-5.44 l 0,-0.52 q 0,-0.12 -0.08,-0.56 -0.08,-0.44 -0.16,-0.92 -0.08,-0.52 -0.16,-0.96 -0.08,-0.48 -0.12,-0.68 l -0.52,-2.6 -0.52,1.04 z m 4.16,6.76 q 0,0.08 0.2,0.48 0.2,0.36 0.32,0.56 0.08,0.08 0.24,0.28 0.2,0.2 0.28,0.24 0,0 0.28,0.04 0.32,0 0.48,0 0.16,0 0.44,0 0.32,-0.04 0.36,-0.04 l 1.04,-0.52 q 0.8,-0.48 1.4,-0.92 0.6,-0.48 1.16,-1.16 0,-0.16 0,-0.56 0.04,-0.44 0.04,-0.88 0.04,-0.44 0.04,-0.84 0,-0.44 0,-0.6 0,-0.28 0,-0.72 0,-0.48 -0.04,-0.92 0,-0.44 -0.04,-0.8 0,-0.36 0,-0.4 0,-0.2 -0.2,-0.76 -0.2,-0.6 -0.32,-0.8 -0.04,-0.08 -0.2,-0.24 -0.12,-0.16 -0.28,-0.32 -0.16,-0.16 -0.32,-0.28 -0.16,-0.16 -0.2,-0.2 -0.04,0.04 -0.04,0.16 0,0.08 0,0.12 0,0.04 0,0.16 0,0.08 0.04,0.08 0,0.08 0.24,0.52 0.24,0.44 0.24,0.52 0.04,0.04 0.04,0.44 0.04,0.4 0.04,0.6 0,0.2 -0.04,0.6 0,0.4 -0.04,0.44 0,0.08 -0.2,0.28 -0.2,0.16 -0.28,0.24 -0.04,0 -0.12,0.04 -0.08,0 -0.16,0 -0.08,0 -0.16,0 -0.08,-0.04 -0.08,-0.04 -0.08,-0.04 -0.32,-0.16 -0.2,-0.16 -0.48,-0.32 -0.24,-0.2 -0.48,-0.36 -0.24,-0.16 -0.28,-0.2 -0.04,0 -0.24,0 -0.2,-0.04 -0.28,-0.04 -0.08,0 -0.32,0.04 -0.2,0 -0.2,0 -0.08,0.04 -0.28,0.24 -0.2,0.2 -0.24,0.28 -0.04,0.08 -0.12,0.4 -0.08,0.28 -0.16,0.6 -0.08,0.32 -0.16,0.64 -0.08,0.32 -0.08,0.44 0,0.08 0,0.32 0,0.2 0,0.48 0,0.24 0,0.48 0,0.24 0,0.28 0,0.08 -0.12,0.4 -0.08,0.28 -0.16,0.64 -0.08,0.32 -0.16,0.64 -0.08,0.32 -0.08,0.4 z"
         style="font-style:normal;font-variant:normal;font-weight:100;font-stretch:normal;font-family:'Depressionist v1.0';-inkscape-font-specification:'Depressionist v1.0 Thin'"
         id="path8086"
         inkscape:connector-curvature="0" />
      <path
         d="m 232.65477,311.76893 q 0,0.2 0,0.56 0,0.36 0.04,0.72 0,0.32 0,0.6 0,0.24 0,0.28 0.04,0.24 0.16,0.84 0.12,0.56 0.28,1.24 0.2,0.64 0.36,1.24 0.16,0.56 0.24,0.8 0.16,0.4 0.52,1.2 0.36,0.76 0.76,1.6 0.44,0.84 0.8,1.52 0.36,0.68 0.52,0.88 0.12,0.2 0.6,0.72 0.48,0.48 1.04,1.08 0.6,0.56 1.16,1.08 0.56,0.52 0.84,0.76 0.04,0.04 0.24,0.12 0.24,0.08 0.52,0.16 0.28,0.08 0.48,0.16 0.24,0.04 0.32,0.08 0.04,0.04 0.24,0.28 0.2,0.2 0.28,0.24 0.04,0 0.16,0 0.16,0 0.32,0 0.2,0 0.36,0 0.16,0 0.2,0 0.04,0 0.28,0.12 0.24,0.08 0.48,0.16 0.24,0.08 0.44,0.16 0.24,0.08 0.32,0.08 0.04,0 0.24,-0.04 0.2,-0.08 0.44,-0.16 0.28,-0.08 0.52,-0.16 0.24,-0.08 0.36,-0.16 0.28,-0.12 0.76,-0.36 0.48,-0.24 0.96,-0.48 0.52,-0.24 0.92,-0.44 0.4,-0.2 0.48,-0.28 0.08,-0.04 0.28,-0.24 0.24,-0.2 0.48,-0.44 0.24,-0.24 0.44,-0.48 0.24,-0.28 0.36,-0.4 0.04,-0.04 0.16,-0.24 0.16,-0.2 0.32,-0.44 0.16,-0.24 0.32,-0.48 0.16,-0.28 0.24,-0.4 0.08,-0.08 0.24,-0.48 0.2,-0.4 0.28,-0.56 0.08,-0.2 0.24,-0.6 0.16,-0.4 0.32,-0.8 0.2,-0.44 0.32,-0.76 0.12,-0.36 0.16,-0.44 l 0,-0.52 q 0,-0.2 0.08,-1.04 0.08,-0.84 0.16,-1.8 0.12,-0.96 0.2,-1.8 0.08,-0.84 0.08,-1.04 0,-0.08 0,-0.4 0,-0.32 0,-0.72 0.04,-0.44 0.04,-0.84 0,-0.4 0,-0.64 0,-0.24 0,-0.56 0,-0.36 -0.04,-0.68 0,-0.32 0,-0.56 0,-0.28 0,-0.28 0,-0.04 -0.16,-0.32 -0.12,-0.28 -0.28,-0.6 -0.16,-0.32 -0.32,-0.64 -0.16,-0.32 -0.28,-0.52 -0.04,-0.08 -0.28,-0.24 -0.2,-0.2 -0.24,-0.28 -0.04,-0.12 -0.2,-0.56 -0.16,-0.44 -0.32,-0.96 -0.16,-0.56 -0.32,-1 -0.16,-0.48 -0.2,-0.6 -0.04,-0.08 -0.28,-0.24 -0.2,-0.2 -0.24,-0.28 -0.04,-0.08 -0.24,-0.52 -0.2,-0.44 -0.28,-0.52 -0.2,-0.24 -0.68,-0.68 -0.44,-0.48 -0.96,-0.96 -0.48,-0.52 -0.92,-0.92 -0.4,-0.44 -0.56,-0.56 -0.08,-0.04 -0.36,-0.16 -0.24,-0.16 -0.6,-0.32 -0.32,-0.16 -0.64,-0.32 -0.32,-0.16 -0.48,-0.24 -0.12,-0.04 -0.44,-0.12 -0.28,-0.08 -0.6,-0.16 -0.32,-0.08 -0.6,-0.16 -0.28,-0.08 -0.4,-0.08 -0.08,0 -0.64,0 -0.52,-0.04 -0.76,-0.04 -0.24,0 -0.72,0.04 -0.44,0 -0.48,0 -0.2,0.04 -0.6,0.2 -0.36,0.12 -0.76,0.28 -0.4,0.16 -0.76,0.32 -0.36,0.16 -0.48,0.24 -0.16,0.12 -0.56,0.48 -0.36,0.36 -0.8,0.76 -0.4,0.4 -0.76,0.8 -0.36,0.4 -0.48,0.56 -0.04,0.08 -0.24,0.48 -0.2,0.36 -0.48,0.88 -0.24,0.48 -0.48,1 -0.24,0.48 -0.36,0.76 -0.04,0.12 -0.12,0.36 -0.08,0.2 -0.16,0.44 -0.08,0.24 -0.16,0.48 -0.08,0.2 -0.08,0.28 -0.04,0.24 -0.12,0.84 -0.08,0.6 -0.16,1.28 -0.08,0.64 -0.16,1.24 -0.08,0.56 -0.08,0.8 0,0.08 0,0.4 0,0.28 0,0.68 -0.04,0.4 -0.04,0.8 0,0.4 0,0.64 z m 4.04,7.32 q 0.2,0 0.84,0.2 0.68,0.2 0.88,0.32 0.04,0.08 0.2,0.4 0.16,0.28 0.32,0.64 0.2,0.36 0.32,0.68 0.16,0.28 0.2,0.36 0.12,0.2 0.4,0.64 0.28,0.44 0.6,0.96 0.32,0.48 0.64,0.92 0.32,0.44 0.44,0.6 -0.08,0.08 -0.28,0.28 -0.16,0.2 -0.24,0.24 -0.04,0 -0.12,0.04 -0.08,0 -0.16,0 -0.04,0 -0.16,0 -0.08,-0.04 -0.08,-0.04 -0.12,-0.04 -0.36,-0.2 -0.24,-0.16 -0.48,-0.32 -0.24,-0.16 -0.48,-0.28 -0.2,-0.16 -0.24,-0.24 -0.08,-0.04 -0.28,-0.32 -0.2,-0.28 -0.44,-0.6 -0.24,-0.32 -0.48,-0.64 -0.24,-0.32 -0.36,-0.52 -0.12,-0.16 -0.32,-0.56 -0.2,-0.4 -0.2,-0.48 0,-0.08 -0.04,-0.36 -0.04,-0.32 -0.08,-0.68 0,-0.36 -0.04,-0.64 0,-0.32 0,-0.4 z m 1.16,-7.84 q 0,-0.32 0,-0.88 0,-0.56 0.04,-0.6 0,-0.04 0.08,-0.2 0.08,-0.16 0.16,-0.32 0.12,-0.16 0.2,-0.32 0.08,-0.16 0.08,-0.2 0,-0.08 -0.2,-0.36 -0.16,-0.32 -0.36,-0.68 -0.16,-0.36 -0.32,-0.64 -0.16,-0.32 -0.16,-0.4 0,0 0.04,-0.24 0.08,-0.28 0.16,-0.6 0.08,-0.32 0.16,-0.68 0.08,-0.36 0.16,-0.56 0.04,-0.12 0.08,-0.32 0.08,-0.24 0.16,-0.48 0.12,-0.24 0.16,-0.44 0.08,-0.24 0.12,-0.32 0.08,-0.16 0.24,-0.56 0.2,-0.4 0.28,-0.48 0.04,-0.04 0.24,-0.24 0.24,-0.2 0.28,-0.28 0.08,-0.12 0.28,-0.4 0.24,-0.28 0.48,-0.6 0.28,-0.36 0.48,-0.64 0.24,-0.32 0.32,-0.44 l -0.52,0 -0.52,0 q -0.32,0.08 -0.92,0.28 -0.56,0.16 -0.64,0.24 -0.12,0.12 -0.28,0.4 -0.16,0.28 -0.32,0.64 -0.16,0.32 -0.32,0.64 -0.12,0.28 -0.12,0.4 l -0.52,0 0,-0.52 -1.04,0.52 q 0.32,-1.12 1.24,-1.84 0.96,-0.72 1.88,-1.28 l 1.04,-0.52 q 0.04,0 0.28,0 0.28,-0.04 0.6,-0.04 0.36,0 0.68,0 0.36,-0.04 0.56,-0.04 0.12,0 0.36,0.04 0.24,0 0.48,0 0.24,0 0.44,0.04 0.2,0 0.24,0 l 0.48,0.52 -1.4,0 q 0,0.08 -0.08,0.28 -0.08,0.16 -0.04,0.24 0.04,0.08 0.24,0.28 0.2,0.16 0.28,0.24 0.08,0.08 0.48,0.28 0.44,0.16 0.52,0.24 0.16,0.12 0.4,0.4 0.28,0.24 0.52,0.48 0.24,0.24 0.44,0.44 0.2,0.2 0.2,0.24 0.04,0.2 0.08,0.64 0.04,0.44 0.04,0.92 0,0.48 -0.04,0.96 -0.04,0.44 -0.08,0.6 0.44,0.16 0.88,0.4 0.44,0.24 0.68,0.64 0.08,0.16 0.28,0.56 0.24,0.4 0.24,0.48 0.04,0.12 0.12,0.56 0.08,0.44 0.16,0.96 0.08,0.48 0.16,0.96 0.08,0.44 0.08,0.64 0,0.08 0,0.32 0,0.2 0,0.48 0,0.24 0,0.48 0,0.24 0,0.28 0.04,0.12 0.24,0.52 0.2,0.4 0.28,0.52 0,0.16 0,0.56 0.04,0.4 0.04,0.84 0,0.44 0,0.88 0,0.4 0,0.56 0,0.28 0,0.76 0,0.48 0,0.92 0,0.44 -0.04,0.8 0,0.32 0,0.36 0,0.04 -0.08,0.32 -0.04,0.24 -0.12,0.6 -0.08,0.32 -0.2,0.64 -0.08,0.32 -0.12,0.52 -0.04,0.12 -0.12,0.36 -0.04,0.2 -0.16,0.44 -0.08,0.24 -0.16,0.48 -0.04,0.2 -0.08,0.28 -0.08,0.2 -0.28,0.6 -0.16,0.4 -0.24,0.44 -0.2,0.2 -0.8,0.6 -0.56,0.4 -0.76,0.44 0,0.04 -0.4,0.04 -0.36,0 -0.56,0 -0.2,0 -0.64,0 -0.4,0 -0.44,-0.04 -0.32,-0.04 -0.92,-0.24 -0.56,-0.2 -0.64,-0.28 -0.16,-0.12 -0.48,-0.56 -0.28,-0.44 -0.64,-0.92 -0.32,-0.52 -0.6,-0.96 -0.28,-0.48 -0.36,-0.68 -0.08,-0.12 -0.28,-0.76 -0.2,-0.64 -0.44,-1.44 -0.24,-0.84 -0.48,-1.64 -0.24,-0.84 -0.36,-1.32 -0.04,-0.16 -0.12,-0.56 -0.08,-0.4 -0.2,-0.8 -0.08,-0.44 -0.16,-0.76 -0.04,-0.36 -0.04,-0.48 -0.04,-0.08 -0.04,-0.68 0,-0.64 0,-0.96 z m 13.52,2.64 q 0.08,0 0.28,0 0.24,0 0.24,0.04 0.12,0.04 0.32,0.24 0.2,0.2 0.2,0.28 0,0.04 0,0.56 0.04,0.48 0.04,0.72 0,0.24 -0.04,0.76 0,0.48 0,0.56 0,0.04 -0.12,0.48 -0.12,0.4 -0.32,1 -0.16,0.56 -0.32,1.16 -0.16,0.6 -0.28,0.96 -0.04,0.16 -0.12,0.44 -0.08,0.24 -0.16,0.52 -0.08,0.24 -0.16,0.44 -0.08,0.16 -0.08,0.16 -0.12,0.12 -0.56,0.28 -0.4,0.16 -0.52,0.16 0,-0.04 0,-0.24 0,-0.24 0,-0.48 0.04,-0.28 0.04,-0.48 0,-0.2 0,-0.28 0,-0.12 0.08,-0.64 0.08,-0.56 0.16,-1.16 0.12,-0.6 0.2,-1.12 0.08,-0.56 0.08,-0.72 0,-0.12 0,-0.56 0,-0.44 0,-0.96 0,-0.56 0,-1 0,-0.44 0,-0.56 0.04,-0.08 0.24,-0.28 0.2,-0.2 0.28,-0.24 0.04,-0.04 0.24,-0.04 0.2,0 0.28,0 z m -17.64,-2.56 q 0,-0.08 0.2,-0.28 0.2,-0.2 0.32,-0.24 0.04,-0.04 0.32,-0.04 0.28,0 0.44,0 0.16,0 0.44,0 0.32,0 0.36,0.04 0.08,0.04 0.28,0.24 0.2,0.2 0.24,0.28 0,0.08 0.08,0.52 0.08,0.44 0.16,1 0.08,0.56 0.16,1.16 0.08,0.6 0.12,0.96 l 0,0.28 0,0.24 q -0.08,0.08 -0.48,0.28 -0.36,0.16 -0.56,0.24 l -0.28,0 -0.24,0 q -0.04,-0.08 -0.24,-0.44 -0.2,-0.4 -0.28,-0.6 -0.04,-0.08 -0.12,-0.28 -0.04,-0.24 -0.16,-0.48 -0.08,-0.24 -0.16,-0.44 -0.04,-0.24 -0.08,-0.36 -0.08,-0.2 -0.16,-0.52 -0.08,-0.36 -0.16,-0.68 -0.08,-0.36 -0.16,-0.6 -0.04,-0.24 -0.04,-0.28 z m 12.44,-10.92 0.52,0 0.52,0 q 0.2,0.08 0.56,0.28 0.4,0.16 0.48,0.24 0.04,0.04 0.16,0.24 0.16,0.2 0.32,0.44 0.16,0.24 0.32,0.52 0.16,0.24 0.24,0.36 0.04,0.12 0.2,0.4 0.16,0.28 0.32,0.64 0.16,0.32 0.28,0.64 0.16,0.28 0.24,0.4 0.12,0.24 0.28,0.64 0.16,0.4 0.32,0.84 0.16,0.4 0.28,0.76 0.16,0.32 0.16,0.36 0,0.04 0,0.36 0.04,0.28 0.04,0.4 0,0.2 -0.04,0.48 0,0.28 0,0.32 -0.04,0.08 -0.24,0.28 -0.2,0.2 -0.28,0.24 0,0 -0.2,0.04 -0.2,0 -0.32,0 -0.08,0 -0.28,0 -0.16,-0.04 -0.24,-0.04 -0.08,-0.28 -0.32,-0.92 -0.2,-0.68 -0.44,-1.44 -0.24,-0.76 -0.48,-1.4 -0.24,-0.68 -0.32,-0.92 -0.04,-0.12 -0.2,-0.48 -0.12,-0.36 -0.28,-0.76 -0.16,-0.4 -0.32,-0.76 -0.16,-0.4 -0.24,-0.6 -0.2,-0.44 -0.4,-0.84 -0.2,-0.4 -0.64,-0.72 z m -11.92,5.72 1.04,0 q -0.04,0.2 -0.24,0.8 -0.2,0.56 -0.28,0.76 -0.04,0.08 -0.24,0.28 -0.2,0.2 -0.28,0.24 l 0,-2.08 z m 1.56,1.56 q 0.2,0 0.28,0.16 0.12,0.16 0.12,0.36 0,0.2 -0.12,0.36 -0.08,0.16 -0.28,0.16 -0.2,0 -0.32,-0.16 -0.08,-0.16 -0.08,-0.36 0,-0.2 0.08,-0.36 0.12,-0.16 0.32,-0.16 z m 0,-1.04 q 0.24,0.08 0.24,0.28 0,0.16 -0.24,0.24 -0.12,0.04 -0.2,-0.04 -0.04,-0.12 -0.04,-0.2 0,-0.12 0.04,-0.2 0.08,-0.12 0.2,-0.08 z m 0,-3.12 q 0.2,0 0.28,0.16 0.12,0.16 0.12,0.36 0,0.2 -0.12,0.36 -0.08,0.16 -0.28,0.16 -0.2,0 -0.32,-0.16 -0.08,-0.16 -0.08,-0.36 0,-0.2 0.08,-0.36 0.12,-0.16 0.32,-0.16 z m 9.84,-4.68 q 0.2,0 0.28,0.16 0.12,0.16 0.12,0.36 0,0.2 -0.12,0.36 -0.08,0.16 -0.28,0.16 -0.2,0 -0.32,-0.16 -0.08,-0.16 -0.08,-0.36 0,-0.2 0.08,-0.36 0.12,-0.16 0.32,-0.16 z"
         style="font-style:normal;font-variant:normal;font-weight:100;font-stretch:normal;font-family:'Depressionist v1.0';-inkscape-font-specification:'Depressionist v1.0 Thin'"
         id="path8088"
         inkscape:connector-curvature="0" />
      <path
         d="m 256.12977,325.60893 q 0,0.08 0,0.2 0.04,0.08 0.04,0.08 0.08,0.2 0.24,0.6 0.2,0.36 0.28,0.44 0.12,0.12 0.52,0.32 0.4,0.2 0.52,0.2 l 7.8,0 q 0.16,0 0.56,-0.2 0.4,-0.2 0.48,-0.32 0.04,-0.04 0.08,-0.36 0.04,-0.36 0.04,-0.52 0,-0.12 -0.04,-0.36 -0.04,-0.28 -0.08,-0.32 l -3.12,-1.56 q 0,0.12 -0.16,0.36 -0.12,0.24 -0.28,0.48 -0.16,0.24 -0.32,0.48 -0.16,0.2 -0.28,0.24 -0.12,0.08 -0.44,0 -0.28,-0.08 -0.64,-0.16 -0.36,-0.12 -0.68,-0.2 -0.28,-0.12 -0.4,-0.12 0,-0.16 0,-0.52 0.04,-0.4 0.04,-0.8 0,-0.4 0,-0.76 0.04,-0.36 0.04,-0.56 0,-0.28 -0.04,-1.16 -0.04,-0.88 -0.12,-2.04 -0.04,-1.16 -0.12,-2.48 -0.04,-1.36 -0.12,-2.52 -0.04,-1.16 -0.08,-2.04 -0.04,-0.88 -0.04,-1.16 l 0,-1.56 q -0.04,-0.64 -0.12,-1.76 -0.08,-1.16 -0.16,-2.32 -0.08,-1.16 -0.16,-2.08 -0.08,-0.92 -0.08,-1.12 0,-0.08 -0.08,-0.36 -0.08,-0.32 -0.2,-0.68 -0.08,-0.36 -0.16,-0.64 -0.08,-0.32 -0.08,-0.4 0,-0.04 -0.04,-0.24 0,-0.24 0,-0.36 0,-0.08 0,-0.24 0.04,-0.2 0.04,-0.2 0.08,-0.08 0.44,-0.28 0.4,-0.2 0.6,-0.24 0.04,0 0.44,0 0.4,-0.04 0.6,-0.04 0.2,0 0.6,0.04 0.4,0 0.44,0 0.12,0.04 0.32,0.24 0.2,0.2 0.2,0.28 0,0.16 -0.2,0.56 -0.2,0.4 -0.32,0.48 l 0,9.88 q 0,0.12 0.2,0.72 0.2,0.6 0.32,0.84 0.04,0.08 0.24,0.28 0.2,0.16 0.28,0.24 0.24,0.12 0.84,0.32 0.6,0.2 0.72,0.2 0.12,0 0.48,-0.12 0.36,-0.16 0.76,-0.32 0.44,-0.16 0.8,-0.32 0.4,-0.2 0.56,-0.28 0.08,-0.04 0.28,-0.24 0.24,-0.24 0.48,-0.48 0.24,-0.28 0.44,-0.48 0.24,-0.24 0.32,-0.36 0.12,-0.16 0.32,-0.56 0.24,-0.44 0.48,-0.92 0.24,-0.52 0.44,-0.96 0.24,-0.48 0.32,-0.68 0.04,-0.04 0.04,-0.2 0,-0.2 0,-0.28 0,-0.08 0,-0.28 0,-0.24 -0.04,-0.28 0,-0.12 -0.08,-0.48 -0.08,-0.4 -0.16,-0.8 -0.08,-0.44 -0.16,-0.8 -0.08,-0.36 -0.12,-0.52 0,-0.04 -0.12,-0.28 -0.08,-0.24 -0.16,-0.48 -0.08,-0.28 -0.16,-0.48 -0.08,-0.24 -0.08,-0.32 0.04,-0.12 0.16,-0.4 0.12,-0.32 0.28,-0.64 0.2,-0.36 0.36,-0.64 0.16,-0.28 0.24,-0.4 0.12,0.04 0.32,0.16 0.24,0.12 0.48,0.32 0.28,0.16 0.48,0.32 0.2,0.16 0.28,0.24 0.04,0.08 0.12,0.28 0.12,0.2 0.2,0.48 0.08,0.24 0.12,0.48 0.08,0.2 0.08,0.32 0,0.04 0,0.36 0.04,0.32 0.04,0.76 0,0.4 0,0.84 0,0.4 0,0.64 0,0.24 0,0.68 0,0.4 0,0.84 0,0.4 -0.04,0.72 0,0.32 0,0.36 0,0.16 -0.2,0.76 -0.2,0.6 -0.32,0.8 -0.04,0.08 -0.24,0.36 -0.2,0.28 -0.44,0.64 -0.24,0.32 -0.52,0.64 -0.24,0.28 -0.36,0.44 -0.04,0.08 -0.28,0.32 -0.24,0.2 -0.52,0.48 -0.24,0.24 -0.48,0.48 -0.24,0.2 -0.28,0.28 0,0 -0.04,0.32 0,0.28 0,0.4 0,0.16 0,0.48 0.04,0.28 0.04,0.36 0,0.04 0.2,0.36 0.2,0.28 0.44,0.72 0.24,0.4 0.48,0.84 0.28,0.4 0.44,0.64 0.04,0.08 0.2,0.32 0.16,0.2 0.32,0.48 0.2,0.24 0.32,0.48 0.16,0.24 0.2,0.28 0.16,0.24 0.4,0.68 0.24,0.4 0.48,0.8 0.28,0.4 0.44,0.76 0.2,0.32 0.24,0.36 0.04,0.08 0.08,0.32 0.08,0.2 0.16,0.48 0.12,0.28 0.16,0.52 0.08,0.2 0.12,0.24 0.04,0.04 0.16,0.2 0.16,0.16 0.32,0.32 0.2,0.16 0.36,0.32 0.16,0.16 0.2,0.2 0.08,0.12 0.28,0.52 0.2,0.4 0.24,0.52 0,0.04 0,0.24 0.04,0.2 0.04,0.32 0,0.08 -0.04,0.28 0,0.2 0,0.2 -0.04,0.08 -0.24,0.28 -0.2,0.2 -0.28,0.24 0,0 -0.2,0.04 -0.2,0 -0.32,0 -0.08,0 -0.28,0 -0.2,-0.04 -0.24,-0.04 -0.04,0 -0.24,-0.2 -0.2,-0.2 -0.28,-0.32 -1.56,-1.96 -2.72,-4.04 -1.16,-2.12 -2.48,-4.28 -0.12,-0.16 -0.4,-0.6 -0.28,-0.48 -0.6,-0.96 -0.32,-0.48 -0.64,-0.92 -0.28,-0.44 -0.4,-0.6 -0.16,-0.04 -0.68,-0.04 -0.48,-0.04 -0.64,-0.04 -0.24,0 -0.76,0.04 -0.48,0 -0.52,0.04 -0.12,0 -0.32,0.2 -0.2,0.2 -0.2,0.32 0,0.2 -0.04,0.72 0,0.52 -0.04,1.08 0,0.56 0,1.08 0,0.52 0,0.72 0,0.36 0,0.96 0,0.6 0,1.2 0.04,0.56 0.04,1 0.04,0.44 0.04,0.48 0,0.12 0.04,0.36 0.08,0.2 0.16,0.44 0.08,0.24 0.16,0.48 0.08,0.2 0.16,0.28 l 0.52,-0.52 0,-7.6 q 0.12,0 0.52,-0.12 0.4,-0.12 0.52,-0.04 0.04,0 0.24,0.2 0.2,0.2 0.28,0.28 0.04,0.08 0.16,0.28 0.16,0.2 0.32,0.48 0.16,0.24 0.32,0.48 0.16,0.2 0.24,0.32 0.04,0.12 0.28,0.52 0.24,0.36 0.48,0.8 0.24,0.44 0.44,0.84 0.24,0.36 0.32,0.44 0.32,0.48 0.96,1.44 0.64,0.96 1.28,1.96 0.68,1 1.24,1.84 0.56,0.8 0.68,1 0.2,0.24 0.56,0.64 0.4,0.4 0.48,0.4 l 4.68,0 q 0.2,0 0.56,-0.4 0.4,-0.4 0.48,-0.64 0.04,-0.08 -0.16,-0.48 -0.2,-0.4 -0.36,-0.56 -0.04,-0.04 -0.28,-0.2 -0.2,-0.16 -0.48,-0.32 -0.28,-0.16 -0.52,-0.32 -0.24,-0.16 -0.28,-0.2 -0.08,-0.04 -0.24,-0.2 -0.16,-0.16 -0.32,-0.32 -0.16,-0.16 -0.32,-0.28 -0.12,-0.16 -0.16,-0.24 -0.16,-0.24 -0.8,-1.16 -0.6,-0.96 -1.36,-2.12 -0.72,-1.16 -1.44,-2.28 -0.72,-1.12 -1.08,-1.72 -0.08,-0.16 -0.28,-0.52 -0.2,-0.4 -0.24,-0.48 0,-0.04 -0.04,-0.32 0,-0.32 0,-0.48 0,-0.08 0,-0.36 0.04,-0.32 0.04,-0.4 0.16,-0.16 0.52,-0.6 0.4,-0.48 0.8,-0.96 0.44,-0.48 0.8,-0.92 0.36,-0.44 0.48,-0.64 0.08,-0.08 0.24,-0.48 0.2,-0.4 0.28,-0.56 0.12,-0.28 0.32,-0.88 0.2,-0.6 0.2,-0.68 0,-0.04 0,-0.28 0.04,-0.24 0.04,-0.56 0,-0.36 0,-0.68 0,-0.36 0,-0.56 0,-0.2 0,-0.52 0,-0.36 0,-0.68 0,-0.32 -0.04,-0.56 0,-0.28 0,-0.32 0,-0.12 -0.08,-0.44 -0.08,-0.32 -0.16,-0.64 -0.08,-0.32 -0.16,-0.6 -0.08,-0.32 -0.12,-0.4 -0.04,-0.04 -0.24,-0.32 -0.16,-0.28 -0.44,-0.6 -0.24,-0.32 -0.48,-0.64 -0.24,-0.32 -0.4,-0.52 -0.08,-0.08 -0.24,-0.24 -0.16,-0.2 -0.32,-0.36 -0.16,-0.16 -0.32,-0.28 -0.12,-0.16 -0.16,-0.16 0,0 -0.28,-0.08 -0.24,-0.08 -0.56,-0.16 -0.32,-0.08 -0.68,-0.16 -0.36,-0.08 -0.56,-0.12 -0.2,-0.04 -0.6,-0.12 -0.4,-0.08 -0.84,-0.16 -0.4,-0.08 -0.72,-0.16 -0.32,-0.08 -0.4,-0.08 l -0.52,0 -0.52,0 q -0.12,0 -0.68,0.12 -0.52,0.08 -1.16,0.16 -0.6,0.08 -1.16,0.16 -0.52,0.08 -0.64,0.08 -0.2,0 -0.88,0 -0.68,0 -1.48,0 -0.8,0 -1.48,0 -0.68,0 -0.84,0 -0.12,0 -0.36,0.08 -0.2,0.08 -0.44,0.16 -0.24,0.08 -0.48,0.16 -0.2,0.08 -0.28,0.12 0,0 -0.04,0.08 0,0.08 0,0.16 0,0.04 0,0.16 0.04,0.12 0.04,0.12 0.08,0.2 0.24,0.6 0.2,0.4 0.28,0.44 0.04,0.04 0.24,0.12 0.24,0.08 0.52,0.16 0.28,0.08 0.48,0.16 0.24,0.04 0.32,0.08 0.08,0.04 0.24,0.24 0.2,0.2 0.28,0.28 l 0.52,1.04 q 0.04,0.76 0.12,2.32 0.08,1.52 0.16,3.48 0.12,1.92 0.24,4.08 0.12,2.12 0.2,4.08 0.12,1.92 0.2,3.48 0.08,1.56 0.12,2.28 l 0,0.32 0,0.2 q -0.08,0.24 -0.28,0.84 -0.16,0.6 -0.24,0.72 -0.04,0.08 -0.24,0.28 -0.2,0.16 -0.28,0.24 -0.08,0.04 -0.32,0.2 -0.2,0.16 -0.48,0.32 -0.24,0.16 -0.48,0.32 -0.24,0.16 -0.28,0.2 -0.08,0.08 -0.28,0.28 -0.2,0.2 -0.24,0.24 0,0 -0.04,0.12 0,0.08 0,0.12 z m 8.72,-25.24 q 0.24,0 0.68,0.04 0.48,0.04 0.52,0.04 0.08,0.04 0.36,0.32 0.28,0.24 0.6,0.6 0.36,0.32 0.64,0.64 0.32,0.32 0.44,0.52 0.04,0.08 0.12,0.28 0.08,0.2 0.16,0.44 0.08,0.24 0.16,0.48 0.08,0.24 0.08,0.36 0.04,0.04 0.04,0.56 0,0.48 0,0.72 0,0.24 0,0.76 0,0.48 -0.04,0.56 0,0.16 -0.08,0.48 -0.08,0.32 -0.16,0.68 -0.08,0.32 -0.16,0.6 -0.08,0.24 -0.12,0.32 -0.04,0.08 -0.24,0.28 -0.16,0.2 -0.4,0.44 -0.24,0.24 -0.52,0.48 -0.24,0.24 -0.36,0.36 -0.12,0.08 -0.56,0.28 -0.4,0.2 -0.48,0.24 -0.08,0 -0.4,0.04 -0.28,0 -0.44,0 -0.16,0 -0.44,0 -0.28,-0.04 -0.28,-0.04 -0.12,-0.04 -0.32,-0.16 -0.16,-0.16 -0.32,-0.32 -0.16,-0.2 -0.28,-0.32 -0.12,-0.16 -0.12,-0.24 l 0,-8.84 q 0,-0.08 0.2,-0.28 0.2,-0.2 0.32,-0.24 0.04,0 0.56,-0.04 0.56,-0.04 0.84,-0.04 z"
         style="font-style:normal;font-variant:normal;font-weight:100;font-stretch:normal;font-family:'Depressionist v1.0';-inkscape-font-specification:'Depressionist v1.0 Thin'"
         id="path8090"
         inkscape:connector-curvature="0" />
      <path
         d="m 295.58852,332.04893 q 0.04,0.08 0.24,0.28 0.2,0.2 0.28,0.24 0.04,0 0.32,0 0.28,0.04 0.44,0.04 0.16,0 0.48,-0.04 0.28,0 0.32,0 0.16,-0.04 0.64,-0.2 0.44,-0.12 0.92,-0.28 0.52,-0.16 0.96,-0.32 0.44,-0.16 0.6,-0.24 l 0,-0.24 0,-0.28 q -0.4,-0.92 -0.96,-1.88 -0.52,-0.96 -1.12,-1.76 l -0.52,-0.52 q -0.04,0.08 -0.16,0.24 -0.16,0.16 -0.32,0.32 -0.16,0.16 -0.32,0.32 -0.16,0.12 -0.24,0.16 -0.12,0.08 -0.48,0.16 -0.4,0.08 -0.48,0.08 0,0.12 -0.04,0.4 -0.04,0.28 -0.04,0.4 0,0.2 -0.08,0.64 -0.08,0.44 -0.16,0.92 -0.08,0.48 -0.16,0.92 -0.08,0.48 -0.12,0.64 z m 4.12,-19.76 q 0,0.36 0,0.96 0,0.56 0,1.16 0.04,0.6 0.04,1.08 0,0.44 0,0.48 0,0.24 0.08,0.8 0.08,0.52 0.16,1.12 0.08,0.56 0.16,1.08 0.08,0.48 0.12,0.64 0.04,0.12 0.24,0.6 0.2,0.48 0.44,1.08 0.24,0.56 0.48,1.12 0.28,0.52 0.4,0.8 0.04,0.12 0.16,0.36 0.16,0.2 0.32,0.44 0.16,0.24 0.32,0.48 0.16,0.2 0.24,0.28 0.16,0.2 0.56,0.6 0.4,0.4 0.8,0.84 0.4,0.4 0.76,0.76 0.36,0.32 0.48,0.4 0.04,0.04 0.28,0.2 0.28,0.12 0.6,0.28 0.32,0.16 0.64,0.32 0.36,0.16 0.56,0.24 0.04,0.04 0.24,0.12 0.24,0.04 0.52,0.16 0.28,0.08 0.48,0.16 0.24,0.04 0.28,0.08 0.08,0.08 0.24,0.52 0.2,0.44 0.28,0.52 0.04,0 0.12,0.04 0.08,0 0.12,0 0.08,0 0.16,0 0.12,-0.04 0.12,-0.04 0.08,-0.04 0.28,-0.24 0.2,-0.24 0.24,-0.28 0.04,0 0.2,0 0.16,0 0.32,0 0.2,0 0.32,0 0.16,0 0.2,0 0.04,0 0.2,-0.08 0.16,-0.08 0.32,-0.16 0.2,-0.12 0.32,-0.2 0.16,-0.08 0.2,-0.08 0.04,0 0.2,0 0.16,0 0.32,0 0.2,0 0.32,0 0.16,0 0.2,0 0.16,-0.04 0.44,-0.16 0.32,-0.16 0.64,-0.32 0.36,-0.16 0.64,-0.32 0.28,-0.16 0.36,-0.24 0.12,-0.08 0.4,-0.32 0.28,-0.28 0.6,-0.6 0.32,-0.36 0.64,-0.68 0.32,-0.32 0.44,-0.48 0.08,-0.08 0.24,-0.44 0.2,-0.4 0.28,-0.6 0.08,-0.24 0.32,-0.8 0.24,-0.6 0.48,-1.24 0.24,-0.68 0.44,-1.28 0.24,-0.6 0.32,-0.84 -0.04,-0.12 -0.24,-0.52 -0.2,-0.4 -0.28,-0.48 -0.08,-0.08 -0.28,-0.28 -0.16,-0.2 -0.24,-0.24 0,-0.04 -0.12,-0.04 -0.08,0 -0.12,0 -0.08,0 -0.16,0 -0.08,0 -0.12,0.04 -0.2,0.04 -0.6,0.24 -0.36,0.2 -0.44,0.28 -0.08,0.08 -0.32,0.36 -0.2,0.28 -0.48,0.64 -0.24,0.36 -0.48,0.68 -0.24,0.28 -0.28,0.36 -0.08,0.08 -0.28,0.28 -0.16,0.2 -0.24,0.24 l -0.52,-0.52 -0.52,0.52 q -0.04,0.08 -0.12,0.32 -0.04,0.2 -0.16,0.48 -0.08,0.28 -0.16,0.52 -0.04,0.2 -0.08,0.24 -0.04,0.12 -0.24,0.32 -0.2,0.2 -0.28,0.2 0,0.04 -0.32,0.04 -0.28,0 -0.44,0 -0.16,0 -0.48,0 -0.28,0 -0.32,-0.04 -0.04,0 -0.2,-0.08 -0.12,-0.08 -0.32,-0.16 -0.16,-0.08 -0.32,-0.16 -0.16,-0.12 -0.2,-0.12 -0.04,0 -0.28,0.04 -0.2,0 -0.48,0 -0.28,0 -0.52,0 -0.24,0 -0.28,-0.04 -0.08,-0.04 -0.48,-0.44 -0.36,-0.4 -0.52,-0.6 -0.04,-0.04 -0.12,-0.16 -0.08,-0.16 -0.16,-0.32 -0.08,-0.2 -0.16,-0.36 -0.08,-0.16 -0.08,-0.2 -0.04,-0.04 -0.28,-0.24 -0.24,-0.2 -0.24,-0.28 -0.08,-0.12 -0.24,-0.4 -0.16,-0.32 -0.36,-0.64 -0.16,-0.32 -0.28,-0.6 -0.12,-0.32 -0.16,-0.4 0,-0.04 -0.08,-0.28 -0.08,-0.28 -0.16,-0.6 -0.08,-0.36 -0.16,-0.68 -0.08,-0.32 -0.12,-0.52 -0.08,-0.24 -0.16,-0.68 -0.08,-0.44 -0.16,-0.84 -0.08,-0.44 -0.16,-0.72 -0.04,-0.32 -0.04,-0.36 0,-0.08 -0.04,-0.56 0,-0.48 -0.04,-1.08 0,-0.64 0,-1.24 0,-0.64 0,-1 0,-0.36 0,-0.88 0,-0.56 0,-1.08 0.04,-0.56 0.04,-0.96 0.04,-0.44 0.04,-0.48 0,-0.04 0.12,-0.44 0.12,-0.4 0.28,-0.88 0.16,-0.48 0.32,-0.96 0.2,-0.52 0.32,-0.84 0.08,-0.2 0.24,-0.56 0.2,-0.4 0.28,-0.48 0.12,-0.12 0.4,-0.4 0.28,-0.32 0.6,-0.64 0.32,-0.36 0.6,-0.64 0.32,-0.28 0.44,-0.4 0.12,-0.08 0.52,-0.28 0.4,-0.2 0.52,-0.24 l 0.76,0 0.8,0 q 0.12,0 0.4,0.08 0.28,0.08 0.6,0.16 0.36,0.08 0.64,0.16 0.32,0.08 0.44,0.12 0.2,0.08 0.56,0.28 0.4,0.16 0.48,0.24 0.04,0.04 0.24,0.44 0.2,0.4 0.28,0.6 0.08,0.2 0.24,0.6 0.16,0.4 0.32,0.84 0.2,0.4 0.32,0.76 0.12,0.32 0.16,0.4 0.04,0.08 0.08,0.36 0.08,0.28 0.16,0.64 0.12,0.32 0.16,0.64 0.08,0.28 0.12,0.44 0,0.04 -0.04,0.28 0,0.2 0.04,0.24 0.08,0.16 0.48,0.56 0.4,0.4 0.56,0.48 0,0 0.08,0.04 0.12,0 0.16,0 0.08,0 0.16,0 0.12,-0.04 0.12,-0.04 0.08,-0.04 0.24,-0.24 0.2,-0.2 0.28,-0.28 0.12,-0.16 0.32,-0.56 0.2,-0.4 0.2,-0.48 0,-0.04 0,-0.48 0.04,-0.44 0.04,-0.72 0,-0.24 -0.04,-0.76 0,-0.56 0,-0.64 -0.04,-0.44 -0.12,-1.28 -0.04,-0.88 -0.16,-1.8 -0.08,-0.92 -0.16,-1.68 -0.04,-0.76 -0.08,-0.96 -0.04,-0.16 -0.24,-0.56 -0.2,-0.4 -0.28,-0.48 0,0 -0.2,0 -0.2,-0.04 -0.28,-0.04 -0.08,0 -0.32,0.04 -0.2,0 -0.24,0 -0.08,0.04 -0.28,0.24 -0.16,0.2 -0.24,0.28 0,0.04 -0.04,0.12 0,0.08 0,0.16 0,0.08 0,0.16 0.04,0.08 0.04,0.08 0.04,0.04 0.2,0.2 0.16,0.16 0.32,0.32 0.2,0.16 0.36,0.32 0.16,0.16 0.16,0.2 0.04,0.08 0.04,0.56 0.04,0.48 0.04,0.76 0,0.16 -0.04,0.64 0,0.48 -0.04,0.64 -0.12,-0.04 -0.52,-0.24 -0.4,-0.2 -0.52,-0.28 -0.04,-0.04 -0.24,-0.24 -0.2,-0.24 -0.28,-0.28 -0.16,-0.12 -0.48,-0.36 -0.28,-0.24 -0.64,-0.48 -0.32,-0.24 -0.6,-0.44 -0.28,-0.2 -0.36,-0.28 -0.16,-0.08 -0.56,-0.28 -0.4,-0.2 -0.48,-0.24 0,0 -0.24,0 -0.2,0 -0.52,0 -0.28,-0.04 -0.6,-0.04 -0.28,0 -0.44,0 -0.2,0 -0.48,0 -0.28,0 -0.6,0.04 -0.28,0 -0.52,0 -0.2,0 -0.24,0 -0.08,0.04 -0.48,0.24 -0.4,0.2 -0.52,0.28 -0.2,0.16 -0.6,0.56 -0.4,0.36 -0.84,0.8 -0.4,0.4 -0.76,0.76 -0.32,0.36 -0.4,0.48 -0.08,0.08 -0.24,0.36 -0.16,0.28 -0.32,0.64 -0.16,0.32 -0.32,0.64 -0.12,0.28 -0.16,0.44 -0.12,0.32 -0.28,0.96 -0.16,0.6 -0.32,1.28 -0.16,0.64 -0.32,1.2 -0.12,0.56 -0.12,0.72 -0.04,0.32 0,1.12 0.04,0.8 0.08,1.72 0.08,0.92 0.12,1.76 0.08,0.8 0.08,1.12 l -2.16,0 q 0,-0.4 -0.04,-1.44 -0.04,-1.04 -0.08,-2.2 -0.04,-1.16 -0.08,-2.2 -0.04,-1.04 0,-1.44 0,-0.08 0.2,-0.68 0.2,-0.6 0.32,-0.88 0.04,-0.08 0.24,-0.48 0.2,-0.4 0.28,-0.56 0.08,-0.12 0.28,-0.48 0.24,-0.36 0.48,-0.76 0.24,-0.44 0.44,-0.8 0.24,-0.4 0.36,-0.56 0.08,-0.16 0.24,-0.4 0.2,-0.28 0.36,-0.52 0.16,-0.24 0.28,-0.44 0.16,-0.2 0.16,-0.2 0.24,-0.2 0.68,-0.52 0.48,-0.32 0.96,-0.64 0.52,-0.36 0.92,-0.6 0.44,-0.28 0.56,-0.32 0,0 0.24,0 0.24,0 0.56,0 0.36,-0.04 0.68,-0.04 0.36,0 0.56,0 0.24,0 0.64,0 0.44,0 0.84,0.04 0.44,0 0.76,0 0.32,0 0.36,0 0.04,0 0.28,0.12 0.24,0.08 0.48,0.16 0.28,0.08 0.48,0.16 0.24,0.08 0.32,0.08 0.04,0.04 0.24,0.04 0.2,0 0.28,0 0.08,0 0.24,0 0.2,0 0.28,-0.04 -0.04,-0.04 -0.2,-0.2 -0.12,-0.16 -0.28,-0.32 -0.16,-0.16 -0.32,-0.28 -0.16,-0.16 -0.24,-0.24 -0.08,-0.08 -0.48,-0.24 -0.4,-0.2 -0.56,-0.28 -0.12,-0.04 -0.44,-0.12 -0.32,-0.08 -0.64,-0.16 -0.32,-0.08 -0.6,-0.16 -0.28,-0.08 -0.4,-0.08 -0.04,0 -0.48,0 -0.44,-0.04 -0.64,-0.04 -0.2,0 -0.56,0.04 -0.36,0 -0.4,0 -0.08,0.04 -0.48,0.24 -0.36,0.16 -0.88,0.44 -0.48,0.24 -0.96,0.48 -0.48,0.24 -0.76,0.4 -1.4,0.8 -2.36,1.84 -0.92,1.04 -1.8,2.32 -0.08,0.08 -0.28,0.48 -0.16,0.4 -0.24,0.56 -0.12,0.24 -0.28,0.64 -0.16,0.4 -0.32,0.84 -0.16,0.4 -0.32,0.76 -0.12,0.32 -0.12,0.36 -0.08,0.2 -0.16,0.6 -0.08,0.36 -0.16,0.76 -0.08,0.4 -0.16,0.76 -0.04,0.36 -0.04,0.48 0,0.04 0,0.48 0,0.44 -0.04,1 0,0.56 0,1.16 0,0.6 0,0.96 z"
         style="font-style:normal;font-variant:normal;font-weight:100;font-stretch:normal;font-family:'Depressionist v1.0';-inkscape-font-specification:'Depressionist v1.0 Thin'"
         id="path8092"
         inkscape:connector-curvature="0" />
      <path
         d="m 320.23289,311.76893 q 0,0.2 0,0.56 0,0.36 0.04,0.72 0,0.32 0,0.6 0,0.24 0,0.28 0.04,0.24 0.16,0.84 0.12,0.56 0.28,1.24 0.2,0.64 0.36,1.24 0.16,0.56 0.24,0.8 0.16,0.4 0.52,1.2 0.36,0.76 0.76,1.6 0.44,0.84 0.8,1.52 0.36,0.68 0.52,0.88 0.12,0.2 0.6,0.72 0.48,0.48 1.04,1.08 0.6,0.56 1.16,1.08 0.56,0.52 0.84,0.76 0.04,0.04 0.24,0.12 0.24,0.08 0.52,0.16 0.28,0.08 0.48,0.16 0.24,0.04 0.32,0.08 0.04,0.04 0.24,0.28 0.2,0.2 0.28,0.24 0.04,0 0.16,0 0.16,0 0.32,0 0.2,0 0.36,0 0.16,0 0.2,0 0.04,0 0.28,0.12 0.24,0.08 0.48,0.16 0.24,0.08 0.44,0.16 0.24,0.08 0.32,0.08 0.04,0 0.24,-0.04 0.2,-0.08 0.44,-0.16 0.28,-0.08 0.52,-0.16 0.24,-0.08 0.36,-0.16 0.28,-0.12 0.76,-0.36 0.48,-0.24 0.96,-0.48 0.52,-0.24 0.92,-0.44 0.4,-0.2 0.48,-0.28 0.08,-0.04 0.28,-0.24 0.24,-0.2 0.48,-0.44 0.24,-0.24 0.44,-0.48 0.24,-0.28 0.36,-0.4 0.04,-0.04 0.16,-0.24 0.16,-0.2 0.32,-0.44 0.16,-0.24 0.32,-0.48 0.16,-0.28 0.24,-0.4 0.08,-0.08 0.24,-0.48 0.2,-0.4 0.28,-0.56 0.08,-0.2 0.24,-0.6 0.16,-0.4 0.32,-0.8 0.2,-0.44 0.32,-0.76 0.12,-0.36 0.16,-0.44 l 0,-0.52 q 0,-0.2 0.08,-1.04 0.08,-0.84 0.16,-1.8 0.12,-0.96 0.2,-1.8 0.08,-0.84 0.08,-1.04 0,-0.08 0,-0.4 0,-0.32 0,-0.72 0.04,-0.44 0.04,-0.84 0,-0.4 0,-0.64 0,-0.24 0,-0.56 0,-0.36 -0.04,-0.68 0,-0.32 0,-0.56 0,-0.28 0,-0.28 0,-0.04 -0.16,-0.32 -0.12,-0.28 -0.28,-0.6 -0.16,-0.32 -0.32,-0.64 -0.16,-0.32 -0.28,-0.52 -0.04,-0.08 -0.28,-0.24 -0.2,-0.2 -0.24,-0.28 -0.04,-0.12 -0.2,-0.56 -0.16,-0.44 -0.32,-0.96 -0.16,-0.56 -0.32,-1 -0.16,-0.48 -0.2,-0.6 -0.04,-0.08 -0.28,-0.24 -0.2,-0.2 -0.24,-0.28 -0.04,-0.08 -0.24,-0.52 -0.2,-0.44 -0.28,-0.52 -0.2,-0.24 -0.68,-0.68 -0.44,-0.48 -0.96,-0.96 -0.48,-0.52 -0.92,-0.92 -0.4,-0.44 -0.56,-0.56 -0.08,-0.04 -0.36,-0.16 -0.24,-0.16 -0.6,-0.32 -0.32,-0.16 -0.64,-0.32 -0.32,-0.16 -0.48,-0.24 -0.12,-0.04 -0.44,-0.12 -0.28,-0.08 -0.6,-0.16 -0.32,-0.08 -0.6,-0.16 -0.28,-0.08 -0.4,-0.08 -0.08,0 -0.64,0 -0.52,-0.04 -0.76,-0.04 -0.24,0 -0.72,0.04 -0.44,0 -0.48,0 -0.2,0.04 -0.6,0.2 -0.36,0.12 -0.76,0.28 -0.4,0.16 -0.76,0.32 -0.36,0.16 -0.48,0.24 -0.16,0.12 -0.56,0.48 -0.36,0.36 -0.8,0.76 -0.4,0.4 -0.76,0.8 -0.36,0.4 -0.48,0.56 -0.04,0.08 -0.24,0.48 -0.2,0.36 -0.48,0.88 -0.24,0.48 -0.48,1 -0.24,0.48 -0.36,0.76 -0.04,0.12 -0.12,0.36 -0.08,0.2 -0.16,0.44 -0.08,0.24 -0.16,0.48 -0.08,0.2 -0.08,0.28 -0.04,0.24 -0.12,0.84 -0.08,0.6 -0.16,1.28 -0.08,0.64 -0.16,1.24 -0.08,0.56 -0.08,0.8 0,0.08 0,0.4 0,0.28 0,0.68 -0.04,0.4 -0.04,0.8 0,0.4 0,0.64 z m 4.04,7.32 q 0.2,0 0.84,0.2 0.68,0.2 0.88,0.32 0.04,0.08 0.2,0.4 0.16,0.28 0.32,0.64 0.2,0.36 0.32,0.68 0.16,0.28 0.2,0.36 0.12,0.2 0.4,0.64 0.28,0.44 0.6,0.96 0.32,0.48 0.64,0.92 0.32,0.44 0.44,0.6 -0.08,0.08 -0.28,0.28 -0.16,0.2 -0.24,0.24 -0.04,0 -0.12,0.04 -0.08,0 -0.16,0 -0.04,0 -0.16,0 -0.08,-0.04 -0.08,-0.04 -0.12,-0.04 -0.36,-0.2 -0.24,-0.16 -0.48,-0.32 -0.24,-0.16 -0.48,-0.28 -0.2,-0.16 -0.24,-0.24 -0.08,-0.04 -0.28,-0.32 -0.2,-0.28 -0.44,-0.6 -0.24,-0.32 -0.48,-0.64 -0.24,-0.32 -0.36,-0.52 -0.12,-0.16 -0.32,-0.56 -0.2,-0.4 -0.2,-0.48 0,-0.08 -0.04,-0.36 -0.04,-0.32 -0.08,-0.68 0,-0.36 -0.04,-0.64 0,-0.32 0,-0.4 z m 1.16,-7.84 q 0,-0.32 0,-0.88 0,-0.56 0.04,-0.6 0,-0.04 0.08,-0.2 0.08,-0.16 0.16,-0.32 0.12,-0.16 0.2,-0.32 0.08,-0.16 0.08,-0.2 0,-0.08 -0.2,-0.36 -0.16,-0.32 -0.36,-0.68 -0.16,-0.36 -0.32,-0.64 -0.16,-0.32 -0.16,-0.4 0,0 0.04,-0.24 0.08,-0.28 0.16,-0.6 0.08,-0.32 0.16,-0.68 0.08,-0.36 0.16,-0.56 0.04,-0.12 0.08,-0.32 0.08,-0.24 0.16,-0.48 0.12,-0.24 0.16,-0.44 0.08,-0.24 0.12,-0.32 0.08,-0.16 0.24,-0.56 0.2,-0.4 0.28,-0.48 0.04,-0.04 0.24,-0.24 0.24,-0.2 0.28,-0.28 0.08,-0.12 0.28,-0.4 0.24,-0.28 0.48,-0.6 0.28,-0.36 0.48,-0.64 0.24,-0.32 0.32,-0.44 l -0.52,0 -0.52,0 q -0.32,0.08 -0.92,0.28 -0.56,0.16 -0.64,0.24 -0.12,0.12 -0.28,0.4 -0.16,0.28 -0.32,0.64 -0.16,0.32 -0.32,0.64 -0.12,0.28 -0.12,0.4 l -0.52,0 0,-0.52 -1.04,0.52 q 0.32,-1.12 1.24,-1.84 0.96,-0.72 1.88,-1.28 l 1.04,-0.52 q 0.04,0 0.28,0 0.28,-0.04 0.6,-0.04 0.36,0 0.68,0 0.36,-0.04 0.56,-0.04 0.12,0 0.36,0.04 0.24,0 0.48,0 0.24,0 0.44,0.04 0.2,0 0.24,0 l 0.48,0.52 -1.4,0 q 0,0.08 -0.08,0.28 -0.08,0.16 -0.04,0.24 0.04,0.08 0.24,0.28 0.2,0.16 0.28,0.24 0.08,0.08 0.48,0.28 0.44,0.16 0.52,0.24 0.16,0.12 0.4,0.4 0.28,0.24 0.52,0.48 0.24,0.24 0.44,0.44 0.2,0.2 0.2,0.24 0.04,0.2 0.08,0.64 0.04,0.44 0.04,0.92 0,0.48 -0.04,0.96 -0.04,0.44 -0.08,0.6 0.44,0.16 0.88,0.4 0.44,0.24 0.68,0.64 0.08,0.16 0.28,0.56 0.24,0.4 0.24,0.48 0.04,0.12 0.12,0.56 0.08,0.44 0.16,0.96 0.08,0.48 0.16,0.96 0.08,0.44 0.08,0.64 0,0.08 0,0.32 0,0.2 0,0.48 0,0.24 0,0.48 0,0.24 0,0.28 0.04,0.12 0.24,0.52 0.2,0.4 0.28,0.52 0,0.16 0,0.56 0.04,0.4 0.04,0.84 0,0.44 0,0.88 0,0.4 0,0.56 0,0.28 0,0.76 0,0.48 0,0.92 0,0.44 -0.04,0.8 0,0.32 0,0.36 0,0.04 -0.08,0.32 -0.04,0.24 -0.12,0.6 -0.08,0.32 -0.2,0.64 -0.08,0.32 -0.12,0.52 -0.04,0.12 -0.12,0.36 -0.04,0.2 -0.16,0.44 -0.08,0.24 -0.16,0.48 -0.04,0.2 -0.08,0.28 -0.08,0.2 -0.28,0.6 -0.16,0.4 -0.24,0.44 -0.2,0.2 -0.8,0.6 -0.56,0.4 -0.76,0.44 0,0.04 -0.4,0.04 -0.36,0 -0.56,0 -0.2,0 -0.64,0 -0.4,0 -0.44,-0.04 -0.32,-0.04 -0.92,-0.24 -0.56,-0.2 -0.64,-0.28 -0.16,-0.12 -0.48,-0.56 -0.28,-0.44 -0.64,-0.92 -0.32,-0.52 -0.6,-0.96 -0.28,-0.48 -0.36,-0.68 -0.08,-0.12 -0.28,-0.76 -0.2,-0.64 -0.44,-1.44 -0.24,-0.84 -0.48,-1.64 -0.24,-0.84 -0.36,-1.32 -0.04,-0.16 -0.12,-0.56 -0.08,-0.4 -0.2,-0.8 -0.08,-0.44 -0.16,-0.76 -0.04,-0.36 -0.04,-0.48 -0.04,-0.08 -0.04,-0.68 0,-0.64 0,-0.96 z m 13.52,2.64 q 0.08,0 0.28,0 0.24,0 0.24,0.04 0.12,0.04 0.32,0.24 0.2,0.2 0.2,0.28 0,0.04 0,0.56 0.04,0.48 0.04,0.72 0,0.24 -0.04,0.76 0,0.48 0,0.56 0,0.04 -0.12,0.48 -0.12,0.4 -0.32,1 -0.16,0.56 -0.32,1.16 -0.16,0.6 -0.28,0.96 -0.04,0.16 -0.12,0.44 -0.08,0.24 -0.16,0.52 -0.08,0.24 -0.16,0.44 -0.08,0.16 -0.08,0.16 -0.12,0.12 -0.56,0.28 -0.4,0.16 -0.52,0.16 0,-0.04 0,-0.24 0,-0.24 0,-0.48 0.04,-0.28 0.04,-0.48 0,-0.2 0,-0.28 0,-0.12 0.08,-0.64 0.08,-0.56 0.16,-1.16 0.12,-0.6 0.2,-1.12 0.08,-0.56 0.08,-0.72 0,-0.12 0,-0.56 0,-0.44 0,-0.96 0,-0.56 0,-1 0,-0.44 0,-0.56 0.04,-0.08 0.24,-0.28 0.2,-0.2 0.28,-0.24 0.04,-0.04 0.24,-0.04 0.2,0 0.28,0 z m -17.64,-2.56 q 0,-0.08 0.2,-0.28 0.2,-0.2 0.32,-0.24 0.04,-0.04 0.32,-0.04 0.28,0 0.44,0 0.16,0 0.44,0 0.32,0 0.36,0.04 0.08,0.04 0.28,0.24 0.2,0.2 0.24,0.28 0,0.08 0.08,0.52 0.08,0.44 0.16,1 0.08,0.56 0.16,1.16 0.08,0.6 0.12,0.96 l 0,0.28 0,0.24 q -0.08,0.08 -0.48,0.28 -0.36,0.16 -0.56,0.24 l -0.28,0 -0.24,0 q -0.04,-0.08 -0.24,-0.44 -0.2,-0.4 -0.28,-0.6 -0.04,-0.08 -0.12,-0.28 -0.04,-0.24 -0.16,-0.48 -0.08,-0.24 -0.16,-0.44 -0.04,-0.24 -0.08,-0.36 -0.08,-0.2 -0.16,-0.52 -0.08,-0.36 -0.16,-0.68 -0.08,-0.36 -0.16,-0.6 -0.04,-0.24 -0.04,-0.28 z m 12.44,-10.92 0.52,0 0.52,0 q 0.2,0.08 0.56,0.28 0.4,0.16 0.48,0.24 0.04,0.04 0.16,0.24 0.16,0.2 0.32,0.44 0.16,0.24 0.32,0.52 0.16,0.24 0.24,0.36 0.04,0.12 0.2,0.4 0.16,0.28 0.32,0.64 0.16,0.32 0.28,0.64 0.16,0.28 0.24,0.4 0.12,0.24 0.28,0.64 0.16,0.4 0.32,0.84 0.16,0.4 0.28,0.76 0.16,0.32 0.16,0.36 0,0.04 0,0.36 0.04,0.28 0.04,0.4 0,0.2 -0.04,0.48 0,0.28 0,0.32 -0.04,0.08 -0.24,0.28 -0.2,0.2 -0.28,0.24 0,0 -0.2,0.04 -0.2,0 -0.32,0 -0.08,0 -0.28,0 -0.16,-0.04 -0.24,-0.04 -0.08,-0.28 -0.32,-0.92 -0.2,-0.68 -0.44,-1.44 -0.24,-0.76 -0.48,-1.4 -0.24,-0.68 -0.32,-0.92 -0.04,-0.12 -0.2,-0.48 -0.12,-0.36 -0.28,-0.76 -0.16,-0.4 -0.32,-0.76 -0.16,-0.4 -0.24,-0.6 -0.2,-0.44 -0.4,-0.84 -0.2,-0.4 -0.64,-0.72 z m -11.92,5.72 1.04,0 q -0.04,0.2 -0.24,0.8 -0.2,0.56 -0.28,0.76 -0.04,0.08 -0.24,0.28 -0.2,0.2 -0.28,0.24 l 0,-2.08 z m 1.56,1.56 q 0.2,0 0.28,0.16 0.12,0.16 0.12,0.36 0,0.2 -0.12,0.36 -0.08,0.16 -0.28,0.16 -0.2,0 -0.32,-0.16 -0.08,-0.16 -0.08,-0.36 0,-0.2 0.08,-0.36 0.12,-0.16 0.32,-0.16 z m 0,-1.04 q 0.24,0.08 0.24,0.28 0,0.16 -0.24,0.24 -0.12,0.04 -0.2,-0.04 -0.04,-0.12 -0.04,-0.2 0,-0.12 0.04,-0.2 0.08,-0.12 0.2,-0.08 z m 0,-3.12 q 0.2,0 0.28,0.16 0.12,0.16 0.12,0.36 0,0.2 -0.12,0.36 -0.08,0.16 -0.28,0.16 -0.2,0 -0.32,-0.16 -0.08,-0.16 -0.08,-0.36 0,-0.2 0.08,-0.36 0.12,-0.16 0.32,-0.16 z m 9.84,-4.68 q 0.2,0 0.28,0.16 0.12,0.16 0.12,0.36 0,0.2 -0.12,0.36 -0.08,0.16 -0.28,0.16 -0.2,0 -0.32,-0.16 -0.08,-0.16 -0.08,-0.36 0,-0.2 0.08,-0.36 0.12,-0.16 0.32,-0.16 z"
         style="font-style:normal;font-variant:normal;font-weight:100;font-stretch:normal;font-family:'Depressionist v1.0';-inkscape-font-specification:'Depressionist v1.0 Thin'"
         id="path8094"
         inkscape:connector-curvature="0" />
      <path
         d="m 345.30789,327.96893 q 0.12,0.12 0.48,0.36 0.4,0.2 0.8,0.44 0.44,0.24 0.8,0.48 0.36,0.2 0.52,0.28 0,0 0.08,0.04 0.12,0 0.2,0 0.08,0 0.16,0 0.08,-0.04 0.08,-0.04 0.04,-0.04 0.08,-0.28 0.08,-0.24 0.16,-0.48 0.08,-0.28 0.16,-0.52 0.08,-0.24 0.12,-0.28 0,0 0.16,0 0.2,-0.04 0.28,-0.04 0.68,0 1,0.32 0.36,0.28 0.92,0.28 0.08,0 0.16,0 0.08,-0.04 0.08,-0.04 0.08,-0.12 0.24,-0.72 0.2,-0.6 0.28,-0.84 0,-0.04 0,-0.36 0.04,-0.32 0.04,-0.48 0,-0.16 -0.04,-0.4 0,-0.28 0,-0.32 -0.04,-0.12 -0.2,-0.36 -0.12,-0.24 -0.28,-0.48 -0.16,-0.24 -0.32,-0.44 -0.16,-0.2 -0.24,-0.28 -0.08,-0.04 -0.52,0.04 -0.44,0.04 -0.52,-0.04 0,0 -0.08,-0.2 -0.08,-0.2 -0.16,-0.44 -0.08,-0.24 -0.16,-0.48 -0.08,-0.28 -0.12,-0.44 -0.04,-0.12 -0.12,-0.4 -0.08,-0.32 -0.16,-0.64 -0.08,-0.36 -0.16,-0.64 -0.08,-0.28 -0.08,-0.4 -0.04,-0.04 -0.04,-0.24 0.04,-0.2 0.04,-0.28 0,-0.24 -0.12,-1.2 -0.08,-1 -0.16,-2.12 -0.08,-1.16 -0.16,-2.16 -0.08,-1 -0.08,-1.24 0,-0.32 0,-1.12 0,-0.84 0.04,-1.76 0.04,-0.92 0.04,-1.72 0.04,-0.8 0.04,-1.12 l 1.04,0 q 0,-0.08 -0.04,-0.24 -0.04,-0.2 -0.08,-0.28 -0.08,-0.08 -0.28,-0.28 -0.16,-0.2 -0.24,-0.24 -0.04,0 -0.12,0 -0.08,-0.04 -0.16,-0.04 -0.04,0 -0.16,0.04 -0.08,0 -0.08,0 -0.2,0.08 -0.52,0.28 -0.28,0.16 -0.28,0.24 l 0,4.16 -1.04,0.52 0,-6.24 -0.76,0.52 q 0,0.44 0,1.36 0.04,0.88 0.04,2 0,1.12 0,2.36 0,1.24 0,2.36 0,1.12 -0.04,2.04 0,0.88 0,1.32 0,0.2 -0.08,0.84 -0.08,0.6 -0.16,1.36 -0.08,0.72 -0.16,1.44 -0.08,0.68 -0.12,1 -0.04,0.2 -0.12,0.56 -0.04,0.32 -0.16,0.64 -0.08,0.32 -0.16,0.6 -0.04,0.24 -0.08,0.28 -0.08,0.08 -0.52,0.28 -0.44,0.16 -0.52,0.24 -0.2,0.16 -0.6,0.56 -0.4,0.4 -0.44,0.48 -0.04,0.04 -0.08,0.36 0,0.28 0,0.44 0,0.16 0,0.44 0.04,0.28 0.08,0.32 0.04,0.12 0.24,0.4 0.24,0.24 0.48,0.48 0.28,0.24 0.48,0.44 0.24,0.2 0.36,0.24 0.2,0.08 0.56,-0.12 0.4,-0.2 0.48,-0.4 z m 4.64,-20 q 0,0.08 0,0.2 0.04,0.08 0.04,0.08 0.04,0.08 0.16,0.36 0.12,0.28 0.28,0.6 0.2,0.32 0.36,0.64 0.16,0.32 0.24,0.48 0.08,0.12 0.36,0.68 0.32,0.52 0.68,1.16 0.36,0.6 0.64,1.16 0.32,0.52 0.4,0.64 0.04,0.08 0.16,0.4 0.16,0.28 0.32,0.64 0.2,0.36 0.36,0.68 0.16,0.28 0.2,0.36 0.04,0.08 0.36,0.6 0.32,0.52 0.72,1.2 0.44,0.64 0.84,1.32 0.4,0.64 0.64,1 0.04,0.08 0.2,0.32 0.16,0.2 0.32,0.48 0.2,0.24 0.32,0.48 0.16,0.24 0.2,0.28 0.08,0.12 0.36,0.68 0.32,0.52 0.68,1.16 0.36,0.6 0.64,1.16 0.32,0.52 0.4,0.64 0.12,0.12 0.32,0.4 0.24,0.24 0.48,0.48 0.24,0.24 0.44,0.44 0.24,0.2 0.32,0.24 0.04,0.04 0.28,0.08 0.28,0 0.44,0 0.16,0 0.48,0 0.32,-0.04 0.36,-0.08 0.08,-0.04 0.28,-0.24 0.2,-0.2 0.24,-0.28 0,0 0,-0.28 0.04,-0.28 0.04,-0.44 0,-0.16 -0.04,-0.48 0,-0.32 0,-0.36 0,-0.04 -0.08,-0.28 -0.08,-0.24 -0.2,-0.48 -0.08,-0.28 -0.16,-0.48 -0.08,-0.24 -0.08,-0.32 -0.04,-0.28 -0.12,-0.88 -0.08,-0.64 -0.2,-1.28 -0.08,-0.68 -0.16,-1.24 -0.04,-0.56 -0.04,-0.76 0,-0.64 -0.04,-1.96 0,-1.36 0,-3.04 0,-1.68 0,-3.56 0,-1.88 0,-3.56 0,-1.68 0,-3 0.04,-1.36 0.04,-2 l -0.76,-1.04 0,4.16 -0.8,0.52 q 0,-0.28 -0.08,-0.92 -0.08,-0.68 -0.16,-1.4 -0.08,-0.76 -0.16,-1.4 -0.08,-0.68 -0.12,-0.96 0,-0.08 -0.12,-0.36 -0.08,-0.32 -0.16,-0.64 -0.08,-0.36 -0.16,-0.68 -0.08,-0.32 -0.08,-0.4 0,-0.16 0.2,-0.56 0.2,-0.4 0.32,-0.48 0.12,-0.04 0.44,0 0.32,0.04 0.64,0.16 0.32,0.08 0.6,0.2 0.32,0.08 0.4,0.16 0.2,0.2 0.2,0.8 0,0.56 -0.2,0.76 0.12,0 0.4,-0.04 0.32,-0.08 0.64,-0.16 0.36,-0.08 0.64,-0.16 0.28,-0.08 0.4,-0.16 0.12,-0.08 0.52,-0.44 0.4,-0.4 0.52,-0.6 0,0 0,-0.08 0.04,-0.12 0.04,-0.16 0,-0.08 -0.04,-0.16 0,-0.08 0,-0.12 -0.12,-0.12 -0.52,-0.32 -0.4,-0.2 -0.52,-0.2 l -6.76,0 q -0.08,0 -0.28,0.2 -0.16,0.2 -0.24,0.32 0,0.04 -0.04,0.24 0,0.2 0,0.28 0,0.52 0.24,0.8 0.24,0.24 0.56,0.4 0.36,0.16 0.72,0.36 0.36,0.16 0.6,0.52 0.04,0.44 0.08,1.4 0.04,0.92 0.08,2.12 0.08,1.16 0.12,2.48 0.08,1.28 0.12,2.48 0.04,1.16 0.08,2.12 0.04,0.92 0.04,1.36 0,0.12 0,0.4 0,0.28 0,0.6 0,0.28 -0.04,0.56 0,0.24 0,0.36 -0.08,0 -0.24,0.12 -0.16,0.08 -0.24,0.04 -0.08,-0.04 -0.24,-0.16 -0.12,-0.16 -0.28,-0.32 -0.16,-0.16 -0.32,-0.32 -0.16,-0.16 -0.2,-0.24 -0.04,-0.04 -0.24,-0.36 -0.2,-0.36 -0.44,-0.76 -0.24,-0.44 -0.52,-0.84 -0.24,-0.4 -0.36,-0.64 0,-0.04 -0.08,-0.2 -0.08,-0.16 -0.16,-0.32 -0.08,-0.2 -0.16,-0.32 -0.08,-0.16 -0.12,-0.2 -0.24,-0.4 -0.72,-1.2 -0.48,-0.8 -1.12,-1.84 -0.6,-1.04 -1.28,-2.16 -0.64,-1.12 -1.28,-2.16 -0.6,-1.04 -1.08,-1.84 -0.48,-0.8 -0.72,-1.2 l -1.56,-1.56 q -0.16,-0.08 -0.56,-0.28 -0.4,-0.2 -0.48,-0.24 -0.04,0 -0.28,0 -0.2,0 -0.52,0 -0.28,-0.04 -0.6,-0.04 -0.28,0 -0.44,0 -0.2,0 -0.48,0 -0.28,0 -0.56,0.04 -0.28,0 -0.52,0 -0.2,0 -0.24,0 -0.12,0.04 -0.56,0.24 -0.4,0.2 -0.48,0.28 0,0.04 -0.04,0.12 0,0.08 0,0.12 0,0.08 0,0.2 0.04,0.08 0.04,0.08 0.08,0.2 0.24,0.6 0.2,0.36 0.28,0.44 0.08,0.08 0.52,0.28 0.44,0.2 0.52,0.24 0.04,0.04 0.2,0.2 0.16,0.16 0.32,0.36 0.16,0.16 0.32,0.32 0.16,0.12 0.2,0.16 0,0.04 0.08,0.04 0.12,0 0.16,0 0.04,0 0.12,0 0.12,0 0.16,-0.04 -0.04,-0.12 -0.24,-0.52 -0.2,-0.4 -0.28,-0.52 -0.08,-0.08 -0.32,-0.28 -0.2,-0.24 -0.44,-0.48 -0.24,-0.28 -0.48,-0.48 -0.24,-0.24 -0.32,-0.32 0.08,-0.08 0.48,-0.28 0.4,-0.2 0.56,-0.24 l 0.76,0 0.8,0 q 0.12,0.04 0.32,0.12 0.24,0.04 0.48,0.16 0.24,0.08 0.44,0.16 0.24,0.04 0.32,0.08 0.16,0.08 0.56,0.48 0.4,0.4 0.48,0.56 0.28,0.52 1,1.8 0.76,1.24 1.56,2.64 0.84,1.4 1.56,2.68 0.76,1.24 1.08,1.72 0.04,0.08 0.16,0.32 0.16,0.2 0.32,0.48 0.2,0.24 0.32,0.48 0.16,0.24 0.2,0.28 0.36,0.6 0.88,1.56 0.56,0.96 1.04,1.88 0.48,0.92 0.84,1.6 0.36,0.64 0.36,0.68 l 0,0.68 q 0.2,0 0.76,-0.04 0.6,-0.08 0.8,-0.12 0.12,-0.04 0.32,-0.24 0.2,-0.2 0.2,-0.28 0,-0.08 0,-0.36 0,-0.32 0,-0.68 0,-0.36 0,-0.64 0,-0.32 0,-0.4 0.04,-0.52 0.12,-1.32 0.08,-0.8 0.16,-1.52 0.08,-0.76 0.16,-1.28 0.08,-0.56 0.08,-0.56 l 0.52,0 0,14.88 q -0.12,0 -0.52,0.12 -0.4,0.12 -0.52,0.04 -0.08,-0.04 -0.28,-0.24 -0.2,-0.2 -0.24,-0.28 -0.32,-0.48 -0.96,-1.52 -0.64,-1.08 -1.48,-2.4 -0.8,-1.36 -1.72,-2.8 -0.88,-1.48 -1.72,-2.8 -0.8,-1.36 -1.44,-2.4 -0.64,-1.08 -0.96,-1.56 -0.08,-0.12 -0.24,-0.36 -0.16,-0.24 -0.32,-0.48 -0.16,-0.24 -0.32,-0.44 -0.12,-0.2 -0.16,-0.28 l -0.52,-0.52 q 0,0.04 -0.04,0.12 0,0.08 0,0.12 z m 7.8,-10.12 q 0.2,0 0.28,0.16 0.12,0.16 0.12,0.36 0,0.2 -0.12,0.36 -0.08,0.16 -0.28,0.16 -0.2,0 -0.32,-0.16 -0.08,-0.16 -0.08,-0.36 0,-0.2 0.08,-0.36 0.12,-0.16 0.32,-0.16 z"
         style="font-style:normal;font-variant:normal;font-weight:100;font-stretch:normal;font-family:'Depressionist v1.0';-inkscape-font-specification:'Depressionist v1.0 Thin'"
         id="path8096"
         inkscape:connector-curvature="0" />
      <path
         d="m 386.57977,328.60893 q 0,0.2 0,0.56 0.04,0.32 0.04,0.32 0,0.04 0.2,0.2 0.2,0.12 0.44,0.28 0.24,0.16 0.48,0.32 0.28,0.16 0.44,0.24 0,0 0.08,0 0.12,0.04 0.16,0.04 0.08,0 0.16,-0.04 0.12,0 0.12,0 0.44,-0.16 0.88,-0.4 0.44,-0.24 0.68,-0.64 0.12,-0.16 0.32,-0.56 0.2,-0.4 0.2,-0.48 0,-0.04 0,-0.64 0.04,-0.6 0.04,-0.92 0,-0.28 -0.04,-0.88 0,-0.6 0,-0.68 -0.04,-0.28 -0.2,-1 -0.12,-0.76 -0.28,-1.6 -0.16,-0.84 -0.32,-1.56 -0.16,-0.72 -0.24,-1.04 -0.04,0 -0.12,0 -0.08,-0.04 -0.12,-0.04 -0.08,0 -0.2,0.04 -0.08,0 -0.08,0 -0.08,0.08 -0.28,0.52 -0.2,0.4 -0.24,0.52 0,0.08 0,0.32 0,0.2 0,0.48 0,0.28 0,0.52 0,0.2 0,0.24 0,0.12 -0.08,0.36 -0.08,0.24 -0.16,0.48 -0.08,0.24 -0.16,0.48 -0.08,0.2 -0.12,0.24 -0.04,0.04 -0.2,0.2 -0.16,0.16 -0.36,0.32 -0.16,0.16 -0.32,0.32 -0.12,0.16 -0.16,0.2 -0.04,0.08 -0.12,0.36 -0.08,0.28 -0.16,0.6 -0.08,0.32 -0.16,0.64 -0.08,0.32 -0.08,0.48 0,0.08 -0.04,0.56 0,0.44 0,0.64 z m -18.2,-1.52 q 0,0.16 0,0.48 0.04,0.32 0.08,0.36 0,0.08 0.2,0.28 0.2,0.16 0.32,0.24 0.12,0.08 0.52,0.28 0.4,0.2 0.52,0.24 l 0.2,0 0.32,0 q 0.2,0 1.04,-0.08 0.84,-0.08 1.8,-0.16 0.96,-0.12 1.8,-0.2 0.84,-0.08 1.08,-0.08 l 0.52,0 q 0.12,-0.04 0.32,-0.08 0.24,-0.08 0.48,-0.16 0.28,-0.12 0.48,-0.16 0.2,-0.08 0.28,-0.12 0.08,-0.04 0.24,-0.24 0.2,-0.2 0.28,-0.28 -0.08,-0.08 -0.32,-0.32 -0.2,-0.24 -0.48,-0.48 -0.24,-0.24 -0.48,-0.44 -0.2,-0.24 -0.28,-0.32 -0.04,-0.04 -0.2,-0.08 -0.16,-0.08 -0.36,-0.16 -0.16,-0.08 -0.32,-0.16 -0.16,-0.08 -0.16,-0.12 -0.08,-0.08 -0.16,-0.28 -0.08,-0.24 -0.16,-0.48 -0.08,-0.24 -0.16,-0.44 -0.04,-0.24 -0.04,-0.36 l 0,-8.8 q 0,-0.12 0.2,-0.32 0.2,-0.2 0.32,-0.2 0,0 0.2,0 0.2,-0.04 0.44,-0.04 0.24,-0.04 0.48,-0.04 0.28,0 0.44,0 0.32,0 0.88,0.04 0.6,0 0.64,0.04 0.08,0 0.28,0.2 0.2,0.2 0.24,0.32 0.04,0.08 0.12,0.48 0.08,0.36 0.16,0.8 0.08,0.44 0.12,0.84 0.08,0.36 0.12,0.48 0.08,0.08 0.24,0.28 0.2,0.2 0.28,0.2 0.16,0.04 0.48,0.08 0.36,0.04 0.72,0.08 0.36,0.04 0.68,0.08 0.36,0 0.52,0 0,-0.16 0,-0.56 0.04,-0.4 0.08,-0.84 0.04,-0.48 0.08,-0.88 0.04,-0.4 0.04,-0.52 0.04,-0.12 0.24,-0.32 0.2,-0.2 0.28,-0.2 l -0.52,-0.52 -0.52,-1.56 q 0,-0.04 0,-0.2 0,-0.16 0,-0.32 0,-0.2 0,-0.32 0,-0.16 0,-0.2 -0.04,-0.24 -0.2,-0.84 -0.12,-0.6 -0.28,-1.24 -0.16,-0.68 -0.32,-1.24 -0.16,-0.6 -0.24,-0.84 -0.08,0 -0.28,0 -0.16,-0.04 -0.24,-0.04 -0.08,0 -0.28,0.04 -0.2,0 -0.24,0 -0.08,0.04 -0.28,0.24 -0.16,0.2 -0.24,0.28 0,0.08 -0.08,0.32 -0.08,0.2 -0.16,0.48 -0.08,0.24 -0.16,0.48 -0.08,0.24 -0.12,0.28 -0.04,0.08 -0.24,0.28 -0.2,0.2 -0.28,0.24 -0.08,0.04 -0.32,0.12 -0.2,0.08 -0.44,0.16 -0.24,0.08 -0.48,0.16 -0.2,0.08 -0.28,0.08 -0.04,0 -0.36,0.04 -0.28,0 -0.44,0 -0.16,0 -0.48,0 -0.28,-0.04 -0.28,-0.04 -0.24,-0.08 -0.64,-0.24 -0.4,-0.2 -0.4,-0.28 l 0,-7.8 q 0,-0.04 0.16,-0.12 0.2,-0.08 0.44,-0.16 0.24,-0.08 0.48,-0.16 0.28,-0.08 0.48,-0.08 0,0 0.2,0 0.24,0 0.52,0 0.32,-0.04 0.6,-0.04 0.28,0 0.48,0 0.16,0 0.44,0 0.32,0 0.6,0.04 0.32,0 0.52,0 0.24,0 0.24,0 0.12,0 0.36,0.08 0.24,0.08 0.48,0.16 0.24,0.08 0.44,0.16 0.2,0.08 0.28,0.12 0.08,0.04 0.24,0.44 0.2,0.4 0.28,0.6 0.08,0.2 0.24,0.64 0.16,0.44 0.32,0.92 0.16,0.48 0.28,0.96 0.16,0.44 0.2,0.6 l 0.28,0 0.24,0 q 0.12,-0.04 0.52,-0.24 0.44,-0.2 0.52,-0.28 0,-0.16 0,-0.52 0.04,-0.36 0.04,-0.76 0,-0.44 0,-0.8 0,-0.36 0,-0.52 0,-0.24 0,-0.64 0,-0.44 0,-0.84 0,-0.44 -0.04,-0.76 0,-0.32 0,-0.36 0,-0.12 -0.08,-0.4 -0.04,-0.28 -0.12,-0.6 -0.08,-0.32 -0.2,-0.64 -0.08,-0.32 -0.12,-0.44 0,-0.04 -0.24,-0.24 -0.2,-0.2 -0.28,-0.28 -0.16,-0.08 -0.56,-0.28 -0.4,-0.2 -0.48,-0.24 -0.04,0 -0.52,0 -0.48,-0.04 -0.72,-0.04 -0.24,0 -0.76,0.04 -0.52,0 -0.6,0 -0.08,0 -0.48,0.12 -0.36,0.08 -0.8,0.16 -0.44,0.08 -0.84,0.16 -0.36,0.08 -0.44,0.08 -0.12,0 -0.6,0 -0.44,0 -1,0 -0.52,0 -0.96,0 -0.44,0 -0.56,0 -0.16,0 -0.8,0.12 -0.6,0.08 -1.32,0.16 -0.68,0.08 -1.28,0.16 -0.6,0.08 -0.76,0.08 -0.2,0 -0.72,0.04 -0.52,0 -1.12,0 -0.56,0 -1.08,0 -0.52,-0.04 -0.72,-0.04 -0.12,0 -0.32,0.2 -0.2,0.2 -0.2,0.32 0,0.16 0.2,0.56 0.2,0.4 0.32,0.48 0.04,0.08 0.36,0.24 0.32,0.12 0.68,0.32 0.36,0.16 0.64,0.32 0.32,0.12 0.4,0.16 0.16,0.08 0.56,0.48 0.4,0.4 0.48,0.56 0.04,0.04 0,0.28 0,0.2 0,0.24 0,0.24 0.04,1 0.04,0.76 0.08,1.8 0.08,1 0.12,2.16 0.08,1.12 0.12,2.16 0.08,1 0.12,1.76 0.04,0.76 0.04,1 0,0.12 0,0.84 0,0.72 0,1.68 0.04,0.96 0.04,1.92 0,0.96 0,1.52 0,0.32 0,1.2 0,0.84 -0.04,1.8 0,0.92 0,1.8 0,0.84 0,1.16 -0.08,0.08 -0.28,0.28 -0.16,0.2 -0.24,0.24 -0.08,0.04 -0.32,0.2 -0.24,0.12 -0.52,0.32 -0.24,0.16 -0.48,0.32 -0.2,0.16 -0.24,0.2 -0.04,0.04 -0.08,0.32 0,0.24 0,0.4 z m 4.24,-10.04 q 0.04,-0.04 0.12,-0.04 0.08,0 0.12,0 0.08,0 0.16,0 0.08,0 0.12,0.04 0.08,0.04 0.24,0.24 0.2,0.2 0.28,0.28 0,0.32 0.04,1.12 0.08,0.8 0.16,1.72 0.08,0.92 0.16,1.72 0.08,0.8 0.16,1.12 0.04,0.2 0.16,0.64 0.12,0.44 0.28,0.96 0.2,0.48 0.36,0.92 0.16,0.44 0.24,0.6 -0.04,0.08 -0.24,0.28 -0.2,0.2 -0.28,0.24 -0.08,0 -0.48,0.08 -0.36,0.08 -0.88,0.16 -0.48,0.08 -1,0.16 -0.48,0.08 -0.76,0.12 -0.08,0 -0.36,0.04 -0.28,0 -0.32,0 0,-0.12 0,-0.4 0.04,-0.32 0.04,-0.64 0.04,-0.36 0.08,-0.64 0.04,-0.32 0.04,-0.44 0,-0.04 0.08,-0.2 0.08,-0.16 0.16,-0.32 0.08,-0.16 0.16,-0.32 0.12,-0.16 0.12,-0.2 0,-0.04 -0.04,-0.24 0,-0.24 0.04,-0.28 0,-0.04 0.08,-0.16 0.08,-0.16 0.16,-0.32 0.12,-0.2 0.2,-0.36 0.08,-0.16 0.08,-0.2 0,-0.08 0,-0.44 0,-0.4 0,-0.84 0,-0.44 0,-0.8 0,-0.4 0,-0.52 0,-0.16 0.08,-0.6 0.08,-0.44 0.16,-0.92 0.08,-0.52 0.16,-0.96 0.08,-0.44 0.12,-0.6 z m 0.48,-3.92 q 0,-0.04 0,-0.12 0.04,-0.12 0.04,-0.12 0.08,-0.2 0.24,-0.56 0.2,-0.4 0.28,-0.48 0,0 0.08,0 0.08,-0.04 0.12,-0.04 0.08,0 0.16,0.04 0.12,0 0.16,0 0.12,0.04 0.32,0.12 0.24,0.04 0.48,0.16 0.28,0.08 0.48,0.16 0.2,0.04 0.28,0.08 0.08,0.04 0.24,0.24 0.2,0.2 0.28,0.28 -0.08,0 -0.32,0.08 -0.24,0.08 -0.48,0.16 -0.24,0.08 -0.48,0.16 -0.2,0.08 -0.28,0.12 -0.04,0 -0.2,0.12 -0.16,0.08 -0.32,0.16 -0.16,0.08 -0.32,0.16 -0.16,0.08 -0.2,0.08 -0.08,0 -0.28,-0.2 -0.16,-0.2 -0.24,-0.32 0,-0.04 -0.04,-0.12 0,-0.08 0,-0.16 z"
         style="font-style:normal;font-variant:normal;font-weight:100;font-stretch:normal;font-family:'Depressionist v1.0';-inkscape-font-specification:'Depressionist v1.0 Thin'"
         id="path8098"
         inkscape:connector-curvature="0" />
      <path
         d="m 387.34977,323.44893 0,8.84 q 0,0.2 0.4,0.56 0.4,0.4 0.64,0.48 0.04,0.04 0.64,0.04 0.6,0.04 0.92,0.04 0.2,0 0.76,-0.04 0.6,0 0.8,-0.04 -0.2,-0.04 -0.64,-0.2 -0.44,-0.12 -0.96,-0.28 -0.48,-0.16 -0.92,-0.32 -0.44,-0.16 -0.6,-0.24 -0.08,-0.04 -0.28,-0.24 -0.2,-0.2 -0.24,-0.28 0.04,-0.2 0.12,-0.72 0.08,-0.52 0.16,-1.08 0.08,-0.6 0.16,-1.12 0.08,-0.52 0.08,-0.72 0,-0.04 0,-0.28 0,-0.24 0,-0.48 0,-0.28 0,-0.48 0,-0.24 0,-0.32 0,-0.04 0.08,-0.16 0.08,-0.16 0.16,-0.32 0.08,-0.2 0.16,-0.36 0.12,-0.16 0.12,-0.2 0,-0.04 0,-0.36 0.04,-0.32 0.04,-0.52 0,-0.12 -0.04,-0.36 0,-0.28 0,-0.32 -0.08,-0.08 -0.32,-0.16 -0.2,-0.12 -0.44,-0.2 -0.24,-0.12 -0.48,-0.16 -0.2,-0.04 -0.32,0 z m 4.6,3.16 q 0,0.04 0,0.16 0,0.08 0.04,0.08 0,0.08 0.2,0.28 0.24,0.16 0.32,0.24 0.12,0.08 0.52,0.32 0.4,0.2 0.48,0.2 0.2,0.04 0.64,0.12 0.44,0.08 0.92,0.16 0.52,0.08 0.96,0.16 0.44,0.08 0.6,0.08 0.04,0 0.28,0.04 0.24,0 0.52,0 0.32,0 0.6,0 0.32,0 0.52,0 0.16,0 0.44,0 0.28,0 0.56,0 0.28,0 0.48,0 0.24,-0.04 0.24,-0.04 0.08,0 0.48,-0.2 0.4,-0.2 0.56,-0.32 0.08,-0.08 0.28,-0.24 0.2,-0.2 0.24,-0.28 0,0 0,-0.08 0.04,-0.12 0.04,-0.16 0,-0.08 -0.04,-0.16 0,-0.08 0,-0.12 -0.04,-0.04 -0.28,-0.28 -0.24,-0.24 -0.52,-0.48 -0.24,-0.28 -0.48,-0.48 -0.24,-0.24 -0.28,-0.32 -0.04,-0.04 -0.12,-0.28 -0.04,-0.28 -0.16,-0.6 -0.08,-0.36 -0.16,-0.68 -0.04,-0.32 -0.08,-0.48 -0.04,-0.32 -0.12,-1.04 -0.08,-0.76 -0.16,-1.6 -0.08,-0.84 -0.16,-1.56 -0.08,-0.72 -0.08,-1 0,-0.04 0,-0.36 0,-0.32 -0.04,-0.72 0,-0.4 0,-0.8 0,-0.44 0,-0.68 0,-0.24 0,-0.68 0,-0.44 0,-0.84 0.04,-0.44 0.04,-0.76 0,-0.32 0,-0.36 0,-0.16 0.08,-0.96 0.08,-0.8 0.16,-1.76 0.08,-1 0.16,-1.96 0.08,-1 0.12,-1.56 0.04,-0.24 0.08,-0.88 0.08,-0.68 0.16,-1.44 0.12,-0.76 0.16,-1.4 0.08,-0.68 0.12,-0.92 0.08,-0.04 0.24,-0.2 0.16,-0.16 0.32,-0.32 0.16,-0.16 0.28,-0.28 0.16,-0.16 0.2,-0.24 0.08,-0.12 0.28,-0.52 0.2,-0.4 0.24,-0.52 0,-0.04 0,-0.24 0.04,-0.24 0.04,-0.36 0,-0.08 -0.04,-0.24 0,-0.2 0,-0.2 -0.08,-0.08 -0.48,-0.28 -0.36,-0.24 -0.56,-0.24 -0.12,0 -0.6,0 -0.44,0 -0.96,0 -0.52,0 -1,0 -0.44,0 -0.56,0 -0.04,0 -0.2,-0.08 -0.16,-0.12 -0.32,-0.2 -0.16,-0.08 -0.32,-0.16 -0.16,-0.08 -0.2,-0.08 -0.04,-0.04 -0.48,-0.04 -0.44,-0.04 -0.64,-0.04 -0.2,0 -0.56,0.04 -0.36,0 -0.4,0.04 -0.08,0.04 -0.28,0.24 -0.2,0.16 -0.44,0.44 -0.24,0.24 -0.48,0.48 -0.24,0.24 -0.36,0.4 l 0,0.24 0,0.28 q 0.04,0.08 0.2,0.32 0.16,0.2 0.32,0.48 0.2,0.24 0.32,0.48 0.16,0.24 0.2,0.28 0.12,0.2 0.32,0.6 0.2,0.36 0.2,0.44 l -0.24,9.84 0,1.56 q 0,0.6 -0.04,1.88 -0.04,1.28 -0.08,2.72 -0.04,1.4 -0.08,2.64 -0.04,1.2 -0.08,1.6 0,0.16 -0.08,0.48 -0.04,0.28 -0.12,0.64 -0.08,0.32 -0.2,0.6 -0.08,0.24 -0.12,0.32 -0.04,0.08 -0.28,0.32 -0.2,0.2 -0.48,0.48 -0.24,0.24 -0.48,0.48 -0.24,0.24 -0.28,0.28 -0.04,0.04 -0.04,0.12 0,0.08 0,0.16 z m 3.64,-0.8 q 0,-0.56 -0.04,-1.76 0,-1.24 0,-2.76 0,-1.56 0,-3.24 0,-1.68 0,-3.2 0,-1.56 0,-2.76 0.04,-1.24 0.04,-1.84 0,-0.32 0.08,-1 0.08,-0.72 0.16,-1.44 0.08,-0.76 0.16,-1.4 0.08,-0.64 0.12,-0.84 0,-0.04 0.12,-0.24 0.16,-0.2 0.32,-0.44 0.16,-0.24 0.32,-0.48 0.16,-0.28 0.28,-0.4 0.12,-0.12 0.52,-0.52 0.4,-0.4 0.52,-0.48 0,0.36 0,1.28 0,0.92 0,1.96 0.04,1 0.04,1.96 0,0.92 0,1.28 0,0.6 0,1.68 0,1.04 -0.04,2.08 0,1 0,1.8 0,0.8 0,0.92 0,0.4 -0.04,1.2 -0.04,0.8 -0.08,1.84 -0.04,1.04 -0.12,2.16 -0.04,1.12 -0.12,2.16 -0.04,1 -0.08,1.84 -0.04,0.8 -0.08,1.16 0,0.12 -0.2,0.32 -0.2,0.2 -0.32,0.2 -0.04,0.04 -0.44,0.08 -0.4,0 -0.6,0 -0.12,0 -0.52,0 -0.4,-0.04 -0.52,-0.08 l 0.52,-1.04 z m -9.28,-5.44 q 0,0.08 0.16,0.28 0.12,0.2 0.28,0.48 0.16,0.24 0.32,0.48 0.16,0.2 0.28,0.32 0,0 0.08,0.04 0.12,0 0.16,0 0.08,0 0.16,0 0.08,-0.04 0.12,-0.04 0.04,-0.04 0.16,-0.2 0.16,-0.16 0.32,-0.32 0.2,-0.2 0.32,-0.36 0.16,-0.16 0.24,-0.16 0.04,-0.04 0.24,-0.04 0.24,0 0.52,0.04 0.28,0 0.48,0 0.24,0 0.32,0 0.08,-0.08 0.28,-0.44 0.2,-0.4 0.24,-0.6 0,-0.04 0,-0.24 0,-0.24 0,-0.52 0.04,-0.28 0.04,-0.52 0,-0.28 0,-0.44 0,-0.32 -0.04,-0.84 0,-0.52 0,-0.56 0,-0.04 -0.2,-0.24 -0.2,-0.2 -0.44,-0.44 -0.24,-0.28 -0.52,-0.52 -0.24,-0.24 -0.4,-0.36 -0.08,-0.04 -0.56,-0.24 -0.44,-0.2 -0.48,-0.28 -0.04,-0.04 -0.04,-0.24 0,-0.24 0,-0.52 0.04,-0.28 0.04,-0.48 0,-0.24 0,-0.32 -0.04,-0.08 -0.28,-0.52 -0.2,-0.44 -0.24,-0.52 0,0 -0.04,-0.12 0,-0.12 0,-0.16 0,-0.08 0,-0.16 0.04,-0.08 0.04,-0.08 0.08,-0.08 0.52,-0.24 0.44,-0.2 0.52,-0.28 0.24,-0.2 0.64,-0.56 0.4,-0.4 0.4,-0.48 l 0,-3.8 q -0.12,0 -0.52,0.08 -0.4,0.04 -0.52,0.08 -0.08,0.04 -0.28,0.24 -0.16,0.2 -0.24,0.28 -0.08,0.12 -0.28,0.52 -0.2,0.4 -0.24,0.52 -0.08,-0.04 -0.28,-0.24 -0.2,-0.2 -0.24,-0.28 -0.04,-0.12 -0.12,-0.52 -0.04,-0.4 -0.04,-0.52 l -0.36,0 0,12.48 q -0.08,0.08 -0.16,0.32 -0.12,0.2 -0.2,0.44 -0.08,0.24 -0.12,0.48 -0.04,0.2 -0.04,0.32 z"
         style="font-style:normal;font-variant:normal;font-weight:100;font-stretch:normal;font-family:'Depressionist v1.0';-inkscape-font-specification:'Depressionist v1.0 Thin'"
         id="path8100"
         inkscape:connector-curvature="0" />
      <path
         d="m 403.70789,325.60893 q 0,0.08 0,0.2 0.04,0.08 0.04,0.08 0.08,0.2 0.24,0.6 0.2,0.36 0.28,0.44 0.12,0.12 0.52,0.32 0.4,0.2 0.52,0.2 l 7.8,0 q 0.16,0 0.56,-0.2 0.4,-0.2 0.48,-0.32 0.04,-0.04 0.08,-0.36 0.04,-0.36 0.04,-0.52 0,-0.12 -0.04,-0.36 -0.04,-0.28 -0.08,-0.32 l -3.12,-1.56 q 0,0.12 -0.16,0.36 -0.12,0.24 -0.28,0.48 -0.16,0.24 -0.32,0.48 -0.16,0.2 -0.28,0.24 -0.12,0.08 -0.44,0 -0.28,-0.08 -0.64,-0.16 -0.36,-0.12 -0.68,-0.2 -0.28,-0.12 -0.4,-0.12 0,-0.16 0,-0.52 0.04,-0.4 0.04,-0.8 0,-0.4 0,-0.76 0.04,-0.36 0.04,-0.56 0,-0.28 -0.04,-1.16 -0.04,-0.88 -0.12,-2.04 -0.04,-1.16 -0.12,-2.48 -0.04,-1.36 -0.12,-2.52 -0.04,-1.16 -0.08,-2.04 -0.04,-0.88 -0.04,-1.16 l 0,-1.56 q -0.04,-0.64 -0.12,-1.76 -0.08,-1.16 -0.16,-2.32 -0.08,-1.16 -0.16,-2.08 -0.08,-0.92 -0.08,-1.12 0,-0.08 -0.08,-0.36 -0.08,-0.32 -0.2,-0.68 -0.08,-0.36 -0.16,-0.64 -0.08,-0.32 -0.08,-0.4 0,-0.04 -0.04,-0.24 0,-0.24 0,-0.36 0,-0.08 0,-0.24 0.04,-0.2 0.04,-0.2 0.08,-0.08 0.44,-0.28 0.4,-0.2 0.6,-0.24 0.04,0 0.44,0 0.4,-0.04 0.6,-0.04 0.2,0 0.6,0.04 0.4,0 0.44,0 0.12,0.04 0.32,0.24 0.2,0.2 0.2,0.28 0,0.16 -0.2,0.56 -0.2,0.4 -0.32,0.48 l 0,9.88 q 0,0.12 0.2,0.72 0.2,0.6 0.32,0.84 0.04,0.08 0.24,0.28 0.2,0.16 0.28,0.24 0.24,0.12 0.84,0.32 0.6,0.2 0.72,0.2 0.12,0 0.48,-0.12 0.36,-0.16 0.76,-0.32 0.44,-0.16 0.8,-0.32 0.4,-0.2 0.56,-0.28 0.08,-0.04 0.28,-0.24 0.24,-0.24 0.48,-0.48 0.24,-0.28 0.44,-0.48 0.24,-0.24 0.32,-0.36 0.12,-0.16 0.32,-0.56 0.24,-0.44 0.48,-0.92 0.24,-0.52 0.44,-0.96 0.24,-0.48 0.32,-0.68 0.04,-0.04 0.04,-0.2 0,-0.2 0,-0.28 0,-0.08 0,-0.28 0,-0.24 -0.04,-0.28 0,-0.12 -0.08,-0.48 -0.08,-0.4 -0.16,-0.8 -0.08,-0.44 -0.16,-0.8 -0.08,-0.36 -0.12,-0.52 0,-0.04 -0.12,-0.28 -0.08,-0.24 -0.16,-0.48 -0.08,-0.28 -0.16,-0.48 -0.08,-0.24 -0.08,-0.32 0.04,-0.12 0.16,-0.4 0.12,-0.32 0.28,-0.64 0.2,-0.36 0.36,-0.64 0.16,-0.28 0.24,-0.4 0.12,0.04 0.32,0.16 0.24,0.12 0.48,0.32 0.28,0.16 0.48,0.32 0.2,0.16 0.28,0.24 0.04,0.08 0.12,0.28 0.12,0.2 0.2,0.48 0.08,0.24 0.12,0.48 0.08,0.2 0.08,0.32 0,0.04 0,0.36 0.04,0.32 0.04,0.76 0,0.4 0,0.84 0,0.4 0,0.64 0,0.24 0,0.68 0,0.4 0,0.84 0,0.4 -0.04,0.72 0,0.32 0,0.36 0,0.16 -0.2,0.76 -0.2,0.6 -0.32,0.8 -0.04,0.08 -0.24,0.36 -0.2,0.28 -0.44,0.64 -0.24,0.32 -0.52,0.64 -0.24,0.28 -0.36,0.44 -0.04,0.08 -0.28,0.32 -0.24,0.2 -0.52,0.48 -0.24,0.24 -0.48,0.48 -0.24,0.2 -0.28,0.28 0,0 -0.04,0.32 0,0.28 0,0.4 0,0.16 0,0.48 0.04,0.28 0.04,0.36 0,0.04 0.2,0.36 0.2,0.28 0.44,0.72 0.24,0.4 0.48,0.84 0.28,0.4 0.44,0.64 0.04,0.08 0.2,0.32 0.16,0.2 0.32,0.48 0.2,0.24 0.32,0.48 0.16,0.24 0.2,0.28 0.16,0.24 0.4,0.68 0.24,0.4 0.48,0.8 0.28,0.4 0.44,0.76 0.2,0.32 0.24,0.36 0.04,0.08 0.08,0.32 0.08,0.2 0.16,0.48 0.12,0.28 0.16,0.52 0.08,0.2 0.12,0.24 0.04,0.04 0.16,0.2 0.16,0.16 0.32,0.32 0.2,0.16 0.36,0.32 0.16,0.16 0.2,0.2 0.08,0.12 0.28,0.52 0.2,0.4 0.24,0.52 0,0.04 0,0.24 0.04,0.2 0.04,0.32 0,0.08 -0.04,0.28 0,0.2 0,0.2 -0.04,0.08 -0.24,0.28 -0.2,0.2 -0.28,0.24 0,0 -0.2,0.04 -0.2,0 -0.32,0 -0.08,0 -0.28,0 -0.2,-0.04 -0.24,-0.04 -0.04,0 -0.24,-0.2 -0.2,-0.2 -0.28,-0.32 -1.56,-1.96 -2.72,-4.04 -1.16,-2.12 -2.48,-4.28 -0.12,-0.16 -0.4,-0.6 -0.28,-0.48 -0.6,-0.96 -0.32,-0.48 -0.64,-0.92 -0.28,-0.44 -0.4,-0.6 -0.16,-0.04 -0.68,-0.04 -0.48,-0.04 -0.64,-0.04 -0.24,0 -0.76,0.04 -0.48,0 -0.52,0.04 -0.12,0 -0.32,0.2 -0.2,0.2 -0.2,0.32 0,0.2 -0.04,0.72 0,0.52 -0.04,1.08 0,0.56 0,1.08 0,0.52 0,0.72 0,0.36 0,0.96 0,0.6 0,1.2 0.04,0.56 0.04,1 0.04,0.44 0.04,0.48 0,0.12 0.04,0.36 0.08,0.2 0.16,0.44 0.08,0.24 0.16,0.48 0.08,0.2 0.16,0.28 l 0.52,-0.52 0,-7.6 q 0.12,0 0.52,-0.12 0.4,-0.12 0.52,-0.04 0.04,0 0.24,0.2 0.2,0.2 0.28,0.28 0.04,0.08 0.16,0.28 0.16,0.2 0.32,0.48 0.16,0.24 0.32,0.48 0.16,0.2 0.24,0.32 0.04,0.12 0.28,0.52 0.24,0.36 0.48,0.8 0.24,0.44 0.44,0.84 0.24,0.36 0.32,0.44 0.32,0.48 0.96,1.44 0.64,0.96 1.28,1.96 0.68,1 1.24,1.84 0.56,0.8 0.68,1 0.2,0.24 0.56,0.64 0.4,0.4 0.48,0.4 l 4.68,0 q 0.2,0 0.56,-0.4 0.4,-0.4 0.48,-0.64 0.04,-0.08 -0.16,-0.48 -0.2,-0.4 -0.36,-0.56 -0.04,-0.04 -0.28,-0.2 -0.2,-0.16 -0.48,-0.32 -0.28,-0.16 -0.52,-0.32 -0.24,-0.16 -0.28,-0.2 -0.08,-0.04 -0.24,-0.2 -0.16,-0.16 -0.32,-0.32 -0.16,-0.16 -0.32,-0.28 -0.12,-0.16 -0.16,-0.24 -0.16,-0.24 -0.8,-1.16 -0.6,-0.96 -1.36,-2.12 -0.72,-1.16 -1.44,-2.28 -0.72,-1.12 -1.08,-1.72 -0.08,-0.16 -0.28,-0.52 -0.2,-0.4 -0.24,-0.48 0,-0.04 -0.04,-0.32 0,-0.32 0,-0.48 0,-0.08 0,-0.36 0.04,-0.32 0.04,-0.4 0.16,-0.16 0.52,-0.6 0.4,-0.48 0.8,-0.96 0.44,-0.48 0.8,-0.92 0.36,-0.44 0.48,-0.64 0.08,-0.08 0.24,-0.48 0.2,-0.4 0.28,-0.56 0.12,-0.28 0.32,-0.88 0.2,-0.6 0.2,-0.68 0,-0.04 0,-0.28 0.04,-0.24 0.04,-0.56 0,-0.36 0,-0.68 0,-0.36 0,-0.56 0,-0.2 0,-0.52 0,-0.36 0,-0.68 0,-0.32 -0.04,-0.56 0,-0.28 0,-0.32 0,-0.12 -0.08,-0.44 -0.08,-0.32 -0.16,-0.64 -0.08,-0.32 -0.16,-0.6 -0.08,-0.32 -0.12,-0.4 -0.04,-0.04 -0.24,-0.32 -0.16,-0.28 -0.44,-0.6 -0.24,-0.32 -0.48,-0.64 -0.24,-0.32 -0.4,-0.52 -0.08,-0.08 -0.24,-0.24 -0.16,-0.2 -0.32,-0.36 -0.16,-0.16 -0.32,-0.28 -0.12,-0.16 -0.16,-0.16 0,0 -0.28,-0.08 -0.24,-0.08 -0.56,-0.16 -0.32,-0.08 -0.68,-0.16 -0.36,-0.08 -0.56,-0.12 -0.2,-0.04 -0.6,-0.12 -0.4,-0.08 -0.84,-0.16 -0.4,-0.08 -0.72,-0.16 -0.32,-0.08 -0.4,-0.08 l -0.52,0 -0.52,0 q -0.12,0 -0.68,0.12 -0.52,0.08 -1.16,0.16 -0.6,0.08 -1.16,0.16 -0.52,0.08 -0.64,0.08 -0.2,0 -0.88,0 -0.68,0 -1.48,0 -0.8,0 -1.48,0 -0.68,0 -0.84,0 -0.12,0 -0.36,0.08 -0.2,0.08 -0.44,0.16 -0.24,0.08 -0.48,0.16 -0.2,0.08 -0.28,0.12 0,0 -0.04,0.08 0,0.08 0,0.16 0,0.04 0,0.16 0.04,0.12 0.04,0.12 0.08,0.2 0.24,0.6 0.2,0.4 0.28,0.44 0.04,0.04 0.24,0.12 0.24,0.08 0.52,0.16 0.28,0.08 0.48,0.16 0.24,0.04 0.32,0.08 0.08,0.04 0.24,0.24 0.2,0.2 0.28,0.28 l 0.52,1.04 q 0.04,0.76 0.12,2.32 0.08,1.52 0.16,3.48 0.12,1.92 0.24,4.08 0.12,2.12 0.2,4.08 0.12,1.92 0.2,3.48 0.08,1.56 0.12,2.28 l 0,0.32 0,0.2 q -0.08,0.24 -0.28,0.84 -0.16,0.6 -0.24,0.72 -0.04,0.08 -0.24,0.28 -0.2,0.16 -0.28,0.24 -0.08,0.04 -0.32,0.2 -0.2,0.16 -0.48,0.32 -0.24,0.16 -0.48,0.32 -0.24,0.16 -0.28,0.2 -0.08,0.08 -0.28,0.28 -0.2,0.2 -0.24,0.24 0,0 -0.04,0.12 0,0.08 0,0.12 z m 8.72,-25.24 q 0.24,0 0.68,0.04 0.48,0.04 0.52,0.04 0.08,0.04 0.36,0.32 0.28,0.24 0.6,0.6 0.36,0.32 0.64,0.64 0.32,0.32 0.44,0.52 0.04,0.08 0.12,0.28 0.08,0.2 0.16,0.44 0.08,0.24 0.16,0.48 0.08,0.24 0.08,0.36 0.04,0.04 0.04,0.56 0,0.48 0,0.72 0,0.24 0,0.76 0,0.48 -0.04,0.56 0,0.16 -0.08,0.48 -0.08,0.32 -0.16,0.68 -0.08,0.32 -0.16,0.6 -0.08,0.24 -0.12,0.32 -0.04,0.08 -0.24,0.28 -0.16,0.2 -0.4,0.44 -0.24,0.24 -0.52,0.48 -0.24,0.24 -0.36,0.36 -0.12,0.08 -0.56,0.28 -0.4,0.2 -0.48,0.24 -0.08,0 -0.4,0.04 -0.28,0 -0.44,0 -0.16,0 -0.44,0 -0.28,-0.04 -0.28,-0.04 -0.12,-0.04 -0.32,-0.16 -0.16,-0.16 -0.32,-0.32 -0.16,-0.2 -0.28,-0.32 -0.12,-0.16 -0.12,-0.24 l 0,-8.84 q 0,-0.08 0.2,-0.28 0.2,-0.2 0.32,-0.24 0.04,0 0.56,-0.04 0.56,-0.04 0.84,-0.04 z"
         style="font-style:normal;font-variant:normal;font-weight:100;font-stretch:normal;font-family:'Depressionist v1.0';-inkscape-font-specification:'Depressionist v1.0 Thin'"
         id="path8102"
         inkscape:connector-curvature="0" />
      <path
         d="m 429.20664,326.08893 q 0,0.08 0,0.28 0.04,0.2 0.08,0.2 0.04,0.04 0.24,0.12 0.2,0.08 0.44,0.16 0.24,0.08 0.48,0.16 0.28,0.08 0.4,0.08 0.04,0 0.28,0 0.24,0 0.56,0.04 0.36,0 0.68,0 0.36,0 0.56,0 0.12,0 0.4,0 0.32,0 0.64,0 0.32,-0.04 0.6,-0.04 0.32,0 0.44,0 0.08,-0.04 0.28,-0.24 0.2,-0.2 0.24,-0.28 0,-0.04 0,-0.36 0.04,-0.32 0.04,-0.48 0,-0.16 -0.04,-0.4 0,-0.28 0,-0.32 -0.08,-0.08 -0.52,-0.24 -0.44,-0.2 -0.52,-0.28 -0.08,-0.08 -0.28,-0.24 -0.2,-0.2 -0.24,-0.28 -0.12,-0.2 -0.32,-0.8 -0.2,-0.6 -0.2,-0.76 -0.04,-0.28 -0.12,-1.24 -0.08,-1 -0.16,-2.16 -0.08,-1.16 -0.16,-2.24 -0.08,-1.12 -0.08,-1.64 0,-0.04 0,-0.28 0,-0.24 -0.04,-0.56 0,-0.36 0,-0.68 0,-0.32 0,-0.52 0,-0.12 0,-0.4 0,-0.32 0,-0.64 0.04,-0.36 0.04,-0.64 0,-0.28 0,-0.4 0.04,0.12 0.2,0.4 0.16,0.28 0.32,0.64 0.2,0.32 0.32,0.64 0.16,0.28 0.2,0.4 0.08,0.24 0.36,1.16 0.32,0.88 0.64,1.96 0.36,1.04 0.68,1.96 0.32,0.88 0.4,1.12 0,0.04 0.08,0.2 0.08,0.16 0.16,0.36 0.08,0.16 0.16,0.32 0.08,0.12 0.12,0.16 0.04,0.12 0.16,0.52 0.16,0.36 0.32,0.8 0.2,0.44 0.36,0.84 0.16,0.36 0.2,0.44 0.08,0.2 0.28,0.64 0.24,0.44 0.48,0.96 0.24,0.48 0.44,0.92 0.24,0.44 0.36,0.6 0,0 0.08,0.04 0.12,0 0.16,0 0.08,0 0.16,0 0.08,-0.04 0.12,-0.04 0.08,-0.04 0.24,-0.24 0.2,-0.2 0.24,-0.28 0.08,-0.24 0.24,-0.88 0.16,-0.68 0.32,-1.44 0.16,-0.76 0.28,-1.4 0.16,-0.68 0.2,-0.96 0.04,-0.2 0.12,-0.6 0.08,-0.4 0.16,-0.8 0.08,-0.44 0.16,-0.76 0.08,-0.36 0.08,-0.44 0.04,-0.04 0,-0.24 0,-0.2 0,-0.28 0.16,-0.76 0.4,-1.88 0.28,-1.16 0.52,-2.24 0.28,-1.08 0.44,-1.84 0.2,-0.76 0.2,-0.76 l 1.04,0 q 0.04,0.36 0.12,1.24 0.08,0.88 0.16,1.88 0.08,0.96 0.16,1.84 0.08,0.88 0.08,1.24 0,0.08 0,0.48 0.04,0.36 0.04,0.88 0,0.48 0,1 0,0.48 0,0.76 0,0.2 0,0.64 0,0.44 0,0.92 0,0.48 -0.04,0.96 0,0.44 0,0.6 -0.08,0.04 -0.24,0.2 -0.12,0.12 -0.28,0.32 -0.16,0.16 -0.32,0.32 -0.16,0.16 -0.2,0.2 -0.12,0.16 -0.32,0.56 -0.2,0.4 -0.2,0.48 0,0.12 0.2,0.32 0.2,0.2 0.32,0.2 l 7.28,0 q 0.08,0 0.28,-0.2 0.2,-0.2 0.24,-0.32 0,-0.04 0,-0.24 0.04,-0.24 0.04,-0.32 0,-0.12 -0.04,-0.28 0,-0.2 0,-0.2 -0.08,-0.08 -0.4,-0.24 -0.28,-0.2 -0.6,-0.36 -0.32,-0.16 -0.64,-0.28 -0.32,-0.16 -0.44,-0.16 0,0.04 -0.04,0.16 0,0.08 0,0.12 0,0.04 0,0.16 0.04,0.08 0.04,0.08 0.08,0.16 0.48,0.56 0.4,0.4 0.56,0.48 l -5.2,0.52 -1.04,-0.52 q 0.44,-0.28 0.64,-0.68 0.24,-0.44 0.4,-0.88 0.12,-0.32 0.32,-0.88 0.2,-0.6 0.2,-0.68 l 0,-8.28 q 0.16,0 0.56,0.2 0.4,0.2 0.48,0.32 0.04,0.04 0.08,0.24 0.08,0.2 0.16,0.44 0.12,0.24 0.16,0.48 0.08,0.24 0.12,0.36 0.04,0.12 0.12,0.68 0.08,0.52 0.16,1.16 0.08,0.6 0.16,1.16 0.08,0.52 0.08,0.64 0.04,0.16 0.08,0.52 0.08,0.36 0.16,0.8 0.12,0.4 0.16,0.8 0.08,0.36 0.12,0.48 l 0,-11.92 -0.52,-1.04 0,-9.36 q 0.12,-0.04 0.32,-0.24 0.24,-0.24 0.48,-0.48 0.28,-0.28 0.48,-0.48 0.2,-0.24 0.28,-0.36 0.04,0 0.04,-0.2 0.04,-0.2 0.04,-0.32 0,-0.08 -0.04,-0.28 0,-0.2 -0.04,-0.24 -0.12,-0.24 -0.52,-0.64 -0.4,-0.4 -0.52,-0.4 l -4.16,0 q -0.04,0 -0.24,0.2 -0.2,0.2 -0.28,0.32 -0.08,0.12 -0.28,0.56 -0.2,0.4 -0.24,0.48 -0.04,0.16 -0.2,0.76 -0.16,0.6 -0.32,1.32 -0.16,0.72 -0.32,1.32 -0.16,0.6 -0.2,0.76 -0.04,0.12 -0.2,0.6 -0.16,0.44 -0.36,0.96 -0.16,0.52 -0.32,1 -0.12,0.44 -0.16,0.56 0,0.04 0,0.2 0,0.12 0,0.32 0,0.16 0,0.32 0,0.16 0,0.2 0,0.08 -0.2,0.28 -0.2,0.16 -0.32,0.24 -0.04,0.04 -0.32,0.08 -0.24,0.04 -0.32,0.04 0,0.08 0.04,0.2 0.08,0.12 0.08,0.2 0.04,0.04 0.28,0.24 0.24,0.2 0.24,0.28 0.04,0.04 0.04,0.6 0,0.52 0,0.84 0,0.16 0,0.44 0,0.24 0,0.52 0,0.24 -0.04,0.48 0,0.2 0,0.24 0,0.2 -0.08,0.68 -0.08,0.44 -0.16,0.96 -0.08,0.48 -0.16,0.92 -0.08,0.4 -0.12,0.56 0,0.08 -0.2,0.28 -0.2,0.16 -0.28,0.24 l -0.28,0 -0.24,0 q -0.08,-0.04 -0.28,-0.24 -0.2,-0.2 -0.24,-0.28 -0.08,-0.12 -0.28,-0.52 -0.2,-0.4 -0.24,-0.52 -0.12,-0.32 -0.6,-1.52 -0.44,-1.24 -0.96,-2.64 -0.52,-1.44 -1,-2.64 -0.44,-1.2 -0.56,-1.52 l -0.52,-1.04 0,1.04 q 0,0.08 0.28,1.08 0.32,1 0.72,2.32 0.4,1.32 0.84,2.72 0.44,1.36 0.76,2.2 0.04,0.2 0.24,0.72 0.24,0.48 0.48,1.08 0.24,0.56 0.48,1.08 0.24,0.52 0.36,0.72 0.04,0.12 0.24,0.32 0.2,0.2 0.28,0.2 0,0.04 0.2,0.04 0.2,0 0.32,0 0.08,0 0.28,0 0.2,0 0.2,-0.04 0.08,-0.04 0.28,-0.24 0.2,-0.2 0.24,-0.28 0.04,0.16 0.04,0.68 0,0.48 0,0.64 0,1.8 -0.36,3.56 -0.32,1.72 -0.68,3.44 -0.04,0.04 -0.16,0.08 -0.08,0 -0.12,0 -0.08,0 -0.16,0 -0.08,-0.04 -0.08,-0.08 -0.08,-0.08 -0.28,-0.44 -0.16,-0.4 -0.24,-0.6 -0.12,-0.24 -0.4,-1.04 -0.28,-0.8 -0.64,-1.84 -0.36,-1.08 -0.8,-2.28 -0.4,-1.24 -0.8,-2.28 -0.36,-1.08 -0.64,-1.88 -0.28,-0.8 -0.36,-1.04 -0.08,-0.12 -0.28,-0.56 -0.2,-0.44 -0.44,-0.92 -0.24,-0.52 -0.48,-0.96 -0.24,-0.48 -0.36,-0.68 -0.08,-0.12 -0.28,-0.32 -0.16,-0.2 -0.24,-0.2 -0.08,0 -0.32,0 -0.2,0 -0.48,0 -0.24,0 -0.48,0 -0.24,0 -0.28,0 -0.08,-0.04 -0.28,-0.24 -0.16,-0.2 -0.24,-0.28 -0.04,-0.04 -0.04,-0.24 0.04,-0.24 0.04,-0.28 -0.04,-0.48 -0.12,-1.28 -0.08,-0.84 -0.16,-1.64 -0.08,-0.84 -0.16,-1.48 -0.08,-0.68 -0.08,-0.8 -0.04,-0.24 -0.12,-0.64 -0.04,-0.44 -0.16,-0.84 -0.08,-0.44 -0.16,-0.76 -0.04,-0.32 -0.08,-0.36 -0.12,-0.16 -0.48,-0.56 -0.32,-0.4 -0.76,-0.8 -0.4,-0.44 -0.8,-0.76 -0.4,-0.36 -0.56,-0.48 0,0.08 -0.04,0.28 0,0.16 0,0.24 0,0.08 0,0.32 0.04,0.2 0.04,0.2 0.04,0.04 0.16,0.2 0.16,0.16 0.32,0.32 0.2,0.16 0.36,0.32 0.16,0.16 0.2,0.2 0.08,0.12 0.28,0.56 0.2,0.4 0.24,0.48 0.04,0.36 0.2,1.36 0.16,1 0.32,2.16 0.2,1.16 0.32,2.24 0.16,1.04 0.2,1.52 0.04,0.32 0.08,1.28 0.08,0.96 0.16,2.12 0.12,1.16 0.16,2.24 0.08,1.08 0.12,1.6 0,0.12 0,0.6 0,0.44 0,1 0,0.52 0,0.96 0,0.44 0,0.56 0,0.12 0.08,0.68 0.08,0.52 0.16,1.16 0.12,0.6 0.2,1.16 0.08,0.52 0.08,0.64 l 0,0.56 0,0.48 q -0.04,0.12 -0.24,0.52 -0.2,0.4 -0.28,0.52 -0.04,0.04 -0.2,0.2 -0.16,0.16 -0.36,0.32 -0.16,0.16 -0.32,0.32 -0.12,0.16 -0.16,0.2 -0.04,0.04 -0.08,0.28 0,0.2 0,0.28 z m 2.68,-4.2 0.52,0.52 q 0.08,0.2 0.32,0.64 0.24,0.44 0.48,0.92 0.24,0.48 0.44,0.96 0.24,0.44 0.32,0.6 0.04,0.08 0.04,0.28 0.04,0.16 0.04,0.24 l -3.72,0 q 0.16,-0.08 0.56,-0.48 0.4,-0.4 0.48,-0.56 0.04,-0.04 0.12,-0.24 0.08,-0.24 0.16,-0.48 0.08,-0.28 0.16,-0.48 0.08,-0.24 0.08,-0.36 0.04,-0.2 0.04,-0.76 0,-0.6 -0.04,-0.8 z m 17.12,0.52 q -0.2,0 -0.32,0.16 -0.08,0.16 -0.08,0.36 0,0.2 0.08,0.36 0.12,0.16 0.32,0.16 0.2,0 0.28,-0.16 0.12,-0.16 0.12,-0.36 0,-0.2 -0.12,-0.36 -0.08,-0.16 -0.28,-0.16 z m -20.24,-24.4 q 0.16,0 0.6,0.08 0.48,0.08 0.96,0.16 0.48,0.08 0.92,0.16 0.44,0.08 0.64,0.12 0.08,0.04 0.24,0.24 0.2,0.2 0.28,0.28 0.04,0.08 0.2,0.48 0.16,0.36 0.32,0.84 0.16,0.44 0.32,0.84 0.16,0.36 0.2,0.44 0.04,0.12 0.24,0.52 0.2,0.4 0.28,0.52 0,-0.08 0,-0.36 0.04,-0.32 0.04,-0.4 0,-0.16 -0.04,-0.44 0,-0.32 0,-0.36 -0.04,-0.16 -0.2,-0.6 -0.12,-0.44 -0.28,-0.92 -0.16,-0.52 -0.32,-0.96 -0.16,-0.44 -0.24,-0.64 -0.08,-0.08 -0.28,-0.28 -0.16,-0.2 -0.24,-0.24 -0.04,0 -0.56,0 -0.48,-0.04 -0.72,-0.04 -0.28,0 -0.8,0.04 -0.48,0 -0.52,0 -0.16,0.04 -0.56,0.24 -0.4,0.2 -0.48,0.28 z"
         style="font-style:normal;font-variant:normal;font-weight:100;font-stretch:normal;font-family:'Depressionist v1.0';-inkscape-font-specification:'Depressionist v1.0 Thin'"
         id="path8104"
         inkscape:connector-curvature="0" />
      <path
         d="m 451.96102,324.28893 q 0,0.2 0,0.6 0.04,0.4 0.04,0.44 0.04,0.12 0.24,0.32 0.2,0.2 0.28,0.2 l 5.72,0 q 0.08,0 0.28,-0.2 0.2,-0.2 0.24,-0.32 0,-0.04 0,-0.36 0.04,-0.32 0.04,-0.48 0,-0.16 -0.04,-0.4 0,-0.28 0,-0.32 -0.04,-0.08 -0.28,-0.28 -0.24,-0.24 -0.52,-0.48 -0.28,-0.28 -0.52,-0.48 -0.2,-0.24 -0.24,-0.32 -0.04,0 -0.04,-0.36 0,-0.36 0,-0.56 0,-0.2 0,-0.64 0,-0.44 0.04,-0.52 0,-0.08 0.08,-0.36 0.08,-0.28 0.16,-0.6 0.08,-0.36 0.16,-0.64 0.08,-0.32 0.12,-0.48 0.04,-0.12 0.24,-0.52 0.2,-0.4 0.28,-0.52 0.08,-0.12 0.24,-0.32 0.2,-0.2 0.28,-0.2 l 5.72,0 q 0.16,0 0.52,0.2 0.4,0.2 0.48,0.32 0.04,0.04 0.16,0.36 0.12,0.28 0.28,0.72 0.2,0.4 0.36,0.84 0.16,0.4 0.24,0.68 0.04,0.12 0.12,0.36 0.08,0.24 0.16,0.48 0.08,0.24 0.16,0.48 0.08,0.2 0.08,0.24 0.04,0.04 0.04,0.16 0,0.08 0,0.12 0,0.08 0,0.16 0,0.08 -0.04,0.08 -0.04,0.08 -0.28,0.4 -0.24,0.28 -0.52,0.64 -0.24,0.36 -0.48,0.68 -0.24,0.28 -0.28,0.36 0,0.04 -0.04,0.32 0,0.28 0,0.4 0,0.2 0,0.52 0.04,0.28 0.04,0.32 0.04,0.12 0.24,0.32 0.2,0.2 0.28,0.2 l 7.8,0 q 0.2,0 0.56,-0.2 0.4,-0.2 0.48,-0.32 0,0 0,-0.28 0.04,-0.28 0.04,-0.44 0,-0.16 -0.04,-0.48 0,-0.32 0,-0.36 -0.04,-0.16 -0.24,-0.56 -0.2,-0.4 -0.28,-0.48 -0.08,-0.08 -0.52,-0.24 -0.44,-0.2 -0.52,-0.28 -0.08,-0.08 -0.48,-0.64 -0.36,-0.6 -0.56,-0.92 l -0.52,-1.04 q 0,-0.04 -0.08,-0.28 -0.08,-0.24 -0.16,-0.48 -0.08,-0.28 -0.16,-0.48 -0.08,-0.24 -0.12,-0.32 -0.12,-0.4 -0.44,-1.24 -0.32,-0.88 -0.64,-1.76 -0.32,-0.92 -0.64,-1.68 -0.28,-0.76 -0.36,-1 -0.04,-0.12 -0.2,-0.48 -0.12,-0.4 -0.32,-0.84 -0.16,-0.44 -0.32,-0.8 -0.16,-0.4 -0.2,-0.48 -0.12,-0.36 -0.48,-1.48 -0.32,-1.12 -0.76,-2.44 -0.4,-1.32 -0.8,-2.56 -0.4,-1.24 -0.56,-1.84 0,-0.08 -0.08,-0.36 -0.08,-0.32 -0.16,-0.68 -0.08,-0.36 -0.16,-0.64 -0.08,-0.32 -0.12,-0.4 -0.08,-0.2 -0.24,-0.6 -0.12,-0.4 -0.28,-0.8 -0.16,-0.44 -0.32,-0.76 -0.12,-0.36 -0.16,-0.44 -0.04,-0.04 -0.2,-0.2 -0.12,-0.16 -0.28,-0.32 -0.16,-0.16 -0.32,-0.28 -0.16,-0.16 -0.24,-0.24 -0.04,0 -0.12,0 -0.08,-0.04 -0.16,-0.04 -0.08,0 -0.16,0.04 -0.08,0 -0.08,0 -0.08,0.04 -0.24,0.2 -0.12,0.12 -0.28,0.28 -0.16,0.16 -0.32,0.32 -0.16,0.16 -0.2,0.24 -0.08,0.08 -0.28,0.48 -0.16,0.4 -0.24,0.56 -0.04,0.12 -0.2,0.6 -0.16,0.44 -0.32,0.96 -0.16,0.52 -0.32,1 -0.16,0.44 -0.2,0.56 -0.08,0.12 -0.28,0.56 -0.16,0.4 -0.24,0.48 -0.04,0.04 -0.28,0.24 -0.24,0.2 -0.24,0.28 -0.04,0.08 -0.12,0.48 -0.08,0.36 -0.16,0.8 -0.08,0.44 -0.16,0.84 -0.08,0.36 -0.08,0.48 0,0.08 -0.08,0.4 -0.08,0.28 -0.2,0.64 -0.08,0.36 -0.16,0.68 -0.08,0.28 -0.08,0.36 l 0,0.52 q -0.28,1.36 -0.68,2.72 -0.4,1.32 -0.4,2.72 0,0.08 0,0.4 0.04,0.28 0.04,0.36 l 1.56,-3.08 q 0,0.08 0,0.52 0.04,0.4 0.04,0.52 0,0.2 -0.04,0.6 0,0.36 0,0.44 -0.04,0.12 -0.24,0.52 -0.2,0.4 -0.28,0.48 l 1.04,0.52 q -0.08,0.08 -0.28,0.28 -0.2,0.16 -0.24,0.24 -0.08,0.08 -0.24,0.36 -0.12,0.28 -0.28,0.64 -0.16,0.32 -0.32,0.64 -0.16,0.28 -0.2,0.44 -0.12,0.24 -0.32,0.68 -0.16,0.4 -0.32,0.84 -0.16,0.4 -0.28,0.72 -0.12,0.32 -0.12,0.36 -0.04,0.28 0,0.96 0.04,0.64 0.12,1.4 0.08,0.76 0.12,1.44 0.08,0.64 0.08,0.88 l -2.28,0 q 0,-0.12 -0.08,-0.52 -0.08,-0.4 -0.04,-0.52 0.04,-0.08 0.24,-0.52 0.24,-0.44 0.28,-0.52 0.44,-1.12 0.76,-2.28 0.32,-1.2 0.32,-2.4 0,-0.12 -0.04,-0.52 0,-0.4 0,-0.52 -0.08,0.08 -0.28,0.28 -0.2,0.16 -0.24,0.24 -0.48,0.8 -0.92,1.76 -0.4,0.96 -0.64,1.88 0,0.04 0,0.28 0.04,0.2 0,0.24 -0.04,0.08 -0.16,0.28 -0.12,0.2 -0.32,0.44 -0.16,0.24 -0.32,0.48 -0.16,0.24 -0.24,0.36 -0.04,0.08 -0.28,0.28 -0.24,0.16 -0.24,0.24 0,0.04 -0.04,0.44 0,0.4 0,0.6 z m 11.48,-9.88 q 0.12,-0.04 0.32,-0.24 0.24,-0.24 0.48,-0.48 0.24,-0.24 0.44,-0.44 0.2,-0.24 0.28,-0.36 0.04,-0.04 0.04,-0.2 0,-0.2 0,-0.28 0,-0.08 0,-0.28 0,-0.24 -0.04,-0.28 -0.08,-0.44 -0.4,-1.56 -0.28,-1.12 -0.6,-2.36 -0.32,-1.24 -0.64,-2.32 -0.28,-1.12 -0.4,-1.56 l -0.52,-0.52 q -0.08,-0.04 -0.32,-0.2 -0.2,-0.16 -0.48,-0.32 -0.28,-0.16 -0.52,-0.32 -0.2,-0.16 -0.24,-0.2 -0.04,0 -0.04,-0.08 0,-0.08 0,-0.16 0,-0.04 0,-0.12 0,-0.12 0.04,-0.16 0.04,-0.24 0.2,-0.72 0.16,-0.48 0.32,-0.96 0.16,-0.48 0.28,-0.88 0.16,-0.44 0.24,-0.56 0.04,-0.08 0.24,-0.28 0.2,-0.2 0.28,-0.24 0,0 0.08,0 0.12,-0.04 0.2,-0.04 0.04,0 0.12,0.04 0.08,0 0.12,0 0.04,0.04 0.24,0.44 0.2,0.4 0.28,0.6 0.04,0.12 0.16,0.52 0.16,0.36 0.32,0.8 0.2,0.4 0.32,0.76 0.16,0.36 0.24,0.52 0.08,0.2 0.24,0.8 0.2,0.56 0.24,0.76 0.04,0.08 0.12,0.4 0.08,0.28 0.16,0.64 0.08,0.36 0.16,0.68 0.08,0.28 0.08,0.36 0.04,0.12 0.2,0.6 0.16,0.44 0.32,0.96 0.2,0.52 0.32,1 0.16,0.44 0.2,0.56 0.04,0.12 0.08,0.56 0.08,0.44 0.16,1 0.12,0.52 0.16,1 0.08,0.44 0.12,0.56 0.04,0.08 0.2,0.32 0.16,0.2 0.32,0.44 0.2,0.24 0.36,0.48 0.16,0.24 0.16,0.28 0.08,0.24 0.4,1.16 0.32,0.92 0.64,2 0.36,1.04 0.64,1.96 0.32,0.88 0.4,1.12 0,0.04 0.08,0.2 0.08,0.16 0.16,0.36 0.12,0.16 0.2,0.32 0.08,0.12 0.08,0.16 0.12,0.32 0.32,0.92 0.2,0.56 0.2,0.64 0,0.08 -0.2,0.48 -0.2,0.36 -0.32,0.56 -0.08,0.12 -0.28,0.32 -0.16,0.2 -0.24,0.2 0,0 -0.32,0.04 -0.28,0 -0.44,0 -0.16,0 -0.48,0 -0.28,-0.04 -0.32,-0.04 -0.08,-0.04 -0.28,-0.24 -0.2,-0.2 -0.24,-0.28 0,-0.08 0,-0.36 0,-0.32 0,-0.68 0,-0.36 0,-0.64 0,-0.32 0,-0.4 -0.04,-0.16 -0.16,-0.72 -0.12,-0.56 -0.32,-1.2 -0.16,-0.68 -0.32,-1.28 -0.16,-0.64 -0.24,-0.96 -0.04,-0.12 -0.24,-0.52 -0.2,-0.4 -0.28,-0.52 -0.12,-0.2 -0.52,-0.56 -0.4,-0.4 -0.52,-0.48 -0.08,-0.04 -0.52,0 -0.4,0.04 -0.48,0 -0.16,-0.04 -0.56,-0.24 -0.4,-0.2 -0.48,-0.28 z m 11.4,-5.16 q 0,0.08 0.04,0.48 0.08,0.4 0.16,0.92 0.08,0.48 0.16,0.96 0.08,0.48 0.16,0.76 0,0.04 0.08,0.28 0.08,0.2 0.16,0.48 0.12,0.28 0.2,0.52 0.08,0.2 0.08,0.24 0.04,0.12 0.08,0.44 0.08,0.28 0.16,0.64 0.12,0.32 0.16,0.6 0.08,0.28 0.12,0.4 l 0.52,0 q 0.04,0 0.08,-0.28 0.08,-0.32 0.16,-0.72 0.12,-0.4 0.16,-0.84 0.08,-0.44 0.12,-0.76 l 0,-1.56 0,-2.04 q -0.04,-0.68 -0.08,-2.16 -0.04,-1.48 -0.08,-3.32 -0.04,-1.84 -0.12,-3.88 -0.04,-2.04 -0.08,-3.88 -0.04,-1.84 -0.12,-3.28 -0.04,-1.48 -0.04,-2.2 -0.08,-0.12 -0.48,-0.32 -0.4,-0.2 -0.56,-0.2 -0.12,0 -0.52,0.2 -0.4,0.2 -0.52,0.32 l 0,0.24 0,0.28 q 0.16,0.64 0.44,1.36 0.28,0.68 0.6,1.24 0,0.24 0,0.88 0,0.64 0,1.36 0.04,0.68 0.04,1.32 0,0.64 0,0.88 0,0.44 0,1.16 0,0.68 -0.04,1.4 0,0.68 0,1.24 0,0.52 0,0.6 0,0.2 -0.08,0.88 -0.08,0.68 -0.16,1.48 -0.08,0.76 -0.2,1.48 -0.08,0.68 -0.08,0.84 0,0.04 0,0.24 0.04,0.2 0,0.28 0,0.04 -0.12,0.2 -0.08,0.12 -0.16,0.32 -0.08,0.16 -0.16,0.32 -0.08,0.16 -0.08,0.2 z m -12.44,4.64 q 0.2,0 0.28,0.16 0.12,0.16 0.12,0.36 0,0.2 -0.12,0.36 -0.08,0.16 -0.28,0.16 -0.2,0 -0.32,-0.16 -0.08,-0.16 -0.08,-0.36 0,-0.2 0.08,-0.36 0.12,-0.16 0.32,-0.16 z m -2.12,-2.8 q 0,-0.08 0,-0.16 0.04,-0.12 0.04,-0.12 0.08,-0.24 0.24,-0.84 0.2,-0.6 0.28,-0.72 0.04,-0.12 0.24,-0.32 0.2,-0.2 0.28,-0.2 0,-0.04 0.28,-0.04 0.32,0 0.48,0 0.08,0 0.4,0 0.32,0 0.4,0.04 0.04,0.16 0.2,0.6 0.16,0.44 0.32,0.96 0.16,0.48 0.28,0.96 0.16,0.44 0.24,0.6 l 0,0.24 0,0.28 q -0.08,0.08 -0.28,0.28 -0.16,0.2 -0.24,0.24 -0.04,0 -0.36,0.04 -0.32,0 -0.48,0 -0.16,0 -0.44,0 -0.28,-0.04 -0.28,-0.04 -0.08,-0.04 -0.32,-0.24 -0.2,-0.2 -0.44,-0.44 -0.24,-0.24 -0.48,-0.48 -0.2,-0.28 -0.32,-0.4 0,-0.04 -0.04,-0.12 0,-0.08 0,-0.12 z"
         style="font-style:normal;font-variant:normal;font-weight:100;font-stretch:normal;font-family:'Depressionist v1.0';-inkscape-font-specification:'Depressionist v1.0 Thin'"
         id="path8106"
         inkscape:connector-curvature="0" />
      <path
         d="m 477.53602,325.60893 q 0,0.08 0,0.2 0.04,0.08 0.04,0.08 0.08,0.2 0.24,0.6 0.2,0.36 0.28,0.44 0.12,0.12 0.52,0.32 0.4,0.2 0.52,0.2 l 7.8,0 q 0.16,0 0.56,-0.2 0.4,-0.2 0.48,-0.32 0.04,-0.04 0.08,-0.36 0.04,-0.36 0.04,-0.52 0,-0.12 -0.04,-0.36 -0.04,-0.28 -0.08,-0.32 l -3.12,-1.56 q 0,0.12 -0.16,0.36 -0.12,0.24 -0.28,0.48 -0.16,0.24 -0.32,0.48 -0.16,0.2 -0.28,0.24 -0.12,0.08 -0.44,0 -0.28,-0.08 -0.64,-0.16 -0.36,-0.12 -0.68,-0.2 -0.28,-0.12 -0.4,-0.12 0,-0.16 0,-0.52 0.04,-0.4 0.04,-0.8 0,-0.4 0,-0.76 0.04,-0.36 0.04,-0.56 0,-0.28 -0.04,-1.16 -0.04,-0.88 -0.12,-2.04 -0.04,-1.16 -0.12,-2.48 -0.04,-1.36 -0.12,-2.52 -0.04,-1.16 -0.08,-2.04 -0.04,-0.88 -0.04,-1.16 l 0,-1.56 q -0.04,-0.64 -0.12,-1.76 -0.08,-1.16 -0.16,-2.32 -0.08,-1.16 -0.16,-2.08 -0.08,-0.92 -0.08,-1.12 0,-0.08 -0.08,-0.36 -0.08,-0.32 -0.2,-0.68 -0.08,-0.36 -0.16,-0.64 -0.08,-0.32 -0.08,-0.4 0,-0.04 -0.04,-0.24 0,-0.24 0,-0.36 0,-0.08 0,-0.24 0.04,-0.2 0.04,-0.2 0.08,-0.08 0.44,-0.28 0.4,-0.2 0.6,-0.24 0.04,0 0.44,0 0.4,-0.04 0.6,-0.04 0.2,0 0.6,0.04 0.4,0 0.44,0 0.12,0.04 0.32,0.24 0.2,0.2 0.2,0.28 0,0.16 -0.2,0.56 -0.2,0.4 -0.32,0.48 l 0,9.88 q 0,0.12 0.2,0.72 0.2,0.6 0.32,0.84 0.04,0.08 0.24,0.28 0.2,0.16 0.28,0.24 0.24,0.12 0.84,0.32 0.6,0.2 0.72,0.2 0.12,0 0.48,-0.12 0.36,-0.16 0.76,-0.32 0.44,-0.16 0.8,-0.32 0.4,-0.2 0.56,-0.28 0.08,-0.04 0.28,-0.24 0.24,-0.24 0.48,-0.48 0.24,-0.28 0.44,-0.48 0.24,-0.24 0.32,-0.36 0.12,-0.16 0.32,-0.56 0.24,-0.44 0.48,-0.92 0.24,-0.52 0.44,-0.96 0.24,-0.48 0.32,-0.68 0.04,-0.04 0.04,-0.2 0,-0.2 0,-0.28 0,-0.08 0,-0.28 0,-0.24 -0.04,-0.28 0,-0.12 -0.08,-0.48 -0.08,-0.4 -0.16,-0.8 -0.08,-0.44 -0.16,-0.8 -0.08,-0.36 -0.12,-0.52 0,-0.04 -0.12,-0.28 -0.08,-0.24 -0.16,-0.48 -0.08,-0.28 -0.16,-0.48 -0.08,-0.24 -0.08,-0.32 0.04,-0.12 0.16,-0.4 0.12,-0.32 0.28,-0.64 0.2,-0.36 0.36,-0.64 0.16,-0.28 0.24,-0.4 0.12,0.04 0.32,0.16 0.24,0.12 0.48,0.32 0.28,0.16 0.48,0.32 0.2,0.16 0.28,0.24 0.04,0.08 0.12,0.28 0.12,0.2 0.2,0.48 0.08,0.24 0.12,0.48 0.08,0.2 0.08,0.32 0,0.04 0,0.36 0.04,0.32 0.04,0.76 0,0.4 0,0.84 0,0.4 0,0.64 0,0.24 0,0.68 0,0.4 0,0.84 0,0.4 -0.04,0.72 0,0.32 0,0.36 0,0.16 -0.2,0.76 -0.2,0.6 -0.32,0.8 -0.04,0.08 -0.24,0.36 -0.2,0.28 -0.44,0.64 -0.24,0.32 -0.52,0.64 -0.24,0.28 -0.36,0.44 -0.04,0.08 -0.28,0.32 -0.24,0.2 -0.52,0.48 -0.24,0.24 -0.48,0.48 -0.24,0.2 -0.28,0.28 0,0 -0.04,0.32 0,0.28 0,0.4 0,0.16 0,0.48 0.04,0.28 0.04,0.36 0,0.04 0.2,0.36 0.2,0.28 0.44,0.72 0.24,0.4 0.48,0.84 0.28,0.4 0.44,0.64 0.04,0.08 0.2,0.32 0.16,0.2 0.32,0.48 0.2,0.24 0.32,0.48 0.16,0.24 0.2,0.28 0.16,0.24 0.4,0.68 0.24,0.4 0.48,0.8 0.28,0.4 0.44,0.76 0.2,0.32 0.24,0.36 0.04,0.08 0.08,0.32 0.08,0.2 0.16,0.48 0.12,0.28 0.16,0.52 0.08,0.2 0.12,0.24 0.04,0.04 0.16,0.2 0.16,0.16 0.32,0.32 0.2,0.16 0.36,0.32 0.16,0.16 0.2,0.2 0.08,0.12 0.28,0.52 0.2,0.4 0.24,0.52 0,0.04 0,0.24 0.04,0.2 0.04,0.32 0,0.08 -0.04,0.28 0,0.2 0,0.2 -0.04,0.08 -0.24,0.28 -0.2,0.2 -0.28,0.24 0,0 -0.2,0.04 -0.2,0 -0.32,0 -0.08,0 -0.28,0 -0.2,-0.04 -0.24,-0.04 -0.04,0 -0.24,-0.2 -0.2,-0.2 -0.28,-0.32 -1.56,-1.96 -2.72,-4.04 -1.16,-2.12 -2.48,-4.28 -0.12,-0.16 -0.4,-0.6 -0.28,-0.48 -0.6,-0.96 -0.32,-0.48 -0.64,-0.92 -0.28,-0.44 -0.4,-0.6 -0.16,-0.04 -0.68,-0.04 -0.48,-0.04 -0.64,-0.04 -0.24,0 -0.76,0.04 -0.48,0 -0.52,0.04 -0.12,0 -0.32,0.2 -0.2,0.2 -0.2,0.32 0,0.2 -0.04,0.72 0,0.52 -0.04,1.08 0,0.56 0,1.08 0,0.52 0,0.72 0,0.36 0,0.96 0,0.6 0,1.2 0.04,0.56 0.04,1 0.04,0.44 0.04,0.48 0,0.12 0.04,0.36 0.08,0.2 0.16,0.44 0.08,0.24 0.16,0.48 0.08,0.2 0.16,0.28 l 0.52,-0.52 0,-7.6 q 0.12,0 0.52,-0.12 0.4,-0.12 0.52,-0.04 0.04,0 0.24,0.2 0.2,0.2 0.28,0.28 0.04,0.08 0.16,0.28 0.16,0.2 0.32,0.48 0.16,0.24 0.32,0.48 0.16,0.2 0.24,0.32 0.04,0.12 0.28,0.52 0.24,0.36 0.48,0.8 0.24,0.44 0.44,0.84 0.24,0.36 0.32,0.44 0.32,0.48 0.96,1.44 0.64,0.96 1.28,1.96 0.68,1 1.24,1.84 0.56,0.8 0.68,1 0.2,0.24 0.56,0.64 0.4,0.4 0.48,0.4 l 4.68,0 q 0.2,0 0.56,-0.4 0.4,-0.4 0.48,-0.64 0.04,-0.08 -0.16,-0.48 -0.2,-0.4 -0.36,-0.56 -0.04,-0.04 -0.28,-0.2 -0.2,-0.16 -0.48,-0.32 -0.28,-0.16 -0.52,-0.32 -0.24,-0.16 -0.28,-0.2 -0.08,-0.04 -0.24,-0.2 -0.16,-0.16 -0.32,-0.32 -0.16,-0.16 -0.32,-0.28 -0.12,-0.16 -0.16,-0.24 -0.16,-0.24 -0.8,-1.16 -0.6,-0.96 -1.36,-2.12 -0.72,-1.16 -1.44,-2.28 -0.72,-1.12 -1.08,-1.72 -0.08,-0.16 -0.28,-0.52 -0.2,-0.4 -0.24,-0.48 0,-0.04 -0.04,-0.32 0,-0.32 0,-0.48 0,-0.08 0,-0.36 0.04,-0.32 0.04,-0.4 0.16,-0.16 0.52,-0.6 0.4,-0.48 0.8,-0.96 0.44,-0.48 0.8,-0.92 0.36,-0.44 0.48,-0.64 0.08,-0.08 0.24,-0.48 0.2,-0.4 0.28,-0.56 0.12,-0.28 0.32,-0.88 0.2,-0.6 0.2,-0.68 0,-0.04 0,-0.28 0.04,-0.24 0.04,-0.56 0,-0.36 0,-0.68 0,-0.36 0,-0.56 0,-0.2 0,-0.52 0,-0.36 0,-0.68 0,-0.32 -0.04,-0.56 0,-0.28 0,-0.32 0,-0.12 -0.08,-0.44 -0.08,-0.32 -0.16,-0.64 -0.08,-0.32 -0.16,-0.6 -0.08,-0.32 -0.12,-0.4 -0.04,-0.04 -0.24,-0.32 -0.16,-0.28 -0.44,-0.6 -0.24,-0.32 -0.48,-0.64 -0.24,-0.32 -0.4,-0.52 -0.08,-0.08 -0.24,-0.24 -0.16,-0.2 -0.32,-0.36 -0.16,-0.16 -0.32,-0.28 -0.12,-0.16 -0.16,-0.16 0,0 -0.28,-0.08 -0.24,-0.08 -0.56,-0.16 -0.32,-0.08 -0.68,-0.16 -0.36,-0.08 -0.56,-0.12 -0.2,-0.04 -0.6,-0.12 -0.4,-0.08 -0.84,-0.16 -0.4,-0.08 -0.72,-0.16 -0.32,-0.08 -0.4,-0.08 l -0.52,0 -0.52,0 q -0.12,0 -0.68,0.12 -0.52,0.08 -1.16,0.16 -0.6,0.08 -1.16,0.16 -0.52,0.08 -0.64,0.08 -0.2,0 -0.88,0 -0.68,0 -1.48,0 -0.8,0 -1.48,0 -0.68,0 -0.84,0 -0.12,0 -0.36,0.08 -0.2,0.08 -0.44,0.16 -0.24,0.08 -0.48,0.16 -0.2,0.08 -0.28,0.12 0,0 -0.04,0.08 0,0.08 0,0.16 0,0.04 0,0.16 0.04,0.12 0.04,0.12 0.08,0.2 0.24,0.6 0.2,0.4 0.28,0.44 0.04,0.04 0.24,0.12 0.24,0.08 0.52,0.16 0.28,0.08 0.48,0.16 0.24,0.04 0.32,0.08 0.08,0.04 0.24,0.24 0.2,0.2 0.28,0.28 l 0.52,1.04 q 0.04,0.76 0.12,2.32 0.08,1.52 0.16,3.48 0.12,1.92 0.24,4.08 0.12,2.12 0.2,4.08 0.12,1.92 0.2,3.48 0.08,1.56 0.12,2.28 l 0,0.32 0,0.2 q -0.08,0.24 -0.28,0.84 -0.16,0.6 -0.24,0.72 -0.04,0.08 -0.24,0.28 -0.2,0.16 -0.28,0.24 -0.08,0.04 -0.32,0.2 -0.2,0.16 -0.48,0.32 -0.24,0.16 -0.48,0.32 -0.24,0.16 -0.28,0.2 -0.08,0.08 -0.28,0.28 -0.2,0.2 -0.24,0.24 0,0 -0.04,0.12 0,0.08 0,0.12 z m 8.72,-25.24 q 0.24,0 0.68,0.04 0.48,0.04 0.52,0.04 0.08,0.04 0.36,0.32 0.28,0.24 0.6,0.6 0.36,0.32 0.64,0.64 0.32,0.32 0.44,0.52 0.04,0.08 0.12,0.28 0.08,0.2 0.16,0.44 0.08,0.24 0.16,0.48 0.08,0.24 0.08,0.36 0.04,0.04 0.04,0.56 0,0.48 0,0.72 0,0.24 0,0.76 0,0.48 -0.04,0.56 0,0.16 -0.08,0.48 -0.08,0.32 -0.16,0.68 -0.08,0.32 -0.16,0.6 -0.08,0.24 -0.12,0.32 -0.04,0.08 -0.24,0.28 -0.16,0.2 -0.4,0.44 -0.24,0.24 -0.52,0.48 -0.24,0.24 -0.36,0.36 -0.12,0.08 -0.56,0.28 -0.4,0.2 -0.48,0.24 -0.08,0 -0.4,0.04 -0.28,0 -0.44,0 -0.16,0 -0.44,0 -0.28,-0.04 -0.28,-0.04 -0.12,-0.04 -0.32,-0.16 -0.16,-0.16 -0.32,-0.32 -0.16,-0.2 -0.28,-0.32 -0.12,-0.16 -0.12,-0.24 l 0,-8.84 q 0,-0.08 0.2,-0.28 0.2,-0.2 0.32,-0.24 0.04,0 0.56,-0.04 0.56,-0.04 0.84,-0.04 z"
         style="font-style:normal;font-variant:normal;font-weight:100;font-stretch:normal;font-family:'Depressionist v1.0';-inkscape-font-specification:'Depressionist v1.0 Thin'"
         id="path8108"
         inkscape:connector-curvature="0" />
    </g>
    <rect
       style="opacity:1;fill:none;fill-opacity:0.43396229;stroke:#000000;stroke-width:4;stroke-linejoin:round;stroke-miterlimit:4;stroke-dasharray:none;stroke-opacity:1"
       id="rect8083"
       width="316"
       height="54"
       x="198.11122"
       y="284.96893"
       ry="27"
       rx="0" />
  </g>
</svg>
