<?xml version="1.0" encoding="UTF-8" standalone="no"?>
<!-- Created with Inkscape (http://www.inkscape.org/) -->

<svg
   xmlns:dc="http://purl.org/dc/elements/1.1/"
   xmlns:cc="http://creativecommons.org/ns#"
   xmlns:rdf="http://www.w3.org/1999/02/22-rdf-syntax-ns#"
   xmlns:svg="http://www.w3.org/2000/svg"
   xmlns="http://www.w3.org/2000/svg"
   xmlns:sodipodi="http://sodipodi.sourceforge.net/DTD/sodipodi-0.dtd"
   xmlns:inkscape="http://www.inkscape.org/namespaces/inkscape"
   width="71.8013mm"
   height="9.1942711mm"
   viewBox="0 0 254.41405 32.578126"
   id="svg2"
   version="1.1"
   inkscape:version="0.48.4 r9939"
   sodipodi:docname="confirm.svg"
   inkscape:export-filename="C:\Users\Esco\git\boda\img\confirm.png"
   inkscape:export-xdpi="90"
   inkscape:export-ydpi="90">
  <defs
     id="defs4" />
  <sodipodi:namedview
     id="base"
     pagecolor="#ffffff"
     bordercolor="#666666"
     borderopacity="1.0"
     inkscape:pageopacity="0.0"
     inkscape:pageshadow="2"
     inkscape:zoom="1.75"
     inkscape:cx="-54.01289"
     inkscape:cy="-30.426056"
     inkscape:document-units="px"
     inkscape:current-layer="layer1"
     showgrid="false"
     inkscape:window-width="1366"
     inkscape:window-height="705"
     inkscape:window-x="-8"
     inkscape:window-y="-8"
     inkscape:window-maximized="1"
     fit-margin-top="0"
     fit-margin-left="0"
     fit-margin-right="0"
     fit-margin-bottom="0" />
  <metadata
     id="metadata7">
    <rdf:RDF>
      <cc:Work
         rdf:about="">
        <dc:format>image/svg+xml</dc:format>
        <dc:type
           rdf:resource="http://purl.org/dc/dcmitype/StillImage" />
        <dc:title />
      </cc:Work>
    </rdf:RDF>
  </metadata>
  <g
     inkscape:label="Capa 1"
     inkscape:groupmode="layer"
     id="layer1"
     transform="translate(-232.90477,-297.18802)">
    <g
       style="font-style:normal;font-weight:normal;font-size:40px;line-height:125%;font-family:Sans;letter-spacing:0px;word-spacing:0px;fill:#000000;fill-opacity:1;stroke:none;stroke-width:1px;stroke-linecap:butt;stroke-linejoin:miter;stroke-opacity:1"
       id="text8079" />
    <g
       style="font-style:normal;font-weight:normal;font-size:40px;line-height:125%;font-family:Sans;letter-spacing:0px;word-spacing:0px;fill:#dcdcdc;fill-opacity:1;stroke:none;stroke-width:1px;stroke-linecap:butt;stroke-linejoin:miter;stroke-opacity:1"
       id="text3347">
      <path
         d="m 234.85789,297.26614 q 3.04688,0 3.04688,0.54688 l 0.0781,0.39062 0,0.15625 -0.0781,0.39063 q 0.91797,0.78125 1.40625,0.78125 l 0.46875,0 0.39062,-0.0781 0,-0.15625 q -0.85937,-0.44921 -0.85937,-1.32812 l 0,-0.46875 q 0,-0.15625 0.23437,-0.15625 l 1.32813,-0.0781 q 0.39062,0.13672 0.39062,0.39063 0.89844,-0.39063 2.26563,-0.39063 l 0.625,0 q 2.03125,0 2.03125,0.85938 l 0.15625,0 q 0.15625,0 0.23437,-0.78125 l 0.23438,0 q 0.35156,0 0.70312,0.46875 0,-0.35156 0.70313,-0.46875 l 0.15625,0 q 0.23437,0.0391 0.23437,0.54687 1.11329,-0.625 3.28125,-0.625 l 5.3125,0.15625 1.25,-0.0781 0.15625,0.15625 0,0.625 0.0781,1.79687 -0.23438,1.01563 -3.125,-0.0781 -4.29687,0 q -2.03125,0 -2.03125,-0.23437 l -0.0781,-0.3125 q 0.39063,-0.3125 0.39063,-0.70313 0,-0.15625 -0.23438,-0.15625 -0.41015,0 -0.70312,1.32813 l -0.0781,0 q -1.01562,-0.41016 -1.01562,-1.09375 l -0.23438,0 q -0.15625,0 -0.3125,0.46875 l 0.15625,0.54687 -0.0781,0.0781 -0.54688,0 -1.25,-0.39063 -0.15625,0 q -0.5664,0.39063 -0.85937,0.39063 l -0.39063,0 -2.1875,-0.15625 -0.625,0.0781 0.15625,-0.23437 q -1.73828,0.46875 -2.42187,0.46875 l -0.15625,-0.15625 q 0.54687,-0.19531 0.54687,-0.3125 l 0,-0.0781 q 0,-0.21484 -1.01562,-0.39062 l 0,0.15625 0.15625,0.23437 0,0.23438 -0.15625,0.15625 -4.6875,0 -0.15625,-0.15625 q 0.78125,-0.44922 0.78125,-0.70313 l -0.0781,-0.0781 -0.0781,0 q -0.0977,0.39062 -0.54688,0.39062 l -0.0781,-0.0781 0,-2.5 q 0.15625,-0.39063 1.79687,-0.39063 z m 4.0625,0.0781 0.15625,0 0,0.15625 q -0.3125,0 -0.3125,0.23437 l 0.39063,1.01563 -0.15625,0.15625 -0.23438,0 q -0.21484,0 -0.54687,-1.09375 l -0.15625,0 0,-0.23438 0.85937,-0.23437 z m 16.17188,2.57812 0.9375,0.0781 q 0.70312,0 0.70312,-0.39063 l -0.54687,-0.15625 q -0.60547,0 -1.09375,0.46875 z m -14.21875,-0.23437 -0.3125,0.46875 0.9375,0 0.46875,0.15625 0,-0.0781 q 0,-0.29296 -1.09375,-0.54687 z m 0.46875,2.5 q 1.28906,0 2.1875,0.78125 l 0.0781,0 0,-0.0781 q -0.15625,-0.3125 -0.39062,-0.3125 l 0,-0.15625 1.95312,-0.15625 1.40625,0 q 5.21485,0 7.1875,3.59375 0.625,1.25 0.625,2.89063 0,1.09375 -0.3125,1.09375 l -0.54687,0.15625 q 0,0.15625 0.23437,0.15625 l 0.39063,-0.15625 0.0781,0.0781 0,0.0781 q 0,0.66406 -0.625,1.25 0.23438,0 0.23438,0.3125 0,0.39062 -0.54688,1.09375 l -0.0781,0 -0.39063,-0.46875 q -0.54687,0.0781 -1.25,1.40625 l -0.15625,0.15625 0.15625,0 0.46875,-0.15625 0.15625,0 0.15625,0.15625 q -1.89453,1.71875 -4.29687,1.71875 l 0.0781,-0.46875 q 0,-0.23438 -1.09375,-0.85938 l 0,-0.15625 q 0,-0.13671 0.54688,-0.23437 l 0,-0.0781 q -0.21484,0 -1.64063,-1.01562 l -0.46875,-0.0781 0.15625,0.23438 -0.0781,0.0781 -1.25,0 q 0,0.625 0.625,0.625 l 1.32812,-0.15625 q 0.42969,0 0.625,0.39063 l 0,0.0781 q 0,0.23438 -0.3125,0.23438 l -0.625,-0.39063 -0.15625,0 -0.15625,0.15625 0,0.0781 1.17188,0.3125 0,0.15625 -1.5625,0.70312 -0.15625,0 -0.39063,-0.0781 0,0.0781 0.3125,0.39063 0,0.0781 -0.15625,0.15625 -1.32812,-0.15625 q -0.87891,0 -2.57813,1.09375 l -0.23437,0 0,0.15625 0.23437,0.0781 0.78125,-0.0781 0.0781,0.0781 0,0.78125 0.0781,3.28125 q 0,3.90625 -2.34375,3.90625 -1.67968,0 -2.26562,-2.10938 l -0.0781,-1.09375 0.0781,-0.0781 0.0781,0 q 0,0.23437 1.01563,0.39062 l 0.3125,0 1.09375,-0.3125 0,-0.0781 -1.09375,0 q -1.40625,-0.0391 -1.40625,-0.54688 l 0.15625,-0.23437 -0.15625,-0.46875 0.3125,-0.0781 q -0.39063,-1.95312 -0.39063,-4.0625 l 0.23438,-6.09375 0.0781,0 q 0.76172,0.78125 1.09375,0.78125 l 0.3125,0 0.15625,-0.15625 q 0,-0.13671 -0.85937,-0.46875 l 0,-0.0781 0.3125,-0.23438 q -0.33203,-0.3125 -0.78125,-0.3125 l -0.0781,0 -0.39062,0.0781 -0.0781,-0.0781 0,-1.01562 0.15625,-0.15625 1.32813,-0.0781 0.70312,0.70313 q 0.41016,-0.0977 1.25,-0.85938 -0.78125,-0.91796 -0.78125,-1.25 l 0,-0.46875 -0.0781,0 -0.70313,0.15625 -0.0781,-0.0781 0,-0.0781 0.0781,-0.39062 -0.23437,0 q -0.56641,0 -0.625,0.23437 l 1.09375,0.78125 -0.23438,0.15625 -0.23437,0 -1.17188,-0.39062 0,0.0781 0.3125,0.54688 0.0781,-0.0781 0.23437,0 0.85938,0.39063 0,0.15625 -0.3125,0 -0.78125,0.23437 -0.78125,0 -0.0781,-2.65625 q 0,-0.21484 0.46875,-0.70312 -0.23437,0 -0.39062,-0.46875 0,-0.54688 0.54687,-0.54688 l -0.15625,0.23438 0.15625,0 q 0.42969,-0.3125 0.85938,-0.3125 l 0,-0.0781 q -0.0781,-0.23437 -0.46875,-0.23437 l -0.54688,0 0,-0.0781 q 1.23047,-1.32812 3.67188,-1.32812 z m 1.40625,1.48437 -0.15625,0.23438 q 0.35156,0 0.39062,0.78125 l 0.39063,-0.0781 0.78125,0.3125 0.0781,0 0.15625,-0.15625 0,-0.0781 q -0.39062,0 -0.39062,-1.01563 l -0.15625,0 -0.23438,0.15625 -0.85937,-0.15625 z m 4.84375,1.25 0.46875,0.15625 0.15625,0 0,-0.54687 -0.0781,0 q -0.625,0 -0.625,0.39062 l 0.0781,0 z m -9.375,0.23438 0,0.0781 0.15625,0.46875 0.23437,-0.0781 0.70313,0.54687 0.23437,0 0.15625,-0.625 -0.0781,-0.0781 -0.0781,0.0781 -0.3125,0 -1.01562,-0.39062 z m 8.20312,0.625 -4.14062,-0.15625 q -0.54688,0 -0.54688,0.625 l 0.15625,3.125 q 0,1.09375 -0.54687,1.48437 l -0.0781,0 q 0,-0.54687 -0.9375,-0.70312 -0.39062,0.11719 -0.39062,0.54687 l 0,0.0781 q 1.05469,0 1.875,0.46875 l 0,1.09375 q 0,0.25391 1.79687,0.3125 l 0.85938,0 q 3.53516,0 5.15625,-2.65625 l 0.15625,-0.9375 q 0,-1.40625 -1.5625,-2.8125 l 0,-0.0781 0.39062,-0.39062 0,-0.0781 q -0.37109,0 -0.85937,-0.39062 l -0.0781,0 q -0.41015,0.46875 -1.25,0.46875 z m -7.96875,6.875 0,0.0781 0.3125,1.25 -0.3125,0.54688 0.85938,0.15625 0.0781,-0.0781 0,-0.23437 -0.46875,-1.71875 -0.46875,0 z m 2.42188,0.54687 0,0.23438 q 0,0.13672 0.54687,0.23437 l 0,0.0781 -0.15625,0.23437 q 1.79688,0.33204 1.79688,0.54688 l 0,0.0781 q -0.42969,0 -1.25,0.625 l 0.39062,0.0781 0.85938,-0.0781 0.54687,0 q 0,-0.46875 0.23438,-0.46875 l 0.70312,0.0781 0,-0.15625 0.0781,-0.0781 -0.0781,-0.0781 q -2.73437,-0.44922 -2.73437,-0.85938 l 0.46875,-0.15625 0,-0.0781 q -0.3125,0 -0.3125,-0.39063 l -1.09375,0.15625 z m 7.57812,2.26563 q 1.46485,-0.41016 1.48438,-0.625 l -0.15625,0 q -1.32813,0 -1.32813,0.625 z m -9.29687,-0.15625 0,0.0781 q 0.39062,0.42969 0.54687,1.40625 l 0.0781,0 q 0.25391,0 0.78125,-0.78125 l 0,-0.0781 q -0.44922,0 -1.17188,-0.625 l -0.23437,0 z m 2.10937,10.9375 17.10938,0 q 0.23437,0 0.23437,1.01562 l -0.0781,1.64063 0.0781,0.70312 -0.0781,0.0781 -4.29688,0.0781 -15.85937,0 -5.23438,-0.0781 q -0.15625,0 -0.23437,-3.20313 l 0.0781,-0.0781 0.0781,0 8.20312,-0.15625 z m 12.26563,1.95312 0,0.15625 q 1.09375,-0.0586 1.09375,-0.39062 l -0.625,-0.23438 -0.23438,0 q -0.23437,0.0781 -0.23437,0.46875 z"
         style="font-style:normal;font-variant:normal;font-weight:normal;font-stretch:normal;font-family:'[TOP_SECRET]';-inkscape-font-specification:'[TOP_SECRET]';fill:#dcdcdc;fill-opacity:1"
         id="path3337" />
      <path
         d="m 253.10008,297.34427 2.1875,0.0781 25.07813,-0.0781 0,0.0781 -0.0781,0.54688 0.23438,2.57812 q -2.30469,0.3125 -6.5625,0.3125 l -6.48438,-0.23437 0,-0.0781 q 0.54688,-0.46875 0.54688,-0.625 l -0.0781,-0.3125 -0.0781,0 -0.85938,1.17188 -1.95312,0 -0.15625,-0.15625 q 0,-0.21484 0.9375,-0.3125 l 0,-0.15625 q -0.95703,0 -1.48438,0.625 l -7.73437,0 q -0.17578,0 -0.23438,-0.39063 -0.46875,0.39063 -1.25,0.39063 l -1.79687,0 q -0.23438,-0.0586 -0.23438,-0.625 l 0,-1.79688 -0.0781,-0.9375 0.0781,-0.0781 z m 8.125,0.46875 0.15625,0.23437 0,0.3125 -0.0781,0.39063 0.0781,0.0781 0.15625,0 q 0.17578,0 0.39063,-0.54687 -0.0977,-0.46875 -0.23438,-0.46875 l -0.46875,0 z m 8.28125,0.78125 0,0.0781 q 0,0.25391 1.64063,0.54688 0,-0.33203 -1.09375,-0.70313 l 0,-0.0781 -0.54688,0.15625 z m -4.60937,3.4375 1.25,0 q 7.67578,0 10.23437,5.39062 l 0,0.23438 -0.3125,0.3125 q 0,0.21484 0.78125,0.46875 0.78125,2.12891 0.78125,4.76562 0,6.19141 -3.4375,9.53125 -0.82031,0.70313 -1.17187,0.70313 -1.46485,-0.39063 -2.42188,-0.39063 l -0.3125,0.0781 0.0781,0.0781 0,0.15625 -0.15625,0.23438 0,0.0781 0.15625,0.15625 0.39062,0 0,0.0781 q -0.68359,1.17187 -3.35937,1.17187 -5.46875,-0.44921 -6.01563,-1.25 l 0,-0.15625 0.0781,-0.23437 -0.0781,0 q -1.03515,0 -3.20312,-2.10938 -2.26563,-3.22265 -2.26563,-7.26562 l 0,-0.78125 q 0,-5.99609 4.0625,-9.53125 1.97266,-1.48438 4.29688,-1.48438 l 0.0781,0.0781 0,0.0781 q 0,0.3711 -0.625,0.85938 l 0,0.15625 0.0781,0 q 0.85937,0 0.85937,-1.25 l 0.23438,-0.15625 z m 1.01562,0.85937 0,0.70313 0.54688,0 q 0.42968,0 0.54687,-0.3125 l 0,-0.15625 q -0.0781,-0.23438 -0.46875,-0.23438 l -0.625,0 z m -5.78125,2.8125 0.0781,0 q 0.9375,0 0.9375,-0.54687 l -0.23438,0 q -0.42969,0 -0.78125,0.54687 z m 0.3125,7.8125 q 0,1.69922 0.54688,3.67188 l -0.0781,0.0781 -0.54687,0 q -0.82032,0 -1.79688,0.9375 l 0.0781,0 2.5,-0.78125 0.625,1.32813 0,0.0781 -0.15625,0.54688 q 3.76953,2.26562 6.875,2.26562 0,-0.80078 1.32812,-0.9375 l 0.3125,0.15625 q 0,-0.83984 1.79688,-1.875 l -0.0781,-0.0781 0,-0.23438 q 0,-1.1914 1.32813,-1.79687 l 0,-0.0781 q -0.3125,0 -0.3125,-0.3125 l 0.15625,-1.48437 0,-0.46875 -0.3125,-4.29688 0.15625,-0.9375 -0.15625,0 -0.46875,0.15625 q -1.6211,-3.82812 -5.46875,-3.82812 l -0.0781,0 q -4.16015,0 -5.625,4.21875 -0.625,1.875 -0.625,3.67187 z m 12.65625,-5.15625 0.78125,0.3125 1.09375,-0.39062 0,-0.0781 -1.09375,-0.15625 q -0.78125,0.0586 -0.78125,0.3125 z m -16.64062,3.75 1.09375,0.39063 0.0781,-0.0781 0,-0.0781 q -0.2539,0 -0.85937,-0.54688 l -0.0781,0 q -0.11719,0 -0.23437,0.3125 z m 2.42187,0.625 q 0,0.17579 -0.3125,0.39063 l -0.0781,0.23437 0.0781,0.0781 0.85938,0 0.15625,-0.15625 -0.625,-0.54688 -0.0781,0 z m 13.125,9.84375 0,0.0781 0.0781,-0.0781 0.15625,0 0.625,0.15625 0.15625,0 0,-0.23437 -0.15625,-0.15625 -0.39063,0 q -0.46875,0.0391 -0.46875,0.23437 z m -13.4375,3.67188 10.15625,0.0781 1.32813,-0.0781 0.54687,0.625 0.3125,0 q 0.9375,-0.625 2.8125,-0.625 l 6.5625,0.0781 0.0781,-0.0781 0.0781,0.23437 -0.0781,0.9375 0.0781,1.71875 0,0.39063 q 0,0.15625 -0.54687,0.23437 l -12.73438,-0.0781 -3.20312,0 0,-0.15625 q 0.3125,0 0.3125,-0.23438 0,-0.13671 -0.39063,-0.23437 -0.46875,0.0586 -0.9375,0.625 l -0.54687,0 -9.0625,0.0781 -0.3125,-0.15625 0.0781,-0.70312 -0.0781,-2.34375 q 0,-0.25391 5.54687,-0.3125 z m 4.53125,1.875 0,0.23437 0.15625,0 q 0.42969,0 0.625,-0.39062 l 0,-0.15625 q -0.78125,0.11719 -0.78125,0.3125 z"
         style="font-style:normal;font-variant:normal;font-weight:normal;font-stretch:normal;font-family:'[TOP_SECRET]';-inkscape-font-specification:'[TOP_SECRET]';fill:#dcdcdc;fill-opacity:1"
         id="path3339" />
      <path
         d="m 275.52196,297.26614 10.3125,0.0781 4.14062,0 -0.23437,0.9375 q 0.29297,0 1.01562,-0.9375 l 5.54688,-0.0781 q 1.25,0.0977 1.25,0.39063 0.82031,-0.46875 1.25,-0.46875 l 0.54687,0 q 1.26953,0 1.79688,2.10937 l 0,0.54688 q 0,0.85937 -0.39063,0.85937 l -1.48437,0.0781 -0.23438,-0.39063 q -3.125,0.39063 -5,0.39063 l -11.71875,-0.0781 -0.70312,0.0781 q -0.3125,-0.625 -0.46875,-0.625 -0.17578,0.54687 -1.32813,0.625 l -5.15625,-0.0781 0,-1.79687 0.46875,0.0781 0.78125,-0.15625 0,-0.0781 -0.3125,-0.3125 -0.85937,0.23437 q -0.15625,-0.44921 -0.15625,-1.25 l 0.0781,-0.0781 0.23438,0 q 0.15625,0 0.23437,0.625 l 0.0781,0.0781 0.15625,0 0.15625,-0.78125 z m 16.79687,2.10938 q 0.52735,0.3125 0.9375,0.3125 l 0.0781,-0.0781 0,-0.15625 q -0.35157,0 -0.78125,-0.54687 -0.13672,0 -0.23438,0.46875 z m -1.95312,0.23437 0,0.54688 0.39062,0 0.85938,-0.15625 q 0.15625,0 0.15625,0.46875 l 0.0781,0 0.15625,-0.15625 -0.15625,-0.46875 -0.625,0.0781 -0.85937,-0.3125 z m -5.54688,2.26563 q 8.16406,0 9.6875,1.48437 2.57813,1.89454 2.57813,4.29688 l 0,0.54687 q 0,2.96875 -2.26563,4.60938 -0.0976,0.39062 -0.23437,0.39062 l -0.0781,0 -0.54687,-0.70312 q -0.6836,1.64062 -1.40625,1.64062 l -0.23438,-0.3125 -0.15625,0 q -0.15625,0 -0.3125,0.625 3.4961,3.125 4.29688,5.23438 l 0.0781,0.23437 0,0.23438 -0.46875,0.46875 q 0,0.21484 1.09375,0.39062 l 0.15625,0.23438 0,0.23437 -0.23437,0 0,0.0781 q 0.78125,0.95703 0.78125,1.5625 l 0,0.0781 q 0,0.58594 -1.32813,0.78125 l -0.85937,0.39063 -0.15625,-0.54688 -0.39063,0 -0.54687,0.70313 q -0.625,-0.27344 -0.625,-0.39063 l 0.15625,-0.23437 q -1.01563,-0.54688 -1.01563,-1.01563 l 0.0781,-0.3125 q -1.09375,-0.3125 -1.09375,-1.40625 l 0,-0.15625 q 0,-0.54687 0.78125,-0.9375 l -0.23438,0 -1.01562,0.3125 q 0,-0.23437 -2.03125,-2.96875 l 0,-0.15625 0.0781,-0.0781 0.0781,0 0.46875,0.0781 0.0781,0 0,-0.23437 q -0.33203,0 -2.65625,-1.5625 -1.17187,-0.64453 -2.34375,-0.70313 -1.32812,0 -1.32812,0.46875 l -0.15625,1.01563 0.15625,3.82812 0,0.39063 -0.0781,0 -0.3125,-0.0781 q -0.3125,0 -0.54687,0.70313 l 0.0781,0.3125 q -1.09375,0.33203 -1.25,0.54687 l 0.0781,0.0781 0,0.0781 q 0.39062,-0.13671 0.39062,-0.39062 l 0.0781,0 0.78125,0.85937 q 0.70312,0.0195 0.70312,0.23438 -0.46875,0.37109 -0.46875,1.01562 -0.82031,0 -1.79687,0.78125 l -0.54688,0.15625 q -0.625,-0.0976 -0.625,-0.3125 0,-0.21484 0.54688,-0.3125 l 0,-0.23437 -0.0781,0 -0.625,0.46875 q -0.9375,-0.48828 -0.9375,-1.95313 l 1.40625,-0.70312 0,-0.0781 -0.23437,-0.0781 q -0.60547,0.15625 -1.01563,0.70312 -0.15625,0 -0.23437,-0.54687 l 0.0781,-1.17188 0.15625,-0.15625 0.70313,0.23438 0.23437,-0.0781 0,-0.23437 q 0,-0.21484 -0.70312,-0.39063 l -0.3125,0.0781 -0.15625,-0.46875 q 0.0781,-0.78125 0.23437,-0.78125 l -0.15625,-1.09375 0,-2.42188 q 0,-0.13671 0.70313,-0.3125 0,-0.13671 -0.70313,-0.23437 l 0.0781,-0.54688 -0.15625,-4.92187 0.15625,-0.39063 1.48437,0.3125 0,-0.0781 -0.15625,-0.54688 -0.0781,0 -0.23438,0.15625 -0.15625,-0.23437 0,-0.0781 0.85938,-0.625 q -0.70313,0 -0.70313,-0.78125 l -0.0781,0 q -0.35157,0.23438 -0.78125,0.23438 l 0,0.23437 q 0.54687,0.44922 0.54687,0.78125 0,0.11719 -0.54687,0.39063 -0.19532,0 -0.3125,-1.25 0,-0.58594 0.39062,-0.9375 -0.39062,-0.625 -0.39062,-1.09375 l 0,-0.46875 q 0.33203,-2.8125 2.8125,-2.8125 0.99609,-0.15625 3.04687,-0.15625 z m 6.5625,2.10937 -0.15625,0.23438 0,0.0781 q 0.29297,0 0.85938,0.39063 0.2539,-0.0781 0.3125,-0.3125 l -1.01563,-0.39063 z m 0.78125,1.40625 0,0.0781 q 1.32813,0.29297 1.32813,0.9375 0.74218,-0.39063 1.01562,-0.39063 l -0.46875,-1.25 q -0.33203,0.3125 -1.875,0.625 z m -8.59375,0.3125 0.0781,0.39063 q -0.0586,1.30859 -0.39063,2.03125 0.23438,0 0.23438,0.3125 l -0.0781,0.85937 0.15625,0.46875 q -0.39062,0.0977 -0.39062,0.23438 0.46875,1.23047 0.46875,1.71875 l 0.0781,0 4.0625,-0.0781 q 1.07422,0 1.64063,0.625 -0.39063,0.54688 -0.85938,0.54688 l -0.23437,0 -0.0781,-0.0781 -0.0781,0 0,0.15625 q 0.0781,1.40625 0.39062,1.40625 l 0.23438,0 q 0.5664,0 0.625,-0.46875 l -0.15625,0 -0.39063,0.3125 -0.15625,-0.15625 0,-0.23437 0.3125,0 0,-0.78125 q 0,-0.15625 0.23438,-0.15625 0.42968,0 0.54687,0.9375 l 1.17188,0.0781 q 0.41015,0 0.625,-0.39062 -0.78125,0 -0.78125,-0.54688 l 0,-0.23437 q -0.48828,0.39062 -0.78125,0.39062 -0.35157,-0.15625 -0.39063,-0.3125 l 0,-0.15625 0.15625,-0.15625 0.23438,0 0.70312,0.15625 0,-0.0781 -0.23437,-0.23438 -0.85938,0 0,-0.0781 0.0781,-0.23438 -0.0781,0 -0.23437,-0.23437 0,-0.0781 0.15625,-0.15625 1.25,0.3125 q 0.35156,-0.15625 0.39062,-0.3125 l -0.625,0 0,-0.23437 1.01563,-0.46875 0.0781,0 0.39063,0.0781 0,-0.0781 q 0.23437,-2.34375 0.70312,-3.20313 -0.9375,-0.42968 -0.9375,-1.17187 -0.95703,-0.60547 -5.54687,-1.09375 l 0,-0.3125 -0.0781,0 q 0,0.41016 -2.65625,0.70312 z m 7.03125,-0.15625 0.9375,0.0781 0.23438,-0.0781 q -0.0391,-0.23437 -0.625,-0.23437 l -0.3125,0 -0.23438,0.23437 z m -9.60937,1.40625 q 0.17578,0.46875 0.46875,0.54688 0,-0.74219 0.70312,-1.48438 l -0.15625,0 q -0.68359,0 -1.01562,0.9375 z m -0.54688,2.73438 0,0.0781 0.0781,-0.0781 0.0781,0 1.5625,-0.0781 q -0.3125,-0.3125 -0.3125,-0.54687 l -0.15625,0 q -1.25,0.33203 -1.25,0.625 z m 14.45313,1.25 0.3125,0.3125 0.0781,0 -0.0781,-0.0781 0,-0.0781 q 0,-0.42969 1.09375,-0.70313 l 0.0781,-0.0781 0,-0.0781 -0.0781,0 q -0.64453,0 -1.40625,0.70313 z m -14.76563,0.0781 q 0.0977,0.39063 0.23438,0.39063 l 0.70312,-0.70313 -0.625,-0.0781 q -0.21484,0.0195 -0.3125,0.39062 z m 1.25,5.07813 0,0.0781 q 0.3125,0.60547 0.625,0.78125 l 0.0781,-0.0781 0.0781,0 -0.15625,-0.46875 0,-0.3125 -0.625,0 z m -2.10937,2.57812 0.39062,0.39063 0.15625,-0.15625 q -0.15625,-0.35156 -0.3125,-0.39063 l -0.0781,0 -0.15625,0.15625 z m 1.71875,3.51563 q 0,0.54687 -0.78125,0.54687 l 0,0.3125 0.0781,0 0.78125,-0.23437 0.15625,0.39062 q 0.23438,-0.0781 0.23438,-0.46875 0,-0.3125 -0.39063,-0.54687 l -0.0781,0 z m 0.9375,1.01562 0.78125,0.23438 0.0781,0 0,-0.39063 -0.15625,-0.15625 -0.15625,0 q -0.41015,0 -0.54687,0.3125 z m 13.67187,2.8125 1.32813,0 q 2.8125,0.0586 2.8125,0.39063 l 0,0.0781 -0.0781,0.0781 0,0.0781 0.0781,0 q 0.3125,0 0.78125,-0.46875 l 0.3125,0 0.15625,0.15625 0,0.3125 q 0,0.17579 -0.85938,0.39063 l -0.0781,0.0781 0,0.0781 0.15625,0.15625 0.0781,0 q 0.29297,-0.23438 0.54688,-0.23438 l 0.15625,0.15625 0,2.26563 -0.15625,0.15625 -0.39063,0 q -0.78125,0 -0.78125,-0.54688 l -0.15625,0 q -0.70312,0.54688 -1.01562,0.54688 l -0.15625,0 -0.15625,-0.15625 0.15625,-0.39063 -0.0781,0 -0.625,0.15625 0,0.0781 0.15625,0 0,0.15625 -5.46875,0.15625 -2.96875,0 -5.70312,-0.15625 0,-0.0781 0.46875,-1.17187 -0.3125,-0.54688 0,-0.0781 q 0.5664,0 1.01562,-0.85938 l 0.46875,0.46875 0.23438,0 0.15625,-0.15625 -0.9375,-0.54687 0,-0.15625 0.85937,0.0781 10,-0.46875 z m -13.35937,0.15625 0.9375,0 0.15625,0.15625 -1.25,1.48438 0.9375,0.23437 0,0.15625 -0.0781,0.625 0.39063,-0.0781 0.0781,0.0781 0,0.0781 q -0.35156,0.39062 -0.9375,0.39062 l 0,-0.23437 q -1.34765,0.70312 -2.26562,0.70312 -0.78125,0 -1.48438,-0.54687 l -0.0781,0 q 0,0.35156 -0.78125,0.46875 l -2.8125,-0.0781 -0.3125,0.0781 -0.0781,-0.0781 0,-0.0781 0.0781,-0.46875 -0.15625,-2.42188 0,-0.23437 0.15625,-0.15625 4.76562,0 0,0.15625 q -0.78125,0.13672 -0.78125,0.3125 l 0,0.0781 q 2.2461,-0.625 3.51563,-0.625 z m -6.71875,1.01563 0.0781,0 1.32813,-0.23438 q 0,-0.15625 -0.85938,-0.23437 -0.54687,0.11719 -0.54687,0.46875 z m 5.07812,0.54687 0.0781,0.23438 -0.0781,0 q -0.54687,0.17578 -0.54687,0.3125 0.54687,0 0.54687,0.23437 l 0,0.39063 0.0781,0 0.54687,-0.0781 0,-0.15625 q -0.3125,0 -0.39062,-0.39062 l 0.23437,-0.70313 -0.0781,0 q -0.39063,0.0195 -0.39063,0.15625 z m 4.53125,0.46875 0.15625,0.70313 0.0781,0 q 0.46875,0 1.17187,-0.54688 -0.0781,-0.23437 -0.46875,-0.23437 l -0.9375,0.0781 z"
         style="font-style:normal;font-variant:normal;font-weight:normal;font-stretch:normal;font-family:'[TOP_SECRET]';-inkscape-font-specification:'[TOP_SECRET]';fill:#dcdcdc;fill-opacity:1"
         id="path3341" />
      <path
         d="m 307.94383,297.18802 q 0.85938,0.78125 1.01563,0.78125 l 0.39062,0 0,-0.0781 -0.15625,-0.46875 0.0781,-0.0781 0.0781,0 q 0.54688,0.0781 0.54688,0.23437 l 0.625,-0.23437 0.54687,0 q 0.70313,0.15625 0.70313,0.39062 1.42578,-0.46875 4.14062,-0.46875 l 1.71875,0 4.0625,0.0781 0,0.0781 q 0,0.21485 -1.25,0.3125 l 0.23438,0.3125 0.0781,0 0.9375,-0.23437 0.0781,0.0781 0,0.0781 q -0.0586,0.27344 -0.46875,0.46875 l -0.70313,0 -0.0781,-0.0781 -0.0781,0 0,0.15625 0.15625,0.3125 -0.15625,0.3125 0.15625,0 q 0.41016,-0.3125 0.70313,-0.3125 l 0.46875,0 0.70312,-1.09375 q 0,-0.39062 0.15625,-0.39062 l 2.10938,-0.0781 4.21875,0.0781 1.17187,0 2.1875,0.0781 1.25,-0.0781 0.0781,0.0781 0,3.20313 -0.15625,0.15625 -4.0625,0 0,-0.0781 0.15625,-0.23437 -0.23438,-0.23438 0.0781,-0.23437 -0.0781,0 q -0.60547,0.0781 -1.17187,0.78125 l -15.85938,0 q -0.15625,0 -0.3125,-0.46875 l 0.15625,-0.625 -0.0781,-0.23438 0.0781,-0.0781 0.0781,0 0.54687,0.39062 0,-0.15625 -0.70312,-0.85937 -0.0781,0.0781 -0.46875,0 -0.54687,-0.0781 0,0.15625 0.15625,0.15625 0.85937,0 0,0.15625 -0.9375,0.23437 q -1.1914,-0.15625 -1.64062,-0.54687 -0.25391,0.0781 -0.3125,0.3125 l 0.39062,0.9375 1.48438,-0.23438 0.15625,0 0.15625,0.15625 q -0.46875,0.54688 -1.48438,0.54688 l -0.70312,0 q -2.73438,0 -2.73438,-0.85938 l 0.0781,-1.17187 q 0.23437,0 0.23437,-0.3125 l 0.15625,-0.15625 0.625,0.15625 -0.3125,-0.39063 0,-0.0781 0.15625,-0.23438 -0.54687,0 q -0.15625,0 -0.15625,0.23438 l -0.0781,0 -0.15625,-0.15625 q 0,-0.29297 1.5625,-0.46875 z m 4.375,0.625 0,0.0781 q 0,0.78125 0.54688,0.78125 l 0,-0.85937 -0.54688,0 z m 6.64063,0.15625 q 0.0977,0.9375 0.23437,0.9375 1.01563,-0.0977 1.01563,-0.39063 -0.39063,0 -0.39063,-0.54687 l -0.85937,0 z m -4.76563,0.9375 0.0781,0.0781 0.39062,-0.0781 0.3125,0.0781 0.15625,-0.23437 0,-0.23438 -0.0781,0 q -0.85938,0.11719 -0.85938,0.39063 z m 10.23438,-0.39063 0,0.54688 -0.23438,0.23437 -0.0781,0 -0.23438,-0.15625 0,0.15625 q 0.13672,0.3125 0.54688,0.3125 0.78125,-0.0976 0.78125,-0.3125 -0.46875,0 -0.46875,-0.23437 l 0.15625,-0.54688 -0.46875,0 z m -14.375,0.3125 0,0.0781 0.15625,0.15625 0.23437,0 q 0,-0.3125 0.3125,-0.3125 l 0,-0.15625 -0.0781,0 -0.625,0.23437 z m 4.375,0.39063 0,0.625 0.54687,0.0781 0.0781,0 0.23437,-0.15625 -0.0781,-0.23437 -0.0781,0.0781 -0.0781,0 -0.39063,-0.39062 -0.23437,0 z m -7.10938,0.46875 0,0.0781 q 0,0.29297 0.9375,0.54688 l 0.15625,0 0,-0.0781 -1.09375,-0.54687 z m 5.46875,0.46875 0,0.15625 0.0781,-0.0781 0.78125,0 q 0.85937,0 0.85937,-0.23437 l -1.17187,0 -0.54688,0.15625 z m 7.42188,1.875 0.78125,0 q 3.53515,0 6.09375,1.95312 l -0.3125,1.09375 0,0.0781 0.23437,0 q 0.17578,0 0.3125,-0.78125 1.48438,0.83984 1.48438,1.5625 l 0,0.0781 -0.23438,0.3125 0.78125,0.3125 -0.23437,0.78125 q 0.85937,1.01563 0.85937,1.40625 l 0,0.3125 q 0,1.09375 -2.1875,1.40625 l -0.625,0 q -0.68359,0 -1.01562,-0.54687 l 0,-0.3125 0.0781,-0.39063 q -1.17187,-0.82031 -1.17187,-1.71875 l 0,-0.39062 0.0781,-0.0781 0,-0.0781 q -1.23047,0 -1.79687,-0.78125 -0.9375,-0.54688 -1.64063,-0.54688 l -0.39062,0 -0.15625,-0.15625 0,-0.39062 q -0.29297,0 -0.70313,0.39062 l -0.23437,0 -0.0781,-0.0781 -0.0781,0 0.0781,-0.54688 0,-0.0781 -0.23437,-0.23438 -0.23438,0 -0.15625,0.15625 0.23438,0.78125 -0.15625,0.15625 -0.23438,0 q -0.15625,0 -0.54687,-0.9375 l 0,-0.0781 0.0781,-0.0781 0,-0.0781 -0.15625,0 -0.0781,0.0781 -0.0781,0 0.15625,0.54688 q 0,1.09375 -0.9375,1.09375 -0.80078,0.85937 -1.25,0.85937 l -0.39062,0 0,0.0781 q 0,0.78125 -1.32813,3.67187 -0.23437,0.72266 -0.23437,1.32813 l 0,0.625 q -0.3711,0 -0.54688,0.23437 l -0.23437,0 -0.0781,-0.0781 -0.0781,0 0,0.0781 q 0,0.17579 0.78125,0.39063 0.15625,0.17578 0.3125,1.32812 l 0,0.15625 q 0,0.23438 -0.46875,0.23438 0,0.15625 0.39062,0.15625 l 0.0781,0.0781 0,0.0781 -0.15625,0.39062 0.15625,0.39063 -0.0781,0.0781 -0.85937,0 -0.15625,0.46875 0,0.0781 0.0781,0 q 0.27344,0 0.85938,-0.46875 l 0.3125,0 -0.0781,0.54687 0.70313,1.40625 0,0.23438 q -0.11719,0.3125 -0.54688,0.3125 0.19531,0.46875 0.70313,0.46875 l 0.15625,0 0.39062,-0.0781 q 0.0977,0.56641 1.71875,1.5625 l 0.23438,0.46875 0.625,-0.23437 0.625,0.0781 0,0.0781 q 0,0.15625 -0.625,0.15625 l 0.15625,0.15625 0.70312,0 0.15625,0.15625 q 0.74219,-0.54688 2.10938,-0.54688 1.875,0.0586 1.875,0.3125 -0.70313,0.21485 -0.70313,0.54688 l -0.15625,0.15625 -0.39062,-0.15625 -0.0781,0 0,0.0781 0.85938,0.23438 1.79687,-0.54688 0.0781,0 0,-0.0781 q 0,-0.29297 -2.26563,-0.625 l 0,-0.15625 q 0.0195,-0.15625 0.78125,-0.46875 l 0.23438,-0.23438 q 0.23437,0.23438 0.23437,0.54688 l 0.15625,-0.15625 -0.0781,-0.54688 0.3125,-0.0781 0,-0.39063 1.17187,-1.40625 0.46875,0.0781 q 0.46875,-0.46875 0.78125,-0.46875 l 0.39063,0 0,-0.23438 q 0,-0.2539 0.78125,-1.875 l 0,-0.15625 q 1.64062,0.44922 1.64062,2.10938 l 0,0.0781 q 0,1.5625 -1.40625,3.82813 l -0.0781,0 q -0.625,-0.19531 -0.625,-0.3125 l 0,-0.0781 q 0,-0.15625 0.625,-0.23437 l 0,-0.0781 q -0.23438,0 -1.64063,-1.01562 l -0.46875,-0.0781 0.0781,0.0781 0,0.23437 -1.32813,0 q 0,0.54688 0.78125,0.625 l 1.09375,-0.15625 0.15625,0 q 0.625,0.0586 0.625,0.54688 l -0.3125,0.15625 -0.625,-0.39063 -0.15625,0 -0.15625,0.15625 0,0.0781 1.09375,0.3125 0,0.15625 -1.48437,0.70312 -0.54688,0 q 0.23438,0.23438 0.23438,0.54688 l 0.0781,0 0.9375,-0.0781 0,0.15625 -0.23437,0.23438 -0.70313,0 -0.39062,0.0781 0,0.15625 0.39062,-0.0781 0.0781,0 0,0.15625 q -0.9375,1.03516 -2.03125,1.17187 l -0.46875,0 -0.70313,-0.15625 q -0.5664,0.54688 -1.5625,0.54688 l -1.01562,0 q -2.1875,0 -5.07813,-1.25 l 0,-0.15625 0.15625,-0.15625 0.46875,0.15625 0,-0.15625 q -2.28515,0 -4.21875,-3.82813 -1.01562,-2.10937 -1.01562,-4.375 l 0,-0.46875 q -0.39063,0 -0.39063,-0.85937 0,-2.12891 1.5625,-6.64063 1.09375,-2.40234 2.57813,-3.04687 0.44922,0 1.17187,-0.78125 1.95313,-1.40625 4.92188,-1.40625 z m -1.09375,1.71875 0,0.625 q 0.50781,-0.23438 0.54687,-0.46875 l -0.54687,-0.15625 z m -6.01563,3.04687 0,0.0781 q 0,0.625 0.70313,0.625 0.78125,-0.21484 0.78125,-0.46875 l -0.0781,0.0781 -0.39062,0 -0.54688,-0.39062 -0.0781,0 -0.39063,0.0781 z m 14.29688,0.0781 0,0.0781 0.23437,0.78125 0.3125,0 0.46875,0.0781 0.3125,-0.23438 q -0.48828,0 -0.70312,-0.78125 l -0.0781,-0.0781 -0.0781,0 -0.46875,0.15625 z m -2.03125,0.625 0.0781,0.0781 0.39063,0.3125 0,0.0781 -0.0781,0.23437 0.0781,0.0781 0.0781,0 q 0,-0.25391 0.54688,-0.3125 l 0,-0.3125 q 0,-0.13672 -0.54688,-0.3125 l -0.54687,0.15625 z m 2.42187,0.70312 -0.0781,0.3125 q 0.33203,0.3125 0.78125,0.3125 l 0.78125,-0.0781 0,-0.54688 -0.78125,0.23438 -0.15625,0 q -0.25391,0 -0.54688,-0.23438 z m -16.5625,1.17188 0.15625,0.39062 0.15625,0 q 0.33203,-0.3125 0.625,-0.3125 l 0.15625,0.15625 0,0.0781 q 0,0.19531 -0.70312,0.39062 l 0,0.0781 0.15625,0.3125 -0.39063,0.625 0,0.0781 1.48438,0 q 0,-0.68359 0.9375,-1.01562 l 0,-0.0781 q -0.85938,0 -0.85938,-0.3125 l -0.70312,-0.625 0,-0.39062 -0.15625,0 0,-0.0781 q -0.85938,0.21485 -0.85938,0.70313 z m 1.95313,2.1875 0,0.0781 0.39062,0.0781 q 0,-0.46875 0.39063,-0.70313 l 0,-0.0781 -0.15625,0 0,-0.0781 q -0.625,0.19532 -0.625,0.70313 z m -1.40625,0.3125 0.15625,0.39062 0.0781,-0.0781 0.15625,0 q 0.42969,0 0.54688,0.3125 l 0.23437,-0.0781 q -0.70312,-0.54687 -1.01562,-0.54687 l -0.15625,0 z m -0.54688,1.71875 -0.39062,-0.0781 -0.15625,0 0,0.0781 q 0,0.15625 0.23437,0.15625 l 1.5625,-0.15625 0.39063,0.15625 0.15625,-0.625 q -1.79688,0.19531 -1.79688,0.46875 z m -0.54687,1.01562 0.39062,0.0781 0.0781,0 q 0.33203,0 0.9375,-0.3125 l 0,-0.15625 q -0.13672,0.15625 -1.09375,0.15625 l -0.0781,0.0781 q -0.23437,0 -0.23437,0.15625 z m 0.625,1.875 q 0,0.33204 0.625,0.85938 l 0,0.15625 -0.15625,0.15625 -0.0781,0 -0.46875,-0.23438 0,0.0781 0.39063,0.39062 q 0.72265,-0.0586 1.17187,-0.625 0.58594,0.46875 0.85938,0.46875 l 0.0781,0 q -0.72265,-1.48437 -2.10937,-1.48437 l -0.3125,0.23437 z m 14.92187,0.15625 0.3125,0 0.46875,0.3125 0,0.0781 -0.70312,0.15625 -0.0781,0 -0.23437,-0.23438 0,-0.0781 0.23437,-0.23438 z m -15.15625,1.17188 -0.0781,0.0781 0,0.23438 q 0.39062,-0.0977 0.39062,-0.23438 l -0.3125,-0.0781 z m 1.09375,0.39062 0.0781,0.54688 0,0.0781 q 0,0.15625 -0.46875,0.15625 l 0,0.15625 0.39062,0.39063 -0.15625,0.23437 0.0781,0 q 1.30859,-0.625 1.79687,-0.625 l 0,-0.0781 q -1.17187,0 -1.17187,-0.23438 l 0,-0.23437 0.0781,-0.0781 0,-0.0781 -0.46875,-0.23438 -0.15625,0 z m 3.75,2.26563 -0.23437,1.01562 0,0.0781 0.0781,0 1.79688,0.23437 0.54687,-0.15625 0,-0.0781 -0.54687,-0.0781 -1.09375,0.0781 q -0.25391,-1.09375 -0.54688,-1.09375 z m 3.98438,1.875 0,0.15625 q 0.37109,0.37109 0.54687,1.32812 0.39063,0 0.85938,-0.85937 -0.44922,0 -1.17188,-0.625 l -0.23437,0 z m 2.5,1.09375 0.0781,0.0781 0.0781,0 q 0.78125,-0.21484 0.78125,-0.78125 l -0.0781,0 q -0.85937,0.15625 -0.85937,0.70313 z m -0.85938,0.3125 -0.0781,0.0781 0,0.15625 0.0781,0 0.85938,0.0781 q 0.23437,-0.0586 0.3125,-0.3125 l -0.0781,0 -0.3125,0.0781 -0.78125,-0.0781 z m 0.78125,2.34375 1.17188,0.15625 2.65625,-0.15625 0.0781,0 q 0.85938,0 1.5625,0.54687 0.27344,-0.46875 0.9375,-0.46875 l 0.23438,0 q 1.13281,0 2.03125,0.625 0,-0.70312 0.78125,-0.70312 l 0.0781,0.0781 0,0.0781 -0.0781,0.46875 q 0.625,0.19531 0.625,0.3125 l -0.0781,0.0781 -0.23437,0 -0.54688,-0.0781 -0.0781,0.0781 0,0.0781 q 0,0.19531 1.40625,0.39062 l 0.0781,0.0781 0,-0.0781 -0.3125,-0.46875 0.23438,-0.54687 -0.0781,0 -0.625,0.15625 -0.0781,-0.0781 0,-0.23437 q 0,-0.19531 0.3125,-0.23438 l 1.09375,0.15625 0.15625,0 0.0781,0.70313 -0.23437,0.625 q 0.23437,0 0.23437,0.85937 -0.0586,1.01563 -0.3125,1.01563 l -0.23437,0 -2.65625,0.23437 -0.625,0 q -0.60547,0 -1.09375,-0.46875 0,0.23438 -0.3125,0.39063 l -0.39063,0 -0.625,-0.23438 -0.23437,0.23438 -0.15625,0 -1.95313,-0.15625 -17.26562,0.23437 -1.32813,0 q -0.3125,-0.13671 -0.3125,-0.54687 l 0,-0.23438 q 0,-0.95703 0.46875,-2.57812 l -0.0781,-0.0781 0,-0.15625 q 1.03515,0.39063 1.95312,0.46875 l 3.75,-0.46875 q 0.78125,0 1.48438,0.46875 0,-0.3125 8.20312,-0.46875 l 0.3125,-0.0781 z m -5.46875,1.48437 0.3125,0 q 0.25391,0 0.54688,-0.23437 l -0.15625,-0.46875 q -0.70313,0.17578 -0.70313,0.70312 z m 8.59375,0.23438 -0.0781,0.0781 0,0.0781 0.15625,0.15625 -0.39063,0.46875 0,0.15625 q 0.625,0 1.01563,-0.625 l 0,-0.0781 -0.70313,-0.23437 z m 4.84375,1.01562 q 0.33203,0.3125 0.625,0.3125 l 0.15625,0 0.15625,-0.15625 q -0.15625,-0.48828 -0.39062,-0.54687 l -0.3125,0 q -0.17578,0 -0.23438,0.39062 z m -11.95312,-0.15625 q 0.29297,0.625 0.78125,0.625 0,-0.23437 1.32812,-0.39062 l 0,-0.3125 q -0.29297,0.23437 -0.70312,0.23437 l -0.15625,0 -1.25,-0.23437 0,0.0781 z"
         style="font-style:normal;font-variant:normal;font-weight:normal;font-stretch:normal;font-family:'[TOP_SECRET]';-inkscape-font-specification:'[TOP_SECRET]';fill:#dcdcdc;fill-opacity:1"
         id="path3343" />
      <path
         d="m 328.49071,297.34427 2.1875,0.0781 25.07812,-0.0781 0,0.0781 -0.0781,0.54688 0.23437,2.57812 q -2.30469,0.3125 -6.5625,0.3125 l -6.48437,-0.23437 0,-0.0781 q 0.54687,-0.46875 0.54687,-0.625 l -0.0781,-0.3125 -0.0781,0 -0.85937,1.17188 -1.95313,0 -0.15625,-0.15625 q 0,-0.21484 0.9375,-0.3125 l 0,-0.15625 q -0.95703,0 -1.48437,0.625 l -7.73438,0 q -0.17578,0 -0.23437,-0.39063 -0.46875,0.39063 -1.25,0.39063 l -1.79688,0 q -0.23437,-0.0586 -0.23437,-0.625 l 0,-1.79688 -0.0781,-0.9375 0.0781,-0.0781 z m 8.125,0.46875 0.15625,0.23437 0,0.3125 -0.0781,0.39063 0.0781,0.0781 0.15625,0 q 0.17578,0 0.39062,-0.54687 -0.0976,-0.46875 -0.23437,-0.46875 l -0.46875,0 z m 8.28125,0.78125 0,0.0781 q 0,0.25391 1.64062,0.54688 0,-0.33203 -1.09375,-0.70313 l 0,-0.0781 -0.54687,0.15625 z m -4.60938,3.4375 1.25,0 q 7.67578,0 10.23438,5.39062 l 0,0.23438 -0.3125,0.3125 q 0,0.21484 0.78125,0.46875 0.78125,2.12891 0.78125,4.76562 0,6.19141 -3.4375,9.53125 -0.82032,0.70313 -1.17188,0.70313 -1.46484,-0.39063 -2.42187,-0.39063 l -0.3125,0.0781 0.0781,0.0781 0,0.15625 -0.15625,0.23438 0,0.0781 0.15625,0.15625 0.39063,0 0,0.0781 q -0.6836,1.17187 -3.35938,1.17187 -5.46875,-0.44921 -6.01562,-1.25 l 0,-0.15625 0.0781,-0.23437 -0.0781,0 q -1.03516,0 -3.20313,-2.10938 -2.26562,-3.22265 -2.26562,-7.26562 l 0,-0.78125 q 0,-5.99609 4.0625,-9.53125 1.97265,-1.48438 4.29687,-1.48438 l 0.0781,0.0781 0,0.0781 q 0,0.3711 -0.625,0.85938 l 0,0.15625 0.0781,0 q 0.85938,0 0.85938,-1.25 l 0.23437,-0.15625 z m 1.01563,0.85937 0,0.70313 0.54687,0 q 0.42969,0 0.54688,-0.3125 l 0,-0.15625 q -0.0781,-0.23438 -0.46875,-0.23438 l -0.625,0 z m -5.78125,2.8125 0.0781,0 q 0.9375,0 0.9375,-0.54687 l -0.23437,0 q -0.42969,0 -0.78125,0.54687 z m 0.3125,7.8125 q 0,1.69922 0.54687,3.67188 l -0.0781,0.0781 -0.54688,0 q -0.82031,0 -1.79687,0.9375 l 0.0781,0 2.5,-0.78125 0.625,1.32813 0,0.0781 -0.15625,0.54688 q 3.76953,2.26562 6.875,2.26562 0,-0.80078 1.32813,-0.9375 l 0.3125,0.15625 q 0,-0.83984 1.79687,-1.875 l -0.0781,-0.0781 0,-0.23438 q 0,-1.1914 1.32812,-1.79687 l 0,-0.0781 q -0.3125,0 -0.3125,-0.3125 l 0.15625,-1.48437 0,-0.46875 -0.3125,-4.29688 0.15625,-0.9375 -0.15625,0 -0.46875,0.15625 q -1.62109,-3.82812 -5.46875,-3.82812 l -0.0781,0 q -4.16016,0 -5.625,4.21875 -0.625,1.875 -0.625,3.67187 z m 12.65625,-5.15625 0.78125,0.3125 1.09375,-0.39062 0,-0.0781 -1.09375,-0.15625 q -0.78125,0.0586 -0.78125,0.3125 z m -16.64063,3.75 1.09375,0.39063 0.0781,-0.0781 0,-0.0781 q -0.25391,0 -0.85938,-0.54688 l -0.0781,0 q -0.11719,0 -0.23438,0.3125 z m 2.42188,0.625 q 0,0.17579 -0.3125,0.39063 l -0.0781,0.23437 0.0781,0.0781 0.85937,0 0.15625,-0.15625 -0.625,-0.54688 -0.0781,0 z m 13.125,9.84375 0,0.0781 0.0781,-0.0781 0.15625,0 0.625,0.15625 0.15625,0 0,-0.23437 -0.15625,-0.15625 -0.39062,0 q -0.46875,0.0391 -0.46875,0.23437 z m -13.4375,3.67188 10.15625,0.0781 1.32812,-0.0781 0.54688,0.625 0.3125,0 q 0.9375,-0.625 2.8125,-0.625 l 6.5625,0.0781 0.0781,-0.0781 0.0781,0.23437 -0.0781,0.9375 0.0781,1.71875 0,0.39063 q 0,0.15625 -0.54688,0.23437 l -12.73437,-0.0781 -3.20313,0 0,-0.15625 q 0.3125,0 0.3125,-0.23438 0,-0.13671 -0.39062,-0.23437 -0.46875,0.0586 -0.9375,0.625 l -0.54688,0 -9.0625,0.0781 -0.3125,-0.15625 0.0781,-0.70312 -0.0781,-2.34375 q 0,-0.25391 5.54688,-0.3125 z m 4.53125,1.875 0,0.23437 0.15625,0 q 0.42968,0 0.625,-0.39062 l 0,-0.15625 q -0.78125,0.11719 -0.78125,0.3125 z"
         style="font-style:normal;font-variant:normal;font-weight:normal;font-stretch:normal;font-family:'[TOP_SECRET]';-inkscape-font-specification:'[TOP_SECRET]';fill:#dcdcdc;fill-opacity:1"
         id="path3345" />
      <path
         d="m 350.05321,297.34427 10.3125,-0.0781 6.25,0 10.70312,0.0781 0.0781,0.0781 0,2.26563 q 0,1.09375 -0.39063,1.09375 l -10.9375,0.0781 q -0.64453,0 -1.25,-0.78125 l -0.39062,0 q -0.11719,0 -0.46875,0.625 l -0.0781,0.0781 -2.34375,0 -11.48437,-0.15625 -0.0781,-0.0781 0,-0.0781 0.23438,-1.71875 0,-0.0781 0.78125,0 q 0,-0.17578 -0.54688,-0.23437 l -0.46875,-0.46875 0,-0.46875 0.0781,-0.0781 0,-0.0781 z m 3.75,2.5 0,0.3125 0.39062,0.0781 0.23438,0 0.39062,-0.0781 0,-0.0781 -0.85937,-0.23437 -0.15625,0 z m 3.04687,2.10937 q 2.65625,0.39063 2.65625,1.95313 2.38281,2.8125 6.48438,9.53125 1.48437,2.1875 2.89062,3.90625 l 0,-10.46875 q 0,-4.375 0.46875,-4.375 0.625,-0.46875 1.17188,-0.46875 l 0.39062,0 q 1.67969,0 2.1875,1.71875 l -0.23437,2.03125 0.39062,14.21875 q 0,3.49609 -0.70312,4.14062 -0.97657,0.9375 -2.10938,0.9375 -1.5625,0 -2.96875,-2.03125 -2.79297,-3.82812 -6.64062,-10.54687 l 0,-0.23438 0.23437,0 0,-0.0781 q -0.85937,0 -2.26562,-2.42188 l -0.0781,0 -0.23437,2.03125 0.39062,8.20313 0,0.46875 q 0,3.37891 -1.40625,4.375 l -0.70312,0.15625 -0.54688,0 q -1.60156,0 -1.79687,-2.26563 l 0,-0.23437 0.3125,-4.0625 q -0.3125,-4.47266 -0.3125,-10.625 l 0.0781,-4.29688 q 1.11328,-0.80078 1.71875,-1.48437 l 0.625,-0.0781 z m 6.79688,10.3125 0,0.23438 0.15625,0.15625 q 0.0586,-0.39063 0.23437,-0.39063 l 0.15625,0 0.54688,0.15625 0.0781,0 0,-0.0781 q -0.39062,0 -0.54687,-0.85938 l -0.625,0.78125 z m 1.01562,13.82813 0.46875,0.0781 0.0781,-0.0781 0.39062,0.0781 10.15625,-0.0781 1.48438,0 0.15625,0.15625 0,3.125 q 0,0.23437 -1.79688,0.23437 l -16.17187,0 -8.67188,0.0781 -0.54687,0.0781 -0.15625,-0.54687 0.15625,-2.8125 -0.0781,-0.23438 0.0781,-0.0781 14.45312,0 z"
         style="font-style:normal;font-variant:normal;font-weight:normal;font-stretch:normal;font-family:'[TOP_SECRET]';-inkscape-font-specification:'[TOP_SECRET]';fill:#dcdcdc;fill-opacity:1"
         id="path3347" />
      <path
         d="m 371.22508,297.34427 4.29688,0 14.84375,-0.0781 q 2.48047,0.15625 3.98437,0.625 l 0,-0.0781 -0.23437,-0.39063 0.0781,-0.0781 0.46875,0 q 0.46875,0.46875 0.46875,1.25 l -0.0781,1.40625 0.15625,0.70312 -0.0781,0.0781 -23.82812,0 -0.15625,-0.15625 0,-0.54688 0.23437,-0.85937 -0.15625,-0.46875 1.40625,0.15625 q -1.38672,-1.30859 -1.40625,-1.48438 l 0,-0.0781 z m 8.51563,0.23437 -0.0781,0.0781 0,0.15625 q 0,0.25391 0.9375,0.39062 l 0.0781,0.0781 0,0.15625 -0.0781,0.0781 0,0.0781 0.0781,0 q 1.5039,-0.39063 2.1875,-0.78125 l 0,-0.0781 -2.03125,0 -1.09375,-0.15625 z m 3.35937,4.53125 q 7.65625,0.25391 7.65625,0.9375 l 0.15625,0.9375 q 0,1.32813 -0.78125,1.32813 -1.25,0.46875 -3.4375,0.46875 l -6.01562,-0.15625 -0.78125,0.0781 0,5.46875 1.95312,0.15625 4.6875,0 q 2.03125,0 2.03125,0.3125 l -0.3125,0.39063 0,0.0781 0.15625,0 0.3125,-0.46875 0.0781,0 q 0.37109,0 0.54687,1.48438 0,1.71875 -3.4375,1.71875 l -5.07812,-0.15625 -0.9375,0.0781 0,2.10938 q 0,0.15625 -1.25,0.39062 l 0,0.0781 0.15625,0.15625 0.23437,0 0.70313,-0.23438 q 0.15625,0.23438 0.23437,1.64063 l -0.15625,3.4375 0.0781,0.78125 q -0.15625,0.13672 -1.25,0.23437 l 0,0.23438 0.0781,0 0.78125,-0.23438 0.0781,0 0.15625,0.15625 0,0.0781 -0.625,0.78125 q -0.89844,-0.3125 -1.09375,-0.54688 l 0.0781,-0.39062 -0.0781,0 -0.85938,0.15625 0.625,0.54687 0.0781,0.46875 0,0.0781 -0.15625,0.15625 -0.39063,0 q -1.69922,0 -2.03125,-3.51563 l 0,-0.85937 q 0,-0.9375 0.39063,-2.1875 -0.39063,-4.70703 -0.39063,-7.89063 l 0,-0.625 q 0.17578,-7.03125 0.85938,-7.03125 3.35937,-0.625 6.95312,-0.625 z m -5.85937,15.15625 0.23437,0.3125 0.15625,0 q 0.42969,0 0.70313,-0.46875 l 0,-0.0781 -0.15625,0 -0.9375,0.23437 z m 0.23437,1.48438 0,0.70312 0.9375,0 0,-0.3125 -0.46875,0 -0.15625,-0.15625 0.23438,-0.23437 -0.54688,0 z m -2.26562,7.5 9.29687,0.0781 0.625,-0.0781 0.0781,0.46875 0.0781,0 0.54688,-0.46875 9.21875,0 0.23437,0.23437 -0.39062,2.34375 0,0.0781 q 0,0.25391 0.23437,0.54687 l 0,0.0781 -3.20312,0.23437 -6.71875,-0.0781 -0.46875,0 -0.15625,-0.15625 0.23437,-0.70313 -0.0781,0 -0.3125,-0.0781 q -0.3125,0.35156 -0.3125,0.70312 l 0.23437,0.0781 0,0.15625 -0.39062,0.0781 q -0.78125,-0.21484 -0.78125,-0.39062 l -0.15625,0 q 0,0.3125 -2.73438,0.3125 l -0.9375,0 -0.54687,0.0781 -0.70313,-0.0781 -6.79687,0 -0.15625,-0.15625 0,-0.9375 q 0,-2.1875 0.9375,-2.1875 l 3.125,-0.15625 z m 12.1875,2.03125 0,0.0781 0.9375,0.23438 q 0.23437,0 0.39062,-0.625 l -0.23437,-0.0781 q -0.76172,0.39063 -1.09375,0.39063 z"
         style="font-style:normal;font-variant:normal;font-weight:normal;font-stretch:normal;font-family:'[TOP_SECRET]';-inkscape-font-specification:'[TOP_SECRET]';fill:#dcdcdc;fill-opacity:1"
         id="path3349" />
      <path
         d="m 393.33446,297.26614 7.96875,0.0781 0.23437,-0.0781 0.0781,0.0781 0,3.20312 q 0,0.3125 -5.70313,0.3125 -1.1914,0 -2.96875,-0.46875 l 0.0781,0.0781 0,0.0781 -0.15625,0.15625 -0.15625,0 q -0.72266,0 -1.79688,-1.32812 l -0.0781,0 0,0.54687 0.15625,0.78125 -0.0781,0.0781 -0.15625,0 -2.26562,-0.15625 -0.3125,0.0781 q -0.23438,-0.29296 -0.23438,-0.70312 l 0,-0.78125 q 0,-1.79688 0.54688,-1.79688 l 0.54687,0 1.25,0.39063 0.0781,0 0,-0.0781 -0.15625,0 0,-0.15625 q 1.93359,-0.3125 3.125,-0.3125 z m -3.75,1.17188 0,0.0781 0.39062,0.0781 0.625,0 0,-0.0781 q 0,-0.3125 -0.39062,-0.3125 l 0,-0.0781 q -0.625,0.15625 -0.625,0.3125 z m 2.26562,0.78125 0.0781,0.23437 -0.0781,0.0781 0,0.0781 0.0781,0.3125 0.3125,0 0.23437,-0.23437 q 0,-0.41016 -0.39062,-0.625 l -0.0781,0 -0.15625,0.15625 z m 1.25,-0.15625 q 0,0.54687 0.625,0.54687 l 0.0781,-0.0781 0,-0.23438 -0.23438,-0.23437 -0.46875,0 z m 1.48438,3.20312 q 1.85547,0 2.65625,2.1875 l 0.0781,0.54688 q 0,0.56641 -0.54687,1.79687 0.19531,0 0.3125,0.625 l 0,2.26563 q 0,0.11719 -0.625,0.39062 l -0.85938,1.95313 0.0781,0 q 0.9375,0 0.9375,-1.40625 l 0.39062,-0.39063 0.0781,0 q 0,2.03125 -0.9375,2.03125 l 0.15625,0.15625 q 0.29297,-0.23437 0.54687,-0.23437 l 0.0781,0.0781 0,0.0781 q 0,0.70312 -0.54688,0.70312 l 0,0.0781 q 0.70313,0.0586 0.70313,0.23437 l 0,0.3125 q -0.11719,0.3125 -0.54688,0.3125 l -0.3125,-0.0781 0,0.0781 0.39063,0.46875 -0.23438,0.3125 0.0781,0.0781 0,0.0781 q 0.39062,0 0.39062,-0.54687 l 0.0781,0 0.15625,0.15625 0,1.32812 -0.15625,0.15625 q -0.41016,0 -0.54688,-0.3125 l 0,-0.39062 q -1.01562,0 -1.01562,-0.54688 l -0.3125,0.39063 q 0.0391,0.17578 0.625,0.39062 l 0.15625,0.23438 0,0.39062 q 1.09375,0 1.09375,1.32813 l -0.0781,0 -0.70312,-0.15625 -0.15625,0 0,0.0781 q 0,0.27344 0.3125,0.625 l 0,0.23438 -0.0781,0.0781 0,0.0781 q 0.85938,0 0.85938,0.15625 0,0.54687 -0.9375,0.78125 l 0,0.15625 0.625,-0.15625 0.15625,0 0.0781,0.0781 0.0781,0 -0.0781,0.23438 0.0781,2.26562 q -0.0977,1.09375 -0.9375,1.09375 l 0,0.0781 q 0.78125,0 0.78125,0.3125 0,0.48828 -0.70313,1.09375 l -0.46875,-0.15625 -0.23437,0 -0.15625,0.15625 0,0.0781 0.0781,0 0.39063,-0.0781 0.0781,0.0781 0,0.0781 q -0.37109,0.39062 -1.40625,0.39062 l 0,-0.15625 0.0781,-0.0781 0,-0.0781 q -0.21485,-0.23437 -1.48438,-0.3125 l -0.15625,-0.23437 0,-0.0781 0.39063,-0.46875 -0.39063,0.0781 q -0.46875,-0.27344 -0.46875,-0.78125 0,-0.19531 0.625,-0.625 l -0.625,-0.39063 0,-0.15625 q 0,-0.15625 0.85938,-0.3125 l 0.0781,-0.0781 0,-0.23438 -0.46875,0.15625 -0.0781,-0.0781 0,-0.15625 q 0,-0.13672 0.70312,-0.23438 l 0.23438,-0.46875 -0.15625,0 q -0.29297,0 -0.70313,0.39063 l -0.3125,0 -0.15625,-0.15625 0,-2.73438 0.0781,-0.0781 0,-0.0781 q 1.09375,0.70313 1.5625,0.70313 l 0.23437,0 q 0.54688,-0.39063 0.54688,-0.70313 l -0.0781,0.0781 -0.0781,0 q 0,-0.44922 -0.85938,-0.54688 l -1.32812,0.3125 -0.0781,-0.0781 0,-0.54688 0.0781,-0.0781 0,-0.0781 0.0781,0.0781 0.39063,0 q 0.70312,0 0.70312,-0.39063 l 0.3125,0 q 0.76172,0.76172 1.09375,0.85938 l 0.54688,-0.15625 0,-0.0781 q -0.3125,-1.64062 -1.25,-1.64062 l 0,0.3125 q 0.39062,0.0195 0.39062,0.23437 l 0,0.0781 -0.15625,0.15625 -0.78125,0 -0.15625,-0.15625 0,-0.23438 0.23438,-0.3125 -0.15625,-0.15625 -0.23438,0 -0.625,0.3125 -0.0781,-0.0781 0,-0.0781 0.3125,-0.3125 0,-0.0781 -0.625,0.15625 -0.0781,-0.0781 0.0781,-0.0781 -0.0781,-0.9375 0,-0.39063 q 0.0391,-0.78125 0.39063,-0.78125 -0.39063,-0.42968 -0.39063,-0.9375 l 0,-0.0781 0.0781,-1.71875 0.0781,0 q 0.21485,0 0.78125,0.9375 l 0.39063,0.0781 -0.3125,-0.46875 0,-0.15625 q 0.46875,-0.0781 0.46875,-0.23437 -1.48438,-0.46875 -1.48438,-1.48438 l 0,-0.0781 0.0781,-0.0781 0.23437,0 q 0.625,0.625 0.9375,0.625 l 0,-0.0781 q -0.625,-0.56641 -0.625,-0.9375 l -0.46875,0.15625 -0.15625,-0.15625 0.0781,-0.54688 0,-2.96875 0.70312,0.15625 0.15625,0 q 0,-0.19531 -0.9375,-0.39062 0,-2.10938 1.875,-2.42188 l 0.23438,0 z m 1.01562,5 q 0.0781,0.23438 0.46875,0.23438 0.39063,-0.15625 0.39063,-0.625 l 0,-0.0781 -0.39063,0 -0.46875,0.46875 z m -1.01562,0.46875 0,0.78125 0.15625,0.15625 0.23437,0 0.15625,-0.39062 q -0.3125,0 -0.3125,-0.15625 l 0.3125,-0.23438 0,-0.15625 -0.54687,0 z m -1.40625,0.70313 0.54687,0.0781 0,-0.0781 -0.23437,-0.23438 -0.3125,0.23438 z m 1.01562,2.1875 q 0.11719,0.3125 0.23438,0.3125 l 0.15625,0 q 0.42968,0 0.54687,-0.3125 0,-0.19531 -0.3125,-0.23438 l -0.625,0.23438 z m -0.0781,2.57812 q 0.0781,0.3125 0.46875,0.3125 l -0.15625,-0.46875 q 0.5664,0 1.01562,-0.625 -1.32812,0.39063 -1.32812,0.78125 z m -0.54688,5.9375 0.0781,0.46875 1.09375,-0.39062 0.46875,0.3125 q 0,-0.21484 0.39062,-0.625 -0.3125,0 -0.3125,-0.625 l -0.15625,0 -0.0781,0.0781 q 0,0.50782 -1.48438,0.78125 z m 0.54688,2.10938 0,0.0781 q 0.54687,0 0.54687,0.23438 l -0.15625,0.54687 0.0781,0 q 0.44922,0 0.70312,-0.78125 0.41016,0 0.46875,-0.23437 l -0.3125,0 -1.32812,0.15625 z m 1.32812,0.46875 0.0781,0.39062 0,0.0781 q 0,0.13672 -0.9375,0.54687 l -0.0781,0.0781 0,0.15625 0.0781,0 0.9375,0.15625 q 0,-1.09375 0.625,-1.09375 l 0.46875,0 0,-0.0781 q -0.0391,-0.3125 -0.54688,-0.3125 l -0.625,0.0781 z m -7.42187,4.53125 1.01562,0.0781 4.0625,-0.0781 q 0.625,0 1.71875,0.46875 l 0,-0.0781 q 0.23438,-0.39062 0.54688,-0.39062 l 1.01562,0.0781 0.23438,-0.0781 0.0781,0.0781 0,0.0781 q -0.78125,0.19531 -0.78125,0.54687 l 0.0781,0.0781 0.39062,0 q 0.60547,0 0.70313,-0.54688 l 0.625,0.0781 1.5625,-0.3125 0.23437,0 0,0.15625 -0.3125,0 -0.39062,0.0781 0,0.0781 0.39062,0 2.34375,-0.3125 0.0781,0.0781 0,3.20313 -0.0781,0.0781 0,0.0781 -0.0781,-0.0781 -0.0781,0 -1.25,0.15625 0,-0.15625 0.3125,-0.39062 0,-0.0781 q -1.1914,0.54688 -1.875,0.54688 l -3.04687,-0.0781 -0.0781,0.0781 -0.0781,-0.0781 0,-0.0781 0.15625,-0.625 -0.23438,0 q -0.21484,0 -0.39062,0.78125 -2.05078,0 -2.96875,-0.46875 -0.15625,0.46875 -1.40625,0.46875 l -2.5,0 -0.0781,-1.5625 q 0.0586,-0.39063 0.23438,-0.39063 -0.23438,-0.41015 -0.23438,-0.78125 l 0,-0.54687 0.0781,-0.0781 0,-0.0781 z m 1.64062,0.54687 -0.46875,0.46875 0,0.0781 0.85938,-0.23438 0,-0.3125 -0.39063,-0.0781 0,0.0781 z m 7.8125,0 q 0,0.56641 -1.09375,0.85938 l 0,0.0781 0.625,0.15625 q 0,-0.41015 1.32813,-0.9375 l 0,-0.15625 -0.85938,0 z m -3.59375,0.78125 q 1.09375,0.0977 1.09375,0.39063 l -2.10937,0.54687 -0.3125,0.54688 0.46875,0 2.42187,-0.39063 0,-0.0781 -0.3125,-0.39063 0,-0.0781 0.15625,-0.625 -0.9375,-0.15625 q -0.46875,0.0781 -0.46875,0.23437 z m 5.07813,0 q 0,0.41016 -1.79688,0.78125 l -0.0781,0.0781 0,0.0781 q 0.29297,0.625 0.78125,0.625 0.37109,0 1.40625,-0.78125 l -0.0781,-0.39062 0.0781,-0.3125 -0.0781,-0.0781 -0.23437,0 z"
         style="font-style:normal;font-variant:normal;font-weight:normal;font-stretch:normal;font-family:'[TOP_SECRET]';-inkscape-font-specification:'[TOP_SECRET]';fill:#dcdcdc;fill-opacity:1"
         id="path3351" />
      <path
         d="m 395.67821,297.26614 10.3125,0.0781 4.14062,0 -0.23437,0.9375 q 0.29297,0 1.01562,-0.9375 l 5.54688,-0.0781 q 1.25,0.0977 1.25,0.39063 0.82031,-0.46875 1.25,-0.46875 l 0.54687,0 q 1.26953,0 1.79688,2.10937 l 0,0.54688 q 0,0.85937 -0.39063,0.85937 l -1.48437,0.0781 -0.23438,-0.39063 q -3.125,0.39063 -5,0.39063 l -11.71875,-0.0781 -0.70312,0.0781 q -0.3125,-0.625 -0.46875,-0.625 -0.17578,0.54687 -1.32813,0.625 l -5.15625,-0.0781 0,-1.79687 0.46875,0.0781 0.78125,-0.15625 0,-0.0781 -0.3125,-0.3125 -0.85937,0.23437 q -0.15625,-0.44921 -0.15625,-1.25 l 0.0781,-0.0781 0.23438,0 q 0.15625,0 0.23437,0.625 l 0.0781,0.0781 0.15625,0 0.15625,-0.78125 z m 16.79687,2.10938 q 0.52735,0.3125 0.9375,0.3125 l 0.0781,-0.0781 0,-0.15625 q -0.35157,0 -0.78125,-0.54687 -0.13672,0 -0.23438,0.46875 z m -1.95312,0.23437 0,0.54688 0.39062,0 0.85938,-0.15625 q 0.15625,0 0.15625,0.46875 l 0.0781,0 0.15625,-0.15625 -0.15625,-0.46875 -0.625,0.0781 -0.85937,-0.3125 z m -5.54688,2.26563 q 8.16406,0 9.6875,1.48437 2.57813,1.89454 2.57813,4.29688 l 0,0.54687 q 0,2.96875 -2.26563,4.60938 -0.0976,0.39062 -0.23437,0.39062 l -0.0781,0 -0.54687,-0.70312 q -0.6836,1.64062 -1.40625,1.64062 l -0.23438,-0.3125 -0.15625,0 q -0.15625,0 -0.3125,0.625 3.4961,3.125 4.29688,5.23438 l 0.0781,0.23437 0,0.23438 -0.46875,0.46875 q 0,0.21484 1.09375,0.39062 l 0.15625,0.23438 0,0.23437 -0.23437,0 0,0.0781 q 0.78125,0.95703 0.78125,1.5625 l 0,0.0781 q 0,0.58594 -1.32813,0.78125 l -0.85937,0.39063 -0.15625,-0.54688 -0.39063,0 -0.54687,0.70313 q -0.625,-0.27344 -0.625,-0.39063 l 0.15625,-0.23437 q -1.01563,-0.54688 -1.01563,-1.01563 l 0.0781,-0.3125 q -1.09375,-0.3125 -1.09375,-1.40625 l 0,-0.15625 q 0,-0.54687 0.78125,-0.9375 l -0.23438,0 -1.01562,0.3125 q 0,-0.23437 -2.03125,-2.96875 l 0,-0.15625 0.0781,-0.0781 0.0781,0 0.46875,0.0781 0.0781,0 0,-0.23437 q -0.33203,0 -2.65625,-1.5625 -1.17187,-0.64453 -2.34375,-0.70313 -1.32812,0 -1.32812,0.46875 l -0.15625,1.01563 0.15625,3.82812 0,0.39063 -0.0781,0 -0.3125,-0.0781 q -0.3125,0 -0.54687,0.70313 l 0.0781,0.3125 q -1.09375,0.33203 -1.25,0.54687 l 0.0781,0.0781 0,0.0781 q 0.39062,-0.13671 0.39062,-0.39062 l 0.0781,0 0.78125,0.85937 q 0.70312,0.0195 0.70312,0.23438 -0.46875,0.37109 -0.46875,1.01562 -0.82031,0 -1.79687,0.78125 l -0.54688,0.15625 q -0.625,-0.0976 -0.625,-0.3125 0,-0.21484 0.54688,-0.3125 l 0,-0.23437 -0.0781,0 -0.625,0.46875 q -0.9375,-0.48828 -0.9375,-1.95313 l 1.40625,-0.70312 0,-0.0781 -0.23437,-0.0781 q -0.60547,0.15625 -1.01563,0.70312 -0.15625,0 -0.23437,-0.54687 l 0.0781,-1.17188 0.15625,-0.15625 0.70313,0.23438 0.23437,-0.0781 0,-0.23437 q 0,-0.21484 -0.70312,-0.39063 l -0.3125,0.0781 -0.15625,-0.46875 q 0.0781,-0.78125 0.23437,-0.78125 l -0.15625,-1.09375 0,-2.42188 q 0,-0.13671 0.70313,-0.3125 0,-0.13671 -0.70313,-0.23437 l 0.0781,-0.54688 -0.15625,-4.92187 0.15625,-0.39063 1.48437,0.3125 0,-0.0781 -0.15625,-0.54688 -0.0781,0 -0.23438,0.15625 -0.15625,-0.23437 0,-0.0781 0.85938,-0.625 q -0.70313,0 -0.70313,-0.78125 l -0.0781,0 q -0.35157,0.23438 -0.78125,0.23438 l 0,0.23437 q 0.54687,0.44922 0.54687,0.78125 0,0.11719 -0.54687,0.39063 -0.19532,0 -0.3125,-1.25 0,-0.58594 0.39062,-0.9375 -0.39062,-0.625 -0.39062,-1.09375 l 0,-0.46875 q 0.33203,-2.8125 2.8125,-2.8125 0.99609,-0.15625 3.04687,-0.15625 z m 6.5625,2.10937 -0.15625,0.23438 0,0.0781 q 0.29297,0 0.85938,0.39063 0.2539,-0.0781 0.3125,-0.3125 l -1.01563,-0.39063 z m 0.78125,1.40625 0,0.0781 q 1.32813,0.29297 1.32813,0.9375 0.74218,-0.39063 1.01562,-0.39063 l -0.46875,-1.25 q -0.33203,0.3125 -1.875,0.625 z m -8.59375,0.3125 0.0781,0.39063 q -0.0586,1.30859 -0.39063,2.03125 0.23438,0 0.23438,0.3125 l -0.0781,0.85937 0.15625,0.46875 q -0.39062,0.0977 -0.39062,0.23438 0.46875,1.23047 0.46875,1.71875 l 0.0781,0 4.0625,-0.0781 q 1.07422,0 1.64063,0.625 -0.39063,0.54688 -0.85938,0.54688 l -0.23437,0 -0.0781,-0.0781 -0.0781,0 0,0.15625 q 0.0781,1.40625 0.39062,1.40625 l 0.23438,0 q 0.5664,0 0.625,-0.46875 l -0.15625,0 -0.39063,0.3125 -0.15625,-0.15625 0,-0.23437 0.3125,0 0,-0.78125 q 0,-0.15625 0.23438,-0.15625 0.42968,0 0.54687,0.9375 l 1.17188,0.0781 q 0.41015,0 0.625,-0.39062 -0.78125,0 -0.78125,-0.54688 l 0,-0.23437 q -0.48828,0.39062 -0.78125,0.39062 -0.35157,-0.15625 -0.39063,-0.3125 l 0,-0.15625 0.15625,-0.15625 0.23438,0 0.70312,0.15625 0,-0.0781 -0.23437,-0.23438 -0.85938,0 0,-0.0781 0.0781,-0.23438 -0.0781,0 -0.23437,-0.23437 0,-0.0781 0.15625,-0.15625 1.25,0.3125 q 0.35156,-0.15625 0.39062,-0.3125 l -0.625,0 0,-0.23437 1.01563,-0.46875 0.0781,0 0.39063,0.0781 0,-0.0781 q 0.23437,-2.34375 0.70312,-3.20313 -0.9375,-0.42968 -0.9375,-1.17187 -0.95703,-0.60547 -5.54687,-1.09375 l 0,-0.3125 -0.0781,0 q 0,0.41016 -2.65625,0.70312 z m 7.03125,-0.15625 0.9375,0.0781 0.23438,-0.0781 q -0.0391,-0.23437 -0.625,-0.23437 l -0.3125,0 -0.23438,0.23437 z m -9.60937,1.40625 q 0.17578,0.46875 0.46875,0.54688 0,-0.74219 0.70312,-1.48438 l -0.15625,0 q -0.68359,0 -1.01562,0.9375 z m -0.54688,2.73438 0,0.0781 0.0781,-0.0781 0.0781,0 1.5625,-0.0781 q -0.3125,-0.3125 -0.3125,-0.54687 l -0.15625,0 q -1.25,0.33203 -1.25,0.625 z m 14.45313,1.25 0.3125,0.3125 0.0781,0 -0.0781,-0.0781 0,-0.0781 q 0,-0.42969 1.09375,-0.70313 l 0.0781,-0.0781 0,-0.0781 -0.0781,0 q -0.64453,0 -1.40625,0.70313 z m -14.76563,0.0781 q 0.0977,0.39063 0.23438,0.39063 l 0.70312,-0.70313 -0.625,-0.0781 q -0.21484,0.0195 -0.3125,0.39062 z m 1.25,5.07813 0,0.0781 q 0.3125,0.60547 0.625,0.78125 l 0.0781,-0.0781 0.0781,0 -0.15625,-0.46875 0,-0.3125 -0.625,0 z m -2.10937,2.57812 0.39062,0.39063 0.15625,-0.15625 q -0.15625,-0.35156 -0.3125,-0.39063 l -0.0781,0 -0.15625,0.15625 z m 1.71875,3.51563 q 0,0.54687 -0.78125,0.54687 l 0,0.3125 0.0781,0 0.78125,-0.23437 0.15625,0.39062 q 0.23438,-0.0781 0.23438,-0.46875 0,-0.3125 -0.39063,-0.54687 l -0.0781,0 z m 0.9375,1.01562 0.78125,0.23438 0.0781,0 0,-0.39063 -0.15625,-0.15625 -0.15625,0 q -0.41015,0 -0.54687,0.3125 z m 13.67187,2.8125 1.32813,0 q 2.8125,0.0586 2.8125,0.39063 l 0,0.0781 -0.0781,0.0781 0,0.0781 0.0781,0 q 0.3125,0 0.78125,-0.46875 l 0.3125,0 0.15625,0.15625 0,0.3125 q 0,0.17579 -0.85938,0.39063 l -0.0781,0.0781 0,0.0781 0.15625,0.15625 0.0781,0 q 0.29297,-0.23438 0.54688,-0.23438 l 0.15625,0.15625 0,2.26563 -0.15625,0.15625 -0.39063,0 q -0.78125,0 -0.78125,-0.54688 l -0.15625,0 q -0.70312,0.54688 -1.01562,0.54688 l -0.15625,0 -0.15625,-0.15625 0.15625,-0.39063 -0.0781,0 -0.625,0.15625 0,0.0781 0.15625,0 0,0.15625 -5.46875,0.15625 -2.96875,0 -5.70312,-0.15625 0,-0.0781 0.46875,-1.17187 -0.3125,-0.54688 0,-0.0781 q 0.5664,0 1.01562,-0.85938 l 0.46875,0.46875 0.23438,0 0.15625,-0.15625 -0.9375,-0.54687 0,-0.15625 0.85937,0.0781 10,-0.46875 z m -13.35937,0.15625 0.9375,0 0.15625,0.15625 -1.25,1.48438 0.9375,0.23437 0,0.15625 -0.0781,0.625 0.39063,-0.0781 0.0781,0.0781 0,0.0781 q -0.35156,0.39062 -0.9375,0.39062 l 0,-0.23437 q -1.34765,0.70312 -2.26562,0.70312 -0.78125,0 -1.48438,-0.54687 l -0.0781,0 q 0,0.35156 -0.78125,0.46875 l -2.8125,-0.0781 -0.3125,0.0781 -0.0781,-0.0781 0,-0.0781 0.0781,-0.46875 -0.15625,-2.42188 0,-0.23437 0.15625,-0.15625 4.76562,0 0,0.15625 q -0.78125,0.13672 -0.78125,0.3125 l 0,0.0781 q 2.2461,-0.625 3.51563,-0.625 z m -6.71875,1.01563 0.0781,0 1.32813,-0.23438 q 0,-0.15625 -0.85938,-0.23437 -0.54687,0.11719 -0.54687,0.46875 z m 5.07812,0.54687 0.0781,0.23438 -0.0781,0 q -0.54687,0.17578 -0.54687,0.3125 0.54687,0 0.54687,0.23437 l 0,0.39063 0.0781,0 0.54687,-0.0781 0,-0.15625 q -0.3125,0 -0.39062,-0.39062 l 0.23437,-0.70313 -0.0781,0 q -0.39063,0.0195 -0.39063,0.15625 z m 4.53125,0.46875 0.15625,0.70313 0.0781,0 q 0.46875,0 1.17187,-0.54688 -0.0781,-0.23437 -0.46875,-0.23437 l -0.9375,0.0781 z"
         style="font-style:normal;font-variant:normal;font-weight:normal;font-stretch:normal;font-family:'[TOP_SECRET]';-inkscape-font-specification:'[TOP_SECRET]';fill:#dcdcdc;fill-opacity:1"
         id="path3353" />
      <path
         d="m 414.66258,297.26614 30.3125,0 0.15625,0.15625 0,3.125 -0.15625,0.15625 -18.82812,0 -0.15625,-0.15625 0.39062,-0.15625 0,-0.0781 -0.0781,0 q -0.72266,0.46875 -2.8125,0.46875 l -1.48438,0 q -3.49609,0 -5,-0.46875 -0.64453,0.39062 -1.5625,0.39062 l -0.78125,0 -0.15625,-0.15625 0,-3.125 0.15625,-0.15625 z m 10.78125,0.3125 -0.0781,0.9375 q 0.13672,0.35157 0.46875,0.54688 l 0,-0.0781 q -0.0781,-1.40625 -0.39063,-1.40625 z m 6.71875,1.32813 0,0.0781 q 0,0.23438 0.85938,0.46875 l 0.0781,0 0.0781,-0.54687 q 0,-0.13672 -0.39063,-0.23438 l -0.625,0.23438 z m -1.79687,0.3125 0,0.0781 q 0,0.58594 0.9375,0.85938 -0.25391,-0.9375 -0.85938,-0.9375 l -0.0781,0 z m 7.5,2.8125 q 3.04687,0 3.04687,3.35937 l 0,0.54688 -0.46875,6.64062 0,1.01563 0.15625,1.48437 -0.39062,0.15625 -1.17188,-0.0781 0,0.15625 q 0.3125,0 0.3125,0.39062 l 0.15625,0.625 0.23438,0 0.0781,-0.46875 0.0781,0 q 0.74218,0.29297 0.85937,2.96875 0,1.67969 -0.625,2.89063 l 0.0781,0 q 0.46875,0.29297 0.46875,0.85937 -0.66407,2.10938 -2.03125,2.10938 l -0.15625,0 q -0.83985,0 -1.25,-1.09375 l -0.15625,0 0,0.23437 -0.0781,0 q -0.54687,0 -0.70312,-5.70312 0,-3.4375 0.46875,-6.48438 -0.39063,-0.625 -0.39063,-1.32812 l 0,-0.23438 q 0.44922,-0.39062 0.9375,-0.39062 l 0,-0.0781 q -0.85937,-0.0586 -0.85937,-0.23437 l 0,-0.23438 q 0.23437,-0.29296 0.23437,-0.54687 l 0,-0.0781 -0.23437,-1.09375 -0.46875,0.39063 -0.9375,-0.23438 q 0.64453,0.74219 0.85937,1.95313 -0.78125,0.625 -1.32812,0.625 l -0.625,-0.23438 0,0.0781 q 0.19531,1.25 1.01562,1.25 l 0,-0.46875 0.23438,-0.23438 0.0781,0 0,0.0781 -1.95312,9.60937 q -1.21094,4.53125 -3.04688,4.53125 l -0.39062,0 q -2.1875,0 -3.04688,-2.65625 -0.625,-2.38281 -1.5625,-8.4375 -0.72265,-0.82031 -1.64062,-5.39062 -0.15625,0 -0.15625,-0.39063 l -0.15625,0 -0.0781,0.70313 0.0781,3.51562 q 0,1.03516 -0.70313,2.1875 l 0.0781,0.0781 0.15625,0 0.0781,-0.0781 0.0781,0 q 0.23437,0.3711 0.23437,1.01563 l 0,0.85937 -0.3125,0.70313 q 0.46875,1.15234 0.46875,1.95312 -0.15625,1.17188 -0.78125,1.17188 l 0,0.15625 q 0,0.15625 0.625,0.23437 l 0,0.3125 -0.15625,0.15625 -0.46875,-0.0781 -0.0781,0 0,0.0781 q 0.85937,0.64454 0.85937,1.40625 l 0,0.0781 q -0.35156,2.42187 -2.34375,2.42187 -1.26953,0 -1.64062,-1.25 -0.46875,-1.99218 -0.46875,-3.75 l 0.3125,-6.64062 -0.0781,-0.3125 q 0.39063,0 1.875,-1.01563 l -0.78125,-1.17187 -0.0781,0 -0.78125,0.78125 q -0.3125,0 -0.39063,-0.9375 l 0.15625,-1.79688 0.0781,0 0.46875,0.0781 0.39062,-0.0781 -0.46875,-0.46875 0,-0.0781 0.39063,0.0781 0.0781,-0.0781 0,-0.0781 -0.78125,-0.23437 -0.0781,0.0781 q -0.15625,-0.5664 -0.15625,-1.5625 0,-3.75 0.78125,-3.75 1.07422,-0.46875 2.5,-0.46875 l 0.78125,0 q 1.48437,0 2.65625,0.54688 l -0.0781,1.5625 q 0,0.46875 0.85938,0.625 l 3.20312,12.10937 0.0781,0 2.26562,-8.90625 q 0.58594,-1.67968 1.40625,-2.96875 l -0.3125,-0.78125 q 0.39063,-1.875 1.32813,-1.875 2.1875,-0.39062 3.28125,-0.39062 z m -3.82813,3.98437 -0.15625,0.46875 0.625,0.15625 0,-0.39062 -0.23437,-0.23438 -0.23438,0 z m 3.75,6.40625 q 0.11719,0.3125 0.23438,0.3125 l 0.3125,0 0,-0.70312 -0.23438,0 q -0.15625,0.0391 -0.3125,0.39062 z m -16.79687,8.4375 0.3125,0 0.78125,0.23438 0.0781,-0.0781 0,-0.0781 q -0.3125,0 -0.3125,-0.23438 l 0,-0.39062 -0.23437,0 q -0.625,0.0586 -0.625,0.54687 z m 6.09375,5.15625 1.79687,0 q 3.04688,0 3.04688,0.39063 l 0,0.15625 q 1.36718,-0.39063 3.59375,-0.39063 l 5.78125,0 1.95312,0.0781 1.40625,-0.0781 0.3125,0 0.15625,0.15625 0,3.125 -0.15625,0.15625 -2.42187,0 q -0.15625,0 -0.15625,-0.85937 l -0.23438,-0.23438 -0.15625,0 0,0.23438 q 0.3125,0.33203 0.3125,0.625 -0.11719,0.3125 -0.54687,0.3125 -0.25391,0 -1.17188,-0.625 -1.13281,0.625 -3.20312,0.625 l -0.9375,0 q -1.66016,0 -3.51563,-0.46875 0,0.46875 -0.23437,0.46875 l -0.15625,0 -2.34375,-0.46875 -6.79688,0.54687 -1.64062,-0.15625 0,-0.0781 q 0,-0.15625 0.23437,-0.15625 l 0,-0.0781 -0.0781,0 q -2.01172,0.39063 -3.98438,0.39063 -3.4375,-0.0977 -3.4375,-0.39063 l 0,-0.0781 0.15625,-0.15625 0.3125,0.0781 0,-0.15625 q -0.41015,0 -0.46875,-0.78125 l 0,-1.875 0.0781,-0.0781 0,-0.0781 2.96875,0.15625 9.53125,-0.3125 z m 15.07812,0.39063 0,0.15625 q 0.35156,0 0.85938,0.54687 l 0.0781,-0.0781 0.0781,0 q -0.15625,-0.23438 -0.15625,-0.625 l -0.85938,0 z m -10.07812,0.39062 0.15625,0.54688 -0.0781,0 -0.23437,0.0781 0,0.23438 0.23437,0 q 0.29297,0 0.46875,-0.85938 l -0.54687,0 z m -10.54688,1.32813 0,0.15625 0.15625,0 0,0.0781 -0.15625,0.15625 -0.54687,-0.15625 0.0781,0.0781 0,0.23437 -0.0781,0.0781 0,0.0781 0.54687,0 q 0.41016,0 0.46875,-0.23437 l -0.3125,-0.46875 -0.15625,0 z m 12.5,0.23437 0,0.0781 q 0,0.25391 0.78125,0.39062 0.78125,-0.0976 0.78125,-0.3125 l 0,-0.0781 -1.17187,-0.0781 -0.39063,0 z"
         style="font-style:normal;font-variant:normal;font-weight:normal;font-stretch:normal;font-family:'[TOP_SECRET]';-inkscape-font-specification:'[TOP_SECRET]';fill:#dcdcdc;fill-opacity:1"
         id="path3355" />
      <path
         d="m 439.62352,297.26614 26.32812,0 q 0.85938,0.66407 0.85938,3.04688 l -0.15625,0.54687 -13.4375,-0.15625 -13.67188,0.15625 -0.0781,-0.0781 0,-3.35938 0.15625,-0.15625 z m 26.17187,1.64063 q 0,0.19531 -0.54687,0.54687 l 0,0.0781 0.0781,-0.0781 0.15625,0 q 0.33204,0 0.78125,0.39063 l 0.15625,0 0,-0.0781 -0.0781,-0.54687 0.0781,-0.23438 -0.625,-0.0781 z m -12.65625,3.125 0.0781,0 q 2.96875,0 4.45312,5.39062 2.57813,7.1875 4.53125,11.5625 0,0.21485 -0.54687,0.70313 l 0,0.0781 0.625,-0.15625 0.0781,0 q 0.25391,0 0.3125,0.9375 0.70313,1.32813 0.70313,2.42188 l -0.23438,0.15625 -0.46875,-0.46875 -0.0781,0 0,0.23437 q 0.78125,0.56641 0.78125,0.85938 -0.95703,1.25 -2.1875,1.25 -1.81641,0 -3.35938,-4.60938 l -0.23437,-1.01562 -0.39063,0.0781 -5.9375,-0.0781 -2.42187,0 q -0.76172,0.42969 -1.79688,4.29687 -0.72265,1.40625 -1.71875,1.40625 l -0.23437,0 q -1.73828,0 -2.42188,-2.03125 l 0,-0.3125 q 0,-1.07421 2.65625,-6.64062 2.8125,-7.87109 3.90625,-9.60938 l 1.25,0 q 0,-0.21484 -1.17187,-0.39062 l 0,-0.0781 q 0,-2.67578 2.96875,-3.90625 l 0.85937,-0.0781 z m -0.23437,4.92187 q -0.48828,1.95313 -1.09375,1.95313 l -0.15625,0.46875 0.46875,-0.39063 0.0781,0.0781 0,0.0781 q 0,0.48829 -0.78125,0.78125 l 0.0781,0.0781 0,0.70312 q 0,0.9961 -1.64063,4.84375 l -0.0781,0.39063 6.48437,0 q 0,-0.33203 -1.71875,-4.60938 l -0.15625,-0.9375 0,-0.85937 q -0.78125,-0.41016 -0.78125,-1.01563 l 0,-0.23437 0.0781,-0.39063 q -0.46875,0 -0.70313,-0.9375 l -0.0781,0 z m -2.42188,10.07813 q 0.29297,0.23437 0.54688,0.23437 0,-0.44921 0.46875,-0.85937 l -0.15625,0 q -0.54688,0 -0.85938,0.625 z m -10.85937,9.14062 26.95312,0 0.15625,0.15625 0,3.125 q 0,0.3125 -4.53125,0.3125 l -11.32812,-0.15625 -0.0781,-0.0781 0,-0.15625 0.15625,-0.15625 0.54688,0.23437 0.0781,-0.0781 q -0.0976,-0.39063 -0.23437,-0.39063 l -0.0781,0 -0.85937,0.23438 -0.3125,-0.15625 0,0.23437 q 0.23437,0 0.23437,0.15625 l 0,0.0781 -1.17187,0.15625 -0.70313,0 q -0.50781,0 -1.48437,-0.39063 -0.74219,0.39063 -1.71875,0.39063 l -4.6875,-0.0781 -0.85938,0.15625 q -0.23437,-0.27343 -0.23437,-0.9375 l 0,-2.5 0.15625,-0.15625 z"
         style="font-style:normal;font-variant:normal;font-weight:normal;font-stretch:normal;font-family:'[TOP_SECRET]';-inkscape-font-specification:'[TOP_SECRET]';fill:#dcdcdc;fill-opacity:1"
         id="path3357" />
      <path
         d="m 461.69383,297.26614 10.3125,0.0781 4.14063,0 -0.23438,0.9375 q 0.29297,0 1.01563,-0.9375 l 5.54687,-0.0781 q 1.25,0.0977 1.25,0.39063 0.82031,-0.46875 1.25,-0.46875 l 0.54688,0 q 1.26953,0 1.79687,2.10937 l 0,0.54688 q 0,0.85937 -0.39062,0.85937 l -1.48438,0.0781 -0.23437,-0.39063 q -3.125,0.39063 -5,0.39063 l -11.71875,-0.0781 -0.70313,0.0781 q -0.3125,-0.625 -0.46875,-0.625 -0.17578,0.54687 -1.32812,0.625 l -5.15625,-0.0781 0,-1.79687 0.46875,0.0781 0.78125,-0.15625 0,-0.0781 -0.3125,-0.3125 -0.85938,0.23437 q -0.15625,-0.44921 -0.15625,-1.25 l 0.0781,-0.0781 0.23437,0 q 0.15625,0 0.23438,0.625 l 0.0781,0.0781 0.15625,0 0.15625,-0.78125 z m 16.79688,2.10938 q 0.52734,0.3125 0.9375,0.3125 l 0.0781,-0.0781 0,-0.15625 q -0.35156,0 -0.78125,-0.54687 -0.13672,0 -0.23437,0.46875 z m -1.95313,0.23437 0,0.54688 0.39063,0 0.85937,-0.15625 q 0.15625,0 0.15625,0.46875 l 0.0781,0 0.15625,-0.15625 -0.15625,-0.46875 -0.625,0.0781 -0.85938,-0.3125 z m -5.54687,2.26563 q 8.16406,0 9.6875,1.48437 2.57812,1.89454 2.57812,4.29688 l 0,0.54687 q 0,2.96875 -2.26562,4.60938 -0.0977,0.39062 -0.23438,0.39062 l -0.0781,0 -0.54688,-0.70312 q -0.68359,1.64062 -1.40625,1.64062 l -0.23437,-0.3125 -0.15625,0 q -0.15625,0 -0.3125,0.625 3.49609,3.125 4.29687,5.23438 l 0.0781,0.23437 0,0.23438 -0.46875,0.46875 q 0,0.21484 1.09375,0.39062 l 0.15625,0.23438 0,0.23437 -0.23438,0 0,0.0781 q 0.78125,0.95703 0.78125,1.5625 l 0,0.0781 q 0,0.58594 -1.32812,0.78125 l -0.85938,0.39063 -0.15625,-0.54688 -0.39062,0 -0.54688,0.70313 q -0.625,-0.27344 -0.625,-0.39063 l 0.15625,-0.23437 q -1.01562,-0.54688 -1.01562,-1.01563 l 0.0781,-0.3125 q -1.09375,-0.3125 -1.09375,-1.40625 l 0,-0.15625 q 0,-0.54687 0.78125,-0.9375 l -0.23437,0 -1.01563,0.3125 q 0,-0.23437 -2.03125,-2.96875 l 0,-0.15625 0.0781,-0.0781 0.0781,0 0.46875,0.0781 0.0781,0 0,-0.23437 q -0.33203,0 -2.65625,-1.5625 -1.17188,-0.64453 -2.34375,-0.70313 -1.32813,0 -1.32813,0.46875 l -0.15625,1.01563 0.15625,3.82812 0,0.39063 -0.0781,0 -0.3125,-0.0781 q -0.3125,0 -0.54688,0.70313 l 0.0781,0.3125 q -1.09375,0.33203 -1.25,0.54687 l 0.0781,0.0781 0,0.0781 q 0.39063,-0.13671 0.39063,-0.39062 l 0.0781,0 0.78125,0.85937 q 0.70313,0.0195 0.70313,0.23438 -0.46875,0.37109 -0.46875,1.01562 -0.82032,0 -1.79688,0.78125 l -0.54687,0.15625 q -0.625,-0.0976 -0.625,-0.3125 0,-0.21484 0.54687,-0.3125 l 0,-0.23437 -0.0781,0 -0.625,0.46875 q -0.9375,-0.48828 -0.9375,-1.95313 l 1.40625,-0.70312 0,-0.0781 -0.23438,-0.0781 q -0.60547,0.15625 -1.01562,0.70312 -0.15625,0 -0.23438,-0.54687 l 0.0781,-1.17188 0.15625,-0.15625 0.70312,0.23438 0.23438,-0.0781 0,-0.23437 q 0,-0.21484 -0.70313,-0.39063 l -0.3125,0.0781 -0.15625,-0.46875 q 0.0781,-0.78125 0.23438,-0.78125 l -0.15625,-1.09375 0,-2.42188 q 0,-0.13671 0.70312,-0.3125 0,-0.13671 -0.70312,-0.23437 l 0.0781,-0.54688 -0.15625,-4.92187 0.15625,-0.39063 1.48438,0.3125 0,-0.0781 -0.15625,-0.54688 -0.0781,0 -0.23437,0.15625 -0.15625,-0.23437 0,-0.0781 0.85937,-0.625 q -0.70312,0 -0.70312,-0.78125 l -0.0781,0 q -0.35156,0.23438 -0.78125,0.23438 l 0,0.23437 q 0.54688,0.44922 0.54688,0.78125 0,0.11719 -0.54688,0.39063 -0.19531,0 -0.3125,-1.25 0,-0.58594 0.39063,-0.9375 -0.39063,-0.625 -0.39063,-1.09375 l 0,-0.46875 q 0.33203,-2.8125 2.8125,-2.8125 0.9961,-0.15625 3.04688,-0.15625 z m 6.5625,2.10937 -0.15625,0.23438 0,0.0781 q 0.29297,0 0.85937,0.39063 0.25391,-0.0781 0.3125,-0.3125 l -1.01562,-0.39063 z m 0.78125,1.40625 0,0.0781 q 1.32812,0.29297 1.32812,0.9375 0.74219,-0.39063 1.01563,-0.39063 l -0.46875,-1.25 q -0.33203,0.3125 -1.875,0.625 z m -8.59375,0.3125 0.0781,0.39063 q -0.0586,1.30859 -0.39062,2.03125 0.23437,0 0.23437,0.3125 l -0.0781,0.85937 0.15625,0.46875 q -0.39063,0.0977 -0.39063,0.23438 0.46875,1.23047 0.46875,1.71875 l 0.0781,0 4.0625,-0.0781 q 1.07422,0 1.64062,0.625 -0.39062,0.54688 -0.85937,0.54688 l -0.23438,0 -0.0781,-0.0781 -0.0781,0 0,0.15625 q 0.0781,1.40625 0.39063,1.40625 l 0.23437,0 q 0.56641,0 0.625,-0.46875 l -0.15625,0 -0.39062,0.3125 -0.15625,-0.15625 0,-0.23437 0.3125,0 0,-0.78125 q 0,-0.15625 0.23437,-0.15625 0.42969,0 0.54688,0.9375 l 1.17187,0.0781 q 0.41016,0 0.625,-0.39062 -0.78125,0 -0.78125,-0.54688 l 0,-0.23437 q -0.48828,0.39062 -0.78125,0.39062 -0.35156,-0.15625 -0.39062,-0.3125 l 0,-0.15625 0.15625,-0.15625 0.23437,0 0.70313,0.15625 0,-0.0781 -0.23438,-0.23438 -0.85937,0 0,-0.0781 0.0781,-0.23438 -0.0781,0 -0.23438,-0.23437 0,-0.0781 0.15625,-0.15625 1.25,0.3125 q 0.35156,-0.15625 0.39063,-0.3125 l -0.625,0 0,-0.23437 1.01562,-0.46875 0.0781,0 0.39062,0.0781 0,-0.0781 q 0.23438,-2.34375 0.70313,-3.20313 -0.9375,-0.42968 -0.9375,-1.17187 -0.95703,-0.60547 -5.54688,-1.09375 l 0,-0.3125 -0.0781,0 q 0,0.41016 -2.65625,0.70312 z m 7.03125,-0.15625 0.9375,0.0781 0.23437,-0.0781 q -0.0391,-0.23437 -0.625,-0.23437 l -0.3125,0 -0.23437,0.23437 z m -9.60938,1.40625 q 0.17578,0.46875 0.46875,0.54688 0,-0.74219 0.70313,-1.48438 l -0.15625,0 q -0.6836,0 -1.01563,0.9375 z m -0.54687,2.73438 0,0.0781 0.0781,-0.0781 0.0781,0 1.5625,-0.0781 q -0.3125,-0.3125 -0.3125,-0.54687 l -0.15625,0 q -1.25,0.33203 -1.25,0.625 z m 14.45312,1.25 0.3125,0.3125 0.0781,0 -0.0781,-0.0781 0,-0.0781 q 0,-0.42969 1.09375,-0.70313 l 0.0781,-0.0781 0,-0.0781 -0.0781,0 q -0.64453,0 -1.40625,0.70313 z m -14.76562,0.0781 q 0.0977,0.39063 0.23437,0.39063 l 0.70313,-0.70313 -0.625,-0.0781 q -0.21485,0.0195 -0.3125,0.39062 z m 1.25,5.07813 0,0.0781 q 0.3125,0.60547 0.625,0.78125 l 0.0781,-0.0781 0.0781,0 -0.15625,-0.46875 0,-0.3125 -0.625,0 z m -2.10938,2.57812 0.39063,0.39063 0.15625,-0.15625 q -0.15625,-0.35156 -0.3125,-0.39063 l -0.0781,0 -0.15625,0.15625 z m 1.71875,3.51563 q 0,0.54687 -0.78125,0.54687 l 0,0.3125 0.0781,0 0.78125,-0.23437 0.15625,0.39062 q 0.23437,-0.0781 0.23437,-0.46875 0,-0.3125 -0.39062,-0.54687 l -0.0781,0 z m 0.9375,1.01562 0.78125,0.23438 0.0781,0 0,-0.39063 -0.15625,-0.15625 -0.15625,0 q -0.41016,0 -0.54688,0.3125 z m 13.67188,2.8125 1.32812,0 q 2.8125,0.0586 2.8125,0.39063 l 0,0.0781 -0.0781,0.0781 0,0.0781 0.0781,0 q 0.3125,0 0.78125,-0.46875 l 0.3125,0 0.15625,0.15625 0,0.3125 q 0,0.17579 -0.85937,0.39063 l -0.0781,0.0781 0,0.0781 0.15625,0.15625 0.0781,0 q 0.29297,-0.23438 0.54687,-0.23438 l 0.15625,0.15625 0,2.26563 -0.15625,0.15625 -0.39062,0 q -0.78125,0 -0.78125,-0.54688 l -0.15625,0 q -0.70313,0.54688 -1.01563,0.54688 l -0.15625,0 -0.15625,-0.15625 0.15625,-0.39063 -0.0781,0 -0.625,0.15625 0,0.0781 0.15625,0 0,0.15625 -5.46875,0.15625 -2.96875,0 -5.70313,-0.15625 0,-0.0781 0.46875,-1.17187 -0.3125,-0.54688 0,-0.0781 q 0.56641,0 1.01563,-0.85938 l 0.46875,0.46875 0.23437,0 0.15625,-0.15625 -0.9375,-0.54687 0,-0.15625 0.85938,0.0781 10,-0.46875 z m -13.35938,0.15625 0.9375,0 0.15625,0.15625 -1.25,1.48438 0.9375,0.23437 0,0.15625 -0.0781,0.625 0.39062,-0.0781 0.0781,0.0781 0,0.0781 q -0.35157,0.39062 -0.9375,0.39062 l 0,-0.23437 q -1.34766,0.70312 -2.26563,0.70312 -0.78125,0 -1.48437,-0.54687 l -0.0781,0 q 0,0.35156 -0.78125,0.46875 l -2.8125,-0.0781 -0.3125,0.0781 -0.0781,-0.0781 0,-0.0781 0.0781,-0.46875 -0.15625,-2.42188 0,-0.23437 0.15625,-0.15625 4.76563,0 0,0.15625 q -0.78125,0.13672 -0.78125,0.3125 l 0,0.0781 q 2.24609,-0.625 3.51562,-0.625 z m -6.71875,1.01563 0.0781,0 1.32812,-0.23438 q 0,-0.15625 -0.85937,-0.23437 -0.54688,0.11719 -0.54688,0.46875 z m 5.07813,0.54687 0.0781,0.23438 -0.0781,0 q -0.54688,0.17578 -0.54688,0.3125 0.54688,0 0.54688,0.23437 l 0,0.39063 0.0781,0 0.54688,-0.0781 0,-0.15625 q -0.3125,0 -0.39063,-0.39062 l 0.23438,-0.70313 -0.0781,0 q -0.39062,0.0195 -0.39062,0.15625 z m 4.53125,0.46875 0.15625,0.70313 0.0781,0 q 0.46875,0 1.17188,-0.54688 -0.0781,-0.23437 -0.46875,-0.23437 l -0.9375,0.0781 z"
         style="font-style:normal;font-variant:normal;font-weight:normal;font-stretch:normal;font-family:'[TOP_SECRET]';-inkscape-font-specification:'[TOP_SECRET]';fill:#dcdcdc;fill-opacity:1"
         id="path3359" />
    </g>
  </g>
</svg>
