<?xml version="1.0" encoding="UTF-8" standalone="no"?>
<!-- Created with Inkscape (http://www.inkscape.org/) -->

<svg
   xmlns:dc="http://purl.org/dc/elements/1.1/"
   xmlns:cc="http://creativecommons.org/ns#"
   xmlns:rdf="http://www.w3.org/1999/02/22-rdf-syntax-ns#"
   xmlns:svg="http://www.w3.org/2000/svg"
   xmlns="http://www.w3.org/2000/svg"
   xmlns:sodipodi="http://sodipodi.sourceforge.net/DTD/sodipodi-0.dtd"
   xmlns:inkscape="http://www.inkscape.org/namespaces/inkscape"
   width="108.34397mm"
   height="19.847143mm"
   viewBox="0 0 383.89596 70.324523"
   id="svg2"
   version="1.1"
   inkscape:version="0.91 r13725"
   sodipodi:docname="confirm.svg">
  <defs
     id="defs4" />
  <sodipodi:namedview
     id="base"
     pagecolor="#ffffff"
     bordercolor="#666666"
     borderopacity="1.0"
     inkscape:pageopacity="0.0"
     inkscape:pageshadow="2"
     inkscape:zoom="1"
     inkscape:cx="147.96969"
     inkscape:cy="-43.344047"
     inkscape:document-units="px"
     inkscape:current-layer="layer1"
     showgrid="false"
     inkscape:window-width="1366"
     inkscape:window-height="705"
     inkscape:window-x="-8"
     inkscape:window-y="-8"
     inkscape:window-maximized="1"
     fit-margin-top="0"
     fit-margin-left="0"
     fit-margin-right="0"
     fit-margin-bottom="0" />
  <metadata
     id="metadata7">
    <rdf:RDF>
      <cc:Work
         rdf:about="">
        <dc:format>image/svg+xml</dc:format>
        <dc:type
           rdf:resource="http://purl.org/dc/dcmitype/StillImage" />
        <dc:title></dc:title>
      </cc:Work>
    </rdf:RDF>
  </metadata>
  <g
     inkscape:label="Capa 1"
     inkscape:groupmode="layer"
     id="layer1"
     transform="translate(-171.47977,-278.20441)">
    <g
       style="font-style:normal;font-variant:normal;font-weight:normal;font-stretch:normal;font-size:40px;line-height:125%;font-family:'Cooper Black';-inkscape-font-specification:'Cooper Black, ';letter-spacing:0px;word-spacing:0px;fill:#ffffff;fill-opacity:1;stroke:#000000;stroke-width:1px;stroke-linecap:butt;stroke-linejoin:miter;stroke-opacity:1"
       id="text8068">
      <path
         d="m 184.04298,317.4487 0,-10.27344 q 0,-1.99219 -0.27343,-2.51953 -0.27344,-0.54687 -1.48438,-0.87891 -1.75781,-0.50781 -1.75781,-1.75781 0,-0.8789 0.74219,-1.34765 0.74218,-0.46875 2.14843,-0.46875 0.46875,0 2.32422,0.0586 l 1.17188,0 q 3.24219,-0.0195 3.78906,-0.0391 0.56641,-0.0391 3.98438,-0.35157 1.13281,-0.11718 2.07031,-0.11718 3.20312,0 5.70312,1.30859 4.35547,2.26563 4.35547,7.1875 0,3.98438 -3.04687,6.38672 -2.8711,2.24609 -6.95313,2.24609 -1.03515,0 -2.53906,-0.13672 -0.80078,-0.0586 -0.99609,-0.0586 -0.56641,0 -0.56641,0.64453 l 0,0.11719 0.13672,3.20312 q 0.0391,0.9375 0.33203,1.40625 0.3125,0.44922 1.25,0.9375 1.26953,0.6836 1.26953,1.48438 0,1.23047 -1.875,1.89453 -1.875,0.66406 -5.3125,0.66406 -7.22656,0 -7.22656,-2.48047 0,-0.58593 0.3125,-0.89843 0.3125,-0.3125 1.46484,-0.89844 0.70313,-0.37109 0.82031,-1.03516 0.11719,-0.66406 0.15625,-4.27734 z m 8.8086,-12.75391 0,6.64063 q 0,0.76172 0.33203,0.91797 0.56641,0.27343 1.42578,0.27343 1.28906,0 2.16797,-0.72265 1.26953,-1.03516 1.26953,-3.47656 0,-2.53907 -1.48437,-3.67188 -0.9375,-0.72266 -2.26563,-0.72266 -1.44531,0 -1.44531,0.76172 z"
         style=""
         id="path8075" />
      <path
         d="m 223.12502,299.44089 q 5.01953,0 8.76953,2.87109 2.53906,1.97266 4.12109,5.11719 1.54297,3.125 1.54297,6.25 0,4.60937 -3.04688,8.24219 -2.57812,3.08593 -6.73828,4.43359 -2.55859,0.82031 -5.13672,0.82031 -3.3789,0 -6.46484,-1.40625 -3.73047,-1.69922 -5.83984,-5.13672 -2.05078,-3.32031 -2.05078,-7.32422 0,-4.64843 2.63671,-8.20312 2.34375,-3.16406 6.3086,-4.64844 2.65625,-1.01562 5.89844,-1.01562 z m -1.85547,5.60547 q -1.64063,0 -2.59766,1.46484 -0.74219,1.09375 -0.74219,2.59766 0,2.20703 0.89844,5.11718 0.89844,2.89063 2.26563,5.13672 0.60546,0.95703 1.48437,1.52344 0.89844,0.56641 1.81641,0.56641 1.48437,0 2.38281,-1.11329 0.91797,-1.11328 0.91797,-2.92968 0,-2.36328 -0.76172,-5.09766 -0.76172,-2.73437 -1.97266,-4.66797 -0.74218,-1.1914 -1.71875,-1.875 -0.97656,-0.68359 -1.97265,-0.72265 z"
         style=""
         id="path8077" />
      <path
         d="m 252.07033,315.43698 q -0.74219,0 -0.95703,0.44922 -0.19532,0.44922 -0.19532,2.08984 0,2.48047 0.3125,3.86719 0.0977,0.39063 0.29297,0.60547 0.19532,0.21484 0.74219,0.52734 1.17188,0.64453 1.17188,1.69922 0,1.28906 -1.64063,1.83594 -1.62109,0.52734 -5.50781,0.52734 -7.22656,0 -7.22656,-2.73437 0,-0.46875 0.21484,-0.74219 0.21484,-0.29297 0.97656,-0.80078 0.85938,-0.56641 1.15235,-1.32813 0.3125,-0.78125 0.42968,-2.67578 0.0977,-1.38672 0.0977,-9.9414 0,-2.71485 -0.27344,-3.69141 -0.27344,-0.97656 -1.17187,-1.42578 -0.85938,-0.41016 -1.15235,-0.74219 -0.29297,-0.35156 -0.29297,-0.89844 0,-0.72265 0.54688,-1.25 0.56641,-0.54687 1.5625,-0.80078 0.83984,-0.21484 2.30469,-0.21484 0.64453,0 3.22265,0.19531 0.48828,0.0391 1.54297,0.0391 1.75781,0 4.6875,-0.23437 1.85547,-0.13672 2.59766,-0.13672 4.17969,0 6.91406,2.01172 2.46094,1.81641 2.46094,5.03906 0,1.79688 -0.85938,3.28125 -0.85937,1.46485 -2.36328,2.20703 -0.625,0.3125 -0.625,0.74219 0,0.56641 0.95703,0.91797 2.05078,0.74219 3.00782,2.24609 0.95703,1.50391 1.36718,4.60938 0.17578,1.28906 0.50782,1.67969 0.33203,0.37109 1.54296,0.72265 0.3711,0.11719 0.625,0.50781 0.25391,0.3711 0.25391,0.83985 0,0.60547 -0.46875,1.23047 -0.46875,0.60547 -1.21094,0.95703 -1.64062,0.76172 -4.49218,0.76172 -3.8086,0 -5.44922,-2.01172 -0.74219,-0.89844 -1.26953,-2.26563 -0.50782,-1.36718 -1.21094,-4.25781 -0.44922,-1.85547 -1.15235,-2.61719 -0.68359,-0.76172 -1.97265,-0.82031 z m -1.13281,-9.96094 -0.21485,4.55078 q 0,0.0586 0,0.17579 0,0.70312 0.19531,0.9375 0.21485,0.23437 0.83985,0.23437 1.71875,0 2.5,-0.87891 0.78125,-0.89843 0.78125,-2.85156 0,-3.76953 -2.67578,-3.76953 -0.76172,0 -1.07422,0.35156 -0.3125,0.35157 -0.35156,1.25 z"
         style=""
         id="path8079" />
      <path
         d="m 295.27345,299.44089 q 2.85157,0 5.50782,1.25 1.25,0.58593 1.73828,0.58593 0.35156,0 1.13281,-0.17578 0.25391,-0.0586 0.56641,-0.0586 1.01562,0 1.77734,0.9375 1.875,2.26562 1.875,5.625 0,2.36328 -1.62109,3.45703 -0.87891,0.58594 -1.97266,0.58594 -0.99609,0 -1.62109,-0.42969 -0.625,-0.42969 -1.21094,-1.52344 -0.83985,-1.54297 -1.36719,-2.20703 -0.52734,-0.68359 -1.28906,-1.23047 -1.89453,-1.32812 -3.96485,-1.32812 -2.01171,0 -3.20312,1.46484 -1.17188,1.44531 -1.17188,3.88672 0,3.35938 1.69922,6.15234 2.30469,3.73047 6.60157,3.73047 1.58203,0 3.125,-0.52734 1.5625,-0.52734 2.42187,-1.36719 0.74219,-0.70312 1.21094,-0.70312 0.68359,0 1.17187,0.64453 0.48828,0.625 0.48828,1.52344 0,1.13281 -0.68359,2.53906 -0.68359,1.40625 -1.64062,2.20703 -0.41016,0.33203 -1.69922,0.58594 -0.74219,0.13672 -1.97266,0.72265 -2.89062,1.38672 -6.01562,1.38672 -3.26172,0 -6.50391,-1.46484 -3.76953,-1.69922 -5.95703,-5.21485 -2.14844,-3.41796 -2.14844,-7.14843 0,-4.33594 2.69531,-7.91016 2.34375,-3.10547 6.11328,-4.74609 2.8711,-1.25 5.91797,-1.25 z"
         style=""
         id="path8081" />
      <path
         d="m 324.37502,299.44089 q 5.01953,0 8.76953,2.87109 2.53906,1.97266 4.12109,5.11719 1.54297,3.125 1.54297,6.25 0,4.60937 -3.04688,8.24219 -2.57812,3.08593 -6.73828,4.43359 -2.55859,0.82031 -5.13672,0.82031 -3.3789,0 -6.46484,-1.40625 -3.73047,-1.69922 -5.83984,-5.13672 -2.05078,-3.32031 -2.05078,-7.32422 0,-4.64843 2.63671,-8.20312 2.34375,-3.16406 6.3086,-4.64844 2.65625,-1.01562 5.89844,-1.01562 z m -1.85547,5.60547 q -1.64063,0 -2.59766,1.46484 -0.74219,1.09375 -0.74219,2.59766 0,2.20703 0.89844,5.11718 0.89844,2.89063 2.26563,5.13672 0.60546,0.95703 1.48437,1.52344 0.89844,0.56641 1.81641,0.56641 1.48437,0 2.38281,-1.11329 0.91797,-1.11328 0.91797,-2.92968 0,-2.36328 -0.76172,-5.09766 -0.76172,-2.73437 -1.97266,-4.66797 -0.74218,-1.1914 -1.71875,-1.875 -0.97656,-0.68359 -1.97265,-0.72265 z"
         style=""
         id="path8083" />
      <path
         d="m 351.28908,300.92526 9.72656,8.51563 q 1.36719,1.1914 1.97266,1.1914 1.01562,0 1.01562,-2.16797 0,-2.46093 -0.29297,-3.35937 -0.29297,-0.89844 -1.23047,-1.34766 -0.76171,-0.37109 -1.07421,-0.78125 -0.3125,-0.42968 -0.3125,-1.09375 0,-1.64062 2.24609,-2.10937 0.91797,-0.19531 3.20312,-0.19531 2.94922,0 4.08204,0.35156 1.79687,0.54687 1.79687,2.07031 0,1.26953 -1.46484,1.91406 -0.58594,0.25391 -0.80078,0.44922 -0.21485,0.19531 -0.3711,0.58594 -0.52734,1.28906 -0.54687,4.88281 l 0,6.36719 q 0,1.46484 0.0195,4.00391 0.0195,3.4375 -0.41016,4.96093 -0.52734,1.89453 -1.91406,1.89453 -0.60547,0 -1.05469,-0.2539 -0.42969,-0.25391 -1.44531,-1.17188 L 352.85158,315.2612 q -1.21094,-1.09375 -2.01172,-1.09375 -1.19141,0 -1.19141,3.30078 0,2.71484 0.29297,3.71094 0.3125,0.99609 1.25,1.46484 1.3086,0.64453 1.3086,1.67969 0,2.71484 -5.83985,2.71484 -2.63672,0 -4.10156,-0.68359 -1.44531,-0.70313 -1.44531,-1.97266 0,-0.66406 0.27343,-0.99609 0.27344,-0.33203 1.23047,-0.89844 0.91797,-0.54687 1.11328,-1.93359 0.33204,-2.51953 0.33204,-7.2461 0,-5.03906 -0.58594,-7.34375 -0.21485,-0.83984 -0.54688,-1.25 -0.33203,-0.41015 -1.09375,-0.78125 -0.8789,-0.42968 -1.23047,-0.83984 -0.33203,-0.41016 -0.33203,-0.99609 0,-1.875 3.22266,-2.36328 1.09375,-0.15625 3.82812,-0.15625 1.5625,0 2.26563,0.2539 0.72266,0.23438 1.69922,1.09375 z"
         style=""
         id="path8085" />
      <path
         d="m 388.06642,304.0112 q -1.34765,0 -1.66015,0.68359 -0.23438,0.50782 -0.44922,1.99219 -0.19532,1.48438 -0.19532,2.69531 0,0.72266 0.46875,0.9961 0.46875,0.27343 1.75782,0.27343 0.85937,0 1.26953,-0.3125 0.41015,-0.3125 0.5664,-1.05468 0.44922,-2.12891 1.83594,-2.12891 2.38281,0 2.38281,5.70313 0,3.61328 -1.03515,5.3125 -0.625,1.03515 -1.71875,1.03515 -1.15235,0 -1.32813,-1.54297 -0.0977,-0.99609 -0.2539,-1.40625 -0.13672,-0.41015 -0.54688,-0.78125 -0.64453,-0.60547 -1.875,-0.60547 -0.8789,0 -1.1914,0.3125 -0.3125,0.3125 -0.27344,1.19141 0,0.15625 -0.0195,1.81641 0,3.3789 0.70312,4.12109 0.23438,0.29297 0.46875,0.39063 0.25391,0.0781 1.28906,0.23437 0.50782,0.0781 0.85938,0.52734 0.35156,0.44922 0.35156,1.03516 0,1.50391 -1.75781,1.93359 -2.53906,0.60547 -7.12891,0.60547 -4.02343,0 -5.54687,-0.46875 -0.6836,-0.21484 -1.11328,-0.78125 -0.42969,-0.5664 -0.42969,-1.25 0,-0.85937 0.625,-1.38672 0.15625,-0.11718 1.07422,-0.48828 1.09375,-0.42968 1.30859,-1.99218 0.35156,-2.40235 0.35156,-10.95704 0,-3.6914 -0.2539,-4.78515 -0.25391,-1.09375 -1.23047,-1.52344 -0.97656,-0.42969 -1.28906,-0.74219 -0.29297,-0.33203 -0.29297,-0.9375 0,-0.85937 0.83984,-1.42578 0.83985,-0.58594 2.07031,-0.58594 0.78125,0 2.28516,0.11719 3.18359,0.25391 7.61719,0.25391 7.08984,0 9.55078,-0.39063 0.33203,-0.0391 0.50781,-0.0391 0.6836,0 1.3086,0.78125 1.71875,2.1875 1.71875,4.84375 0,1.21094 -0.56641,1.93359 -0.56641,0.72266 -1.48438,0.72266 -0.68359,0 -1.03515,-0.27344 -0.35156,-0.27343 -1.79688,-1.91406 -0.8789,-1.01562 -2.1289,-1.32812 -1.23047,-0.3125 -4.60938,-0.41016 z"
         style=""
         id="path8087" />
      <path
         d="m 408.59377,299.57761 q 2.22656,0 4.19921,0.39062 2.65625,0.52734 2.65625,2.24609 0,0.56641 -0.27343,0.85938 -0.25391,0.27344 -1.32813,0.82031 -0.89844,0.44922 -1.1914,1.97266 -0.27344,1.52344 -0.27344,5.9375 0,7.46094 0.37109,9.23828 0.13672,0.56641 0.41016,0.87891 0.29297,0.29296 0.99609,0.64453 1.28906,0.58593 1.28906,1.69922 0,1.5625 -2.38281,2.14843 -2.57812,0.625 -6.30859,0.625 -6.36719,0 -6.36719,-2.42187 0,-0.87891 1.25,-1.64063 0.95703,-0.58593 1.13281,-1.60156 0.3711,-2.22656 0.3711,-9.45312 0,-5 -0.50782,-6.40625 -0.27343,-0.80079 -1.30859,-1.44532 -0.80078,-0.52734 -1.07422,-0.8789 -0.27344,-0.35157 -0.27344,-0.89844 0,-0.83984 0.80079,-1.32813 0.82031,-0.50781 2.87109,-0.89843 2.44141,-0.48828 4.94141,-0.48828 z"
         style=""
         id="path8089" />
      <path
         d="m 429.57033,315.43698 q -0.74219,0 -0.95703,0.44922 -0.19532,0.44922 -0.19532,2.08984 0,2.48047 0.3125,3.86719 0.0977,0.39063 0.29297,0.60547 0.19532,0.21484 0.74219,0.52734 1.17188,0.64453 1.17188,1.69922 0,1.28906 -1.64063,1.83594 -1.62109,0.52734 -5.50781,0.52734 -7.22656,0 -7.22656,-2.73437 0,-0.46875 0.21484,-0.74219 0.21484,-0.29297 0.97656,-0.80078 0.85938,-0.56641 1.15235,-1.32813 0.3125,-0.78125 0.42968,-2.67578 0.0977,-1.38672 0.0977,-9.9414 0,-2.71485 -0.27344,-3.69141 -0.27344,-0.97656 -1.17187,-1.42578 -0.85938,-0.41016 -1.15235,-0.74219 -0.29297,-0.35156 -0.29297,-0.89844 0,-0.72265 0.54688,-1.25 0.56641,-0.54687 1.5625,-0.80078 0.83984,-0.21484 2.30469,-0.21484 0.64453,0 3.22265,0.19531 0.48828,0.0391 1.54297,0.0391 1.75781,0 4.6875,-0.23437 1.85547,-0.13672 2.59766,-0.13672 4.17969,0 6.91406,2.01172 2.46094,1.81641 2.46094,5.03906 0,1.79688 -0.85938,3.28125 -0.85937,1.46485 -2.36328,2.20703 -0.625,0.3125 -0.625,0.74219 0,0.56641 0.95703,0.91797 2.05078,0.74219 3.00782,2.24609 0.95703,1.50391 1.36718,4.60938 0.17578,1.28906 0.50782,1.67969 0.33203,0.37109 1.54296,0.72265 0.3711,0.11719 0.625,0.50781 0.25391,0.3711 0.25391,0.83985 0,0.60547 -0.46875,1.23047 -0.46875,0.60547 -1.21094,0.95703 -1.64062,0.76172 -4.49218,0.76172 -3.8086,0 -5.44922,-2.01172 -0.74219,-0.89844 -1.26953,-2.26563 -0.50782,-1.36718 -1.21094,-4.25781 -0.44922,-1.85547 -1.15235,-2.61719 -0.68359,-0.76172 -1.97265,-0.82031 z m -1.13281,-9.96094 -0.21485,4.55078 q 0,0.0586 0,0.17579 0,0.70312 0.19531,0.9375 0.21485,0.23437 0.83985,0.23437 1.71875,0 2.5,-0.87891 0.78125,-0.89843 0.78125,-2.85156 0,-3.76953 -2.67578,-3.76953 -0.76172,0 -1.07422,0.35156 -0.3125,0.35157 -0.35156,1.25 z"
         style=""
         id="path8091" />
      <path
         d="m 467.22658,318.56198 -2.34375,5.25391 q -0.60547,1.32812 -0.97656,1.79687 -0.3711,0.44922 -0.82032,0.44922 -0.42968,0 -0.76172,-0.37109 -0.21484,-0.23438 -0.99609,-1.71875 -0.76172,-1.48438 -1.26953,-2.63672 l -2.57813,-5.80078 q -0.52734,-1.21094 -1.11328,-1.21094 -0.625,0 -0.68359,1.03516 -0.13672,2.30468 -0.13672,4.25781 0,2.03125 0.19531,2.7539 0.13672,0.42969 0.35157,0.625 0.23437,0.19532 1.23046,0.70313 0.64454,0.33203 0.64454,1.15234 0,2.1875 -5.60547,2.1875 -4.72657,0 -4.72657,-2.1289 0,-0.54688 0.23438,-0.78125 0.25391,-0.25391 1.26953,-0.74219 0.64453,-0.29297 0.85938,-0.80078 0.23437,-0.50781 0.39062,-1.97266 0.17578,-1.5625 0.33203,-5.11719 0.15625,-3.57421 0.15625,-6.11328 0,-3.18359 -0.48828,-4.3164 -0.17578,-0.39063 -0.41016,-0.58594 -0.21484,-0.19531 -0.83984,-0.50781 -1.38672,-0.66407 -1.38672,-1.71875 0,-0.6836 0.50781,-1.25 0.52735,-0.56641 1.38672,-0.80078 0.85938,-0.25391 2.28516,-0.42969 1.44531,-0.19531 2.44141,-0.19531 2.5,0 3.53515,0.41015 0.50781,0.19531 0.80078,0.52735 0.29297,0.33203 0.83985,1.36718 l 4.0625,7.48047 q 0.66406,1.23047 0.91797,1.50391 0.2539,0.27344 0.70312,0.27344 0.39063,0 0.68359,-0.29297 0.3125,-0.29297 0.72266,-1.09375 l 2.75391,-5.3711 q 0.50781,-1.03515 0.66406,-1.34765 0.95703,-1.95313 1.89453,-2.59766 1.19141,-0.83984 4.33594,-0.83984 5.52734,0 5.52734,2.51953 0,0.5664 -0.21484,0.91797 -0.21485,0.33203 -0.87891,0.82031 -0.89844,0.68359 -1.13281,1.97266 -0.44922,2.69531 -0.44922,6.5625 0,4.98046 0.46875,8.73046 0.11719,0.91797 0.35156,1.25 0.25391,0.33204 1.26953,0.9961 0.70313,0.46875 0.70313,1.25 0,1.36719 -1.81641,1.93359 -0.9375,0.3125 -1.97265,0.41016 -1.03516,0.0976 -3.1836,0.0976 -3.30078,0 -4.92187,-0.46875 -1.79688,-0.52734 -1.79688,-1.79687 0,-0.46875 0.23438,-0.76172 0.23437,-0.3125 1.21094,-1.11328 0.50781,-0.41016 0.68359,-1.58203 0.19531,-1.17188 0.19531,-3.98438 0,-1.5625 -0.15625,-2.05078 -0.13672,-0.48828 -0.60547,-0.48828 -0.54687,0 -1.05468,0.76172 -0.50782,0.74219 -1.52344,2.98828 z"
         style=""
         id="path8093" />
      <path
         d="m 508.51564,313.15182 3.69141,7.91016 q 0.52734,1.09375 0.8789,1.44531 0.35157,0.33203 1.07422,0.44922 1.40625,0.21485 1.40625,1.42578 0,1.42578 -1.71875,2.05078 -1.71875,0.625 -5.625,0.625 -4.41406,0 -6.54297,-0.37109 -0.97656,-0.17578 -1.5625,-0.70312 -0.5664,-0.54688 -0.5664,-1.3086 0,-0.58594 0.29297,-0.89844 0.3125,-0.33203 1.13281,-0.60546 0.91797,-0.3125 0.91797,-1.05469 0,-1.3086 -1.58203,-1.54297 -1.69922,-0.23438 -4.78516,-0.23438 -2.59766,0 -3.10547,0.3125 -0.3125,0.19532 -0.54687,0.70313 -0.23438,0.50781 -0.23438,0.97656 0,0.42969 0.15625,0.56641 0.17578,0.11719 1.09375,0.41015 1.19141,0.35157 1.19141,1.40625 0,2.32422 -5.56641,2.32422 -3.16406,0 -4.64844,-0.42968 -1.36718,-0.41016 -1.36718,-1.79688 0,-0.60547 0.29296,-0.9375 0.3125,-0.33203 1.09375,-0.60547 1.26954,-0.44922 1.91407,-1.25 0.66406,-0.82031 1.875,-3.47656 l 2.7539,-6.03516 q 1.52344,-3.32031 2.03125,-4.96093 0.52735,-1.66016 0.54688,-3.24219 0.0195,-1.67969 0.19531,-2.32422 0.19531,-0.66406 0.83984,-1.28906 1.34766,-1.36719 3.4375,-1.36719 1.97266,0 3.76954,1.54297 2.5,2.10937 7.26562,12.28515 z m -13.59375,2.46094 3.82813,0 q 1.05468,0 1.05468,-0.46875 0,-0.64453 -1.46484,-3.16406 -0.66406,-1.15234 -1.01563,-1.54297 -0.35156,-0.39062 -0.74218,-0.39062 -0.70313,0 -1.17188,1.30859 -0.0781,0.17578 -0.5664,1.38672 -0.82032,1.99219 -0.82032,2.38281 0,0.48828 0.89844,0.48828 z"
         style=""
         id="path8095" />
      <path
         d="m 529.10158,315.43698 q -0.74219,0 -0.95703,0.44922 -0.19532,0.44922 -0.19532,2.08984 0,2.48047 0.3125,3.86719 0.0977,0.39063 0.29297,0.60547 0.19532,0.21484 0.74219,0.52734 1.17188,0.64453 1.17188,1.69922 0,1.28906 -1.64063,1.83594 -1.62109,0.52734 -5.50781,0.52734 -7.22656,0 -7.22656,-2.73437 0,-0.46875 0.21484,-0.74219 0.21484,-0.29297 0.97656,-0.80078 0.85938,-0.56641 1.15235,-1.32813 0.3125,-0.78125 0.42968,-2.67578 0.0977,-1.38672 0.0977,-9.9414 0,-2.71485 -0.27344,-3.69141 -0.27344,-0.97656 -1.17187,-1.42578 -0.85938,-0.41016 -1.15235,-0.74219 -0.29297,-0.35156 -0.29297,-0.89844 0,-0.72265 0.54688,-1.25 0.56641,-0.54687 1.5625,-0.80078 0.83984,-0.21484 2.30469,-0.21484 0.64453,0 3.22265,0.19531 0.48828,0.0391 1.54297,0.0391 1.75781,0 4.6875,-0.23437 1.85547,-0.13672 2.59766,-0.13672 4.17969,0 6.91406,2.01172 2.46094,1.81641 2.46094,5.03906 0,1.79688 -0.85938,3.28125 -0.85937,1.46485 -2.36328,2.20703 -0.625,0.3125 -0.625,0.74219 0,0.56641 0.95703,0.91797 2.05078,0.74219 3.00782,2.24609 0.95703,1.50391 1.36718,4.60938 0.17578,1.28906 0.50782,1.67969 0.33203,0.37109 1.54296,0.72265 0.3711,0.11719 0.625,0.50781 0.25391,0.3711 0.25391,0.83985 0,0.60547 -0.46875,1.23047 -0.46875,0.60547 -1.21094,0.95703 -1.64062,0.76172 -4.49218,0.76172 -3.8086,0 -5.44922,-2.01172 -0.74219,-0.89844 -1.26953,-2.26563 -0.50782,-1.36718 -1.21094,-4.25781 -0.44922,-1.85547 -1.15235,-2.61719 -0.68359,-0.76172 -1.97265,-0.82031 z m -1.13281,-9.96094 -0.21485,4.55078 q 0,0.0586 0,0.17579 0,0.70312 0.19531,0.9375 0.21485,0.23437 0.83985,0.23437 1.71875,0 2.5,-0.87891 0.78125,-0.89843 0.78125,-2.85156 0,-3.76953 -2.67578,-3.76953 -0.76172,0 -1.07422,0.35156 -0.3125,0.35157 -0.35156,1.25 z"
         style=""
         id="path8097" />
    </g>
    <rect
       style="opacity:0.25;fill:none;fill-opacity:1;stroke:#000000;stroke-width:2;stroke-linejoin:round;stroke-miterlimit:4;stroke-dasharray:none;stroke-opacity:1"
       id="rect8072"
       width="381.89597"
       height="68.324524"
       x="172.47977"
       y="279.20441"
       ry="28.221001" />
  </g>
</svg>
