<?xml version="1.0" encoding="UTF-8" standalone="no"?>
<!-- Created with Inkscape (http://www.inkscape.org/) -->

<svg
   xmlns:dc="http://purl.org/dc/elements/1.1/"
   xmlns:cc="http://creativecommons.org/ns#"
   xmlns:rdf="http://www.w3.org/1999/02/22-rdf-syntax-ns#"
   xmlns:svg="http://www.w3.org/2000/svg"
   xmlns="http://www.w3.org/2000/svg"
   xmlns:sodipodi="http://sodipodi.sourceforge.net/DTD/sodipodi-0.dtd"
   xmlns:inkscape="http://www.inkscape.org/namespaces/inkscape"
   width="111.67377mm"
   height="17.583279mm"
   viewBox="0 0 395.69445 62.302956"
   id="svg23843"
   version="1.1"
   inkscape:version="0.91 r13725"
   sodipodi:docname="days.svg">
  <defs
     id="defs23845" />
  <sodipodi:namedview
     id="base"
     pagecolor="#ffffff"
     bordercolor="#666666"
     borderopacity="1.0"
     inkscape:pageopacity="0.0"
     inkscape:pageshadow="2"
     inkscape:zoom="0.7"
     inkscape:cx="234.09792"
     inkscape:cy="-108.24258"
     inkscape:document-units="px"
     inkscape:current-layer="layer1"
     showgrid="false"
     inkscape:window-width="1366"
     inkscape:window-height="705"
     inkscape:window-x="-8"
     inkscape:window-y="-8"
     inkscape:window-maximized="1"
     fit-margin-top="0"
     fit-margin-left="0"
     fit-margin-right="0"
     fit-margin-bottom="0" />
  <metadata
     id="metadata23848">
    <rdf:RDF>
      <cc:Work
         rdf:about="">
        <dc:format>image/svg+xml</dc:format>
        <dc:type
           rdf:resource="http://purl.org/dc/dcmitype/StillImage" />
        <dc:title></dc:title>
      </cc:Work>
    </rdf:RDF>
  </metadata>
  <g
     inkscape:label="Capa 1"
     inkscape:groupmode="layer"
     id="layer1"
     transform="translate(-227.14821,-288.35357)">
    <g
       id="g14944"
       transform="matrix(1.6075004,0,0,-1.25,600.658,289.6763)"
       style="fill:#7f463c;fill-opacity:0.69777775;stroke:#4d2b24;stroke-width:2.11636567;stroke-miterlimit:4;stroke-dasharray:none;stroke-opacity:1">
      <path
         d="m 0,0 -108.3,0 -1.948,0 -108.028,0 -12.876,-23.863 12.876,-23.863 108.028,0 1.948,0 108.3,0 12.604,23.863 L 0,0 Z"
         style="fill:#7f463c;fill-opacity:0.69777775;fill-rule:nonzero;stroke:#4d2b24;stroke-width:2.11636567;stroke-miterlimit:4;stroke-dasharray:none;stroke-opacity:1"
         id="path14946"
         inkscape:connector-curvature="0" />
    </g>
    <g
       id="g14948"
       transform="matrix(1.25,0,0,-1.25,280.97533,305.77906)"
       style="fill:#bf092c;fill-opacity:1">
      <path
         d="M 0,0 C -2.557,0.767 -5.465,-0.64 -7.652,-3.958 -9.84,-0.64 -12.747,0.767 -15.305,0 c -3.419,-1.026 -4.916,-5.55 -2.803,-11.671 2.113,-6.121 10.456,-10.495 10.456,-10.495 0,0 8.342,4.374 10.455,10.495 C 4.917,-5.55 3.419,-1.026 0,0"
         style="fill:#bf092c;fill-opacity:1;fill-rule:nonzero;stroke:none"
         id="path14950"
         inkscape:connector-curvature="0" />
    </g>
    <g
       id="g14952"
       transform="matrix(1.25,0,0,-1.25,588.15538,305.77906)">
      <path
         d="M 0,0 C -2.557,0.767 -5.465,-0.64 -7.652,-3.958 -9.84,-0.64 -12.747,0.767 -15.305,0 c -3.419,-1.026 -4.916,-5.55 -2.803,-11.671 2.113,-6.121 10.456,-10.495 10.456,-10.495 0,0 8.342,4.374 10.456,10.495 C 4.917,-5.55 3.419,-1.026 0,0"
         style="fill:#bf092c;fill-opacity:1;fill-rule:nonzero;stroke:none"
         id="path14954"
         inkscape:connector-curvature="0" />
    </g>
  </g>
</svg>
