<?xml version="1.0" encoding="UTF-8" standalone="no"?>
<!-- Created with Inkscape (http://www.inkscape.org/) -->

<svg
   xmlns:dc="http://purl.org/dc/elements/1.1/"
   xmlns:cc="http://creativecommons.org/ns#"
   xmlns:rdf="http://www.w3.org/1999/02/22-rdf-syntax-ns#"
   xmlns:svg="http://www.w3.org/2000/svg"
   xmlns="http://www.w3.org/2000/svg"
   xmlns:xlink="http://www.w3.org/1999/xlink"
   xmlns:sodipodi="http://sodipodi.sourceforge.net/DTD/sodipodi-0.dtd"
   xmlns:inkscape="http://www.inkscape.org/namespaces/inkscape"
   width="115.85309mm"
   height="41.033588mm"
   viewBox="0 0 410.50307 145.3946"
   id="svg23843"
   version="1.1"
   inkscape:version="0.91 r13725"
   sodipodi:docname="days.svg">
  <defs
     id="defs23845">
    <clipPath
       id="clipPath15000"
       clipPathUnits="userSpaceOnUse">
      <path
         inkscape:connector-curvature="0"
         id="path15002"
         d="M 0,800 800,800 800,0 0,0 0,800 Z" />
    </clipPath>
  </defs>
  <sodipodi:namedview
     id="base"
     pagecolor="#ffffff"
     bordercolor="#666666"
     borderopacity="1.0"
     inkscape:pageopacity="0.0"
     inkscape:pageshadow="2"
     inkscape:zoom="1.4"
     inkscape:cx="89.439519"
     inkscape:cy="77.006887"
     inkscape:document-units="px"
     inkscape:current-layer="layer1"
     showgrid="false"
     inkscape:window-width="1366"
     inkscape:window-height="705"
     inkscape:window-x="-8"
     inkscape:window-y="-8"
     inkscape:window-maximized="1"
     fit-margin-top="0"
     fit-margin-left="0"
     fit-margin-right="0"
     fit-margin-bottom="0" />
  <metadata
     id="metadata23848">
    <rdf:RDF>
      <cc:Work
         rdf:about="">
        <dc:format>image/svg+xml</dc:format>
        <dc:type
           rdf:resource="http://purl.org/dc/dcmitype/StillImage" />
        <dc:title />
      </cc:Work>
    </rdf:RDF>
  </metadata>
  <g
     inkscape:label="Capa 1"
     inkscape:groupmode="layer"
     id="layer1"
     transform="translate(-193.32524,-399.38779)">
    <g
       id="g14996"
       transform="matrix(1.25,0,0,-1.25,101.46595,638.36093)"
       style="stroke:#000000;stroke-opacity:1">
      <g
         id="g14998"
         clip-path="url(#clipPath15000)"
         style="stroke:#000000;stroke-opacity:1">
        <g
           id="g15004"
           transform="translate(375.7853,159.3422)"
           style="stroke:#000000;stroke-opacity:1">
          <path
             d="m 0,0 c 19.354,0.658 25.085,5.5 25.604,10.494 0.042,7.708 -6.295,17.483 -36.424,20.02 -46.196,3.89 -52.518,-7.294 -52.518,-7.294 l 0,-21.883 c 0,0 36.532,-2.249 63.338,-1.337"
             style="fill:#b29c8a;fill-opacity:1;fill-rule:nonzero;stroke:#000000;stroke-opacity:1"
             id="path15006"
             inkscape:connector-curvature="0" />
        </g>
        <g
           id="g15008"
           transform="translate(389.2797,127.1261)"
           style="stroke:#000000;stroke-opacity:1">
          <path
             d="m 0,0 c -18.965,-5.349 -78.57,1.107 -133.033,10.346 -54.463,9.24 -98.786,10.199 -98.786,10.199 -48.992,3.891 -72.24,0.823 -83.418,-13.812 -0.801,-1.415 7.07,-3.47 20.615,-5.876 5.687,1.607 13.449,2.555 24.007,2.512 45.407,-0.182 94.255,-14.192 94.255,-14.192 27.171,-3.83 136.059,-5.502 162.866,-4.59 15.16,0.516 21.96,3.599 24.446,7.311 0.69,1.503 1.1,2.625 1.158,3.183 0.017,3.145 -1.03,6.633 -4.317,9.833 C 6.148,2.769 3.671,1.036 0,0"
             style="fill:#b29c8a;fill-opacity:1;fill-rule:nonzero;stroke:#000000;stroke-opacity:1"
             id="path15010"
             inkscape:connector-curvature="0" />
        </g>
        <g
           id="g15012"
           transform="translate(74.0425,133.8592)"
           style="stroke:#000000;stroke-opacity:1">
          <path
             d="m 0,0 c 30.146,23.786 263.114,-22.364 315.237,-6.733 3.654,1.096 6.148,2.768 7.793,4.914 6.85,8.937 -0.907,25.11 1.446,28.639 1.015,1.522 2.848,5.047 2.871,9.157 -0.519,-4.994 -6.251,-9.836 -25.604,-10.494 -26.806,-0.912 -164.849,12.035 -192.02,15.865 0,0 -19.694,2.735 -65.1,2.917 C -0.784,44.448 5.477,26.334 6.45,16.122 6.972,10.641 -0.757,4.742 0,0"
             style="fill:#f9ecde;fill-opacity:1;fill-rule:nonzero;stroke:#000000;stroke-opacity:1"
             id="path15014"
             inkscape:connector-curvature="0" />
        </g>
        <g
           id="g15016"
           transform="translate(197.3552,89.9764)"
           style="stroke:#000000;stroke-opacity:1">
          <path
             d="m 0,0 c -10.242,0.808 -14.744,0.705 -14.744,0.705 -48.993,3.89 -97.391,10.184 -108.569,-4.451 0.654,-4.094 7.63,-7.327 31.737,-8.679 C -39.572,-15.341 3.098,-0.278 3.142,-0.262 3.1,-0.258 3.055,-0.254 3.014,-0.251 2.016,-0.171 1.01,-0.087 0,0"
             style="fill:#b29c8a;fill-opacity:1;fill-rule:nonzero;stroke:#000000;stroke-opacity:1"
             id="path15018"
             inkscape:connector-curvature="0" />
        </g>
        <g
           id="g15020"
           transform="translate(74.0425,86.2301)"
           style="stroke:#000000;stroke-opacity:1">
          <path
             d="m 0,0 c 11.178,14.635 59.576,8.342 108.568,4.451 0,0 4.503,0.103 14.745,-0.705 1.01,-0.087 2.016,-0.171 3.013,-0.25 0.042,-0.004 0.087,-0.008 0.129,-0.012 12.058,-1.054 34.036,-4.463 60.929,-8.262 58.499,-8.264 108.888,-7.304 127.853,-1.955 18.965,5.349 6.322,29.177 9.239,33.553 1.015,1.522 2.848,5.047 2.871,9.157 -0.058,-0.558 -0.468,-1.68 -1.158,-3.183 -2.485,-3.713 -9.665,-5.353 -24.811,-6.2 -33.46,-1.871 -106.147,5.268 -191.655,14.754 0,0 -19.694,2.735 -65.1,2.917 C 34.064,44.308 26.302,43.36 20.615,41.753 1.845,36.45 5.703,23.959 6.45,16.122 6.972,10.641 -0.757,4.742 0,0"
             style="fill:#f9ecde;fill-opacity:1;fill-rule:nonzero;stroke:#000000;stroke-opacity:1"
             id="path15022"
             inkscape:connector-curvature="0" />
        </g>
      </g>
    </g>
    <g
       id="g14948"
       transform="matrix(1.25,0,0,-1.25,243.83247,425.77906)"
       style="fill:#bf092c;fill-opacity:1">
      <path
         d="M 0,0 C -2.557,0.767 -5.465,-0.64 -7.652,-3.958 -9.84,-0.64 -12.747,0.767 -15.305,0 c -3.419,-1.026 -4.916,-5.55 -2.803,-11.671 2.113,-6.121 10.456,-10.495 10.456,-10.495 0,0 8.342,4.374 10.455,10.495 C 4.917,-5.55 3.419,-1.026 0,0"
         style="fill:#bf092c;fill-opacity:1;fill-rule:nonzero;stroke:none"
         id="path14950"
         inkscape:connector-curvature="0" />
    </g>
    <g
       id="g14952"
       transform="matrix(1.25,0,0,-1.25,573.86967,504.35049)">
      <path
         d="M 0,0 C -2.557,0.767 -5.465,-0.64 -7.652,-3.958 -9.84,-0.64 -12.747,0.767 -15.305,0 c -3.419,-1.026 -4.916,-5.55 -2.803,-11.671 2.113,-6.121 10.456,-10.495 10.456,-10.495 0,0 8.342,4.374 10.456,10.495 C 4.917,-5.55 3.419,-1.026 0,0"
         style="fill:#bf092c;fill-opacity:1;fill-rule:nonzero;stroke:none"
         id="path14954"
         inkscape:connector-curvature="0" />
    </g>
    <text
       xml:space="preserve"
       style="font-style:normal;font-variant:normal;font-weight:normal;font-stretch:normal;font-size:40px;line-height:125%;font-family:'Freestyle Script';-inkscape-font-specification:'Freestyle Script, Normal';text-align:start;letter-spacing:0px;word-spacing:0px;writing-mode:lr-tb;text-anchor:start;fill:#000000;fill-opacity:1;stroke:none;stroke-width:1px;stroke-linecap:butt;stroke-linejoin:miter;stroke-opacity:1"
       id="text10529"
       sodipodi:linespacing="125%"
       y="2"
       transform="translate(28,2)"><textPath
         xlink:href="#path4163"
         id="textPath4165"><tspan
   id="tspan10531"
   style="font-style:normal;font-variant:normal;font-weight:normal;font-stretch:normal;font-size:40px;line-height:125%;font-family:'Freestyle Script';-inkscape-font-specification:'Freestyle Script, Normal';text-align:start;writing-mode:lr-tb;text-anchor:start">Quedan</tspan></textPath></text>
    <text
       xml:space="preserve"
       style="font-style:normal;font-variant:normal;font-weight:normal;font-stretch:normal;font-size:40px;line-height:125%;font-family:'Freestyle Script';-inkscape-font-specification:'Freestyle Script, Normal';text-align:start;letter-spacing:0px;word-spacing:0px;writing-mode:lr-tb;text-anchor:start;fill:#000000;fill-opacity:1;stroke:none;stroke-width:1px;stroke-linecap:butt;stroke-linejoin:miter;stroke-opacity:1"
       id="text10533"
       sodipodi:linespacing="125%"
       y="2"
       transform="translate(26,2)"><textPath
         xlink:href="#path4168"
         id="textPath4170"><tspan
   id="tspan10535"
   style="font-style:normal;font-variant:normal;font-weight:normal;font-stretch:normal;font-size:40px;line-height:125%;font-family:'Freestyle Script';-inkscape-font-specification:'Freestyle Script, Normal';text-align:start;writing-mode:lr-tb;text-anchor:start">Horas</tspan></textPath></text>
    <path
       style="fill:none;fill-rule:evenodd;stroke:none;stroke-width:1px;stroke-linecap:butt;stroke-linejoin:miter;stroke-opacity:1;fill-opacity:1"
       d="m 265.4681,447.63953 c 143.04315,6.67717 212.90017,30.97659 316.42857,23.57143"
       id="path4163"
       inkscape:connector-curvature="0"
       sodipodi:nodetypes="cc" />
    <path
       style="fill:none;fill-rule:evenodd;stroke:none;stroke-width:1px;stroke-linecap:butt;stroke-linejoin:miter;stroke-opacity:1"
       d="m 218.32524,509.78239 c 121.8598,-8.3848 238.91975,29.29142 355.71429,24.28572"
       id="path4168"
       inkscape:connector-curvature="0"
       sodipodi:nodetypes="cc" />
  </g>
</svg>
