<?xml version="1.0" encoding="UTF-8" standalone="no"?>
<!-- Created with Inkscape (http://www.inkscape.org/) -->

<svg
   xmlns:dc="http://purl.org/dc/elements/1.1/"
   xmlns:cc="http://creativecommons.org/ns#"
   xmlns:rdf="http://www.w3.org/1999/02/22-rdf-syntax-ns#"
   xmlns:svg="http://www.w3.org/2000/svg"
   xmlns="http://www.w3.org/2000/svg"
   xmlns:sodipodi="http://sodipodi.sourceforge.net/DTD/sodipodi-0.dtd"
   xmlns:inkscape="http://www.inkscape.org/namespaces/inkscape"
   id="svg8068"
   version="1.1"
   inkscape:version="0.48.4 r9939"
   width="265.12997"
   height="15.028786"
   viewBox="0 0 265.12997 15.028786"
   sodipodi:docname="divider.svg"
   inkscape:export-filename="C:\Users\Esco\git\boda\img\divider.png"
   inkscape:export-xdpi="90"
   inkscape:export-ydpi="90">
  <metadata
     id="metadata8074">
    <rdf:RDF>
      <cc:Work
         rdf:about="">
        <dc:format>image/svg+xml</dc:format>
        <dc:type
           rdf:resource="http://purl.org/dc/dcmitype/StillImage" />
        <dc:title />
      </cc:Work>
    </rdf:RDF>
  </metadata>
  <defs
     id="defs8072" />
  <sodipodi:namedview
     pagecolor="#ffffff"
     bordercolor="#666666"
     borderopacity="1"
     objecttolerance="10"
     gridtolerance="10"
     guidetolerance="10"
     inkscape:pageopacity="0"
     inkscape:pageshadow="2"
     inkscape:window-width="1366"
     inkscape:window-height="705"
     id="namedview8070"
     showgrid="false"
     inkscape:zoom="2"
     inkscape:cx="14.567276"
     inkscape:cy="-6.8237596"
     inkscape:window-x="-8"
     inkscape:window-y="-8"
     inkscape:window-maximized="1"
     inkscape:current-layer="svg8068"
     fit-margin-top="0"
     fit-margin-left="0"
     fit-margin-right="0"
     fit-margin-bottom="0" />
  <g
     id="g3284"
     transform="matrix(1.25,0,0,-1.25,110.1578,3.3985175)"
     style="fill:#e1e1e1;fill-opacity:1;stroke:none">
    <path
       inkscape:connector-curvature="0"
       d="M 0,0 C 0.295,0.572 -0.193,1.277 -0.847,1.102 -1.898,0.82 -2.795,-0.241 -3.607,-0.935 -4.058,-1.321 -4.515,-1.701 -4.955,-2.1 c -0.423,-0.383 -0.573,-0.566 -0.57,-1.004 -12.846,0.38 -25.708,0.493 -38.557,0.504 -11.518,0.009 -23.153,0.19 -34.695,-0.353 0.075,1.486 0.071,2.976 -0.02,4.477 -0.061,0.996 -1.284,1.624 -2.041,0.845 -1.842,-1.896 -3.981,-3.376 -6.441,-4.356 -0.912,-0.363 -1.209,-1.586 -0.281,-2.151 2.16,-1.314 4.319,-2.628 6.479,-3.942 0.007,-0.005 0.014,-0.008 0.021,-0.013 l 0.166,-0.101 c 0.578,-0.352 1.098,-0.172 1.4,0.212 0.121,0.132 0.219,0.291 0.253,0.508 0.156,1.013 0.265,2.025 0.351,3.037 11.596,-0.064 23.221,0.374 34.808,0.362 12.713,-0.013 25.417,-0.265 38.125,-0.528 -0.084,-0.194 -0.099,-0.41 0.045,-0.598 0.64,-0.829 1.366,-1.586 2.142,-2.291 0.698,-0.634 1.557,-1.54 2.482,-1.788 0.62,-0.167 1.274,0.564 0.879,1.143 -0.57,0.834 -1.62,1.378 -2.392,2.031 -0.52,0.44 -1.02,1.006 -1.564,1.471 1.086,-0.023 2.172,-0.045 3.258,-0.067 0.949,-0.02 0.946,1.439 0,1.472 -0.864,0.03 -1.729,0.047 -2.594,0.074 0.383,0.281 0.747,0.628 1.111,0.904 0.843,0.64 2.099,1.301 2.59,2.252"
       style="fill:#e1e1e1;fill-opacity:1;fill-rule:nonzero;stroke:none"
       id="path3286" />
  </g>
  <g
     id="g3288"
     transform="matrix(1.25,0,0,-1.25,122.16093,8.9695175)"
     style="fill:#e1e1e1;fill-opacity:1;stroke:none">
    <path
       inkscape:connector-curvature="0"
       d="M 0,0 C -0.012,0.816 -0.558,1.411 -1.245,1.675 -1.369,1.789 -1.502,1.885 -1.644,1.96 -1.815,2.284 -2.132,2.536 -2.56,2.547 -3.929,2.585 -5.104,1.38 -5.081,0.016 c 0.023,-1.329 1.247,-2.295 2.537,-2.201 0.157,0.012 0.31,0.038 0.456,0.078 C -1.004,-2.004 0.018,-1.177 0,0"
       style="fill:#e1e1e1;fill-opacity:1;fill-rule:nonzero;stroke:none"
       id="path3290" />
  </g>
  <g
     id="g3292"
     transform="matrix(1.25,0,0,-1.25,154.97218,3.3985175)"
     style="fill:#e1e1e1;fill-opacity:1;stroke:none">
    <path
       inkscape:connector-curvature="0"
       d="M 0,0 C -0.295,0.572 0.193,1.277 0.847,1.102 1.898,0.82 2.795,-0.241 3.607,-0.935 4.058,-1.321 4.515,-1.701 4.955,-2.1 c 0.423,-0.383 0.573,-0.566 0.569,-1.004 12.847,0.38 25.709,0.493 38.558,0.504 11.518,0.009 23.153,0.19 34.695,-0.353 -0.075,1.486 -0.071,2.976 0.02,4.477 0.061,0.996 1.284,1.624 2.041,0.845 1.842,-1.896 3.981,-3.376 6.441,-4.356 0.912,-0.363 1.209,-1.586 0.281,-2.151 C 85.4,-5.452 83.241,-6.766 81.081,-8.08 81.074,-8.085 81.067,-8.088 81.06,-8.093 l -0.166,-0.101 c -0.578,-0.352 -1.098,-0.172 -1.4,0.212 -0.121,0.132 -0.219,0.291 -0.253,0.508 -0.156,1.013 -0.265,2.025 -0.351,3.037 C 67.294,-4.501 55.669,-4.063 44.082,-4.075 31.369,-4.088 18.665,-4.34 5.957,-4.603 6.041,-4.797 6.056,-5.013 5.912,-5.201 5.272,-6.03 4.546,-6.787 3.77,-7.492 3.072,-8.126 2.213,-9.032 1.288,-9.28 c -0.62,-0.167 -1.274,0.564 -0.879,1.143 0.57,0.834 1.62,1.378 2.392,2.031 0.52,0.44 1.02,1.006 1.564,1.471 -1.086,-0.023 -2.172,-0.045 -3.258,-0.067 -0.949,-0.02 -0.946,1.439 0,1.472 0.864,0.03 1.729,0.047 2.594,0.074 C 3.318,-2.875 2.954,-2.528 2.59,-2.252 1.747,-1.612 0.491,-0.951 0,0"
       style="fill:#e1e1e1;fill-opacity:1;fill-rule:nonzero;stroke:none"
       id="path3294" />
  </g>
  <g
     id="g3296"
     transform="matrix(1.25,0,0,-1.25,142.96905,8.9695175)"
     style="fill:#e1e1e1;fill-opacity:1;stroke:none">
    <path
       inkscape:connector-curvature="0"
       d="M 0,0 C 0.012,0.816 0.558,1.411 1.245,1.675 1.369,1.789 1.502,1.885 1.644,1.96 1.815,2.284 2.132,2.536 2.56,2.547 3.929,2.585 5.104,1.38 5.081,0.016 5.058,-1.313 3.834,-2.279 2.544,-2.185 2.387,-2.173 2.234,-2.147 2.088,-2.107 1.004,-2.004 -0.018,-1.177 0,0"
       style="fill:#e1e1e1;fill-opacity:1;fill-rule:nonzero;stroke:none"
       id="path3298" />
  </g>
  <g
     id="g3300"
     transform="matrix(1.25,0,0,-1.25,129.76856,5.8656475)"
     style="fill:#e1e1e1;fill-opacity:1;stroke:none">
    <path
       inkscape:connector-curvature="0"
       d="M 0,0 C 0.285,-0.273 0.536,-0.57 0.77,-0.88 0.699,-0.98 0.656,-1.093 0.63,-1.212 0.351,-0.833 0.112,-0.42 -0.055,0.046 -0.036,0.029 -0.02,0.019 0,0 M 7.224,2.967 C 5.272,3.278 3.344,2.51 2.237,1.013 1.684,1.684 1.045,2.28 0.311,2.625 -0.761,3.128 -2.067,2.837 -2.445,1.591 -3.254,-1.081 0.004,-3.84 2.166,-4.566 c 0.195,-0.065 0.371,-0.039 0.525,0.028 0.306,-0.094 0.645,-0.077 0.93,0.096 2.23,1.364 3.778,3.431 4.422,5.967 0.142,0.562 -0.182,1.34 -0.819,1.442"
       style="fill:#e1e1e1;fill-opacity:1;fill-rule:nonzero;stroke:none"
       id="path3302" />
  </g>
</svg>
