<?xml version="1.0" encoding="UTF-8" standalone="no"?>
<!-- Created with Inkscape (http://www.inkscape.org/) -->

<svg
   xmlns:dc="http://purl.org/dc/elements/1.1/"
   xmlns:cc="http://creativecommons.org/ns#"
   xmlns:rdf="http://www.w3.org/1999/02/22-rdf-syntax-ns#"
   xmlns:svg="http://www.w3.org/2000/svg"
   xmlns="http://www.w3.org/2000/svg"
   xmlns:sodipodi="http://sodipodi.sourceforge.net/DTD/sodipodi-0.dtd"
   xmlns:inkscape="http://www.inkscape.org/namespaces/inkscape"
   width="95.605331mm"
   height="61.800789mm"
   viewBox="0 0 338.75905 218.97917"
   id="svg23002"
   version="1.1"
   inkscape:version="0.91 r13725"
   sodipodi:docname="fecha.svg">
  <defs
     id="defs23004">
    <inkscape:path-effect
       effect="bend_path"
       id="path-effect23740"
       is_visible="true"
       bendpath="m 219.07161,268.36875 c 80.76477,-13.69192 169.1057,1.01143 255.93139,1.01015"
       prop_scale="1"
       scale_y_rel="false"
       vertical="false"
       bendpath-nodetypes="cc" />
    <clipPath
       id="clipPath14580"
       clipPathUnits="userSpaceOnUse">
      <path
         inkscape:connector-curvature="0"
         id="path14582"
         d="M 0,800 800,800 800,0 0,0 0,800 Z" />
    </clipPath>
  </defs>
  <sodipodi:namedview
     id="base"
     pagecolor="#ffffff"
     bordercolor="#666666"
     borderopacity="1.0"
     inkscape:pageopacity="0.0"
     inkscape:pageshadow="2"
     inkscape:zoom="0.7"
     inkscape:cx="302.74901"
     inkscape:cy="28.349019"
     inkscape:document-units="px"
     inkscape:current-layer="layer1"
     showgrid="false"
     fit-margin-top="0"
     fit-margin-left="0"
     fit-margin-right="0"
     fit-margin-bottom="0"
     inkscape:window-width="1366"
     inkscape:window-height="705"
     inkscape:window-x="-8"
     inkscape:window-y="-8"
     inkscape:window-maximized="1" />
  <metadata
     id="metadata23007">
    <rdf:RDF>
      <cc:Work
         rdf:about="">
        <dc:format>image/svg+xml</dc:format>
        <dc:type
           rdf:resource="http://purl.org/dc/dcmitype/StillImage" />
        <dc:title></dc:title>
      </cc:Work>
    </rdf:RDF>
  </metadata>
  <g
     inkscape:label="Capa 1"
     inkscape:groupmode="layer"
     id="layer1"
     transform="translate(-173.39338,-201.11195)">
    <g
       id="g14624"
       transform="matrix(1.25,0,0,-1.25,492.41757,239.8082)">
      <path
         d="m 0,0 c -8.869,-0.011 -23.766,-0.035 -48.951,0.517 -56.355,1.234 -99.959,18.511 -109.831,30.44 0,0 -0.412,-9.77 -2.571,-17.483 -2.16,-7.713 -6.479,-16.042 -6.479,-16.042 C -143.151,-4.419 -29.001,-2.059 0,0"
         style="fill:#d3a7b6;fill-opacity:1;fill-rule:nonzero;stroke:none"
         id="path14626"
         inkscape:connector-curvature="0" />
    </g>
    <g
       id="g14628"
       transform="matrix(1.25,0,0,-1.25,487.78994,298.2942)">
      <path
         d="m 0,0 c 25.915,2.057 18.511,7.816 18.511,15.631 0,7.816 -0.823,27.972 -1.645,30.029 -0.456,1.138 -2.187,1.143 -13.164,1.129 -29.001,-2.059 -143.151,-4.42 -167.832,-2.568 0,0 -57.384,3.702 -75.895,1.542 -18.511,-2.16 -8.947,-22.83 -9.564,-33.937 -0.339,-6.114 -1.696,-10.916 2.032,-14.631 l 0,0 c -0.128,11.284 73.863,7.535 121.271,7.33 l 16.043,0 C -101.604,4.525 -25.915,-2.057 0,0"
         style="fill:#ffcfdd;fill-opacity:1;fill-rule:nonzero;stroke:none"
         id="path14630"
         inkscape:connector-curvature="0" />
    </g>
    <g
       id="g14632"
       transform="matrix(1.25,0,0,-1.25,482.80332,313.4972)">
      <path
         d="m 0,0 c -5.968,1.739 -16.887,2.794 -35.912,3.935 -41.135,2.468 -86.384,12.752 -86.384,12.752 -47.409,0.206 -121.4,3.954 -121.272,-7.33 l 0,0 c 3.044,-3.033 9.475,-5.342 22.65,-7.04 29.309,-3.779 49.671,-6.712 49.671,-6.712 C -123.119,-4.395 11.124,-7.328 0,0"
         style="fill:#d3a7b6;fill-opacity:1;fill-rule:nonzero;stroke:none"
         id="path14634"
         inkscape:connector-curvature="0" />
    </g>
    <g
       id="g14636"
       transform="matrix(1.25,0,0,-1.25,489.84682,326.06045)">
      <path
         d="M 0,0 C 1.548,5.085 1.302,8.03 -5.635,10.051 5.489,2.722 -128.754,5.656 -176.882,5.656 c 0,0 -29.001,0.308 -38.256,0.308 -9.256,0 -12.032,-3.085 -12.032,-12.032 0,-8.947 -3.599,-31.777 5.039,-33.422 -3.863,3.316 -8.433,5.991 24.887,6.903 33.319,0.913 87.412,0.913 87.412,0.913 0,0 23.036,-0.412 48.54,0 25.504,0.411 61.703,1.645 61.703,4.936 C 0.411,-23.447 -2.88,-9.461 0,0"
         style="fill:#ffcfdd;fill-opacity:1;fill-rule:nonzero;stroke:none"
         id="path14638"
         inkscape:connector-curvature="0" />
    </g>
    <g
       id="g14640"
       transform="matrix(1.25,0,0,-1.25,212.18307,375.42295)">
      <path
         d="m 0,0 c 8.638,-1.645 29.618,-2.468 51.419,-4.936 21.802,-2.468 61.703,-24.681 78.98,-29.207 17.277,-4.524 14.809,0.823 16.866,13.164 2.056,12.341 17.277,18.511 5.425,20.568 -11.851,2.056 -40.391,8.227 -40.391,8.227 0,0 -54.093,0 -87.412,-0.913 C -8.433,5.991 -3.863,3.316 0,0"
         style="fill:#d3a7b6;fill-opacity:1;fill-rule:nonzero;stroke:none"
         id="path14642"
         inkscape:connector-curvature="0" />
    </g>
    <text
       xml:space="preserve"
       style="font-style:normal;font-variant:normal;font-weight:normal;font-stretch:normal;font-size:43.59040833px;line-height:125%;font-family:Harrington;-inkscape-font-specification:Harrington;letter-spacing:0px;word-spacing:0px;fill:#ffffff;fill-opacity:1;stroke:#000000;stroke-width:1.08976018px;stroke-linecap:butt;stroke-linejoin:miter;stroke-opacity:1"
       x="249.80794"
       y="358.48624"
       id="text23691"
       sodipodi:linespacing="125%"><tspan
         sodipodi:role="line"
         id="tspan23693"
         x="249.80794"
         y="358.48624"
         style="fill:#ffffff;fill-opacity:1;stroke:#000000;stroke-width:1.08976018px;stroke-opacity:1">Tomelloso</tspan></text>
    <g
       style="font-style:normal;font-variant:normal;font-weight:normal;font-stretch:normal;font-size:49.84181595px;line-height:125%;font-family:Harrington;-inkscape-font-specification:Harrington;text-align:center;letter-spacing:0px;word-spacing:0px;text-anchor:middle;fill:#ffffff;fill-opacity:1;stroke:#000000;stroke-width:1.0837059px;stroke-linecap:butt;stroke-linejoin:miter;stroke-opacity:1"
       id="text23691-5"
       inkscape:path-effect="#path-effect23740"
       transform="translate(-2.9141297,7.6535308)">
      <path
         d="m 224.70476,248.21146 c -0.37443,2.08175 -0.61965,3.77861 -0.74408,5.07244 -0.1769,1.84586 -0.21313,3.85857 -0.11233,6.04114 0.10087,2.18399 0.38562,4.78543 0.84943,7.81646 0.33339,2.17874 0.81229,4.04272 1.42765,5.58806 0.53509,1.32886 1.26707,2.51361 2.19041,3.55689 0.0911,0.0849 0.14478,0.18348 0.16121,0.29575 0.0164,0.11229 -0.0529,0.22895 -0.20767,0.35019 -0.34149,0.13248 -0.66733,0.26321 -0.97747,0.39204 -0.29476,0.12648 -0.62942,0.30046 -1.00308,0.52213 -0.35838,0.21933 -0.67662,0.44136 -0.9548,0.66571 -0.27704,0.24157 -0.46014,0.40022 -0.55824,0.48247 1e-5,-10e-6 -0.10306,0.0903 -0.10305,0.0903 -0.0661,0.027 -0.13225,0.054 -0.19835,0.081 -0.12203,0.0196 -0.22759,-0.0538 -0.3168,-0.22009 -0.3107,-0.47529 -0.65912,-1.47085 -1.04582,-2.98515 -0.37397,-1.53313 -0.68538,-3.05986 -0.93181,-4.5809 -0.44302,-2.73441 -0.6566,-5.97675 -0.61038,-9.70822 0.0463,-3.73606 0.32113,-7.23921 0.834,-10.51551 -0.39941,0.69979 -0.86754,1.32089 -1.40461,1.86391 -0.71152,0.7179 -1.42465,1.13516 -2.1454,1.25179 -0.5405,0.0875 -1.0581,0.008 -1.55456,-0.23849 -0.47996,-0.24926 -0.76566,-0.6372 -0.85516,-1.16512 -0.0488,-0.28795 -0.073,-0.53061 -0.0725,-0.7281 0.0169,-0.2002 0.14941,-0.4198 0.39795,-0.65833 0.0728,0.0291 0.14555,0.0581 0.21829,0.0872 0.35621,0.30296 0.60475,0.47583 0.74732,0.51832 0.26846,0.0876 0.57547,0.10335 0.92145,0.0476 1.00485,-0.16196 1.87167,-0.8069 2.61075,-1.9374 0.1016,-0.15463 0.54692,-1.06084 1.38549,-2.76725 0.10185,-0.2282 0.27563,-0.31955 0.52084,-0.27372 0.28088,0.057 0.52829,0.11912 0.74219,0.18629 0.23057,0.0647 0.42054,0.14375 0.56996,0.23683 0.14944,0.0931 0.23338,0.20388 0.25202,0.33221 0.014,0.0962 0.003,0.19607 -0.0328,0.29948 0,0 -4e-5,0 -4e-5,0 z"
         style="fill:#ffffff;fill-opacity:1;stroke-width:1.0837059px"
         id="path23718"
         inkscape:original-d="m 227.68685,249.31302 q -0.97348,3.01777 -1.43588,4.91604 -0.65709,2.70138 -0.99781,5.96252 -0.34071,3.26113 -0.34071,7.86079 0,3.30981 0.58408,5.74349 0.51108,2.09297 1.70358,3.84522 0.12168,0.14602 0.12168,0.31638 0,0.17036 -0.2677,0.31638 -0.55975,0.12168 -1.07082,0.24337 -0.48674,0.12168 -1.1195,0.36505 -0.60842,0.24337 -1.09515,0.51107 -0.48674,0.29205 -0.6571,0.38939 l -0.12168,0.073 -0.21903,0.0487 q -0.1947,0 -0.29204,-0.26771 -0.36506,-0.77878 -0.58409,-3.11511 -0.19469,-2.36067 -0.19469,-4.67267 0,-4.1616 0.94913,-9.68606 0.94914,-5.52446 2.40935,-10.27014 -0.73011,0.94914 -1.63057,1.63057 -1.1925,0.90046 -2.26332,0.90046 -0.80312,0 -1.46021,-0.48673 -0.63276,-0.48674 -0.63276,-1.28986 0,-0.43806 0.0487,-0.7301 0.073,-0.29204 0.48674,-0.58408 l 0.19469,0.12168 q 0.43807,0.53541 0.63276,0.63276 0.36505,0.19469 0.87613,0.19469 1.48454,0 2.79873,-1.50888 0.17036,-0.1947 1.72792,-2.53103 0.19469,-0.31638 0.53541,-0.1947 0.38939,0.14602 0.68143,0.29205 0.31638,0.14602 0.51107,0.31637 0.1947,0.17036 0.1947,0.36506 0,0.14602 -0.073,0.29204 z"
         inkscape:connector-curvature="0" />
      <path
         d="m 253.01832,245.04444 c -0.22487,0.34491 -0.77737,1.01771 -1.65993,2.03519 -0.91106,1.05033 -1.81606,2.1032 -2.71476,3.15866 -1.11813,1.36652 -1.97555,2.52291 -2.57615,3.45743 -1.43857,2.25944 -2.40752,3.9074 -2.90427,4.87738 -0.86707,1.701 -1.46345,3.3134 -1.79845,4.83208 -0.37623,1.73581 -0.45065,3.58518 -0.23392,5.54998 0.15447,1.40047 0.43492,2.50303 0.83768,3.30599 0.40297,0.80336 0.98626,1.40002 1.74892,1.79202 0.1154,0.053 0.17727,0.11987 0.18571,0.20038 0.0101,0.0967 -0.0504,0.19258 -0.18133,0.28784 -0.29463,0.17764 -0.59493,0.37256 -0.9007,0.58475 -0.30751,0.19609 -0.59137,0.39006 -0.85165,0.58171 -0.47246,0.39431 -0.94341,0.78949 -1.41285,1.18553 -0.0878,0.0508 -0.17551,0.1016 -0.26321,0.15245 -0.10772,0.0124 -0.2563,-0.0602 -0.44613,-0.21754 -0.36196,-0.43099 -0.77822,-1.25477 -1.25199,-2.47115 -0.47388,-1.21666 -0.7716,-2.31423 -0.889,-3.29586 -0.19816,-1.6569 -0.14252,-3.31168 0.17639,-4.96425 0.26815,-1.4016 0.72597,-2.86621 1.37983,-4.39084 0.37141,-0.85373 0.9987,-2.0962 1.88483,-3.70331 0.76562,-1.36697 1.88433,-3.06112 3.36666,-5.06038 1.55729,-2.08964 3.09501,-3.94862 4.59974,-5.57532 -1.07811,0.41922 -2.00469,0.73129 -2.78422,0.93424 -0.77931,0.20288 -1.67068,0.35312 -2.67595,0.45297 -0.88672,0.0881 -2.45945,0.14825 -4.80291,0.21004 -1.16466,0.0307 -2.15318,0.0954 -2.96115,0.19011 -1.03959,0.12189 -1.97672,0.61895 -2.80378,1.48919 -0.72091,0.97953 -1.15368,1.5663 -1.34681,1.81145 -0.10031,0.0619 -0.20058,0.12379 -0.30081,0.18574 -0.0983,0.0127 -0.15476,-0.0372 -0.16939,-0.14966 -0.0105,-0.0803 0.006,-0.21315 0.0483,-0.39837 0.0406,-0.2013 0.0895,-0.40366 0.14668,-0.60705 0.29711,-1.07035 0.49975,-1.83318 0.60848,-2.30716 0.11656,-0.66798 0.23408,-1.33592 0.35254,-2.00382 0.0547,-0.2354 0.24627,-0.38998 0.57459,-0.4631 0.34102,-0.0907 1.07196,-0.21388 2.18138,-0.36119 1.10389,-0.16281 1.90226,-0.26952 2.36194,-0.32123 0.2492,-0.028 0.4984,-0.0559 0.74759,-0.0835 1.02986,-0.11408 2.17031,-0.13896 3.41825,-0.0721 2.68905,0.14749 4.58026,0.18464 5.73082,0.0806 1.27541,-0.11535 2.30262,-0.38198 3.08552,-0.8053 0.28782,-0.15426 0.69439,-0.48052 1.22272,-0.97859 10e-6,-10e-6 0.1436,-0.0847 0.14361,-0.0847 1e-5,0 0.12262,-0.0342 0.12263,-0.0342 0.0996,-0.008 0.19355,0.017 0.28168,0.075 0.21075,0.12946 0.42131,0.25906 0.63168,0.3888 0.0892,0.0743 0.13882,0.17601 0.14886,0.30524 -0.0192,0.0746 -0.0384,0.14929 -0.0576,0.22394 0,0 -7e-5,-2e-5 -7e-5,-2e-5 z"
         style="fill:#ffffff;fill-opacity:1;stroke-width:1.0837059px"
         id="path23720"
         inkscape:original-d="m 255.38215,249.26435 q -0.36505,0.48673 -1.77659,1.89827 l -2.92042,2.92042 q -1.82526,1.89827 -2.8474,3.21246 -2.45802,3.18812 -3.35849,4.57532 -1.55755,2.40935 -2.31199,4.624 -0.85179,2.53103 -0.85179,5.50012 0,2.1173 0.48673,3.38282 0.48674,1.26551 1.60623,1.97128 0.17036,0.0974 0.17036,0.21903 0,0.14602 -0.21903,0.26771 -0.48674,0.21903 -0.99781,0.48673 -0.51107,0.24337 -0.94914,0.48674 l -1.60623,1.02215 -0.29204,0.12168 q -0.17036,0 -0.43806,-0.2677 -0.48674,-0.70577 -0.99781,-2.60404 -0.51107,-1.89828 -0.51107,-3.38282 0,-2.5067 0.77877,-4.91604 0.6571,-2.0443 1.89828,-4.21027 0.70576,-1.21684 2.28766,-3.48017 1.36286,-1.92261 3.84522,-4.69701 2.60404,-2.89608 5.01338,-5.13507 -1.63056,0.48674 -2.79873,0.68144 -1.16817,0.19469 -2.65272,0.19469 -1.28985,0 -4.697,-0.29204 -1.70358,-0.14602 -2.89609,-0.14602 -1.53322,0 -2.89608,1.14383 -1.21684,1.31419 -1.53322,1.63057 l -0.31638,0.14602 q -0.14602,0 -0.14602,-0.17036 0,-0.12169 0.0974,-0.38939 0.0974,-0.29204 0.21903,-0.58408 0.63276,-1.53322 0.87613,-2.21466 l 0.58408,-1.94694 q 0.12169,-0.34072 0.60842,-0.38939 0.51108,-0.073 2.14164,-0.0974 1.63057,-0.0487 2.312,-0.0487 l 0.73011,0 q 1.50888,0 3.3098,0.29204 3.86956,0.63276 5.5488,0.63276 1.87393,0 3.06644,-0.53541 0.43806,-0.1947 1.26551,-0.87613 l 0.14602,-0.073 0.12169,-0.0243 q 0.14602,0 0.2677,0.0974 l 0.58409,0.43807 q 0.12168,0.12168 0.12168,0.31637 l -0.073,0.21904 z"
         inkscape:connector-curvature="0" />
      <path
         d="m 272.66104,243.64176 c 0.0223,0.56724 -0.18149,1.06237 -0.60996,1.48597 -0.4127,0.40678 -0.923,0.62325 -1.53225,0.65031 -0.59276,0.0263 -1.10435,-0.16101 -1.53607,-0.5627 -0.43166,-0.40164 -0.6621,-0.89363 -0.6897,-1.47673 -0.0276,-0.58307 0.17234,-1.08798 0.60142,-1.51418 0.42901,-0.42612 0.94297,-0.65286 1.54037,-0.67944 0.59741,-0.0266 1.1127,0.1706 1.54461,0.59085 0.43195,0.42027 0.6586,0.92251 0.68158,1.50592 z m 1.24769,32.86838 c 0.0972,0.0937 0.086,0.20768 -0.0332,0.34214 -0.10559,0.0852 -0.23288,0.21193 -0.38164,0.3801 -0.14812,0.18438 -0.28732,0.39282 -0.41757,0.62529 -0.73163,1.47398 -1.45599,2.95741 -2.17268,4.45019 -0.88198,1.58133 -1.80503,2.39589 -2.78192,2.44506 -0.45793,0.023 -0.8546,-0.10244 -1.19099,-0.3769 -0.33543,-0.25822 -0.51651,-0.62184 -0.54235,-1.09124 -0.0178,-0.32373 0.066,-0.61237 0.25211,-0.86582 0.18605,-0.25344 0.43272,-0.38825 0.73967,-0.40413 0.38371,-0.0199 0.65101,0.0885 0.80152,0.32445 0.15135,0.25214 0.20839,0.46849 0.1715,0.64887 -0.012,0.0656 -0.0155,0.14691 -0.0106,0.24403 0.008,0.16192 0.066,0.2402 0.17312,0.2349 0.0307,-0.002 0.10634,-0.0215 0.2272,-0.0599 0.40525,-0.18216 0.74342,-0.64466 1.01566,-1.38785 0.36638,-1.02307 0.51126,-2.40213 0.43021,-4.13481 l -1.05933,-22.64393 c -0.0379,-0.80992 -0.25764,-1.34329 -0.66061,-1.59984 -0.51002,-0.15323 -0.86898,-0.25815 -1.06535,-0.31259 -0.19818,-0.0549 -0.3006,-0.14704 -0.30714,-0.27663 -0.005,-0.0971 0.0629,-0.20615 0.20365,-0.32692 0.15688,-0.1215 0.41788,-0.28904 0.78276,-0.50171 0.53967,-0.31889 0.95954,-0.58186 1.2606,-0.79092 0.74512,-0.50599 1.32284,-0.92024 1.73494,-1.24703 0.42477,-0.34131 0.69928,-0.55931 0.80795,-0.64326 0.1111,-0.0858 0.19123,-0.12974 0.2403,-0.13178 0.22901,-0.01 0.30834,0.13338 0.23842,0.4284 -0.0673,0.35988 -0.12498,0.95474 -0.1727,1.78456 -0.0314,0.82932 -0.0236,1.81069 0.0229,2.94518 l 0.79094,19.29956 c 0.0299,0.72912 0.12409,1.30982 0.28201,1.74168 0.10597,0.30419 0.31301,0.60433 0.6207,0.90084 0,0 -5e-5,2e-5 -5e-5,2e-5 z"
         style="fill:#ffffff;fill-opacity:1;stroke-width:1.0837059px"
         id="path23722"
         inkscape:original-d="m 274.65692,249.02098 q 0,0.85179 -0.6571,1.46021 -0.63275,0.58408 -1.53322,0.58408 -0.87612,0 -1.48454,-0.63276 -0.60842,-0.63275 -0.60842,-1.50888 0,-0.87613 0.65709,-1.48455 0.65709,-0.60842 1.53322,-0.60842 0.87613,0 1.48455,0.6571 0.60842,0.65709 0.60842,1.53322 z m -0.0487,32.90338 q 0.14602,0.14602 -0.0487,0.34072 -0.17036,0.12168 -0.41373,0.36505 -0.24336,0.26771 -0.4624,0.60842 -1.24117,2.16598 -2.48235,4.35629 -1.50889,2.312 -3.06644,2.312 -0.73011,0 -1.24118,-0.43806 -0.51107,-0.41373 -0.51107,-1.1195 0,-0.48673 0.31638,-0.85178 0.31637,-0.36506 0.80311,-0.36506 0.60842,0 0.82745,0.36506 0.21903,0.38939 0.14602,0.65709 -0.0243,0.0974 -0.0243,0.24337 0,0.24337 0.17035,0.24337 0.0487,0 0.24337,-0.0487 0.6571,-0.24337 1.14383,-1.33852 0.6571,-1.50889 0.6571,-4.11293 l 0,-22.68192 q 0,-1.21684 -0.58409,-1.63056 -0.75444,-0.26771 -1.04648,-0.36506 -0.29204,-0.0973 -0.29204,-0.29204 0,-0.14602 0.21903,-0.31638 0.24337,-0.17035 0.80312,-0.4624 0.82745,-0.43806 1.28985,-0.7301 1.14383,-0.70577 1.77658,-1.16817 0.6571,-0.48673 0.82746,-0.60842 0.17035,-0.12168 0.24337,-0.12168 0.34071,0 0.21903,0.43806 -0.12169,0.53541 -0.24337,1.77659 -0.0973,1.24118 -0.0973,2.94475 l 0,19.32344 q 0,1.09516 0.21903,1.75225 0.14602,0.4624 0.60842,0.9248 z"
         inkscape:connector-curvature="0" />
      <path
         d="m 301.83757,271.80659 c -0.032,0.0487 -0.23021,0.21777 -0.5947,0.50838 -0.15843,0.12912 -0.34067,0.2988 -0.54651,0.50903 -0.20585,0.21024 -0.38783,0.41255 -0.54602,0.60687 -0.0318,0.0488 -0.13445,0.18612 -0.30839,0.41309 -0.0633,0.11349 -0.14219,0.17007 -0.23658,0.16978 -0.0944,-2.9e-4 -0.20449,-0.0412 -0.33023,-0.12275 -0.61296,-0.40766 -1.18725,-0.9444 -1.72355,-1.61037 -0.77289,-0.97455 -1.16263,-1.96425 -1.16457,-2.97126 -0.52036,1.12156 -1.33893,2.13806 -2.45245,3.05304 -1.42726,1.16014 -2.9281,1.74835 -4.51296,1.76705 -2.87051,0.0339 -5.09583,-0.9031 -6.70016,-2.83095 -1.39244,-1.67148 -2.13328,-3.80309 -2.20293,-6.39772 -0.0405,-1.50859 0.10416,-2.9407 0.43789,-4.2968 0.27503,-1.14331 0.70308,-2.33134 1.28692,-3.5627 0.21097,-0.43443 0.76004,-1.47993 1.62936,-3.08055 0.0773,-0.18017 -0.0401,-0.37259 -0.35269,-0.57678 -0.19717,-0.12541 -0.57446,-0.29591 -1.13138,-0.50984 -0.29556,-0.13906 -0.59134,-0.2779 -0.88734,-0.41652 -0.13115,-0.0454 -0.19817,-0.12481 -0.201,-0.23838 -0.003,-0.11353 0.12495,-0.20614 0.38351,-0.27753 0.2748,-0.0718 0.55782,-0.14364 0.84905,-0.2154 0.50155,-0.12546 1.0428,-0.29992 1.62434,-0.52314 0.59747,-0.23977 1.15435,-0.50219 1.67075,-0.78761 0.51639,-0.28543 1.02523,-0.57007 1.52655,-0.85404 0.1297,-0.0508 0.21905,-0.0765 0.26797,-0.0772 0.0652,-0.001 0.12286,0.0387 0.17298,0.11911 0.0664,0.0802 0.0762,0.20179 0.0297,0.36485 -0.0468,0.14682 -0.10224,0.2532 -0.16645,0.31913 -1.42215,1.88903 -2.49765,3.80114 -3.23438,5.73168 -0.8753,2.2744 -1.28003,4.54843 -1.22953,6.81976 0.0577,2.59526 0.6872,4.71693 1.87235,6.36542 1.20181,1.64938 2.76435,2.45916 4.70165,2.43717 1.32344,-0.015 2.59557,-0.43942 3.82296,-1.27449 1.24313,-0.83511 2.09558,-1.83552 2.55339,-3.00591 l -0.0337,-14.90858 c -6.6e-4,-0.29226 -0.20408,-0.62481 -0.61121,-0.99683 -0.32559,-0.25866 -0.64346,-0.52523 -0.95364,-0.79973 -0.098,-0.0969 -0.14725,-0.19411 -0.1477,-0.29155 -9.2e-4,-0.19484 0.16134,-0.29322 0.48682,-0.29471 0.17761,-8.1e-4 0.65241,0.0214 1.4157,0.068 0.76632,0.0469 1.21822,0.071 1.36628,0.0709 0.66733,-4.2e-4 1.17825,-0.008 1.53656,-0.0237 0.37426,-0.032 0.80466,-0.0716 1.29279,-0.11876 0.29265,9.5e-4 0.43846,0.10715 0.43756,0.3183 -4.9e-4,0.1137 -0.0497,0.21909 -0.14754,0.3162 -0.37464,0.29091 -0.67599,0.53393 -0.90364,0.72818 -0.43925,0.37249 -0.65874,0.71338 -0.65936,1.02193 l -0.0291,14.37458 c -0.003,1.36422 0.33655,2.44528 1.01412,3.24347 0.22092,0.261 0.73325,0.6603 1.53666,1.20124 0.11028,0.0657 0.16497,0.17158 0.16413,0.31775 -3.7e-4,0.065 -0.0245,0.13796 -0.0723,0.21886 0,0 3e-5,-2e-5 3e-5,-2e-5 z"
         style="fill:#ffffff;fill-opacity:1;stroke-width:1.0837059px"
         id="path23724"
         inkscape:original-d="m 303.56906,277.64108 q -0.0487,0.073 -0.60842,0.51108 -0.24337,0.19469 -0.55974,0.51107 -0.31638,0.31638 -0.55975,0.60842 -0.0487,0.073 -0.31638,0.41373 -0.0974,0.17035 -0.24337,0.17035 -0.14602,0 -0.34071,-0.12168 -0.94914,-0.60842 -1.77659,-1.60623 -1.19251,-1.46021 -1.19251,-2.96909 -0.80311,1.67924 -2.53103,3.0421 -2.21465,1.72791 -4.67267,1.72791 -4.45364,0 -6.86298,-2.94475 -2.09297,-2.55537 -2.09297,-6.44926 0,-2.26333 0.55975,-4.28328 0.4624,-1.70358 1.3872,-3.52884 0.34071,-0.6571 1.70358,-3.0421 0.12168,-0.26771 -0.34072,-0.58409 -0.29204,-0.19469 -1.11949,-0.53541 -0.43807,-0.21903 -0.87613,-0.43806 -0.19469,-0.073 -0.19469,-0.24337 0,-0.17036 0.38939,-0.2677 0.41372,-0.0974 0.85178,-0.1947 0.75445,-0.17036 1.63057,-0.48674 0.90046,-0.34071 1.67924,-0.75444 0.77878,-0.41372 1.53322,-0.82745 0.1947,-0.073 0.26771,-0.073 0.0973,0 0.17035,0.12168 0.0973,0.12169 0.0243,0.36506 -0.073,0.21903 -0.17036,0.31638 -2.16597,2.79873 -3.33414,5.67048 -1.3872,3.38281 -1.3872,6.78997 0,3.89389 1.77659,6.40058 1.80092,2.5067 4.79435,2.5067 2.0443,0 3.94257,-1.24118 1.92261,-1.24118 2.62838,-2.99343 l 0,-14.89414 q 0,-0.43806 -0.60843,-0.99781 -0.48673,-0.38939 -0.94913,-0.80311 -0.14602,-0.14602 -0.14602,-0.29204 0,-0.29205 0.48673,-0.29205 0.26771,0 1.41154,0.073 1.14383,0.073 1.36286,0.073 0.99781,0 1.53322,-0.0243 0.55975,-0.0487 1.28985,-0.12169 0.43807,0 0.43807,0.31638 0,0.17036 -0.14602,0.31638 -0.55975,0.43807 -0.90047,0.73011 -0.65709,0.55974 -0.65709,1.02214 l 0,14.35873 q 0,2.04429 1.04648,3.2368 0.34072,0.38939 1.5819,1.1925 0.17035,0.0974 0.17035,0.31638 0,0.0974 -0.073,0.21903 z"
         inkscape:connector-curvature="0" />
      <path
         d="m 328.26708,258.95478 c -0.0817,2.40281 -0.57705,4.69375 -1.47883,6.87459 -0.90134,2.16487 -2.19095,4.15485 -3.86333,5.97496 0.0476,0.001 0.12659,0.0118 0.23708,0.0313 0.12456,0.004 0.29553,0.009 0.49937,0.0149 0.49148,0.0148 0.952,0.005 1.38169,-0.0307 0.4302,-0.0516 0.8559,-0.20869 1.27745,-0.47131 0.4231,-0.32717 0.7015,-0.53828 0.83117,-0.63106 0.0329,-0.0314 0.0813,-0.0542 0.14534,-0.0683 0.0482,-0.0146 0.0802,-0.0217 0.0961,-0.0211 0.17469,0.006 0.21733,0.15355 0.12812,0.44313 -0.04,0.24247 -0.0816,0.53364 -0.12479,0.87353 -0.0432,0.33987 -0.0667,0.56669 -0.0705,0.68031 -0.008,0.24354 -0.009,0.50356 -0.002,0.78009 0.007,0.2603 0.0215,0.53708 0.0434,0.83037 0.0523,0.32682 -0.0165,0.48705 -0.20628,0.48077 -0.0791,-0.003 -0.15713,-0.0377 -0.23408,-0.10529 -0.46538,-0.29154 -0.7922,-0.48095 -0.97938,-0.56817 -0.3593,-0.1578 -0.70447,-0.26623 -1.03536,-0.3253 -0.31491,-0.0585 -0.81312,-0.0984 -1.49356,-0.11871 -0.45891,-0.0137 -0.82332,-0.0162 -1.09273,-0.008 -0.26943,0.008 -0.62699,0.047 -1.07217,0.11587 -0.46098,0.0684 -0.68636,-0.0839 -0.67612,-0.45747 0.003,-0.11369 0.0295,-0.2105 0.0792,-0.29041 0.89299,-1.34204 1.59092,-2.44935 2.09435,-3.32972 0.78823,-1.39127 1.38564,-2.68913 1.79011,-3.89595 0.49266,-1.48016 0.76468,-2.99124 0.81335,-4.53387 0.0804,-2.54952 -0.41488,-4.63748 -1.49463,-6.26344 -1.12523,-1.70801 -2.70091,-2.59141 -4.72111,-2.64295 -1.35736,-0.0346 -2.58744,0.3188 -3.68608,1.0589 -0.98395,0.6614 -1.80184,1.59583 -2.45323,2.80237 l -0.28458,14.96185 c -0.006,0.29244 0.16295,0.59623 0.50504,0.91173 0.29557,0.26584 0.59106,0.5237 0.88649,0.77358 0.17027,0.18228 0.25381,0.34658 0.25075,0.49277 -0.003,0.16246 -0.13943,0.24083 -0.40802,0.23532 -0.0798,-0.002 -0.43317,-0.0333 -1.06502,-0.0943 -0.63099,-0.061 -1.2072,-0.0958 -1.72841,-0.1049 -0.60008,-0.0104 -1.08224,-0.002 -1.44579,0.0248 -0.34802,0.027 -0.75079,0.0534 -1.20913,0.0793 -0.37877,-0.005 -0.56698,-0.0973 -0.56457,-0.27602 0.002,-0.1137 0.0744,-0.25084 0.2188,-0.41131 0.14435,-0.16043 0.37644,-0.3685 0.69637,-0.62374 0.54372,-0.41451 0.81845,-0.76745 0.82298,-1.05996 l 0.22357,-14.42609 c 0.0214,-1.38089 -0.37203,-2.50828 -1.18476,-3.3809 -0.35032,-0.3784 -0.96773,-0.80962 -1.85294,-1.29092 -0.12883,-0.0664 -0.19262,-0.15651 -0.1913,-0.27026 0.001,-0.11372 0.0512,-0.21877 0.14956,-0.31513 0.21302,-0.1925 0.39333,-0.34474 0.54069,-0.45668 0.14762,-0.12822 0.33633,-0.30455 0.56652,-0.52912 0.2302,-0.22458 0.41121,-0.40893 0.54315,-0.55345 0.1319,-0.14446 0.25573,-0.289 0.3715,-0.43363 0.0661,-0.0803 0.15609,-0.11969 0.26977,-0.11808 0.0975,0.001 0.17021,0.0268 0.21822,0.0762 0.57779,0.47956 1.18428,1.14708 1.818,2.00265 0.87133,1.16804 1.36964,2.17754 1.49914,3.02461 0.73192,-1.15657 1.61692,-2.15494 2.65514,-2.99415 1.54895,-1.25078 3.11383,-1.8554 4.68513,-1.81401 2.91656,0.0768 5.12534,1.24475 6.6178,3.4875 1.18514,1.77812 1.7366,3.73997 1.66371,5.88279 0,0 9e-5,-3e-5 9e-5,-3e-5 z"
         style="fill:#ffffff;fill-opacity:1;stroke-width:1.0837059px"
         id="path23726"
         inkscape:original-d="m 330.19355,264.25583 q 0,3.60185 -1.26552,6.91166 -1.26551,3.28547 -3.74787,6.0842 0.073,0 0.24337,0.0243 0.19469,0 0.51107,0 0.75444,0 1.41154,-0.073 0.65709,-0.0974 1.28985,-0.51107 0.63276,-0.51108 0.82745,-0.6571 0.0487,-0.0487 0.14602,-0.073 0.073,-0.0243 0.0974,-0.0243 0.2677,0 0.14602,0.43807 -0.0487,0.36505 -0.0974,0.87612 -0.0487,0.51108 -0.0487,0.68143 0,0.36506 0.0243,0.77878 0.0243,0.38939 0.073,0.82745 0.0973,0.48674 -0.1947,0.48674 -0.12168,0 -0.24337,-0.0974 -0.7301,-0.41372 -1.02214,-0.53541 -0.55975,-0.21903 -1.07082,-0.29204 -0.48674,-0.073 -1.53322,-0.073 -0.70577,0 -1.1195,0.0243 -0.41372,0.0243 -1.09515,0.14602 -0.70577,0.12168 -0.70577,-0.43806 0,-0.17036 0.073,-0.29205 1.31419,-2.04429 2.04429,-3.38281 1.14383,-2.11731 1.70358,-3.94257 0.68143,-2.23899 0.68143,-4.55099 0,-3.82088 -1.70358,-6.20589 -1.77659,-2.50669 -4.81869,-2.50669 -2.04429,0 -3.67486,1.14383 -1.46021,1.02215 -2.40934,2.84741 l 0,14.94281 q 0,0.43806 0.53541,0.90046 0.46239,0.38939 0.92479,0.75444 0.26771,0.26771 0.26771,0.48674 0,0.24337 -0.41373,0.24337 -0.12168,0 -1.09515,-0.073 -0.97348,-0.073 -1.77659,-0.073 -0.9248,0 -1.48455,0.0487 -0.53541,0.0487 -1.24118,0.0974 -0.58408,0 -0.58408,-0.26771 0,-0.17035 0.21903,-0.41372 0.21903,-0.24337 0.70577,-0.63276 0.82745,-0.63276 0.82745,-1.07082 l 0,-14.4074 q 0,-2.06863 -1.24118,-3.35848 -0.53541,-0.55975 -1.87393,-1.26552 -0.1947,-0.0973 -0.1947,-0.2677 0,-0.17036 0.14602,-0.31638 0.31638,-0.29204 0.53541,-0.4624 0.21904,-0.19469 0.55975,-0.53541 0.34072,-0.34072 0.53541,-0.55975 0.1947,-0.21903 0.36505,-0.43806 0.0974,-0.12168 0.26771,-0.12168 0.14602,0 0.21903,0.073 0.87613,0.70576 1.8496,1.97128 1.33852,1.72791 1.55756,2.99343 1.07082,-1.75225 2.60404,-3.0421 2.28766,-1.92261 4.64833,-1.92261 4.38063,0 6.7413,3.28547 1.87394,2.60404 1.87394,5.8165 z"
         inkscape:connector-curvature="0" />
      <path
         d="m 341.51748,244.22076 c -0.0245,0.56755 -0.26362,1.04421 -0.71681,1.43027 -0.4364,0.37058 -0.95303,0.54284 -1.55046,0.517 -0.5813,-0.0251 -1.06522,-0.25695 -1.45208,-0.6958 -0.38686,-0.43883 -0.56882,-0.95016 -0.54519,-1.53423 0.0236,-0.58405 0.26219,-1.06972 0.71612,-1.45674 0.45389,-0.38699 0.97262,-0.56783 1.55551,-0.54238 0.58289,0.0254 1.06725,0.26633 1.45279,0.72225 0.38554,0.45592 0.56536,0.97588 0.54012,1.55963 z m -0.74722,29.40551 c 0.18188,0.20269 0.26993,0.36892 0.26426,0.49863 -0.009,0.19458 -0.18721,0.28438 -0.53601,0.26958 -0.28541,-0.0121 -0.52286,-0.0302 -0.71244,-0.0544 -0.979,-0.12232 -1.62836,-0.1895 -1.94491,-0.20243 -0.57069,-0.0233 -1.03909,-0.0259 -1.40493,-0.008 -0.35014,0.0185 -0.75544,0.035 -1.21642,0.0495 -0.38033,-0.0149 -0.56667,-0.11954 -0.55898,-0.31427 0.004,-0.0973 0.0889,-0.24032 0.25512,-0.42885 0.4094,-0.30917 0.71272,-0.54883 0.91042,-0.71987 0.37798,-0.31003 0.57276,-0.60278 0.58398,-0.87859 l 0.6649,-16.35271 c 0.033,-0.81115 -0.13764,-1.36258 -0.51241,-1.65421 -0.49051,-0.1986 -0.83287,-0.33474 -1.02264,-0.40714 -0.19046,-0.0726 -0.28317,-0.17383 -0.27807,-0.30367 0.004,-0.0974 0.0804,-0.19994 0.22971,-0.3077 0.16535,-0.10708 0.43707,-0.25058 0.81499,-0.43015 0.559,-0.26977 0.99519,-0.49524 1.30909,-0.67719 0.77601,-0.43896 1.37938,-0.80276 1.81117,-1.09302 0.44735,-0.30496 0.73168,-0.49699 0.84685,-0.5725 0.11616,-0.0762 0.19841,-0.11316 0.24671,-0.11103 0.22543,0.01 0.29156,0.15908 0.19855,0.44742 -0.0958,0.35323 -0.20161,0.94162 -0.31737,1.76519 -0.0997,0.82433 -0.17364,1.80397 -0.22212,2.93926 l -0.72091,16.88247 c -0.0111,0.25949 0.14352,0.55026 0.46354,0.87244 0.27449,0.27152 0.55714,0.53531 0.84795,0.79138 0,0 -3e-5,-1.2e-4 -3e-5,-1.2e-4 z"
         style="fill:#ffffff;fill-opacity:1;stroke-width:1.0837059px"
         id="path23728"
         inkscape:original-d="m 342.94604,249.02098 q 0,0.85179 -0.65709,1.46021 -0.63276,0.58408 -1.53322,0.58408 -0.87613,0 -1.48455,-0.63276 -0.60842,-0.63275 -0.60842,-1.50888 0,-0.87613 0.6571,-1.48455 0.65709,-0.60842 1.53322,-0.60842 0.87612,0 1.48454,0.6571 0.60842,0.65709 0.60842,1.53322 z m 0.53541,29.39888 q 0.29204,0.29204 0.29204,0.48674 0,0.29204 -0.53541,0.29204 -0.43806,0 -0.7301,-0.0243 -1.50888,-0.12168 -1.99562,-0.12168 -0.87613,0 -1.43587,0.0487 -0.53541,0.0487 -1.24118,0.0974 -0.58408,0 -0.58408,-0.29204 0,-0.14602 0.24336,-0.43807 0.60842,-0.48673 0.90047,-0.75444 0.55974,-0.48673 0.55974,-0.90046 l 0,-16.35435 q 0,-1.21684 -0.58408,-1.63056 -0.75444,-0.26771 -1.04648,-0.36506 -0.29205,-0.0973 -0.29205,-0.29204 0,-0.14602 0.21904,-0.31638 0.24336,-0.17035 0.80311,-0.4624 0.82745,-0.43806 1.28985,-0.7301 1.14383,-0.70577 1.77659,-1.16817 0.65709,-0.48673 0.82745,-0.60842 0.17036,-0.12168 0.24337,-0.12168 0.34072,0 0.21903,0.43806 -0.12168,0.53541 -0.24337,1.77659 -0.0973,1.24118 -0.0973,2.94475 l 0,16.88976 q 0,0.38939 0.51107,0.85179 0.43806,0.38939 0.90046,0.75444 z"
         inkscape:connector-curvature="0" />
      <path
         d="m 371.39372,264.46193 c -0.19161,3.40296 -1.58356,6.24101 -4.16855,8.51936 -2.51778,2.2171 -5.39392,3.23745 -8.6331,3.0664 -3.4138,-0.18028 -6.23032,-1.53281 -8.46375,-4.06245 -2.21603,-2.54426 -3.24965,-5.55723 -3.08612,-9.0414 0.15899,-3.38754 1.49257,-6.22437 4.0151,-8.50639 2.53858,-2.29673 5.50675,-3.35782 8.8896,-3.17985 3.39893,0.17882 6.20738,1.55985 8.42176,4.13657 2.21446,2.5768 3.22028,5.60083 3.02506,9.06776 z m -2.11743,0.95398 c 0.14928,-2.67288 -0.92046,-5.28584 -3.21715,-7.83312 -2.3723,-2.63284 -5.05987,-4.02893 -8.05644,-4.18446 -2.33943,-0.12143 -4.36936,0.58901 -6.08329,2.12917 -1.71423,1.54043 -2.62121,3.41382 -2.72714,5.61796 -0.15343,3.19255 0.94794,6.08785 3.28934,8.6899 2.29667,2.55168 4.89287,3.90439 7.80191,4.05966 2.30489,0.12302 4.30214,-0.53135 5.99401,-1.96573 1.84304,-1.57218 2.84402,-3.74258 2.99876,-6.51338 z"
         style="fill:#ffffff;fill-opacity:1;stroke-width:1.0837059px"
         id="path23730"
         inkscape:original-d="m 374.14585,267.71166 q 0,5.11073 -3.74787,8.73692 -3.65052,3.52884 -8.61523,3.52884 -5.23242,0 -8.83427,-3.62619 -3.57751,-3.65052 -3.57751,-8.88294 0,-5.0864 3.65052,-8.68825 3.67486,-3.62618 8.80993,-3.62618 5.15941,0 8.73692,3.67486 3.57751,3.67486 3.57751,8.88294 z m -2.09296,1.07082 q 0,-4.01558 -3.6992,-7.64176 -3.82088,-3.74788 -8.37187,-3.74788 -3.55317,0 -6.03553,2.43369 -2.48236,2.43368 -2.48236,5.74349 0,4.79435 3.77221,8.51789 3.6992,3.65052 8.15284,3.65052 3.52884,0 5.98686,-2.28766 2.67705,-2.50669 2.67705,-6.66829 z"
         inkscape:connector-curvature="0" />
      <path
         d="m 405.7231,273.83025 c -0.22905,0.3775 -0.45772,0.74687 -0.686,1.10811 -0.21408,0.39453 -0.40424,0.79036 -0.57046,1.1875 -0.14934,0.38183 -0.26585,0.74919 -0.34949,1.10212 -0.0837,0.35293 -0.15889,0.69819 -0.22564,1.03579 -0.0774,0.2395 -0.18816,0.35528 -0.33211,0.34734 -0.08,-0.004 -0.16664,-0.0336 -0.25993,-0.0875 -1.0911,-0.58037 -2.18993,-1.00729 -3.29701,-1.2807 -1.50296,-0.36062 -3.20488,-0.59507 -5.10533,-0.70348 -2.31589,-0.13212 -4.31577,-0.0198 -6.0017,0.33822 -0.097,0.0267 -0.93787,0.28753 -2.5183,0.78121 -0.21111,0.0529 -0.31105,-0.0179 -0.29981,-0.21238 -2.3e-4,0.001 0.0382,-0.2431 0.0379,-0.24165 0.14348,-0.54441 0.60171,-1.41197 1.37475,-2.60277 0.72049,-1.11255 1.47712,-2.15799 2.26983,-3.13639 1.49774,-1.8162 3.53663,-3.74564 6.11778,-5.79328 2.5973,-2.06236 4.264,-3.56151 5.00352,-4.49504 1.3923,-1.74217 2.1547,-3.82865 2.29018,-6.25901 0.10748,-1.92792 -0.41291,-3.60681 -1.55982,-5.03648 -1.19198,-1.48112 -2.78044,-2.27816 -4.76831,-2.39182 -1.7176,-0.0982 -3.19428,0.31255 -4.42962,1.23296 -1.2354,0.92043 -1.89187,2.04461 -1.96852,3.37322 -0.0542,0.9397 0.0926,1.72029 0.44053,2.34182 0.40603,0.72241 1.00746,1.10658 1.80407,1.15243 0.38236,0.022 0.70423,-0.0164 0.96561,-0.11516 0.27824,-0.11405 0.56158,-0.31722 0.84997,-0.60951 0.10112,-0.0917 0.18678,-0.19247 0.25697,-0.30223 0.0711,-0.12596 0.13519,-0.26858 0.19227,-0.42786 0.057,-0.15928 0.16518,-0.23435 0.32441,-0.22523 0.24177,0.24142 0.38949,0.59123 0.44317,1.04943 0.0546,0.442 0.0717,0.84121 0.0514,1.19765 -0.1054,0.72542 -0.52373,1.33544 -1.25532,1.8299 -0.71477,0.47918 -1.51048,0.69355 -2.38703,0.64309 -1.19531,-0.0688 -2.15516,-0.62003 -2.87923,-1.65343 -0.7072,-1.0487 -1.0229,-2.22922 -0.94708,-3.54155 0.12638,-2.18741 1.11709,-3.96659 2.97038,-5.33904 1.75292,-1.29686 3.7904,-1.87833 6.1116,-1.74575 2.73442,0.15617 4.92418,1.00286 6.57443,2.54135 1.86121,1.74486 2.71172,4.10784 2.54827,7.08876 -0.0862,1.57165 -0.5225,2.98592 -1.31032,4.24259 -0.63024,1.00531 -1.60641,2.04832 -2.92953,3.12832 -0.40112,0.33406 -1.67069,1.27299 -3.80411,2.80905 -1.26616,0.88735 -2.52471,1.77453 -3.77595,2.66207 -1.31877,0.94872 -2.36976,1.83094 -3.15319,2.64751 -1.00379,1.03136 -1.9739,2.30841 -2.91022,3.83116 1.50809,-0.61198 3.04463,-1.0193 4.60966,-1.2222 1.58207,-0.21822 3.35468,-0.27143 5.31913,-0.16049 0.49601,0.028 1.45808,0.12294 2.89227,0.28433 0.22367,0.0125 0.46377,0.0178 0.7203,0.0158 0.25653,-0.002 0.57835,-0.0247 0.96541,-0.0683 0.38707,-0.0436 0.82569,-0.14935 1.31577,-0.31734 0.31074,-0.11289 0.6299,-0.23349 0.95747,-0.36179 0.14647,-0.0407 0.24989,-0.0269 0.31025,0.0413 0.0604,0.0683 0.0626,0.1741 0.007,0.31726 0,0 8e-5,-1e-5 8e-5,-1e-5 z"
         style="fill:#ffffff;fill-opacity:1;stroke-width:1.0837059px"
         id="path23732"
         inkscape:original-d="m 409.48293,275.11005 q -0.31638,0.58409 -0.63276,1.14383 -0.29204,0.60842 -0.51107,1.21684 -0.1947,0.58409 -0.29204,1.1195 -0.0974,0.53541 -0.17036,1.04648 -0.0974,0.36505 -0.31638,0.36505 -0.12168,0 -0.26771,-0.073 -1.70357,-0.77877 -3.40715,-1.09515 -2.312,-0.41373 -5.20808,-0.41373 -3.52884,0 -6.05987,0.68143 -0.14602,0.0487 -2.50669,0.9248 -0.31638,0.0974 -0.31638,-0.19469 l 0.0243,-0.24337 q 0.17035,-0.82745 1.24117,-2.67705 0.99781,-1.72792 2.11731,-3.26114 2.1173,-2.84741 5.86517,-6.13288 3.77221,-3.3098 4.81869,-4.77001 1.97129,-2.72573 1.97129,-6.37625 0,-2.89608 -1.87394,-4.94038 -1.94695,-2.1173 -4.98905,-2.1173 -2.62838,0 -4.4293,1.48455 -1.80093,1.48454 -1.80093,3.48016 0,1.41154 0.58409,2.312 0.68143,1.04648 1.89827,1.04648 0.58408,0 0.97347,-0.17036 0.41373,-0.19469 0.82746,-0.65709 0.14602,-0.14602 0.24336,-0.31638 0.0973,-0.19469 0.17036,-0.43806 0.073,-0.24337 0.31638,-0.24337 0.38939,0.34072 0.51107,1.02215 0.12169,0.65709 0.12169,1.1925 -0.0974,1.09516 -1.16817,1.89827 -1.04648,0.77878 -2.38501,0.77878 -1.82526,0 -3.01777,-1.48454 -1.16816,-1.50889 -1.16816,-3.48017 0,-3.28547 2.70138,-5.50012 2.55537,-2.09297 6.10855,-2.09297 4.18593,0 6.83865,2.16598 2.99342,2.45802 2.99342,6.93599 0,2.36068 -1.09515,4.30762 -0.87613,1.55756 -2.79874,3.28547 -0.58408,0.53541 -3.69919,3.01777 -1.8496,1.43587 -3.67487,2.87174 -1.9226,1.53322 -3.0421,2.82308 -1.43587,1.63056 -2.72572,3.99123 2.23899,-1.04648 4.59966,-1.48454 2.38501,-0.4624 5.37844,-0.4624 0.75444,0 2.94475,0.12168 0.34072,0 0.73011,-0.0243 0.38939,-0.0243 0.97347,-0.12169 0.58408,-0.0974 1.31419,-0.38939 0.4624,-0.19469 0.94913,-0.41372 0.21904,-0.073 0.31638,0.0243 0.0974,0.0974 0.0243,0.31638 z"
         inkscape:connector-curvature="0" />
      <path
         d="m 434.56546,263.73324 c -0.17109,4.21463 -1.48455,7.91102 -3.96523,11.08567 -2.58148,3.29903 -5.57017,4.87016 -8.94092,4.70849 -3.25849,-0.15629 -5.7826,-1.60107 -7.56659,-4.32499 -1.76764,-2.74004 -2.5282,-6.33869 -2.29244,-10.79469 0.13289,-2.51176 0.79324,-5.02717 1.97627,-7.54875 0.96861,-2.07763 2.03738,-3.67935 3.20651,-4.80536 0.25001,-0.23088 0.41247,-0.30383 0.48754,-0.21876 0.0751,0.0851 0.10972,0.18429 0.10396,0.29772 -0.005,0.0972 -0.0165,0.16974 -0.0348,0.21754 -0.0366,0.0956 -0.0728,0.18312 -0.10859,0.26253 -0.63867,1.31579 -1.18545,2.83113 -1.63986,4.54606 -0.45443,1.71502 -0.7237,3.37435 -0.80661,4.97859 -0.23452,4.53736 0.34798,8.24688 1.75733,11.12924 1.409,2.88162 3.38369,4.38538 5.91793,4.50575 2.3737,0.11275 4.31334,-0.7904 5.81076,-2.70516 1.70292,-2.18312 2.64192,-5.46971 2.82988,-9.86285 0.19479,-4.55295 -0.4838,-8.43224 -2.01968,-11.63322 -1.47845,-3.08629 -3.29967,-4.68034 -5.47791,-4.78489 -1.98867,-0.0955 -3.02555,0.68036 -3.10708,2.33365 -0.02,0.40511 0.0819,0.75128 0.30574,1.03848 0.24047,0.27177 0.52696,0.4158 0.8593,0.43205 0.23739,0.0116 0.44744,-0.0675 0.63009,-0.23732 0.16913,-0.21911 0.28776,-0.37594 0.35567,-0.47004 0.068,-0.0942 0.1573,-0.13857 0.26796,-0.13323 0.0949,0.005 0.16215,0.089 0.20183,0.25337 0.0555,0.16508 0.0748,0.42589 0.0577,0.7824 -0.005,0.11341 -0.0412,0.3635 -0.1073,0.75012 -0.0653,0.3704 -0.32104,0.73985 -0.7675,1.10804 -0.44568,0.35197 -0.92228,0.51553 -1.42944,0.49058 -0.79246,-0.039 -1.43435,-0.3959 -1.92488,-1.07029 -0.48976,-0.69066 -0.70938,-1.53026 -0.65959,-2.51873 0.0588,-1.16681 0.65347,-2.10299 1.7816,-2.81027 1.14397,-0.70651 2.46467,-1.02324 3.96335,-0.95159 3.09155,0.14778 5.62099,1.75503 7.60897,4.82803 1.98692,3.07135 2.90248,6.77919 2.72619,11.12184 0,0 -1.3e-4,-10e-6 -1.3e-4,-10e-6 z"
         style="fill:#ffffff;fill-opacity:1;stroke-width:1.0837059px"
         id="path23734"
         inkscape:original-d="m 438.24905,263.62307 q 0,6.32758 -3.55318,11.24361 -3.6992,5.11074 -8.80993,5.11074 -4.94038,0 -7.86079,-3.94257 -2.89609,-3.9669 -2.89609,-10.65953 0,-3.7722 1.60623,-7.64176 1.31419,-3.18812 3.01777,-4.96471 0.36505,-0.36505 0.48674,-0.24337 0.12168,0.12168 0.12168,0.29204 0,0.14602 -0.0243,0.21903 -0.0487,0.14602 -0.0973,0.26771 -0.87613,2.01995 -1.43588,4.62399 -0.55974,2.60404 -0.55974,5.01339 0,6.81431 2.36067,11.02458 2.36067,4.21027 6.20589,4.21027 3.60185,0 5.74349,-2.96909 2.43368,-3.38282 2.43368,-9.9781 0,-6.83865 -2.5797,-11.53565 -2.48236,-4.52665 -5.84084,-4.52665 -3.06644,0 -3.06644,2.48235 0,0.60842 0.36505,1.02215 0.38939,0.38939 0.90047,0.38939 0.36505,0 0.63275,-0.26771 0.24337,-0.34071 0.34072,-0.48673 0.0974,-0.14602 0.2677,-0.14602 0.14602,0 0.21903,0.24337 0.0974,0.24336 0.0974,0.77877 0,0.17036 -0.073,0.75445 -0.073,0.55974 -0.7301,1.14383 -0.6571,0.55974 -1.43588,0.55974 -1.21684,0 -2.01995,-0.97347 -0.80312,-0.99781 -0.80312,-2.48236 0,-1.75225 1.67924,-2.89608 1.70358,-1.14383 4.01558,-1.14383 4.77002,0 8.03115,4.47798 3.26114,4.47797 3.26114,11.00024 z"
         inkscape:connector-curvature="0" />
      <path
         d="m 448.25003,249.90475 c -0.68803,1.9929 -1.20228,3.61305 -1.54152,4.86962 -0.48157,1.78606 -0.86874,3.7619 -1.16011,5.92698 -0.29131,2.1646 -0.48755,4.78029 -0.58653,7.84363 -0.0712,2.20499 0.0585,4.12361 0.39173,5.75727 0.29233,1.40488 0.81398,2.70335 1.56698,3.89454 0.0775,0.0997 0.11456,0.2063 0.11113,0.31978 -0.003,0.11349 -0.0951,0.21621 -0.2752,0.30809 -0.37274,0.0698 -0.7294,0.1399 -1.07005,0.21037 -0.32454,0.071 -0.69864,0.1808 -1.12254,0.32941 -0.40778,0.14911 -0.77567,0.30742 -1.10372,0.47505 -0.32819,0.18363 -0.55081,0.30641 -0.66537,0.36723 -3e-5,2e-5 -0.12326,0.0688 -0.12329,0.0689 -7e-5,1e-5 -0.21905,0.0413 -0.21912,0.0413 -0.12888,-0.004 -0.22248,-0.0969 -0.28077,-0.27737 -0.2238,-0.52709 -0.38102,-1.57107 -0.47143,-3.13235 -0.0738,-1.57683 -0.0834,-3.1353 -0.0296,-4.67524 0.0969,-2.77318 0.52182,-5.98558 1.26698,-9.64534 0.74489,-3.65842 1.64196,-7.05286 2.68753,-10.18341 -0.49229,0.61702 -1.03762,1.14275 -1.63593,1.57703 -0.79231,0.57381 -1.53649,0.84824 -2.23066,0.8236 -0.52065,-0.0185 -0.98828,-0.19772 -1.40237,-0.53751 -0.39834,-0.33926 -0.58737,-0.77645 -0.56757,-1.31136 0.0108,-0.29176 0.0356,-0.53433 0.0743,-0.72766 0.0544,-0.19277 0.21913,-0.38141 0.4939,-0.56608 -8e-5,-6e-5 0.18455,0.12854 0.18447,0.12849 0.27038,0.36697 0.4676,0.58513 0.59124,0.65451 0.23158,0.1382 0.51281,0.21321 0.84354,0.22492 0.96072,0.034 1.88366,-0.4376 2.76566,-1.41458 0.11188,-0.12337 0.70302,-0.9531 1.75351,-2.47483 0.13207,-0.20679 0.30648,-0.26619 0.52338,-0.1783 0.24775,0.10509 0.46418,0.20911 0.64931,0.31214 0.2008,0.1035 0.36221,0.21385 0.48422,0.33111 0.122,0.11726 0.18109,0.24073 0.17722,0.37043 -0.003,0.0973 -0.0293,0.19384 -0.0793,0.28971 0,0 -4e-5,-2e-5 -4e-5,-2e-5 z"
         style="fill:#ffffff;fill-opacity:1;stroke-width:1.0837059px"
         id="path23736"
         inkscape:original-d="m 451.78032,249.31302 q -0.97347,3.01777 -1.43587,4.91604 -0.6571,2.70138 -0.99781,5.96252 -0.34072,3.26113 -0.34072,7.86079 0,3.30981 0.58409,5.74349 0.51107,2.09297 1.70357,3.84522 0.12169,0.14602 0.12169,0.31638 0,0.17036 -0.26771,0.31638 -0.55974,0.12168 -1.07082,0.24337 -0.48673,0.12168 -1.11949,0.36505 -0.60842,0.24337 -1.09516,0.51107 -0.48673,0.29205 -0.65709,0.38939 l -0.12169,0.073 -0.21903,0.0487 q -0.19469,0 -0.29204,-0.26771 -0.36505,-0.77878 -0.58408,-3.11511 -0.1947,-2.36067 -0.1947,-4.67267 0,-4.1616 0.94914,-9.68606 0.94913,-5.52446 2.40934,-10.27014 -0.7301,0.94914 -1.63056,1.63057 -1.19251,0.90046 -2.26333,0.90046 -0.80311,0 -1.46021,-0.48673 -0.63275,-0.48674 -0.63275,-1.28986 0,-0.43806 0.0487,-0.7301 0.073,-0.29204 0.48674,-0.58408 l 0.19469,0.12168 q 0.43806,0.53541 0.63276,0.63276 0.36505,0.19469 0.87612,0.19469 1.48455,0 2.79874,-1.50888 0.17036,-0.1947 1.72791,-2.53103 0.1947,-0.31638 0.53541,-0.1947 0.38939,0.14602 0.68143,0.29205 0.31638,0.14602 0.51108,0.31637 0.19469,0.17036 0.19469,0.36506 0,0.14602 -0.073,0.29204 z"
         inkscape:connector-curvature="0" />
      <path
         d="m 474.93258,250.27454 c -0.23274,0.32331 -0.80333,0.959 -1.71042,1.89715 -0.93956,0.97174 -1.88296,1.94163 -2.83003,2.90974 -1.18512,1.25985 -2.11306,2.32061 -2.78385,3.19166 -1.61673,2.11776 -2.71907,3.6135 -3.32243,4.53787 -1.03543,1.59275 -1.81368,3.12142 -2.33074,4.58986 -0.58393,1.67779 -0.8947,3.5059 -0.92748,5.48434 -0.0234,1.4111 0.11829,2.54059 0.42656,3.3893 0.30821,0.84851 0.8295,1.51378 1.56461,1.99484 0.11194,0.0665 0.16736,0.14032 0.16622,0.22138 -0.001,0.0973 -0.0752,0.18549 -0.22158,0.26449 -0.32478,0.1413 -0.65798,0.29852 -0.99967,0.47165 -0.34145,0.15692 -0.65882,0.31401 -0.95212,0.47138 -0.53842,0.33175 -1.07735,0.66303 -1.61678,0.99385 -0.0977,0.0388 -0.19539,0.0775 -0.29311,0.11627 -0.11311,-0.002 -0.25691,-0.094 -0.43123,-0.27577 -0.31417,-0.47642 -0.62841,-1.35048 -0.9414,-2.62211 -0.31296,-1.2715 -0.45834,-2.40234 -0.43807,-3.39135 0.0342,-1.67028 0.3246,-3.30274 0.86723,-4.89806 0.45806,-1.35387 1.10656,-2.74428 1.94301,-4.17341 0.47669,-0.80488 1.24083,-1.94717 2.29462,-3.44195 0.90788,-1.26995 2.17599,-2.813 3.80391,-4.64685 1.70568,-1.91203 3.33397,-3.61131 4.88894,-5.09662 -1.04871,0.31957 -1.95073,0.54055 -2.70294,0.66424 -0.75243,0.12372 -1.60674,0.1807 -2.56235,0.17001 -0.82652,-0.009 -2.34499,-0.12443 -4.53266,-0.35483 -1.09604,-0.11543 -2.02738,-0.18141 -2.79619,-0.19647 -0.98802,-0.0194 -1.92914,0.34183 -2.82624,1.08408 -0.80258,0.85488 -1.31755,1.39196 -1.5243,1.59489 -0.1035,0.0462 -0.20702,0.0923 -0.31055,0.13847 -0.0945,-0.002 -0.14031,-0.0602 -0.13752,-0.17372 0.002,-0.0811 0.0367,-0.21001 0.10403,-0.38683 0.0677,-0.19303 0.14323,-0.38588 0.22661,-0.57854 0.43326,-1.01056 0.73389,-1.7438 0.90102,-2.19311 0.20346,-0.64419 0.40653,-1.28844 0.60922,-1.93276 0.0835,-0.22524 0.28205,-0.35048 0.5957,-0.37597 0.33052,-0.0415 1.01794,-0.0585 2.06679,-0.0538 1.05083,-0.0116 1.78836,-0.0146 2.22845,-0.007 0.2344,0.004 0.46878,0.008 0.70314,0.012 0.96875,0.0162 2.02896,0.12962 3.18201,0.33927 2.47519,0.45356 4.25797,0.67772 5.33255,0.68462 1.20167,0.008 2.18553,-0.16714 2.95018,-0.52205 0.28078,-0.129 0.68703,-0.42025 1.21674,-0.87395 -2e-5,1e-5 0.14017,-0.0729 0.14015,-0.0729 -2e-5,0 0.11673,-0.0242 0.11671,-0.0242 0.0933,5e-5 0.17888,0.0326 0.25663,0.0975 0.18658,0.14606 0.37325,0.29205 0.56002,0.43798 0.0778,0.0811 0.11674,0.18651 0.11675,0.3163 -1e-5,2e-5 -0.0701,0.21906 -0.0701,0.21908 0,0 -5e-5,-2e-5 -5e-5,-2e-5 z"
         style="fill:#ffffff;fill-opacity:1;stroke-width:1.0837059px"
         id="path23738"
         inkscape:original-d="m 479.47563,249.26435 q -0.36505,0.48673 -1.77659,1.89827 l -2.92041,2.92042 q -1.82527,1.89827 -2.84741,3.21246 -2.45802,3.18812 -3.35848,4.57532 -1.55756,2.40935 -2.312,4.624 -0.85179,2.53103 -0.85179,5.50012 0,2.1173 0.48673,3.38282 0.48674,1.26551 1.60624,1.97128 0.17035,0.0974 0.17035,0.21903 0,0.14602 -0.21903,0.26771 -0.48674,0.21903 -0.99781,0.48673 -0.51107,0.24337 -0.94913,0.48674 l -1.60623,1.02215 -0.29205,0.12168 q -0.17035,0 -0.43806,-0.2677 -0.48674,-0.70577 -0.99781,-2.60404 -0.51107,-1.89828 -0.51107,-3.38282 0,-2.5067 0.77878,-4.91604 0.65709,-2.0443 1.89827,-4.21027 0.70577,-1.21684 2.28766,-3.48017 1.36286,-1.92261 3.84522,-4.69701 2.60404,-2.89608 5.01338,-5.13507 -1.63056,0.48674 -2.79873,0.68144 -1.16817,0.19469 -2.65272,0.19469 -1.28985,0 -4.697,-0.29204 -1.70358,-0.14602 -2.89608,-0.14602 -1.53322,0 -2.89609,1.14383 -1.21684,1.31419 -1.53322,1.63057 l -0.31638,0.14602 q -0.14602,0 -0.14602,-0.17036 0,-0.12169 0.0974,-0.38939 0.0973,-0.29204 0.21903,-0.58408 0.63276,-1.53322 0.87613,-2.21466 l 0.58408,-1.94694 q 0.12169,-0.34072 0.60842,-0.38939 0.51108,-0.073 2.14164,-0.0974 1.63057,-0.0487 2.312,-0.0487 l 0.73011,0 q 1.50888,0 3.3098,0.29204 3.86956,0.63276 5.5488,0.63276 1.87394,0 3.06644,-0.53541 0.43806,-0.1947 1.26552,-0.87613 l 0.14602,-0.073 0.12168,-0.0243 q 0.14602,0 0.26771,0.0974 l 0.58408,0.43807 q 0.12168,0.12168 0.12168,0.31637 l -0.073,0.21904 z"
         inkscape:connector-curvature="0" />
    </g>
  </g>
</svg>
